G04 #@! TF.FileFunction,Copper,L2,Bot,Signal*
%FSLAX46Y46*%
G04 Gerber Fmt 4.6, Leading zero omitted, Abs format (unit mm)*
G04 Created by KiCad (PCBNEW 0.201506122246+5743~23~ubuntu14.10.1-product) date Sun 14 Jun 2015 08:35:05 PM EDT*
%MOMM*%
G01*
G04 APERTURE LIST*
%ADD10C,0.100000*%
%ADD11R,2.032000X2.032000*%
%ADD12O,2.032000X2.032000*%
%ADD13C,1.400000*%
%ADD14C,0.685800*%
%ADD15C,0.152400*%
G04 APERTURE END LIST*
D10*
D11*
X151942800Y-86258400D03*
D12*
X151942800Y-88798400D03*
D11*
X157632400Y-100025200D03*
D12*
X160172400Y-100025200D03*
D13*
X159274500Y-88900000D03*
X159274500Y-86360000D03*
X169274500Y-88900000D03*
X169274500Y-86360000D03*
D14*
X152806400Y-92049600D03*
X171602400Y-96672400D03*
X163931600Y-91541600D03*
D15*
G36*
X175743400Y-102337400D02*
X175743400Y-102337400D01*
X150138600Y-102337400D01*
X150138600Y-98776121D01*
X156616400Y-98776121D01*
X156529236Y-98793033D01*
X156452626Y-98843358D01*
X156401344Y-98919329D01*
X156383321Y-99009200D01*
X156383321Y-101041200D01*
X156400233Y-101128364D01*
X156450558Y-101204974D01*
X156526529Y-101256256D01*
X156616400Y-101274279D01*
X158648400Y-101274279D01*
X158735564Y-101257367D01*
X158812174Y-101207042D01*
X158863456Y-101131071D01*
X158881479Y-101041200D01*
X158881479Y-99009200D01*
X158864567Y-98922036D01*
X158814242Y-98845426D01*
X158738271Y-98794144D01*
X158648400Y-98776121D01*
X156616400Y-98776121D01*
X150138600Y-98776121D01*
X150138600Y-98756217D01*
X160172400Y-98756217D01*
X159696112Y-98850957D01*
X159292335Y-99120752D01*
X159022540Y-99524529D01*
X158927800Y-100000817D01*
X158927800Y-100049583D01*
X159022540Y-100525871D01*
X159292335Y-100929648D01*
X159696112Y-101199443D01*
X160172400Y-101294183D01*
X160648688Y-101199443D01*
X161052465Y-100929648D01*
X161322260Y-100525871D01*
X161417000Y-100049583D01*
X161417000Y-100000817D01*
X161322260Y-99524529D01*
X161052465Y-99120752D01*
X160648688Y-98850957D01*
X160172400Y-98756217D01*
X150138600Y-98756217D01*
X150138600Y-88849200D01*
X150680172Y-88849200D01*
X150622068Y-89059017D01*
X150622866Y-89063045D01*
X150824615Y-89548017D01*
X151196598Y-89918867D01*
X151682183Y-90119136D01*
X151892000Y-90061095D01*
X151892000Y-88849200D01*
X151993600Y-88849200D01*
X151993600Y-90061095D01*
X152203417Y-90119136D01*
X152689002Y-89918867D01*
X153007548Y-89601291D01*
X157550012Y-89601291D01*
X157318892Y-89696788D01*
X157141910Y-89873462D01*
X157046009Y-90104415D01*
X157045791Y-90354488D01*
X157141288Y-90585608D01*
X157317962Y-90762590D01*
X157548915Y-90858491D01*
X157798988Y-90858709D01*
X158030108Y-90763212D01*
X158207090Y-90586538D01*
X158302991Y-90355585D01*
X158303209Y-90105512D01*
X158207712Y-89874392D01*
X158031038Y-89697410D01*
X157800085Y-89601509D01*
X157550012Y-89601291D01*
X153007548Y-89601291D01*
X153060985Y-89548017D01*
X153262734Y-89063045D01*
X153263532Y-89059017D01*
X153205428Y-88849200D01*
X151993600Y-88849200D01*
X151892000Y-88849200D01*
X151892000Y-88849200D01*
X150680172Y-88849200D01*
X150138600Y-88849200D01*
X150138600Y-85009321D01*
X150926800Y-85009321D01*
X150839636Y-85026233D01*
X150763026Y-85076558D01*
X150711744Y-85152529D01*
X150693721Y-85242400D01*
X150693721Y-87274400D01*
X150710633Y-87361564D01*
X150760958Y-87438174D01*
X150836929Y-87489456D01*
X150926800Y-87507479D01*
X151609892Y-87507479D01*
X151196598Y-87677933D01*
X150824615Y-88048783D01*
X150622866Y-88533755D01*
X150622068Y-88537783D01*
X150680172Y-88747600D01*
X151892000Y-88747600D01*
X151892000Y-88727600D01*
X151993600Y-88727600D01*
X151993600Y-88747600D01*
X153205428Y-88747600D01*
X153263532Y-88537783D01*
X153262734Y-88533755D01*
X153060985Y-88048783D01*
X152983206Y-87971240D01*
X159090600Y-87971240D01*
X158749178Y-88112312D01*
X158487731Y-88373304D01*
X158346062Y-88714480D01*
X158345740Y-89083900D01*
X158486812Y-89425322D01*
X158747804Y-89686769D01*
X159088980Y-89828438D01*
X159458400Y-89828760D01*
X159799822Y-89687688D01*
X160061269Y-89426696D01*
X160202938Y-89085520D01*
X160203260Y-88716100D01*
X160062188Y-88374678D01*
X159801196Y-88113231D01*
X159460020Y-87971562D01*
X159090600Y-87971240D01*
X169090600Y-87971240D01*
X168749178Y-88112312D01*
X168487731Y-88373304D01*
X168346062Y-88714480D01*
X168345740Y-89083900D01*
X168486812Y-89425322D01*
X168747804Y-89686769D01*
X169088980Y-89828438D01*
X169458400Y-89828760D01*
X169799822Y-89687688D01*
X170061269Y-89426696D01*
X170202938Y-89085520D01*
X170203260Y-88716100D01*
X170062188Y-88374678D01*
X169801196Y-88113231D01*
X169460020Y-87971562D01*
X169090600Y-87971240D01*
X159090600Y-87971240D01*
X159090600Y-87971240D01*
X152983206Y-87971240D01*
X152689002Y-87677933D01*
X152275708Y-87507479D01*
X152958800Y-87507479D01*
X153045964Y-87490567D01*
X153122574Y-87440242D01*
X153173856Y-87364271D01*
X153191879Y-87274400D01*
X153191879Y-85712503D01*
X158555161Y-85712503D01*
X158395858Y-85784421D01*
X158242476Y-86164476D01*
X158246210Y-86574298D01*
X158395858Y-86935579D01*
X158555161Y-87007497D01*
X159130816Y-86431842D01*
X159274500Y-86431842D01*
X158627003Y-87079339D01*
X158698921Y-87238642D01*
X159078976Y-87392024D01*
X159488798Y-87388290D01*
X159850079Y-87238642D01*
X159921997Y-87079339D01*
X159274500Y-86431842D01*
X159130816Y-86431842D01*
X159202658Y-86360000D01*
X158555161Y-85712503D01*
X153191879Y-85712503D01*
X153191879Y-85327976D01*
X159470024Y-85327976D01*
X159060202Y-85331710D01*
X158698921Y-85481358D01*
X158627003Y-85640661D01*
X159274500Y-86288158D01*
X159850155Y-85712503D01*
X159993839Y-85712503D01*
X159346342Y-86360000D01*
X159993839Y-87007497D01*
X160153142Y-86935579D01*
X160306524Y-86555524D01*
X160302790Y-86145702D01*
X160153142Y-85784421D01*
X159993839Y-85712503D01*
X159850155Y-85712503D01*
X159921997Y-85640661D01*
X159850079Y-85481358D01*
X159470024Y-85327976D01*
X153191879Y-85327976D01*
X153191879Y-85242400D01*
X153174967Y-85155236D01*
X153124642Y-85078626D01*
X153048671Y-85027344D01*
X152958800Y-85009321D01*
X150926800Y-85009321D01*
X150138600Y-85009321D01*
X150138600Y-84401291D01*
X166500012Y-84401291D01*
X166268892Y-84496788D01*
X166091910Y-84673462D01*
X165996009Y-84904415D01*
X165995791Y-85154488D01*
X166091288Y-85385608D01*
X166267962Y-85562590D01*
X166498915Y-85658491D01*
X166748988Y-85658709D01*
X166980108Y-85563212D01*
X167112310Y-85431240D01*
X169090600Y-85431240D01*
X168749178Y-85572312D01*
X168487731Y-85833304D01*
X168346062Y-86174480D01*
X168345740Y-86543900D01*
X168486812Y-86885322D01*
X168747804Y-87146769D01*
X169088980Y-87288438D01*
X169458400Y-87288760D01*
X169799822Y-87147688D01*
X170061269Y-86886696D01*
X170202938Y-86545520D01*
X170203260Y-86176100D01*
X170062188Y-85834678D01*
X169801196Y-85573231D01*
X169460020Y-85431562D01*
X169090600Y-85431240D01*
X167112310Y-85431240D01*
X167157090Y-85386538D01*
X167252991Y-85155585D01*
X167253209Y-84905512D01*
X167157712Y-84674392D01*
X166981038Y-84497410D01*
X166750085Y-84401509D01*
X166500012Y-84401291D01*
X150138600Y-84401291D01*
X150138600Y-83844600D01*
X175743400Y-83844600D01*
X175743400Y-102337400D01*
X175743400Y-102337400D01*
G37*
X175743400Y-102337400D02*
X175743400Y-102337400D01*
X150138600Y-102337400D01*
X150138600Y-98776121D01*
X156616400Y-98776121D01*
X156529236Y-98793033D01*
X156452626Y-98843358D01*
X156401344Y-98919329D01*
X156383321Y-99009200D01*
X156383321Y-101041200D01*
X156400233Y-101128364D01*
X156450558Y-101204974D01*
X156526529Y-101256256D01*
X156616400Y-101274279D01*
X158648400Y-101274279D01*
X158735564Y-101257367D01*
X158812174Y-101207042D01*
X158863456Y-101131071D01*
X158881479Y-101041200D01*
X158881479Y-99009200D01*
X158864567Y-98922036D01*
X158814242Y-98845426D01*
X158738271Y-98794144D01*
X158648400Y-98776121D01*
X156616400Y-98776121D01*
X150138600Y-98776121D01*
X150138600Y-98756217D01*
X160172400Y-98756217D01*
X159696112Y-98850957D01*
X159292335Y-99120752D01*
X159022540Y-99524529D01*
X158927800Y-100000817D01*
X158927800Y-100049583D01*
X159022540Y-100525871D01*
X159292335Y-100929648D01*
X159696112Y-101199443D01*
X160172400Y-101294183D01*
X160648688Y-101199443D01*
X161052465Y-100929648D01*
X161322260Y-100525871D01*
X161417000Y-100049583D01*
X161417000Y-100000817D01*
X161322260Y-99524529D01*
X161052465Y-99120752D01*
X160648688Y-98850957D01*
X160172400Y-98756217D01*
X150138600Y-98756217D01*
X150138600Y-88849200D01*
X150680172Y-88849200D01*
X150622068Y-89059017D01*
X150622866Y-89063045D01*
X150824615Y-89548017D01*
X151196598Y-89918867D01*
X151682183Y-90119136D01*
X151892000Y-90061095D01*
X151892000Y-88849200D01*
X151993600Y-88849200D01*
X151993600Y-90061095D01*
X152203417Y-90119136D01*
X152689002Y-89918867D01*
X153007548Y-89601291D01*
X157550012Y-89601291D01*
X157318892Y-89696788D01*
X157141910Y-89873462D01*
X157046009Y-90104415D01*
X157045791Y-90354488D01*
X157141288Y-90585608D01*
X157317962Y-90762590D01*
X157548915Y-90858491D01*
X157798988Y-90858709D01*
X158030108Y-90763212D01*
X158207090Y-90586538D01*
X158302991Y-90355585D01*
X158303209Y-90105512D01*
X158207712Y-89874392D01*
X158031038Y-89697410D01*
X157800085Y-89601509D01*
X157550012Y-89601291D01*
X153007548Y-89601291D01*
X153060985Y-89548017D01*
X153262734Y-89063045D01*
X153263532Y-89059017D01*
X153205428Y-88849200D01*
X151993600Y-88849200D01*
X151892000Y-88849200D01*
X151892000Y-88849200D01*
X150680172Y-88849200D01*
X150138600Y-88849200D01*
X150138600Y-85009321D01*
X150926800Y-85009321D01*
X150839636Y-85026233D01*
X150763026Y-85076558D01*
X150711744Y-85152529D01*
X150693721Y-85242400D01*
X150693721Y-87274400D01*
X150710633Y-87361564D01*
X150760958Y-87438174D01*
X150836929Y-87489456D01*
X150926800Y-87507479D01*
X151609892Y-87507479D01*
X151196598Y-87677933D01*
X150824615Y-88048783D01*
X150622866Y-88533755D01*
X150622068Y-88537783D01*
X150680172Y-88747600D01*
X151892000Y-88747600D01*
X151892000Y-88727600D01*
X151993600Y-88727600D01*
X151993600Y-88747600D01*
X153205428Y-88747600D01*
X153263532Y-88537783D01*
X153262734Y-88533755D01*
X153060985Y-88048783D01*
X152983206Y-87971240D01*
X159090600Y-87971240D01*
X158749178Y-88112312D01*
X158487731Y-88373304D01*
X158346062Y-88714480D01*
X158345740Y-89083900D01*
X158486812Y-89425322D01*
X158747804Y-89686769D01*
X159088980Y-89828438D01*
X159458400Y-89828760D01*
X159799822Y-89687688D01*
X160061269Y-89426696D01*
X160202938Y-89085520D01*
X160203260Y-88716100D01*
X160062188Y-88374678D01*
X159801196Y-88113231D01*
X159460020Y-87971562D01*
X159090600Y-87971240D01*
X169090600Y-87971240D01*
X168749178Y-88112312D01*
X168487731Y-88373304D01*
X168346062Y-88714480D01*
X168345740Y-89083900D01*
X168486812Y-89425322D01*
X168747804Y-89686769D01*
X169088980Y-89828438D01*
X169458400Y-89828760D01*
X169799822Y-89687688D01*
X170061269Y-89426696D01*
X170202938Y-89085520D01*
X170203260Y-88716100D01*
X170062188Y-88374678D01*
X169801196Y-88113231D01*
X169460020Y-87971562D01*
X169090600Y-87971240D01*
X159090600Y-87971240D01*
X159090600Y-87971240D01*
X152983206Y-87971240D01*
X152689002Y-87677933D01*
X152275708Y-87507479D01*
X152958800Y-87507479D01*
X153045964Y-87490567D01*
X153122574Y-87440242D01*
X153173856Y-87364271D01*
X153191879Y-87274400D01*
X153191879Y-85712503D01*
X158555161Y-85712503D01*
X158395858Y-85784421D01*
X158242476Y-86164476D01*
X158246210Y-86574298D01*
X158395858Y-86935579D01*
X158555161Y-87007497D01*
X159130816Y-86431842D01*
X159274500Y-86431842D01*
X158627003Y-87079339D01*
X158698921Y-87238642D01*
X159078976Y-87392024D01*
X159488798Y-87388290D01*
X159850079Y-87238642D01*
X159921997Y-87079339D01*
X159274500Y-86431842D01*
X159130816Y-86431842D01*
X159202658Y-86360000D01*
X158555161Y-85712503D01*
X153191879Y-85712503D01*
X153191879Y-85327976D01*
X159470024Y-85327976D01*
X159060202Y-85331710D01*
X158698921Y-85481358D01*
X158627003Y-85640661D01*
X159274500Y-86288158D01*
X159850155Y-85712503D01*
X159993839Y-85712503D01*
X159346342Y-86360000D01*
X159993839Y-87007497D01*
X160153142Y-86935579D01*
X160306524Y-86555524D01*
X160302790Y-86145702D01*
X160153142Y-85784421D01*
X159993839Y-85712503D01*
X159850155Y-85712503D01*
X159921997Y-85640661D01*
X159850079Y-85481358D01*
X159470024Y-85327976D01*
X153191879Y-85327976D01*
X153191879Y-85242400D01*
X153174967Y-85155236D01*
X153124642Y-85078626D01*
X153048671Y-85027344D01*
X152958800Y-85009321D01*
X150926800Y-85009321D01*
X150138600Y-85009321D01*
X150138600Y-84401291D01*
X166500012Y-84401291D01*
X166268892Y-84496788D01*
X166091910Y-84673462D01*
X165996009Y-84904415D01*
X165995791Y-85154488D01*
X166091288Y-85385608D01*
X166267962Y-85562590D01*
X166498915Y-85658491D01*
X166748988Y-85658709D01*
X166980108Y-85563212D01*
X167112310Y-85431240D01*
X169090600Y-85431240D01*
X168749178Y-85572312D01*
X168487731Y-85833304D01*
X168346062Y-86174480D01*
X168345740Y-86543900D01*
X168486812Y-86885322D01*
X168747804Y-87146769D01*
X169088980Y-87288438D01*
X169458400Y-87288760D01*
X169799822Y-87147688D01*
X170061269Y-86886696D01*
X170202938Y-86545520D01*
X170203260Y-86176100D01*
X170062188Y-85834678D01*
X169801196Y-85573231D01*
X169460020Y-85431562D01*
X169090600Y-85431240D01*
X167112310Y-85431240D01*
X167157090Y-85386538D01*
X167252991Y-85155585D01*
X167253209Y-84905512D01*
X167157712Y-84674392D01*
X166981038Y-84497410D01*
X166750085Y-84401509D01*
X166500012Y-84401291D01*
X150138600Y-84401291D01*
X150138600Y-83844600D01*
X175743400Y-83844600D01*
X175743400Y-102337400D01*
M02*
