G04 #@! TF.FileFunction,Copper,L1,Top,Signal*
%FSLAX46Y46*%
G04 Gerber Fmt 4.6, Leading zero omitted, Abs format (unit mm)*
G04 Created by KiCad (PCBNEW 0.201506122246+5743~23~ubuntu14.10.1-product) date Sun 14 Jun 2015 08:35:05 PM EDT*
%MOMM*%
G01*
G04 APERTURE LIST*
%ADD10C,0.100000*%
%ADD11R,1.500000X1.250000*%
%ADD12R,2.032000X2.032000*%
%ADD13O,2.032000X2.032000*%
%ADD14R,1.300000X1.500000*%
%ADD15R,1.500000X1.300000*%
%ADD16R,1.550000X0.600000*%
%ADD17C,1.400000*%
%ADD18C,1.524000*%
%ADD19C,0.685800*%
%ADD20C,0.609600*%
%ADD21C,0.152400*%
G04 APERTURE END LIST*
D10*
D11*
X167456800Y-94284800D03*
X169956800Y-94284800D03*
D12*
X151942800Y-86258400D03*
D13*
X151942800Y-88798400D03*
D12*
X157632400Y-100025200D03*
D13*
X160172400Y-100025200D03*
D14*
X155854400Y-88878400D03*
X155854400Y-86178400D03*
D15*
X167356800Y-92049600D03*
X170056800Y-92049600D03*
X152878800Y-93573600D03*
X155578800Y-93573600D03*
X155629600Y-95605600D03*
X152929600Y-95605600D03*
X170056800Y-96723200D03*
X167356800Y-96723200D03*
D16*
X157980400Y-93040200D03*
X157980400Y-94310200D03*
X157980400Y-95580200D03*
X157980400Y-96850200D03*
X163380400Y-96850200D03*
X163380400Y-95580200D03*
X163380400Y-94310200D03*
X163380400Y-93040200D03*
D17*
X159274500Y-88900000D03*
X159274500Y-86360000D03*
X169274500Y-88900000D03*
X169274500Y-86360000D03*
D18*
X172466000Y-88900000D03*
D19*
X152806400Y-92049600D03*
X171602400Y-96672400D03*
X163931600Y-91541600D03*
D20*
X152878800Y-93573600D02*
X152878800Y-92122000D01*
X152878800Y-92122000D02*
X152806400Y-92049600D01*
X170056800Y-96723200D02*
X171551600Y-96723200D01*
X171551600Y-96723200D02*
X171602400Y-96672400D01*
X167356800Y-92049600D02*
X165862000Y-92049600D01*
X165862000Y-92049600D02*
X164998400Y-92913200D01*
X164592000Y-92913200D02*
X164998400Y-92913200D01*
X166370000Y-94284800D02*
X167456800Y-94284800D01*
X164998400Y-92913200D02*
X166370000Y-94284800D01*
X164592000Y-92964000D02*
X164592000Y-92913200D01*
X164592000Y-92913200D02*
X164592000Y-92202000D01*
X164592000Y-92202000D02*
X163931600Y-91541600D01*
X164592000Y-92964000D02*
X163456600Y-92964000D01*
X163456600Y-92964000D02*
X163380400Y-93040200D01*
X167356800Y-96723200D02*
X166725600Y-96723200D01*
X166725600Y-96723200D02*
X165354000Y-95351600D01*
X165354000Y-95351600D02*
X165354000Y-94894400D01*
X165354000Y-94894400D02*
X164769800Y-94310200D01*
X164769800Y-94310200D02*
X163380400Y-94310200D01*
X157632400Y-100025200D02*
X157632400Y-98806000D01*
X162026600Y-94310200D02*
X163380400Y-94310200D01*
X161442400Y-94894400D02*
X162026600Y-94310200D01*
X161442400Y-96012000D02*
X161442400Y-94894400D01*
X159359600Y-98094800D02*
X161442400Y-96012000D01*
X158343600Y-98094800D02*
X159359600Y-98094800D01*
X157632400Y-98806000D02*
X158343600Y-98094800D01*
X155883600Y-88900000D02*
X159274500Y-88900000D01*
X172466000Y-88900000D02*
X169274500Y-88900000D01*
X169325300Y-88950800D02*
X169274500Y-88900000D01*
X170056800Y-92049600D02*
X170056800Y-89682300D01*
X170056800Y-89682300D02*
X169274500Y-88900000D01*
X169274500Y-88900000D02*
X163576000Y-88900000D01*
X160147000Y-94310200D02*
X157980400Y-94310200D01*
X160782000Y-93675200D02*
X160147000Y-94310200D01*
X160782000Y-91694000D02*
X160782000Y-93675200D01*
X163576000Y-88900000D02*
X160782000Y-91694000D01*
X155578800Y-93573600D02*
X155578800Y-95554800D01*
X155578800Y-95554800D02*
X155629600Y-95605600D01*
X155629600Y-95605600D02*
X157955000Y-95605600D01*
X157955000Y-95605600D02*
X157980400Y-95580200D01*
X163380400Y-95580200D02*
X163380400Y-96850200D01*
D21*
G36*
X175743400Y-102337400D02*
X175743400Y-102337400D01*
X150138600Y-102337400D01*
X150138600Y-96901000D01*
X156957750Y-96901000D01*
X156875200Y-96983550D01*
X156875200Y-97215881D01*
X156925470Y-97337243D01*
X157018357Y-97430130D01*
X157139719Y-97480400D01*
X157847050Y-97480400D01*
X157929600Y-97397850D01*
X157929600Y-96901000D01*
X158031200Y-96901000D01*
X158031200Y-97397850D01*
X158113750Y-97480400D01*
X158821081Y-97480400D01*
X158942443Y-97430130D01*
X159035330Y-97337243D01*
X159085600Y-97215881D01*
X159085600Y-96983550D01*
X159003050Y-96901000D01*
X158031200Y-96901000D01*
X157929600Y-96901000D01*
X157929600Y-96901000D01*
X156957750Y-96901000D01*
X150138600Y-96901000D01*
X150138600Y-95656400D01*
X151931950Y-95656400D01*
X151849400Y-95738950D01*
X151849400Y-96321281D01*
X151899670Y-96442643D01*
X151992557Y-96535530D01*
X152113919Y-96585800D01*
X152796250Y-96585800D01*
X152878800Y-96503250D01*
X152878800Y-95656400D01*
X152980400Y-95656400D01*
X152980400Y-96503250D01*
X153062950Y-96585800D01*
X153745281Y-96585800D01*
X153866643Y-96535530D01*
X153959530Y-96442643D01*
X154009800Y-96321281D01*
X154009800Y-95738950D01*
X153927250Y-95656400D01*
X152980400Y-95656400D01*
X152878800Y-95656400D01*
X152878800Y-95656400D01*
X151931950Y-95656400D01*
X150138600Y-95656400D01*
X150138600Y-94625400D01*
X152113919Y-94625400D01*
X151992557Y-94675670D01*
X151899670Y-94768557D01*
X151849400Y-94889919D01*
X151849400Y-95472250D01*
X151931950Y-95554800D01*
X152878800Y-95554800D01*
X152878800Y-94707950D01*
X152796250Y-94625400D01*
X153062950Y-94625400D01*
X152980400Y-94707950D01*
X152980400Y-95554800D01*
X153927250Y-95554800D01*
X154009800Y-95472250D01*
X154009800Y-94889919D01*
X153959530Y-94768557D01*
X153866643Y-94675670D01*
X153745281Y-94625400D01*
X153062950Y-94625400D01*
X152796250Y-94625400D01*
X152796250Y-94625400D01*
X152113919Y-94625400D01*
X150138600Y-94625400D01*
X150138600Y-91478001D01*
X152693220Y-91478001D01*
X152483094Y-91564824D01*
X152322189Y-91725449D01*
X152235000Y-91935423D01*
X152234801Y-92162780D01*
X152321624Y-92372906D01*
X152345400Y-92396723D01*
X152345400Y-92690521D01*
X152128800Y-92690521D01*
X152041636Y-92707433D01*
X151965026Y-92757758D01*
X151913744Y-92833729D01*
X151895721Y-92923600D01*
X151895721Y-94223600D01*
X151912633Y-94310764D01*
X151962958Y-94387374D01*
X152038929Y-94438656D01*
X152128800Y-94456679D01*
X153628800Y-94456679D01*
X153715964Y-94439767D01*
X153792574Y-94389442D01*
X153843856Y-94313471D01*
X153861879Y-94223600D01*
X153861879Y-92923600D01*
X153844967Y-92836436D01*
X153794642Y-92759826D01*
X153718671Y-92708544D01*
X153628800Y-92690521D01*
X154828800Y-92690521D01*
X154741636Y-92707433D01*
X154665026Y-92757758D01*
X154613744Y-92833729D01*
X154595721Y-92923600D01*
X154595721Y-94223600D01*
X154612633Y-94310764D01*
X154662958Y-94387374D01*
X154738929Y-94438656D01*
X154828800Y-94456679D01*
X155045400Y-94456679D01*
X155045400Y-94722521D01*
X154879600Y-94722521D01*
X154792436Y-94739433D01*
X154715826Y-94789758D01*
X154664544Y-94865729D01*
X154646521Y-94955600D01*
X154646521Y-96255600D01*
X154663433Y-96342764D01*
X154713758Y-96419374D01*
X154789729Y-96470656D01*
X154879600Y-96488679D01*
X156379600Y-96488679D01*
X156466764Y-96471767D01*
X156543374Y-96421442D01*
X156594656Y-96345471D01*
X156612679Y-96255600D01*
X156612679Y-96220000D01*
X157139719Y-96220000D01*
X157018357Y-96270270D01*
X156925470Y-96363157D01*
X156875200Y-96484519D01*
X156875200Y-96716850D01*
X156957750Y-96799400D01*
X157929600Y-96799400D01*
X157929600Y-96302550D01*
X157847050Y-96220000D01*
X158113750Y-96220000D01*
X158031200Y-96302550D01*
X158031200Y-96799400D01*
X159003050Y-96799400D01*
X159085600Y-96716850D01*
X159085600Y-96484519D01*
X159035330Y-96363157D01*
X158942443Y-96270270D01*
X158821081Y-96220000D01*
X158113750Y-96220000D01*
X157847050Y-96220000D01*
X157847050Y-96220000D01*
X157139719Y-96220000D01*
X156612679Y-96220000D01*
X156612679Y-96139000D01*
X157955000Y-96139000D01*
X158084307Y-96113279D01*
X158755400Y-96113279D01*
X158842564Y-96096367D01*
X158919174Y-96046042D01*
X158970456Y-95970071D01*
X158988479Y-95880200D01*
X158988479Y-95280200D01*
X158971567Y-95193036D01*
X158921242Y-95116426D01*
X158845271Y-95065144D01*
X158755400Y-95047121D01*
X157982014Y-95047121D01*
X157980400Y-95046800D01*
X157978786Y-95047121D01*
X157205400Y-95047121D01*
X157118236Y-95064033D01*
X157105803Y-95072200D01*
X156612679Y-95072200D01*
X156612679Y-94955600D01*
X156595767Y-94868436D01*
X156545442Y-94791826D01*
X156469471Y-94740544D01*
X156379600Y-94722521D01*
X156112200Y-94722521D01*
X156112200Y-94456679D01*
X156328800Y-94456679D01*
X156415964Y-94439767D01*
X156492574Y-94389442D01*
X156543856Y-94313471D01*
X156561879Y-94223600D01*
X156561879Y-93091000D01*
X156957750Y-93091000D01*
X156875200Y-93173550D01*
X156875200Y-93405881D01*
X156925470Y-93527243D01*
X157018357Y-93620130D01*
X157139719Y-93670400D01*
X157847050Y-93670400D01*
X157929600Y-93587850D01*
X157929600Y-93091000D01*
X158031200Y-93091000D01*
X158031200Y-93587850D01*
X158113750Y-93670400D01*
X158821081Y-93670400D01*
X158942443Y-93620130D01*
X159035330Y-93527243D01*
X159085600Y-93405881D01*
X159085600Y-93173550D01*
X159003050Y-93091000D01*
X158031200Y-93091000D01*
X157929600Y-93091000D01*
X157929600Y-93091000D01*
X156957750Y-93091000D01*
X156561879Y-93091000D01*
X156561879Y-92923600D01*
X156544967Y-92836436D01*
X156494642Y-92759826D01*
X156418671Y-92708544D01*
X156328800Y-92690521D01*
X154828800Y-92690521D01*
X153628800Y-92690521D01*
X153628800Y-92690521D01*
X153412200Y-92690521D01*
X153412200Y-92410000D01*
X157139719Y-92410000D01*
X157018357Y-92460270D01*
X156925470Y-92553157D01*
X156875200Y-92674519D01*
X156875200Y-92906850D01*
X156957750Y-92989400D01*
X157929600Y-92989400D01*
X157929600Y-92492550D01*
X157847050Y-92410000D01*
X158113750Y-92410000D01*
X158031200Y-92492550D01*
X158031200Y-92989400D01*
X159003050Y-92989400D01*
X159085600Y-92906850D01*
X159085600Y-92674519D01*
X159035330Y-92553157D01*
X158942443Y-92460270D01*
X158821081Y-92410000D01*
X158113750Y-92410000D01*
X157847050Y-92410000D01*
X157847050Y-92410000D01*
X157139719Y-92410000D01*
X153412200Y-92410000D01*
X153412200Y-92122000D01*
X153377987Y-91950002D01*
X153377999Y-91936420D01*
X153372767Y-91923757D01*
X153371597Y-91917877D01*
X153368295Y-91912936D01*
X153291176Y-91726294D01*
X153130551Y-91565389D01*
X152920577Y-91478200D01*
X152693220Y-91478001D01*
X150138600Y-91478001D01*
X150138600Y-86309200D01*
X150679150Y-86309200D01*
X150596600Y-86391750D01*
X150596600Y-87340081D01*
X150646870Y-87461443D01*
X150739757Y-87554330D01*
X150861119Y-87604600D01*
X151663029Y-87604600D01*
X151442129Y-87648540D01*
X151038352Y-87918335D01*
X150768557Y-88322112D01*
X150673817Y-88798400D01*
X150768557Y-89274688D01*
X151038352Y-89678465D01*
X151442129Y-89948260D01*
X151918417Y-90043000D01*
X151967183Y-90043000D01*
X152443471Y-89948260D01*
X152847248Y-89678465D01*
X153117043Y-89274688D01*
X153211783Y-88798400D01*
X153117043Y-88322112D01*
X152847248Y-87918335D01*
X152812806Y-87895321D01*
X155204400Y-87895321D01*
X155117236Y-87912233D01*
X155040626Y-87962558D01*
X154989344Y-88038529D01*
X154971321Y-88128400D01*
X154971321Y-89628400D01*
X154988233Y-89715564D01*
X155038558Y-89792174D01*
X155114529Y-89843456D01*
X155204400Y-89861479D01*
X156504400Y-89861479D01*
X156591564Y-89844567D01*
X156668174Y-89794242D01*
X156719456Y-89718271D01*
X156737479Y-89628400D01*
X156737479Y-89601291D01*
X157550012Y-89601291D01*
X157318892Y-89696788D01*
X157141910Y-89873462D01*
X157046009Y-90104415D01*
X157045791Y-90354488D01*
X157141288Y-90585608D01*
X157317962Y-90762590D01*
X157548915Y-90858491D01*
X157798988Y-90858709D01*
X158030108Y-90763212D01*
X158207090Y-90586538D01*
X158302991Y-90355585D01*
X158303209Y-90105512D01*
X158207712Y-89874392D01*
X158031038Y-89697410D01*
X157800085Y-89601509D01*
X157550012Y-89601291D01*
X156737479Y-89601291D01*
X156737479Y-89433400D01*
X158494876Y-89433400D01*
X158747804Y-89686769D01*
X159088980Y-89828438D01*
X159458400Y-89828760D01*
X159799822Y-89687688D01*
X160061269Y-89426696D01*
X160202938Y-89085520D01*
X160203260Y-88716100D01*
X160062188Y-88374678D01*
X159801196Y-88113231D01*
X159460020Y-87971562D01*
X159090600Y-87971240D01*
X158749178Y-88112312D01*
X158494447Y-88366600D01*
X156737479Y-88366600D01*
X156737479Y-88128400D01*
X156720567Y-88041236D01*
X156670242Y-87964626D01*
X156594271Y-87913344D01*
X156573747Y-87909228D01*
X172269822Y-87909228D01*
X171905603Y-88059721D01*
X171626700Y-88338138D01*
X171614881Y-88366600D01*
X170054124Y-88366600D01*
X169801196Y-88113231D01*
X169460020Y-87971562D01*
X169090600Y-87971240D01*
X168749178Y-88112312D01*
X168494447Y-88366600D01*
X163576005Y-88366600D01*
X163576000Y-88366599D01*
X163371877Y-88407203D01*
X163198829Y-88522829D01*
X160404829Y-91316829D01*
X160289203Y-91489877D01*
X160248600Y-91694000D01*
X160248600Y-93454259D01*
X159926058Y-93776800D01*
X157980400Y-93776800D01*
X157978786Y-93777121D01*
X157205400Y-93777121D01*
X157118236Y-93794033D01*
X157041626Y-93844358D01*
X156990344Y-93920329D01*
X156972321Y-94010200D01*
X156972321Y-94610200D01*
X156989233Y-94697364D01*
X157039558Y-94773974D01*
X157115529Y-94825256D01*
X157205400Y-94843279D01*
X157978786Y-94843279D01*
X157980400Y-94843600D01*
X160147000Y-94843600D01*
X160351123Y-94802997D01*
X160524171Y-94687371D01*
X160524172Y-94687370D01*
X161159168Y-94052373D01*
X161159171Y-94052371D01*
X161274797Y-93879323D01*
X161287114Y-93817403D01*
X161295190Y-93776799D01*
X162026600Y-93776799D01*
X161822477Y-93817403D01*
X161649429Y-93933029D01*
X161649427Y-93933032D01*
X161065229Y-94517229D01*
X160949603Y-94690277D01*
X160909000Y-94894400D01*
X160909000Y-95791058D01*
X159138658Y-97561400D01*
X158343605Y-97561400D01*
X158343600Y-97561399D01*
X158139477Y-97602003D01*
X157966429Y-97717629D01*
X157255229Y-98428829D01*
X157139603Y-98601877D01*
X157104943Y-98776121D01*
X156616400Y-98776121D01*
X156529236Y-98793033D01*
X156452626Y-98843358D01*
X156401344Y-98919329D01*
X156383321Y-99009200D01*
X156383321Y-101041200D01*
X156400233Y-101128364D01*
X156450558Y-101204974D01*
X156526529Y-101256256D01*
X156616400Y-101274279D01*
X158648400Y-101274279D01*
X158735564Y-101257367D01*
X158812174Y-101207042D01*
X158863456Y-101131071D01*
X158881479Y-101041200D01*
X158881479Y-100358108D01*
X159051933Y-100771402D01*
X159422783Y-101143385D01*
X159907755Y-101345134D01*
X159911783Y-101345932D01*
X160121600Y-101287828D01*
X160121600Y-100076000D01*
X160223200Y-100076000D01*
X160223200Y-101287828D01*
X160433017Y-101345932D01*
X160437045Y-101345134D01*
X160922017Y-101143385D01*
X161292867Y-100771402D01*
X161493136Y-100285817D01*
X161435095Y-100076000D01*
X160223200Y-100076000D01*
X160121600Y-100076000D01*
X160121600Y-100076000D01*
X160101600Y-100076000D01*
X160101600Y-99974400D01*
X160121600Y-99974400D01*
X160121600Y-98762572D01*
X159911783Y-98704468D01*
X160433017Y-98704468D01*
X160223200Y-98762572D01*
X160223200Y-99974400D01*
X161435095Y-99974400D01*
X161493136Y-99764583D01*
X161292867Y-99278998D01*
X160922017Y-98907015D01*
X160437045Y-98705266D01*
X160433017Y-98704468D01*
X159911783Y-98704468D01*
X159911783Y-98704468D01*
X159907755Y-98705266D01*
X159422783Y-98907015D01*
X159051933Y-99278998D01*
X158881479Y-99692292D01*
X158881479Y-99009200D01*
X158864567Y-98922036D01*
X158814242Y-98845426D01*
X158738271Y-98794144D01*
X158648400Y-98776121D01*
X158416621Y-98776121D01*
X158564542Y-98628200D01*
X159359600Y-98628200D01*
X159563723Y-98587597D01*
X159736771Y-98471971D01*
X161819571Y-96389171D01*
X161935197Y-96216123D01*
X161975800Y-96012000D01*
X161975800Y-95115342D01*
X162044341Y-95046800D01*
X163380400Y-95046800D01*
X163378786Y-95047121D01*
X162605400Y-95047121D01*
X162518236Y-95064033D01*
X162441626Y-95114358D01*
X162390344Y-95190329D01*
X162372321Y-95280200D01*
X162372321Y-95880200D01*
X162389233Y-95967364D01*
X162439558Y-96043974D01*
X162515529Y-96095256D01*
X162605400Y-96113279D01*
X162847000Y-96113279D01*
X162847000Y-96317121D01*
X162605400Y-96317121D01*
X162518236Y-96334033D01*
X162441626Y-96384358D01*
X162390344Y-96460329D01*
X162372321Y-96550200D01*
X162372321Y-97150200D01*
X162389233Y-97237364D01*
X162439558Y-97313974D01*
X162515529Y-97365256D01*
X162605400Y-97383279D01*
X163378786Y-97383279D01*
X163380400Y-97383600D01*
X163382014Y-97383279D01*
X164155400Y-97383279D01*
X164242564Y-97366367D01*
X164319174Y-97316042D01*
X164370456Y-97240071D01*
X164388479Y-97150200D01*
X164388479Y-96550200D01*
X164371567Y-96463036D01*
X164321242Y-96386426D01*
X164245271Y-96335144D01*
X164155400Y-96317121D01*
X163913800Y-96317121D01*
X163913800Y-96113279D01*
X164155400Y-96113279D01*
X164242564Y-96096367D01*
X164319174Y-96046042D01*
X164370456Y-95970071D01*
X164388479Y-95880200D01*
X164388479Y-95280200D01*
X164371567Y-95193036D01*
X164321242Y-95116426D01*
X164245271Y-95065144D01*
X164155400Y-95047121D01*
X163382014Y-95047121D01*
X163380400Y-95046800D01*
X162044341Y-95046800D01*
X162247541Y-94843600D01*
X164548858Y-94843600D01*
X164820600Y-95115341D01*
X164820600Y-95351600D01*
X164861203Y-95555723D01*
X164976829Y-95728771D01*
X166348429Y-97100371D01*
X166373721Y-97117271D01*
X166373721Y-97373200D01*
X166390633Y-97460364D01*
X166440958Y-97536974D01*
X166516929Y-97588256D01*
X166606800Y-97606279D01*
X168106800Y-97606279D01*
X168193964Y-97589367D01*
X168270574Y-97539042D01*
X168321856Y-97463071D01*
X168339879Y-97373200D01*
X168339879Y-96073200D01*
X168322967Y-95986036D01*
X168272642Y-95909426D01*
X168196671Y-95858144D01*
X168106800Y-95840121D01*
X169306800Y-95840121D01*
X169219636Y-95857033D01*
X169143026Y-95907358D01*
X169091744Y-95983329D01*
X169073721Y-96073200D01*
X169073721Y-97373200D01*
X169090633Y-97460364D01*
X169140958Y-97536974D01*
X169216929Y-97588256D01*
X169306800Y-97606279D01*
X170806800Y-97606279D01*
X170893964Y-97589367D01*
X170970574Y-97539042D01*
X171021856Y-97463071D01*
X171039879Y-97373200D01*
X171039879Y-97256600D01*
X171551600Y-97256600D01*
X171615390Y-97243911D01*
X171715580Y-97243999D01*
X171925706Y-97157176D01*
X172086611Y-96996551D01*
X172173800Y-96786577D01*
X172173999Y-96559220D01*
X172087176Y-96349094D01*
X171926551Y-96188189D01*
X171716577Y-96101000D01*
X171489220Y-96100801D01*
X171279094Y-96187624D01*
X171276914Y-96189800D01*
X171039879Y-96189800D01*
X171039879Y-96073200D01*
X171022967Y-95986036D01*
X170972642Y-95909426D01*
X170896671Y-95858144D01*
X170806800Y-95840121D01*
X169306800Y-95840121D01*
X168106800Y-95840121D01*
X168106800Y-95840121D01*
X166606800Y-95840121D01*
X166598478Y-95841736D01*
X165887400Y-95130658D01*
X165887400Y-94894405D01*
X165887401Y-94894400D01*
X165846797Y-94690277D01*
X165803448Y-94625400D01*
X165731171Y-94517229D01*
X165731168Y-94517227D01*
X165146971Y-93933029D01*
X164973923Y-93817403D01*
X164769800Y-93776800D01*
X162026605Y-93776800D01*
X162026600Y-93776799D01*
X161295190Y-93776799D01*
X161315401Y-93675200D01*
X161315400Y-93675195D01*
X161315400Y-91914942D01*
X162260341Y-90970001D01*
X163818420Y-90970001D01*
X163608294Y-91056824D01*
X163447389Y-91217449D01*
X163360200Y-91427423D01*
X163360001Y-91654780D01*
X163446824Y-91864906D01*
X163607449Y-92025811D01*
X163699828Y-92064170D01*
X164058600Y-92422942D01*
X164058600Y-92430600D01*
X163456600Y-92430600D01*
X163252477Y-92471203D01*
X163198721Y-92507121D01*
X162605400Y-92507121D01*
X162518236Y-92524033D01*
X162441626Y-92574358D01*
X162390344Y-92650329D01*
X162372321Y-92740200D01*
X162372321Y-93340200D01*
X162389233Y-93427364D01*
X162439558Y-93503974D01*
X162515529Y-93555256D01*
X162605400Y-93573279D01*
X163378786Y-93573279D01*
X163380400Y-93573600D01*
X163382014Y-93573279D01*
X164155400Y-93573279D01*
X164242564Y-93556367D01*
X164319174Y-93506042D01*
X164325008Y-93497400D01*
X164592000Y-93497400D01*
X164789060Y-93458202D01*
X165992829Y-94661971D01*
X166165876Y-94777597D01*
X166370000Y-94818200D01*
X166473721Y-94818200D01*
X166473721Y-94909800D01*
X166490633Y-94996964D01*
X166540958Y-95073574D01*
X166616929Y-95124856D01*
X166706800Y-95142879D01*
X168206800Y-95142879D01*
X168293964Y-95125967D01*
X168370574Y-95075642D01*
X168421856Y-94999671D01*
X168439879Y-94909800D01*
X168439879Y-94335600D01*
X168959150Y-94335600D01*
X168876600Y-94418150D01*
X168876600Y-94975481D01*
X168926870Y-95096843D01*
X169019757Y-95189730D01*
X169141119Y-95240000D01*
X169823450Y-95240000D01*
X169906000Y-95157450D01*
X169906000Y-94335600D01*
X170007600Y-94335600D01*
X170007600Y-95157450D01*
X170090150Y-95240000D01*
X170772481Y-95240000D01*
X170893843Y-95189730D01*
X170986730Y-95096843D01*
X171037000Y-94975481D01*
X171037000Y-94418150D01*
X170954450Y-94335600D01*
X170007600Y-94335600D01*
X169906000Y-94335600D01*
X169906000Y-94335600D01*
X168959150Y-94335600D01*
X168439879Y-94335600D01*
X168439879Y-93659800D01*
X168422967Y-93572636D01*
X168372642Y-93496026D01*
X168296671Y-93444744D01*
X168206800Y-93426721D01*
X166706800Y-93426721D01*
X166619636Y-93443633D01*
X166543026Y-93493958D01*
X166491744Y-93569929D01*
X166478001Y-93638459D01*
X166169142Y-93329600D01*
X169141119Y-93329600D01*
X169019757Y-93379870D01*
X168926870Y-93472757D01*
X168876600Y-93594119D01*
X168876600Y-94151450D01*
X168959150Y-94234000D01*
X169906000Y-94234000D01*
X169906000Y-93412150D01*
X169823450Y-93329600D01*
X170090150Y-93329600D01*
X170007600Y-93412150D01*
X170007600Y-94234000D01*
X170954450Y-94234000D01*
X171037000Y-94151450D01*
X171037000Y-93594119D01*
X170986730Y-93472757D01*
X170893843Y-93379870D01*
X170772481Y-93329600D01*
X170090150Y-93329600D01*
X169823450Y-93329600D01*
X169823450Y-93329600D01*
X169141119Y-93329600D01*
X166169142Y-93329600D01*
X165752742Y-92913200D01*
X166082942Y-92583000D01*
X166373721Y-92583000D01*
X166373721Y-92699600D01*
X166390633Y-92786764D01*
X166440958Y-92863374D01*
X166516929Y-92914656D01*
X166606800Y-92932679D01*
X168106800Y-92932679D01*
X168193964Y-92915767D01*
X168270574Y-92865442D01*
X168321856Y-92789471D01*
X168339879Y-92699600D01*
X168339879Y-91399600D01*
X168322967Y-91312436D01*
X168272642Y-91235826D01*
X168196671Y-91184544D01*
X168106800Y-91166521D01*
X166606800Y-91166521D01*
X166519636Y-91183433D01*
X166443026Y-91233758D01*
X166391744Y-91309729D01*
X166373721Y-91399600D01*
X166373721Y-91516200D01*
X165862000Y-91516200D01*
X165657877Y-91556803D01*
X165484829Y-91672429D01*
X165097172Y-92060086D01*
X165084797Y-91997877D01*
X164969171Y-91824829D01*
X164454217Y-91309875D01*
X164416376Y-91218294D01*
X164255751Y-91057389D01*
X164045777Y-90970200D01*
X163818420Y-90970001D01*
X162260341Y-90970001D01*
X163796942Y-89433400D01*
X168494876Y-89433400D01*
X168747804Y-89686769D01*
X169088980Y-89828438D01*
X169448910Y-89828752D01*
X169523400Y-89903242D01*
X169523400Y-91166521D01*
X169306800Y-91166521D01*
X169219636Y-91183433D01*
X169143026Y-91233758D01*
X169091744Y-91309729D01*
X169073721Y-91399600D01*
X169073721Y-92699600D01*
X169090633Y-92786764D01*
X169140958Y-92863374D01*
X169216929Y-92914656D01*
X169306800Y-92932679D01*
X170806800Y-92932679D01*
X170893964Y-92915767D01*
X170970574Y-92865442D01*
X171021856Y-92789471D01*
X171039879Y-92699600D01*
X171039879Y-91399600D01*
X171022967Y-91312436D01*
X170972642Y-91235826D01*
X170896671Y-91184544D01*
X170806800Y-91166521D01*
X170590200Y-91166521D01*
X170590200Y-89682300D01*
X170549597Y-89478177D01*
X170549597Y-89478176D01*
X170519679Y-89433400D01*
X171614566Y-89433400D01*
X171625721Y-89460397D01*
X171904138Y-89739300D01*
X172268093Y-89890428D01*
X172662178Y-89890772D01*
X173026397Y-89740279D01*
X173305300Y-89461862D01*
X173456428Y-89097907D01*
X173456772Y-88703822D01*
X173306279Y-88339603D01*
X173027862Y-88060700D01*
X172663907Y-87909572D01*
X172269822Y-87909228D01*
X156573747Y-87909228D01*
X156504400Y-87895321D01*
X155204400Y-87895321D01*
X152812806Y-87895321D01*
X152443471Y-87648540D01*
X152222571Y-87604600D01*
X153024481Y-87604600D01*
X153145843Y-87554330D01*
X153238730Y-87461443D01*
X153289000Y-87340081D01*
X153289000Y-86391750D01*
X153206450Y-86309200D01*
X151993600Y-86309200D01*
X151993600Y-86329200D01*
X151892000Y-86329200D01*
X151892000Y-86309200D01*
X150679150Y-86309200D01*
X150138600Y-86309200D01*
X150138600Y-86229200D01*
X154956750Y-86229200D01*
X154874200Y-86311750D01*
X154874200Y-86994081D01*
X154924470Y-87115443D01*
X155017357Y-87208330D01*
X155138719Y-87258600D01*
X155721050Y-87258600D01*
X155803600Y-87176050D01*
X155803600Y-86229200D01*
X155905200Y-86229200D01*
X155905200Y-87176050D01*
X155987750Y-87258600D01*
X156570081Y-87258600D01*
X156691443Y-87208330D01*
X156784330Y-87115443D01*
X156834600Y-86994081D01*
X156834600Y-86311750D01*
X156752050Y-86229200D01*
X155905200Y-86229200D01*
X155803600Y-86229200D01*
X155803600Y-86229200D01*
X154956750Y-86229200D01*
X150138600Y-86229200D01*
X150138600Y-84912200D01*
X150861119Y-84912200D01*
X150739757Y-84962470D01*
X150646870Y-85055357D01*
X150596600Y-85176719D01*
X150596600Y-86125050D01*
X150679150Y-86207600D01*
X151892000Y-86207600D01*
X151892000Y-84994750D01*
X151809450Y-84912200D01*
X152076150Y-84912200D01*
X151993600Y-84994750D01*
X151993600Y-86207600D01*
X153206450Y-86207600D01*
X153289000Y-86125050D01*
X153289000Y-85176719D01*
X153256477Y-85098200D01*
X155138719Y-85098200D01*
X155017357Y-85148470D01*
X154924470Y-85241357D01*
X154874200Y-85362719D01*
X154874200Y-86045050D01*
X154956750Y-86127600D01*
X155803600Y-86127600D01*
X155803600Y-85180750D01*
X155721050Y-85098200D01*
X155987750Y-85098200D01*
X155905200Y-85180750D01*
X155905200Y-86127600D01*
X156752050Y-86127600D01*
X156834600Y-86045050D01*
X156834600Y-85431240D01*
X159090600Y-85431240D01*
X158749178Y-85572312D01*
X158487731Y-85833304D01*
X158346062Y-86174480D01*
X158345740Y-86543900D01*
X158486812Y-86885322D01*
X158747804Y-87146769D01*
X159088980Y-87288438D01*
X159458400Y-87288760D01*
X159799822Y-87147688D01*
X160061269Y-86886696D01*
X160202938Y-86545520D01*
X160203260Y-86176100D01*
X160062188Y-85834678D01*
X159940226Y-85712503D01*
X168555161Y-85712503D01*
X168395858Y-85784421D01*
X168242476Y-86164476D01*
X168246210Y-86574298D01*
X168395858Y-86935579D01*
X168555161Y-87007497D01*
X169130816Y-86431842D01*
X169274500Y-86431842D01*
X168627003Y-87079339D01*
X168698921Y-87238642D01*
X169078976Y-87392024D01*
X169488798Y-87388290D01*
X169850079Y-87238642D01*
X169921997Y-87079339D01*
X169274500Y-86431842D01*
X169130816Y-86431842D01*
X169202658Y-86360000D01*
X168555161Y-85712503D01*
X159940226Y-85712503D01*
X159801196Y-85573231D01*
X159460020Y-85431562D01*
X159090600Y-85431240D01*
X156834600Y-85431240D01*
X156834600Y-85362719D01*
X156784330Y-85241357D01*
X156691443Y-85148470D01*
X156570081Y-85098200D01*
X155987750Y-85098200D01*
X155721050Y-85098200D01*
X155721050Y-85098200D01*
X155138719Y-85098200D01*
X153256477Y-85098200D01*
X153238730Y-85055357D01*
X153145843Y-84962470D01*
X153024481Y-84912200D01*
X152076150Y-84912200D01*
X151809450Y-84912200D01*
X151809450Y-84912200D01*
X150861119Y-84912200D01*
X150138600Y-84912200D01*
X150138600Y-84401291D01*
X166500012Y-84401291D01*
X166268892Y-84496788D01*
X166091910Y-84673462D01*
X165996009Y-84904415D01*
X165995791Y-85154488D01*
X166091288Y-85385608D01*
X166267962Y-85562590D01*
X166498915Y-85658491D01*
X166748988Y-85658709D01*
X166980108Y-85563212D01*
X167157090Y-85386538D01*
X167181407Y-85327976D01*
X169470024Y-85327976D01*
X169060202Y-85331710D01*
X168698921Y-85481358D01*
X168627003Y-85640661D01*
X169274500Y-86288158D01*
X169850155Y-85712503D01*
X169993839Y-85712503D01*
X169346342Y-86360000D01*
X169993839Y-87007497D01*
X170153142Y-86935579D01*
X170306524Y-86555524D01*
X170302790Y-86145702D01*
X170153142Y-85784421D01*
X169993839Y-85712503D01*
X169850155Y-85712503D01*
X169921997Y-85640661D01*
X169850079Y-85481358D01*
X169470024Y-85327976D01*
X167181407Y-85327976D01*
X167252991Y-85155585D01*
X167253209Y-84905512D01*
X167157712Y-84674392D01*
X166981038Y-84497410D01*
X166750085Y-84401509D01*
X166500012Y-84401291D01*
X150138600Y-84401291D01*
X150138600Y-83844600D01*
X175743400Y-83844600D01*
X175743400Y-102337400D01*
X175743400Y-102337400D01*
G37*
X175743400Y-102337400D02*
X175743400Y-102337400D01*
X150138600Y-102337400D01*
X150138600Y-96901000D01*
X156957750Y-96901000D01*
X156875200Y-96983550D01*
X156875200Y-97215881D01*
X156925470Y-97337243D01*
X157018357Y-97430130D01*
X157139719Y-97480400D01*
X157847050Y-97480400D01*
X157929600Y-97397850D01*
X157929600Y-96901000D01*
X158031200Y-96901000D01*
X158031200Y-97397850D01*
X158113750Y-97480400D01*
X158821081Y-97480400D01*
X158942443Y-97430130D01*
X159035330Y-97337243D01*
X159085600Y-97215881D01*
X159085600Y-96983550D01*
X159003050Y-96901000D01*
X158031200Y-96901000D01*
X157929600Y-96901000D01*
X157929600Y-96901000D01*
X156957750Y-96901000D01*
X150138600Y-96901000D01*
X150138600Y-95656400D01*
X151931950Y-95656400D01*
X151849400Y-95738950D01*
X151849400Y-96321281D01*
X151899670Y-96442643D01*
X151992557Y-96535530D01*
X152113919Y-96585800D01*
X152796250Y-96585800D01*
X152878800Y-96503250D01*
X152878800Y-95656400D01*
X152980400Y-95656400D01*
X152980400Y-96503250D01*
X153062950Y-96585800D01*
X153745281Y-96585800D01*
X153866643Y-96535530D01*
X153959530Y-96442643D01*
X154009800Y-96321281D01*
X154009800Y-95738950D01*
X153927250Y-95656400D01*
X152980400Y-95656400D01*
X152878800Y-95656400D01*
X152878800Y-95656400D01*
X151931950Y-95656400D01*
X150138600Y-95656400D01*
X150138600Y-94625400D01*
X152113919Y-94625400D01*
X151992557Y-94675670D01*
X151899670Y-94768557D01*
X151849400Y-94889919D01*
X151849400Y-95472250D01*
X151931950Y-95554800D01*
X152878800Y-95554800D01*
X152878800Y-94707950D01*
X152796250Y-94625400D01*
X153062950Y-94625400D01*
X152980400Y-94707950D01*
X152980400Y-95554800D01*
X153927250Y-95554800D01*
X154009800Y-95472250D01*
X154009800Y-94889919D01*
X153959530Y-94768557D01*
X153866643Y-94675670D01*
X153745281Y-94625400D01*
X153062950Y-94625400D01*
X152796250Y-94625400D01*
X152796250Y-94625400D01*
X152113919Y-94625400D01*
X150138600Y-94625400D01*
X150138600Y-91478001D01*
X152693220Y-91478001D01*
X152483094Y-91564824D01*
X152322189Y-91725449D01*
X152235000Y-91935423D01*
X152234801Y-92162780D01*
X152321624Y-92372906D01*
X152345400Y-92396723D01*
X152345400Y-92690521D01*
X152128800Y-92690521D01*
X152041636Y-92707433D01*
X151965026Y-92757758D01*
X151913744Y-92833729D01*
X151895721Y-92923600D01*
X151895721Y-94223600D01*
X151912633Y-94310764D01*
X151962958Y-94387374D01*
X152038929Y-94438656D01*
X152128800Y-94456679D01*
X153628800Y-94456679D01*
X153715964Y-94439767D01*
X153792574Y-94389442D01*
X153843856Y-94313471D01*
X153861879Y-94223600D01*
X153861879Y-92923600D01*
X153844967Y-92836436D01*
X153794642Y-92759826D01*
X153718671Y-92708544D01*
X153628800Y-92690521D01*
X154828800Y-92690521D01*
X154741636Y-92707433D01*
X154665026Y-92757758D01*
X154613744Y-92833729D01*
X154595721Y-92923600D01*
X154595721Y-94223600D01*
X154612633Y-94310764D01*
X154662958Y-94387374D01*
X154738929Y-94438656D01*
X154828800Y-94456679D01*
X155045400Y-94456679D01*
X155045400Y-94722521D01*
X154879600Y-94722521D01*
X154792436Y-94739433D01*
X154715826Y-94789758D01*
X154664544Y-94865729D01*
X154646521Y-94955600D01*
X154646521Y-96255600D01*
X154663433Y-96342764D01*
X154713758Y-96419374D01*
X154789729Y-96470656D01*
X154879600Y-96488679D01*
X156379600Y-96488679D01*
X156466764Y-96471767D01*
X156543374Y-96421442D01*
X156594656Y-96345471D01*
X156612679Y-96255600D01*
X156612679Y-96220000D01*
X157139719Y-96220000D01*
X157018357Y-96270270D01*
X156925470Y-96363157D01*
X156875200Y-96484519D01*
X156875200Y-96716850D01*
X156957750Y-96799400D01*
X157929600Y-96799400D01*
X157929600Y-96302550D01*
X157847050Y-96220000D01*
X158113750Y-96220000D01*
X158031200Y-96302550D01*
X158031200Y-96799400D01*
X159003050Y-96799400D01*
X159085600Y-96716850D01*
X159085600Y-96484519D01*
X159035330Y-96363157D01*
X158942443Y-96270270D01*
X158821081Y-96220000D01*
X158113750Y-96220000D01*
X157847050Y-96220000D01*
X157847050Y-96220000D01*
X157139719Y-96220000D01*
X156612679Y-96220000D01*
X156612679Y-96139000D01*
X157955000Y-96139000D01*
X158084307Y-96113279D01*
X158755400Y-96113279D01*
X158842564Y-96096367D01*
X158919174Y-96046042D01*
X158970456Y-95970071D01*
X158988479Y-95880200D01*
X158988479Y-95280200D01*
X158971567Y-95193036D01*
X158921242Y-95116426D01*
X158845271Y-95065144D01*
X158755400Y-95047121D01*
X157982014Y-95047121D01*
X157980400Y-95046800D01*
X157978786Y-95047121D01*
X157205400Y-95047121D01*
X157118236Y-95064033D01*
X157105803Y-95072200D01*
X156612679Y-95072200D01*
X156612679Y-94955600D01*
X156595767Y-94868436D01*
X156545442Y-94791826D01*
X156469471Y-94740544D01*
X156379600Y-94722521D01*
X156112200Y-94722521D01*
X156112200Y-94456679D01*
X156328800Y-94456679D01*
X156415964Y-94439767D01*
X156492574Y-94389442D01*
X156543856Y-94313471D01*
X156561879Y-94223600D01*
X156561879Y-93091000D01*
X156957750Y-93091000D01*
X156875200Y-93173550D01*
X156875200Y-93405881D01*
X156925470Y-93527243D01*
X157018357Y-93620130D01*
X157139719Y-93670400D01*
X157847050Y-93670400D01*
X157929600Y-93587850D01*
X157929600Y-93091000D01*
X158031200Y-93091000D01*
X158031200Y-93587850D01*
X158113750Y-93670400D01*
X158821081Y-93670400D01*
X158942443Y-93620130D01*
X159035330Y-93527243D01*
X159085600Y-93405881D01*
X159085600Y-93173550D01*
X159003050Y-93091000D01*
X158031200Y-93091000D01*
X157929600Y-93091000D01*
X157929600Y-93091000D01*
X156957750Y-93091000D01*
X156561879Y-93091000D01*
X156561879Y-92923600D01*
X156544967Y-92836436D01*
X156494642Y-92759826D01*
X156418671Y-92708544D01*
X156328800Y-92690521D01*
X154828800Y-92690521D01*
X153628800Y-92690521D01*
X153628800Y-92690521D01*
X153412200Y-92690521D01*
X153412200Y-92410000D01*
X157139719Y-92410000D01*
X157018357Y-92460270D01*
X156925470Y-92553157D01*
X156875200Y-92674519D01*
X156875200Y-92906850D01*
X156957750Y-92989400D01*
X157929600Y-92989400D01*
X157929600Y-92492550D01*
X157847050Y-92410000D01*
X158113750Y-92410000D01*
X158031200Y-92492550D01*
X158031200Y-92989400D01*
X159003050Y-92989400D01*
X159085600Y-92906850D01*
X159085600Y-92674519D01*
X159035330Y-92553157D01*
X158942443Y-92460270D01*
X158821081Y-92410000D01*
X158113750Y-92410000D01*
X157847050Y-92410000D01*
X157847050Y-92410000D01*
X157139719Y-92410000D01*
X153412200Y-92410000D01*
X153412200Y-92122000D01*
X153377987Y-91950002D01*
X153377999Y-91936420D01*
X153372767Y-91923757D01*
X153371597Y-91917877D01*
X153368295Y-91912936D01*
X153291176Y-91726294D01*
X153130551Y-91565389D01*
X152920577Y-91478200D01*
X152693220Y-91478001D01*
X150138600Y-91478001D01*
X150138600Y-86309200D01*
X150679150Y-86309200D01*
X150596600Y-86391750D01*
X150596600Y-87340081D01*
X150646870Y-87461443D01*
X150739757Y-87554330D01*
X150861119Y-87604600D01*
X151663029Y-87604600D01*
X151442129Y-87648540D01*
X151038352Y-87918335D01*
X150768557Y-88322112D01*
X150673817Y-88798400D01*
X150768557Y-89274688D01*
X151038352Y-89678465D01*
X151442129Y-89948260D01*
X151918417Y-90043000D01*
X151967183Y-90043000D01*
X152443471Y-89948260D01*
X152847248Y-89678465D01*
X153117043Y-89274688D01*
X153211783Y-88798400D01*
X153117043Y-88322112D01*
X152847248Y-87918335D01*
X152812806Y-87895321D01*
X155204400Y-87895321D01*
X155117236Y-87912233D01*
X155040626Y-87962558D01*
X154989344Y-88038529D01*
X154971321Y-88128400D01*
X154971321Y-89628400D01*
X154988233Y-89715564D01*
X155038558Y-89792174D01*
X155114529Y-89843456D01*
X155204400Y-89861479D01*
X156504400Y-89861479D01*
X156591564Y-89844567D01*
X156668174Y-89794242D01*
X156719456Y-89718271D01*
X156737479Y-89628400D01*
X156737479Y-89601291D01*
X157550012Y-89601291D01*
X157318892Y-89696788D01*
X157141910Y-89873462D01*
X157046009Y-90104415D01*
X157045791Y-90354488D01*
X157141288Y-90585608D01*
X157317962Y-90762590D01*
X157548915Y-90858491D01*
X157798988Y-90858709D01*
X158030108Y-90763212D01*
X158207090Y-90586538D01*
X158302991Y-90355585D01*
X158303209Y-90105512D01*
X158207712Y-89874392D01*
X158031038Y-89697410D01*
X157800085Y-89601509D01*
X157550012Y-89601291D01*
X156737479Y-89601291D01*
X156737479Y-89433400D01*
X158494876Y-89433400D01*
X158747804Y-89686769D01*
X159088980Y-89828438D01*
X159458400Y-89828760D01*
X159799822Y-89687688D01*
X160061269Y-89426696D01*
X160202938Y-89085520D01*
X160203260Y-88716100D01*
X160062188Y-88374678D01*
X159801196Y-88113231D01*
X159460020Y-87971562D01*
X159090600Y-87971240D01*
X158749178Y-88112312D01*
X158494447Y-88366600D01*
X156737479Y-88366600D01*
X156737479Y-88128400D01*
X156720567Y-88041236D01*
X156670242Y-87964626D01*
X156594271Y-87913344D01*
X156573747Y-87909228D01*
X172269822Y-87909228D01*
X171905603Y-88059721D01*
X171626700Y-88338138D01*
X171614881Y-88366600D01*
X170054124Y-88366600D01*
X169801196Y-88113231D01*
X169460020Y-87971562D01*
X169090600Y-87971240D01*
X168749178Y-88112312D01*
X168494447Y-88366600D01*
X163576005Y-88366600D01*
X163576000Y-88366599D01*
X163371877Y-88407203D01*
X163198829Y-88522829D01*
X160404829Y-91316829D01*
X160289203Y-91489877D01*
X160248600Y-91694000D01*
X160248600Y-93454259D01*
X159926058Y-93776800D01*
X157980400Y-93776800D01*
X157978786Y-93777121D01*
X157205400Y-93777121D01*
X157118236Y-93794033D01*
X157041626Y-93844358D01*
X156990344Y-93920329D01*
X156972321Y-94010200D01*
X156972321Y-94610200D01*
X156989233Y-94697364D01*
X157039558Y-94773974D01*
X157115529Y-94825256D01*
X157205400Y-94843279D01*
X157978786Y-94843279D01*
X157980400Y-94843600D01*
X160147000Y-94843600D01*
X160351123Y-94802997D01*
X160524171Y-94687371D01*
X160524172Y-94687370D01*
X161159168Y-94052373D01*
X161159171Y-94052371D01*
X161274797Y-93879323D01*
X161287114Y-93817403D01*
X161295190Y-93776799D01*
X162026600Y-93776799D01*
X161822477Y-93817403D01*
X161649429Y-93933029D01*
X161649427Y-93933032D01*
X161065229Y-94517229D01*
X160949603Y-94690277D01*
X160909000Y-94894400D01*
X160909000Y-95791058D01*
X159138658Y-97561400D01*
X158343605Y-97561400D01*
X158343600Y-97561399D01*
X158139477Y-97602003D01*
X157966429Y-97717629D01*
X157255229Y-98428829D01*
X157139603Y-98601877D01*
X157104943Y-98776121D01*
X156616400Y-98776121D01*
X156529236Y-98793033D01*
X156452626Y-98843358D01*
X156401344Y-98919329D01*
X156383321Y-99009200D01*
X156383321Y-101041200D01*
X156400233Y-101128364D01*
X156450558Y-101204974D01*
X156526529Y-101256256D01*
X156616400Y-101274279D01*
X158648400Y-101274279D01*
X158735564Y-101257367D01*
X158812174Y-101207042D01*
X158863456Y-101131071D01*
X158881479Y-101041200D01*
X158881479Y-100358108D01*
X159051933Y-100771402D01*
X159422783Y-101143385D01*
X159907755Y-101345134D01*
X159911783Y-101345932D01*
X160121600Y-101287828D01*
X160121600Y-100076000D01*
X160223200Y-100076000D01*
X160223200Y-101287828D01*
X160433017Y-101345932D01*
X160437045Y-101345134D01*
X160922017Y-101143385D01*
X161292867Y-100771402D01*
X161493136Y-100285817D01*
X161435095Y-100076000D01*
X160223200Y-100076000D01*
X160121600Y-100076000D01*
X160121600Y-100076000D01*
X160101600Y-100076000D01*
X160101600Y-99974400D01*
X160121600Y-99974400D01*
X160121600Y-98762572D01*
X159911783Y-98704468D01*
X160433017Y-98704468D01*
X160223200Y-98762572D01*
X160223200Y-99974400D01*
X161435095Y-99974400D01*
X161493136Y-99764583D01*
X161292867Y-99278998D01*
X160922017Y-98907015D01*
X160437045Y-98705266D01*
X160433017Y-98704468D01*
X159911783Y-98704468D01*
X159911783Y-98704468D01*
X159907755Y-98705266D01*
X159422783Y-98907015D01*
X159051933Y-99278998D01*
X158881479Y-99692292D01*
X158881479Y-99009200D01*
X158864567Y-98922036D01*
X158814242Y-98845426D01*
X158738271Y-98794144D01*
X158648400Y-98776121D01*
X158416621Y-98776121D01*
X158564542Y-98628200D01*
X159359600Y-98628200D01*
X159563723Y-98587597D01*
X159736771Y-98471971D01*
X161819571Y-96389171D01*
X161935197Y-96216123D01*
X161975800Y-96012000D01*
X161975800Y-95115342D01*
X162044341Y-95046800D01*
X163380400Y-95046800D01*
X163378786Y-95047121D01*
X162605400Y-95047121D01*
X162518236Y-95064033D01*
X162441626Y-95114358D01*
X162390344Y-95190329D01*
X162372321Y-95280200D01*
X162372321Y-95880200D01*
X162389233Y-95967364D01*
X162439558Y-96043974D01*
X162515529Y-96095256D01*
X162605400Y-96113279D01*
X162847000Y-96113279D01*
X162847000Y-96317121D01*
X162605400Y-96317121D01*
X162518236Y-96334033D01*
X162441626Y-96384358D01*
X162390344Y-96460329D01*
X162372321Y-96550200D01*
X162372321Y-97150200D01*
X162389233Y-97237364D01*
X162439558Y-97313974D01*
X162515529Y-97365256D01*
X162605400Y-97383279D01*
X163378786Y-97383279D01*
X163380400Y-97383600D01*
X163382014Y-97383279D01*
X164155400Y-97383279D01*
X164242564Y-97366367D01*
X164319174Y-97316042D01*
X164370456Y-97240071D01*
X164388479Y-97150200D01*
X164388479Y-96550200D01*
X164371567Y-96463036D01*
X164321242Y-96386426D01*
X164245271Y-96335144D01*
X164155400Y-96317121D01*
X163913800Y-96317121D01*
X163913800Y-96113279D01*
X164155400Y-96113279D01*
X164242564Y-96096367D01*
X164319174Y-96046042D01*
X164370456Y-95970071D01*
X164388479Y-95880200D01*
X164388479Y-95280200D01*
X164371567Y-95193036D01*
X164321242Y-95116426D01*
X164245271Y-95065144D01*
X164155400Y-95047121D01*
X163382014Y-95047121D01*
X163380400Y-95046800D01*
X162044341Y-95046800D01*
X162247541Y-94843600D01*
X164548858Y-94843600D01*
X164820600Y-95115341D01*
X164820600Y-95351600D01*
X164861203Y-95555723D01*
X164976829Y-95728771D01*
X166348429Y-97100371D01*
X166373721Y-97117271D01*
X166373721Y-97373200D01*
X166390633Y-97460364D01*
X166440958Y-97536974D01*
X166516929Y-97588256D01*
X166606800Y-97606279D01*
X168106800Y-97606279D01*
X168193964Y-97589367D01*
X168270574Y-97539042D01*
X168321856Y-97463071D01*
X168339879Y-97373200D01*
X168339879Y-96073200D01*
X168322967Y-95986036D01*
X168272642Y-95909426D01*
X168196671Y-95858144D01*
X168106800Y-95840121D01*
X169306800Y-95840121D01*
X169219636Y-95857033D01*
X169143026Y-95907358D01*
X169091744Y-95983329D01*
X169073721Y-96073200D01*
X169073721Y-97373200D01*
X169090633Y-97460364D01*
X169140958Y-97536974D01*
X169216929Y-97588256D01*
X169306800Y-97606279D01*
X170806800Y-97606279D01*
X170893964Y-97589367D01*
X170970574Y-97539042D01*
X171021856Y-97463071D01*
X171039879Y-97373200D01*
X171039879Y-97256600D01*
X171551600Y-97256600D01*
X171615390Y-97243911D01*
X171715580Y-97243999D01*
X171925706Y-97157176D01*
X172086611Y-96996551D01*
X172173800Y-96786577D01*
X172173999Y-96559220D01*
X172087176Y-96349094D01*
X171926551Y-96188189D01*
X171716577Y-96101000D01*
X171489220Y-96100801D01*
X171279094Y-96187624D01*
X171276914Y-96189800D01*
X171039879Y-96189800D01*
X171039879Y-96073200D01*
X171022967Y-95986036D01*
X170972642Y-95909426D01*
X170896671Y-95858144D01*
X170806800Y-95840121D01*
X169306800Y-95840121D01*
X168106800Y-95840121D01*
X168106800Y-95840121D01*
X166606800Y-95840121D01*
X166598478Y-95841736D01*
X165887400Y-95130658D01*
X165887400Y-94894405D01*
X165887401Y-94894400D01*
X165846797Y-94690277D01*
X165803448Y-94625400D01*
X165731171Y-94517229D01*
X165731168Y-94517227D01*
X165146971Y-93933029D01*
X164973923Y-93817403D01*
X164769800Y-93776800D01*
X162026605Y-93776800D01*
X162026600Y-93776799D01*
X161295190Y-93776799D01*
X161315401Y-93675200D01*
X161315400Y-93675195D01*
X161315400Y-91914942D01*
X162260341Y-90970001D01*
X163818420Y-90970001D01*
X163608294Y-91056824D01*
X163447389Y-91217449D01*
X163360200Y-91427423D01*
X163360001Y-91654780D01*
X163446824Y-91864906D01*
X163607449Y-92025811D01*
X163699828Y-92064170D01*
X164058600Y-92422942D01*
X164058600Y-92430600D01*
X163456600Y-92430600D01*
X163252477Y-92471203D01*
X163198721Y-92507121D01*
X162605400Y-92507121D01*
X162518236Y-92524033D01*
X162441626Y-92574358D01*
X162390344Y-92650329D01*
X162372321Y-92740200D01*
X162372321Y-93340200D01*
X162389233Y-93427364D01*
X162439558Y-93503974D01*
X162515529Y-93555256D01*
X162605400Y-93573279D01*
X163378786Y-93573279D01*
X163380400Y-93573600D01*
X163382014Y-93573279D01*
X164155400Y-93573279D01*
X164242564Y-93556367D01*
X164319174Y-93506042D01*
X164325008Y-93497400D01*
X164592000Y-93497400D01*
X164789060Y-93458202D01*
X165992829Y-94661971D01*
X166165876Y-94777597D01*
X166370000Y-94818200D01*
X166473721Y-94818200D01*
X166473721Y-94909800D01*
X166490633Y-94996964D01*
X166540958Y-95073574D01*
X166616929Y-95124856D01*
X166706800Y-95142879D01*
X168206800Y-95142879D01*
X168293964Y-95125967D01*
X168370574Y-95075642D01*
X168421856Y-94999671D01*
X168439879Y-94909800D01*
X168439879Y-94335600D01*
X168959150Y-94335600D01*
X168876600Y-94418150D01*
X168876600Y-94975481D01*
X168926870Y-95096843D01*
X169019757Y-95189730D01*
X169141119Y-95240000D01*
X169823450Y-95240000D01*
X169906000Y-95157450D01*
X169906000Y-94335600D01*
X170007600Y-94335600D01*
X170007600Y-95157450D01*
X170090150Y-95240000D01*
X170772481Y-95240000D01*
X170893843Y-95189730D01*
X170986730Y-95096843D01*
X171037000Y-94975481D01*
X171037000Y-94418150D01*
X170954450Y-94335600D01*
X170007600Y-94335600D01*
X169906000Y-94335600D01*
X169906000Y-94335600D01*
X168959150Y-94335600D01*
X168439879Y-94335600D01*
X168439879Y-93659800D01*
X168422967Y-93572636D01*
X168372642Y-93496026D01*
X168296671Y-93444744D01*
X168206800Y-93426721D01*
X166706800Y-93426721D01*
X166619636Y-93443633D01*
X166543026Y-93493958D01*
X166491744Y-93569929D01*
X166478001Y-93638459D01*
X166169142Y-93329600D01*
X169141119Y-93329600D01*
X169019757Y-93379870D01*
X168926870Y-93472757D01*
X168876600Y-93594119D01*
X168876600Y-94151450D01*
X168959150Y-94234000D01*
X169906000Y-94234000D01*
X169906000Y-93412150D01*
X169823450Y-93329600D01*
X170090150Y-93329600D01*
X170007600Y-93412150D01*
X170007600Y-94234000D01*
X170954450Y-94234000D01*
X171037000Y-94151450D01*
X171037000Y-93594119D01*
X170986730Y-93472757D01*
X170893843Y-93379870D01*
X170772481Y-93329600D01*
X170090150Y-93329600D01*
X169823450Y-93329600D01*
X169823450Y-93329600D01*
X169141119Y-93329600D01*
X166169142Y-93329600D01*
X165752742Y-92913200D01*
X166082942Y-92583000D01*
X166373721Y-92583000D01*
X166373721Y-92699600D01*
X166390633Y-92786764D01*
X166440958Y-92863374D01*
X166516929Y-92914656D01*
X166606800Y-92932679D01*
X168106800Y-92932679D01*
X168193964Y-92915767D01*
X168270574Y-92865442D01*
X168321856Y-92789471D01*
X168339879Y-92699600D01*
X168339879Y-91399600D01*
X168322967Y-91312436D01*
X168272642Y-91235826D01*
X168196671Y-91184544D01*
X168106800Y-91166521D01*
X166606800Y-91166521D01*
X166519636Y-91183433D01*
X166443026Y-91233758D01*
X166391744Y-91309729D01*
X166373721Y-91399600D01*
X166373721Y-91516200D01*
X165862000Y-91516200D01*
X165657877Y-91556803D01*
X165484829Y-91672429D01*
X165097172Y-92060086D01*
X165084797Y-91997877D01*
X164969171Y-91824829D01*
X164454217Y-91309875D01*
X164416376Y-91218294D01*
X164255751Y-91057389D01*
X164045777Y-90970200D01*
X163818420Y-90970001D01*
X162260341Y-90970001D01*
X163796942Y-89433400D01*
X168494876Y-89433400D01*
X168747804Y-89686769D01*
X169088980Y-89828438D01*
X169448910Y-89828752D01*
X169523400Y-89903242D01*
X169523400Y-91166521D01*
X169306800Y-91166521D01*
X169219636Y-91183433D01*
X169143026Y-91233758D01*
X169091744Y-91309729D01*
X169073721Y-91399600D01*
X169073721Y-92699600D01*
X169090633Y-92786764D01*
X169140958Y-92863374D01*
X169216929Y-92914656D01*
X169306800Y-92932679D01*
X170806800Y-92932679D01*
X170893964Y-92915767D01*
X170970574Y-92865442D01*
X171021856Y-92789471D01*
X171039879Y-92699600D01*
X171039879Y-91399600D01*
X171022967Y-91312436D01*
X170972642Y-91235826D01*
X170896671Y-91184544D01*
X170806800Y-91166521D01*
X170590200Y-91166521D01*
X170590200Y-89682300D01*
X170549597Y-89478177D01*
X170549597Y-89478176D01*
X170519679Y-89433400D01*
X171614566Y-89433400D01*
X171625721Y-89460397D01*
X171904138Y-89739300D01*
X172268093Y-89890428D01*
X172662178Y-89890772D01*
X173026397Y-89740279D01*
X173305300Y-89461862D01*
X173456428Y-89097907D01*
X173456772Y-88703822D01*
X173306279Y-88339603D01*
X173027862Y-88060700D01*
X172663907Y-87909572D01*
X172269822Y-87909228D01*
X156573747Y-87909228D01*
X156504400Y-87895321D01*
X155204400Y-87895321D01*
X152812806Y-87895321D01*
X152443471Y-87648540D01*
X152222571Y-87604600D01*
X153024481Y-87604600D01*
X153145843Y-87554330D01*
X153238730Y-87461443D01*
X153289000Y-87340081D01*
X153289000Y-86391750D01*
X153206450Y-86309200D01*
X151993600Y-86309200D01*
X151993600Y-86329200D01*
X151892000Y-86329200D01*
X151892000Y-86309200D01*
X150679150Y-86309200D01*
X150138600Y-86309200D01*
X150138600Y-86229200D01*
X154956750Y-86229200D01*
X154874200Y-86311750D01*
X154874200Y-86994081D01*
X154924470Y-87115443D01*
X155017357Y-87208330D01*
X155138719Y-87258600D01*
X155721050Y-87258600D01*
X155803600Y-87176050D01*
X155803600Y-86229200D01*
X155905200Y-86229200D01*
X155905200Y-87176050D01*
X155987750Y-87258600D01*
X156570081Y-87258600D01*
X156691443Y-87208330D01*
X156784330Y-87115443D01*
X156834600Y-86994081D01*
X156834600Y-86311750D01*
X156752050Y-86229200D01*
X155905200Y-86229200D01*
X155803600Y-86229200D01*
X155803600Y-86229200D01*
X154956750Y-86229200D01*
X150138600Y-86229200D01*
X150138600Y-84912200D01*
X150861119Y-84912200D01*
X150739757Y-84962470D01*
X150646870Y-85055357D01*
X150596600Y-85176719D01*
X150596600Y-86125050D01*
X150679150Y-86207600D01*
X151892000Y-86207600D01*
X151892000Y-84994750D01*
X151809450Y-84912200D01*
X152076150Y-84912200D01*
X151993600Y-84994750D01*
X151993600Y-86207600D01*
X153206450Y-86207600D01*
X153289000Y-86125050D01*
X153289000Y-85176719D01*
X153256477Y-85098200D01*
X155138719Y-85098200D01*
X155017357Y-85148470D01*
X154924470Y-85241357D01*
X154874200Y-85362719D01*
X154874200Y-86045050D01*
X154956750Y-86127600D01*
X155803600Y-86127600D01*
X155803600Y-85180750D01*
X155721050Y-85098200D01*
X155987750Y-85098200D01*
X155905200Y-85180750D01*
X155905200Y-86127600D01*
X156752050Y-86127600D01*
X156834600Y-86045050D01*
X156834600Y-85431240D01*
X159090600Y-85431240D01*
X158749178Y-85572312D01*
X158487731Y-85833304D01*
X158346062Y-86174480D01*
X158345740Y-86543900D01*
X158486812Y-86885322D01*
X158747804Y-87146769D01*
X159088980Y-87288438D01*
X159458400Y-87288760D01*
X159799822Y-87147688D01*
X160061269Y-86886696D01*
X160202938Y-86545520D01*
X160203260Y-86176100D01*
X160062188Y-85834678D01*
X159940226Y-85712503D01*
X168555161Y-85712503D01*
X168395858Y-85784421D01*
X168242476Y-86164476D01*
X168246210Y-86574298D01*
X168395858Y-86935579D01*
X168555161Y-87007497D01*
X169130816Y-86431842D01*
X169274500Y-86431842D01*
X168627003Y-87079339D01*
X168698921Y-87238642D01*
X169078976Y-87392024D01*
X169488798Y-87388290D01*
X169850079Y-87238642D01*
X169921997Y-87079339D01*
X169274500Y-86431842D01*
X169130816Y-86431842D01*
X169202658Y-86360000D01*
X168555161Y-85712503D01*
X159940226Y-85712503D01*
X159801196Y-85573231D01*
X159460020Y-85431562D01*
X159090600Y-85431240D01*
X156834600Y-85431240D01*
X156834600Y-85362719D01*
X156784330Y-85241357D01*
X156691443Y-85148470D01*
X156570081Y-85098200D01*
X155987750Y-85098200D01*
X155721050Y-85098200D01*
X155721050Y-85098200D01*
X155138719Y-85098200D01*
X153256477Y-85098200D01*
X153238730Y-85055357D01*
X153145843Y-84962470D01*
X153024481Y-84912200D01*
X152076150Y-84912200D01*
X151809450Y-84912200D01*
X151809450Y-84912200D01*
X150861119Y-84912200D01*
X150138600Y-84912200D01*
X150138600Y-84401291D01*
X166500012Y-84401291D01*
X166268892Y-84496788D01*
X166091910Y-84673462D01*
X165996009Y-84904415D01*
X165995791Y-85154488D01*
X166091288Y-85385608D01*
X166267962Y-85562590D01*
X166498915Y-85658491D01*
X166748988Y-85658709D01*
X166980108Y-85563212D01*
X167157090Y-85386538D01*
X167181407Y-85327976D01*
X169470024Y-85327976D01*
X169060202Y-85331710D01*
X168698921Y-85481358D01*
X168627003Y-85640661D01*
X169274500Y-86288158D01*
X169850155Y-85712503D01*
X169993839Y-85712503D01*
X169346342Y-86360000D01*
X169993839Y-87007497D01*
X170153142Y-86935579D01*
X170306524Y-86555524D01*
X170302790Y-86145702D01*
X170153142Y-85784421D01*
X169993839Y-85712503D01*
X169850155Y-85712503D01*
X169921997Y-85640661D01*
X169850079Y-85481358D01*
X169470024Y-85327976D01*
X167181407Y-85327976D01*
X167252991Y-85155585D01*
X167253209Y-84905512D01*
X167157712Y-84674392D01*
X166981038Y-84497410D01*
X166750085Y-84401509D01*
X166500012Y-84401291D01*
X150138600Y-84401291D01*
X150138600Y-83844600D01*
X175743400Y-83844600D01*
X175743400Y-102337400D01*
M02*
