G04 #@! TF.FileFunction,Legend,Top*
%FSLAX46Y46*%
G04 Gerber Fmt 4.6, Leading zero omitted, Abs format (unit mm)*
G04 Created by KiCad (PCBNEW 0.201506122246+5743~23~ubuntu14.10.1-product) date Sun 14 Jun 2015 08:35:05 PM EDT*
%MOMM*%
G01*
G04 APERTURE LIST*
%ADD10C,0.100000*%
%ADD11C,0.150000*%
%ADD12R,1.500000X1.250000*%
%ADD13R,2.032000X2.032000*%
%ADD14O,2.032000X2.032000*%
%ADD15R,1.300000X1.500000*%
%ADD16R,1.500000X1.300000*%
%ADD17R,1.550000X0.600000*%
%ADD18C,0.800000*%
%ADD19C,1.400000*%
%ADD20C,1.524000*%
G04 APERTURE END LIST*
D10*
D11*
X169206800Y-93434800D02*
X168206800Y-93434800D01*
X168206800Y-95134800D02*
X169206800Y-95134800D01*
X153212800Y-87528400D02*
X153212800Y-90068400D01*
X153492800Y-84708400D02*
X153492800Y-86258400D01*
X153212800Y-87528400D02*
X150672800Y-87528400D01*
X150392800Y-86258400D02*
X150392800Y-84708400D01*
X150392800Y-84708400D02*
X153492800Y-84708400D01*
X150672800Y-87528400D02*
X150672800Y-90068400D01*
X150672800Y-90068400D02*
X153212800Y-90068400D01*
X158902400Y-98755200D02*
X161442400Y-98755200D01*
X156082400Y-98475200D02*
X157632400Y-98475200D01*
X158902400Y-98755200D02*
X158902400Y-101295200D01*
X157632400Y-101575200D02*
X156082400Y-101575200D01*
X156082400Y-101575200D02*
X156082400Y-98475200D01*
X158902400Y-101295200D02*
X161442400Y-101295200D01*
X161442400Y-101295200D02*
X161442400Y-98755200D01*
X156729400Y-86928400D02*
X156729400Y-88128400D01*
X154979400Y-88128400D02*
X154979400Y-86928400D01*
X169306800Y-92924600D02*
X168106800Y-92924600D01*
X168106800Y-91174600D02*
X169306800Y-91174600D01*
X154828800Y-94448600D02*
X153628800Y-94448600D01*
X153628800Y-92698600D02*
X154828800Y-92698600D01*
X153679600Y-94730600D02*
X154879600Y-94730600D01*
X154879600Y-96480600D02*
X153679600Y-96480600D01*
X168106800Y-95848200D02*
X169306800Y-95848200D01*
X169306800Y-97598200D02*
X168106800Y-97598200D01*
X158605400Y-92370200D02*
X158605400Y-92515200D01*
X162755400Y-92370200D02*
X162755400Y-92515200D01*
X162755400Y-97520200D02*
X162755400Y-97375200D01*
X158605400Y-97520200D02*
X158605400Y-97375200D01*
X158605400Y-92370200D02*
X162755400Y-92370200D01*
X158605400Y-97520200D02*
X162755400Y-97520200D01*
X158605400Y-92515200D02*
X157205400Y-92515200D01*
X157474500Y-84630000D02*
X171074500Y-84630000D01*
X171074500Y-84630000D02*
X171074500Y-90630000D01*
X171074500Y-90630000D02*
X157474500Y-90630000D01*
X157374500Y-84630000D02*
X157374500Y-90630000D01*
D10*
X171722267Y-94463371D02*
X171698457Y-94487181D01*
X171627029Y-94510990D01*
X171579410Y-94510990D01*
X171507981Y-94487181D01*
X171460362Y-94439562D01*
X171436553Y-94391943D01*
X171412743Y-94296705D01*
X171412743Y-94225276D01*
X171436553Y-94130038D01*
X171460362Y-94082419D01*
X171507981Y-94034800D01*
X171579410Y-94010990D01*
X171627029Y-94010990D01*
X171698457Y-94034800D01*
X171722267Y-94058610D01*
X172198457Y-94510990D02*
X171912743Y-94510990D01*
X172055600Y-94510990D02*
X172055600Y-94010990D01*
X172007981Y-94082419D01*
X171960362Y-94130038D01*
X171912743Y-94153848D01*
X150557753Y-91310590D02*
X150557753Y-90810590D01*
X150748229Y-90810590D01*
X150795848Y-90834400D01*
X150819657Y-90858210D01*
X150843467Y-90905829D01*
X150843467Y-90977257D01*
X150819657Y-91024876D01*
X150795848Y-91048686D01*
X150748229Y-91072495D01*
X150557753Y-91072495D01*
X151319657Y-91310590D02*
X151033943Y-91310590D01*
X151176800Y-91310590D02*
X151176800Y-90810590D01*
X151129181Y-90882019D01*
X151081562Y-90929638D01*
X151033943Y-90953448D01*
X154723353Y-101267390D02*
X154723353Y-100767390D01*
X154913829Y-100767390D01*
X154961448Y-100791200D01*
X154985257Y-100815010D01*
X155009067Y-100862629D01*
X155009067Y-100934057D01*
X154985257Y-100981676D01*
X154961448Y-101005486D01*
X154913829Y-101029295D01*
X154723353Y-101029295D01*
X155199543Y-100815010D02*
X155223353Y-100791200D01*
X155270972Y-100767390D01*
X155390019Y-100767390D01*
X155437638Y-100791200D01*
X155461448Y-100815010D01*
X155485257Y-100862629D01*
X155485257Y-100910248D01*
X155461448Y-100981676D01*
X155175734Y-101267390D01*
X155485257Y-101267390D01*
X156126667Y-90802590D02*
X155960000Y-90564495D01*
X155840953Y-90802590D02*
X155840953Y-90302590D01*
X156031429Y-90302590D01*
X156079048Y-90326400D01*
X156102857Y-90350210D01*
X156126667Y-90397829D01*
X156126667Y-90469257D01*
X156102857Y-90516876D01*
X156079048Y-90540686D01*
X156031429Y-90564495D01*
X155840953Y-90564495D01*
X156602857Y-90802590D02*
X156317143Y-90802590D01*
X156460000Y-90802590D02*
X156460000Y-90302590D01*
X156412381Y-90374019D01*
X156364762Y-90421638D01*
X156317143Y-90445448D01*
X171925467Y-92174190D02*
X171758800Y-91936095D01*
X171639753Y-92174190D02*
X171639753Y-91674190D01*
X171830229Y-91674190D01*
X171877848Y-91698000D01*
X171901657Y-91721810D01*
X171925467Y-91769429D01*
X171925467Y-91840857D01*
X171901657Y-91888476D01*
X171877848Y-91912286D01*
X171830229Y-91936095D01*
X171639753Y-91936095D01*
X172115943Y-91721810D02*
X172139753Y-91698000D01*
X172187372Y-91674190D01*
X172306419Y-91674190D01*
X172354038Y-91698000D01*
X172377848Y-91721810D01*
X172401657Y-91769429D01*
X172401657Y-91817048D01*
X172377848Y-91888476D01*
X172092134Y-92174190D01*
X172401657Y-92174190D01*
X151148267Y-93850590D02*
X150981600Y-93612495D01*
X150862553Y-93850590D02*
X150862553Y-93350590D01*
X151053029Y-93350590D01*
X151100648Y-93374400D01*
X151124457Y-93398210D01*
X151148267Y-93445829D01*
X151148267Y-93517257D01*
X151124457Y-93564876D01*
X151100648Y-93588686D01*
X151053029Y-93612495D01*
X150862553Y-93612495D01*
X151314934Y-93350590D02*
X151624457Y-93350590D01*
X151457791Y-93541067D01*
X151529219Y-93541067D01*
X151576838Y-93564876D01*
X151600648Y-93588686D01*
X151624457Y-93636305D01*
X151624457Y-93755352D01*
X151600648Y-93802971D01*
X151576838Y-93826781D01*
X151529219Y-93850590D01*
X151386362Y-93850590D01*
X151338743Y-93826781D01*
X151314934Y-93802971D01*
X151148267Y-95730190D02*
X150981600Y-95492095D01*
X150862553Y-95730190D02*
X150862553Y-95230190D01*
X151053029Y-95230190D01*
X151100648Y-95254000D01*
X151124457Y-95277810D01*
X151148267Y-95325429D01*
X151148267Y-95396857D01*
X151124457Y-95444476D01*
X151100648Y-95468286D01*
X151053029Y-95492095D01*
X150862553Y-95492095D01*
X151576838Y-95396857D02*
X151576838Y-95730190D01*
X151457791Y-95206381D02*
X151338743Y-95563524D01*
X151648267Y-95563524D01*
X171823867Y-97914590D02*
X171657200Y-97676495D01*
X171538153Y-97914590D02*
X171538153Y-97414590D01*
X171728629Y-97414590D01*
X171776248Y-97438400D01*
X171800057Y-97462210D01*
X171823867Y-97509829D01*
X171823867Y-97581257D01*
X171800057Y-97628876D01*
X171776248Y-97652686D01*
X171728629Y-97676495D01*
X171538153Y-97676495D01*
X172276248Y-97414590D02*
X172038153Y-97414590D01*
X172014343Y-97652686D01*
X172038153Y-97628876D01*
X172085772Y-97605067D01*
X172204819Y-97605067D01*
X172252438Y-97628876D01*
X172276248Y-97652686D01*
X172300057Y-97700305D01*
X172300057Y-97819352D01*
X172276248Y-97866971D01*
X172252438Y-97890781D01*
X172204819Y-97914590D01*
X172085772Y-97914590D01*
X172038153Y-97890781D01*
X172014343Y-97866971D01*
X158724648Y-91166190D02*
X158724648Y-91570952D01*
X158748457Y-91618571D01*
X158772267Y-91642381D01*
X158819886Y-91666190D01*
X158915124Y-91666190D01*
X158962743Y-91642381D01*
X158986552Y-91618571D01*
X159010362Y-91570952D01*
X159010362Y-91166190D01*
X159224648Y-91213810D02*
X159248458Y-91190000D01*
X159296077Y-91166190D01*
X159415124Y-91166190D01*
X159462743Y-91190000D01*
X159486553Y-91213810D01*
X159510362Y-91261429D01*
X159510362Y-91309048D01*
X159486553Y-91380476D01*
X159200839Y-91666190D01*
X159510362Y-91666190D01*
X171373848Y-84714590D02*
X171373848Y-85119352D01*
X171397657Y-85166971D01*
X171421467Y-85190781D01*
X171469086Y-85214590D01*
X171564324Y-85214590D01*
X171611943Y-85190781D01*
X171635752Y-85166971D01*
X171659562Y-85119352D01*
X171659562Y-84714590D01*
X172159562Y-85214590D02*
X171873848Y-85214590D01*
X172016705Y-85214590D02*
X172016705Y-84714590D01*
X171969086Y-84786019D01*
X171921467Y-84833638D01*
X171873848Y-84857448D01*
X171581048Y-87102190D02*
X171866762Y-87102190D01*
X171723905Y-87602190D02*
X171723905Y-87102190D01*
X172033429Y-87602190D02*
X172033429Y-87102190D01*
X172223905Y-87102190D01*
X172271524Y-87126000D01*
X172295333Y-87149810D01*
X172319143Y-87197429D01*
X172319143Y-87268857D01*
X172295333Y-87316476D01*
X172271524Y-87340286D01*
X172223905Y-87364095D01*
X172033429Y-87364095D01*
X172795333Y-87602190D02*
X172509619Y-87602190D01*
X172652476Y-87602190D02*
X172652476Y-87102190D01*
X172604857Y-87173619D01*
X172557238Y-87221238D01*
X172509619Y-87245048D01*
%LPC*%
D12*
X167456800Y-94284800D03*
X169956800Y-94284800D03*
D13*
X151942800Y-86258400D03*
D14*
X151942800Y-88798400D03*
D13*
X157632400Y-100025200D03*
D14*
X160172400Y-100025200D03*
D15*
X155854400Y-88878400D03*
X155854400Y-86178400D03*
D16*
X167356800Y-92049600D03*
X170056800Y-92049600D03*
X152878800Y-93573600D03*
X155578800Y-93573600D03*
X155629600Y-95605600D03*
X152929600Y-95605600D03*
X170056800Y-96723200D03*
X167356800Y-96723200D03*
D17*
X157980400Y-93040200D03*
X157980400Y-94310200D03*
X157980400Y-95580200D03*
X157980400Y-96850200D03*
X163380400Y-96850200D03*
X163380400Y-95580200D03*
X163380400Y-94310200D03*
X163380400Y-93040200D03*
D18*
X166624500Y-85030000D03*
X157674500Y-90230000D03*
D19*
X159274500Y-88900000D03*
X159274500Y-86360000D03*
X169274500Y-88900000D03*
X169274500Y-86360000D03*
D20*
X172466000Y-88900000D03*
M02*
