G04 #@! TF.FileFunction,Copper,L2,Bot,Signal*
%FSLAX46Y46*%
G04 Gerber Fmt 4.6, Leading zero omitted, Abs format (unit mm)*
G04 Created by KiCad (PCBNEW 0.201506122246+5743~23~ubuntu14.10.1-product) date Sat 13 Jun 2015 04:11:00 PM EDT*
%MOMM*%
G01*
G04 APERTURE LIST*
%ADD10C,0.100000*%
%ADD11R,2.032000X2.032000*%
%ADD12O,2.032000X2.032000*%
%ADD13R,2.032000X1.727200*%
%ADD14O,2.032000X1.727200*%
%ADD15R,1.727200X2.032000*%
%ADD16O,1.727200X2.032000*%
%ADD17C,0.685800*%
%ADD18C,0.152400*%
%ADD19C,0.254000*%
G04 APERTURE END LIST*
D10*
D11*
X141986000Y-105156000D03*
D12*
X141986000Y-107696000D03*
D13*
X131826000Y-107442000D03*
D14*
X131826000Y-104902000D03*
X131826000Y-102362000D03*
D15*
X136652000Y-111252000D03*
D16*
X134112000Y-111252000D03*
X131572000Y-111252000D03*
D17*
X136207500Y-108394500D03*
X137223500Y-108902500D03*
X138366500Y-109093000D03*
X139446000Y-108839000D03*
X138620500Y-108077000D03*
X137477500Y-107886500D03*
X137414000Y-105283000D03*
D18*
X138176000Y-108902500D02*
X137223500Y-108902500D01*
X138366500Y-109093000D02*
X138176000Y-108902500D01*
X139382500Y-108839000D02*
X139446000Y-108839000D01*
X138620500Y-108077000D02*
X139382500Y-108839000D01*
X137477500Y-105346500D02*
X137477500Y-107886500D01*
X137414000Y-105283000D02*
X137477500Y-105346500D01*
D19*
G36*
X143079000Y-103508002D02*
X143079000Y-103508002D01*
X143002000Y-103492560D01*
X140970000Y-103492560D01*
X140727877Y-103539537D01*
X140515073Y-103679327D01*
X140372623Y-103890360D01*
X140322560Y-104140000D01*
X140322560Y-106172000D01*
X140369537Y-106414123D01*
X140509327Y-106626927D01*
X140654860Y-106725164D01*
X140428330Y-107064190D01*
X140302655Y-107696000D01*
X140428330Y-108327810D01*
X140786222Y-108863433D01*
X141321845Y-109221325D01*
X141953655Y-109347000D01*
X142018345Y-109347000D01*
X142650155Y-109221325D01*
X143079000Y-108934780D01*
X143079000Y-112345000D01*
X138147598Y-112345000D01*
X138163040Y-112268000D01*
X138163040Y-110236000D01*
X138116063Y-109993877D01*
X137976273Y-109781073D01*
X137765240Y-109638623D01*
X137515600Y-109588560D01*
X135788400Y-109588560D01*
X135546277Y-109635537D01*
X135333473Y-109775327D01*
X135191023Y-109986360D01*
X135183282Y-110024963D01*
X135171670Y-110007585D01*
X134685489Y-109682729D01*
X134112000Y-109568655D01*
X133538511Y-109682729D01*
X133052330Y-110007585D01*
X132842000Y-110322366D01*
X132631670Y-110007585D01*
X132145489Y-109682729D01*
X131572000Y-109568655D01*
X130998511Y-109682729D01*
X130512330Y-110007585D01*
X130479000Y-110057467D01*
X130479000Y-108855814D01*
X130683691Y-108940600D01*
X131540250Y-108940600D01*
X131699000Y-108781850D01*
X131699000Y-107569000D01*
X131953000Y-107569000D01*
X131953000Y-108781850D01*
X132111750Y-108940600D01*
X132968309Y-108940600D01*
X133201698Y-108843927D01*
X133380327Y-108665299D01*
X133477000Y-108431910D01*
X133477000Y-107727750D01*
X133318250Y-107569000D01*
X131953000Y-107569000D01*
X131699000Y-107569000D01*
X131699000Y-107569000D01*
X131679000Y-107569000D01*
X131679000Y-107315000D01*
X131699000Y-107315000D01*
X131699000Y-107295000D01*
X131953000Y-107295000D01*
X131953000Y-107315000D01*
X133318250Y-107315000D01*
X133477000Y-107156250D01*
X133477000Y-106452090D01*
X133380327Y-106218701D01*
X133201698Y-106040073D01*
X133048220Y-105976500D01*
X133070415Y-105961670D01*
X133395271Y-105475489D01*
X133509345Y-104902000D01*
X133395271Y-104328511D01*
X133070415Y-103842330D01*
X132755634Y-103632000D01*
X133070415Y-103421670D01*
X133395271Y-102935489D01*
X133509345Y-102362000D01*
X133395271Y-101788511D01*
X133070415Y-101302330D01*
X132584234Y-100977474D01*
X132010745Y-100863400D01*
X131641255Y-100863400D01*
X131067766Y-100977474D01*
X130581585Y-101302330D01*
X130479000Y-101455859D01*
X130479000Y-100507000D01*
X143079000Y-100507000D01*
X143079000Y-103508002D01*
X143079000Y-103508002D01*
G37*
X143079000Y-103508002D02*
X143079000Y-103508002D01*
X143002000Y-103492560D01*
X140970000Y-103492560D01*
X140727877Y-103539537D01*
X140515073Y-103679327D01*
X140372623Y-103890360D01*
X140322560Y-104140000D01*
X140322560Y-106172000D01*
X140369537Y-106414123D01*
X140509327Y-106626927D01*
X140654860Y-106725164D01*
X140428330Y-107064190D01*
X140302655Y-107696000D01*
X140428330Y-108327810D01*
X140786222Y-108863433D01*
X141321845Y-109221325D01*
X141953655Y-109347000D01*
X142018345Y-109347000D01*
X142650155Y-109221325D01*
X143079000Y-108934780D01*
X143079000Y-112345000D01*
X138147598Y-112345000D01*
X138163040Y-112268000D01*
X138163040Y-110236000D01*
X138116063Y-109993877D01*
X137976273Y-109781073D01*
X137765240Y-109638623D01*
X137515600Y-109588560D01*
X135788400Y-109588560D01*
X135546277Y-109635537D01*
X135333473Y-109775327D01*
X135191023Y-109986360D01*
X135183282Y-110024963D01*
X135171670Y-110007585D01*
X134685489Y-109682729D01*
X134112000Y-109568655D01*
X133538511Y-109682729D01*
X133052330Y-110007585D01*
X132842000Y-110322366D01*
X132631670Y-110007585D01*
X132145489Y-109682729D01*
X131572000Y-109568655D01*
X130998511Y-109682729D01*
X130512330Y-110007585D01*
X130479000Y-110057467D01*
X130479000Y-108855814D01*
X130683691Y-108940600D01*
X131540250Y-108940600D01*
X131699000Y-108781850D01*
X131699000Y-107569000D01*
X131953000Y-107569000D01*
X131953000Y-108781850D01*
X132111750Y-108940600D01*
X132968309Y-108940600D01*
X133201698Y-108843927D01*
X133380327Y-108665299D01*
X133477000Y-108431910D01*
X133477000Y-107727750D01*
X133318250Y-107569000D01*
X131953000Y-107569000D01*
X131699000Y-107569000D01*
X131699000Y-107569000D01*
X131679000Y-107569000D01*
X131679000Y-107315000D01*
X131699000Y-107315000D01*
X131699000Y-107295000D01*
X131953000Y-107295000D01*
X131953000Y-107315000D01*
X133318250Y-107315000D01*
X133477000Y-107156250D01*
X133477000Y-106452090D01*
X133380327Y-106218701D01*
X133201698Y-106040073D01*
X133048220Y-105976500D01*
X133070415Y-105961670D01*
X133395271Y-105475489D01*
X133509345Y-104902000D01*
X133395271Y-104328511D01*
X133070415Y-103842330D01*
X132755634Y-103632000D01*
X133070415Y-103421670D01*
X133395271Y-102935489D01*
X133509345Y-102362000D01*
X133395271Y-101788511D01*
X133070415Y-101302330D01*
X132584234Y-100977474D01*
X132010745Y-100863400D01*
X131641255Y-100863400D01*
X131067766Y-100977474D01*
X130581585Y-101302330D01*
X130479000Y-101455859D01*
X130479000Y-100507000D01*
X143079000Y-100507000D01*
X143079000Y-103508002D01*
M02*
