G04 #@! TF.FileFunction,Soldermask,Top*
%FSLAX46Y46*%
G04 Gerber Fmt 4.6, Leading zero omitted, Abs format (unit mm)*
G04 Created by KiCad (PCBNEW 0.201505220134+5676~23~ubuntu14.04.1-product) date Thu 25 Jun 2015 11:34:38 PM PDT*
%MOMM*%
G01*
G04 APERTURE LIST*
%ADD10C,0.100000*%
%ADD11C,0.609600*%
%ADD12R,1.500000X1.250000*%
%ADD13R,2.032000X2.032000*%
%ADD14O,2.032000X2.032000*%
%ADD15R,1.300000X1.500000*%
%ADD16R,1.500000X1.300000*%
%ADD17R,1.550000X0.600000*%
%ADD18C,0.800000*%
%ADD19C,1.400000*%
%ADD20C,1.524000*%
%ADD21R,1.000000X1.250000*%
%ADD22R,1.000000X1.600000*%
%ADD23R,1.250000X1.000000*%
%ADD24R,2.032000X1.727200*%
%ADD25O,2.032000X1.727200*%
%ADD26R,1.270000X0.406400*%
G04 APERTURE END LIST*
D10*
D11*
X148082000Y-86868000D03*
X148082000Y-88900000D03*
X149606000Y-86868000D03*
X149860000Y-87884000D03*
X147828000Y-87884000D03*
X149606000Y-88900000D03*
D12*
X167456800Y-94284800D03*
X169956800Y-94284800D03*
D13*
X151942800Y-86258400D03*
D14*
X151942800Y-88798400D03*
D13*
X157632400Y-100025200D03*
D14*
X160172400Y-100025200D03*
D15*
X155854400Y-88878400D03*
X155854400Y-86178400D03*
D16*
X167356800Y-92049600D03*
X170056800Y-92049600D03*
X152878800Y-93573600D03*
X155578800Y-93573600D03*
X155629600Y-95605600D03*
X152929600Y-95605600D03*
X170056800Y-96723200D03*
X167356800Y-96723200D03*
D17*
X157980400Y-93040200D03*
X157980400Y-94310200D03*
X157980400Y-95580200D03*
X157980400Y-96850200D03*
X163380400Y-96850200D03*
X163380400Y-95580200D03*
X163380400Y-94310200D03*
X163380400Y-93040200D03*
D18*
X166624500Y-85030000D03*
X157674500Y-90230000D03*
D19*
X159274500Y-88900000D03*
X159274500Y-86360000D03*
X169274500Y-88900000D03*
X169274500Y-86360000D03*
D20*
X172466000Y-88900000D03*
D21*
X142129000Y-90017600D03*
X144129000Y-90017600D03*
D22*
X140247500Y-89471500D03*
X137247500Y-89471500D03*
D23*
X134175500Y-93996000D03*
X134175500Y-95996000D03*
D22*
X143089500Y-94043500D03*
X146089500Y-94043500D03*
D13*
X137541000Y-86461600D03*
D14*
X140081000Y-86461600D03*
D24*
X131191000Y-86550500D03*
D25*
X131191000Y-89090500D03*
X131191000Y-91630500D03*
X131191000Y-94170500D03*
D13*
X137795000Y-100330000D03*
D14*
X140335000Y-100330000D03*
D26*
X136017000Y-91694000D03*
X136017000Y-92329000D03*
X136017000Y-92989400D03*
X136017000Y-93649800D03*
X136017000Y-94284800D03*
X136017000Y-94945200D03*
X136017000Y-95605600D03*
X136017000Y-96240600D03*
X136017000Y-96901000D03*
X136017000Y-97536000D03*
X141351000Y-97536000D03*
X141351000Y-96901000D03*
X141351000Y-96240600D03*
X141351000Y-95605600D03*
X141351000Y-94945200D03*
X141351000Y-94284800D03*
X141351000Y-93649800D03*
X141351000Y-92989400D03*
X141351000Y-92329000D03*
X141351000Y-91694000D03*
D11*
X148082000Y-96520000D03*
X148082000Y-98552000D03*
X149606000Y-96520000D03*
X149860000Y-97536000D03*
X147828000Y-97536000D03*
X149606000Y-98552000D03*
M02*
