G04 #@! TF.FileFunction,Legend,Top*
%FSLAX46Y46*%
G04 Gerber Fmt 4.6, Leading zero omitted, Abs format (unit mm)*
G04 Created by KiCad (PCBNEW 0.201505220134+5676~23~ubuntu14.04.1-product) date Thu 25 Jun 2015 11:34:38 PM PDT*
%MOMM*%
G01*
G04 APERTURE LIST*
%ADD10C,0.100000*%
%ADD11C,0.150000*%
%ADD12C,0.609600*%
%ADD13R,1.500000X1.250000*%
%ADD14R,2.032000X2.032000*%
%ADD15O,2.032000X2.032000*%
%ADD16R,1.300000X1.500000*%
%ADD17R,1.500000X1.300000*%
%ADD18R,1.550000X0.600000*%
%ADD19C,0.800000*%
%ADD20C,1.400000*%
%ADD21C,1.524000*%
%ADD22R,1.000000X1.250000*%
%ADD23R,1.000000X1.600000*%
%ADD24R,1.250000X1.000000*%
%ADD25R,2.032000X1.727200*%
%ADD26O,2.032000X1.727200*%
%ADD27R,1.270000X0.406400*%
G04 APERTURE END LIST*
D10*
D11*
X169206800Y-93434800D02*
X168206800Y-93434800D01*
X168206800Y-95134800D02*
X169206800Y-95134800D01*
X153212800Y-87528400D02*
X153212800Y-90068400D01*
X153492800Y-84708400D02*
X153492800Y-86258400D01*
X153212800Y-87528400D02*
X150672800Y-87528400D01*
X150392800Y-86258400D02*
X150392800Y-84708400D01*
X150392800Y-84708400D02*
X153492800Y-84708400D01*
X150672800Y-87528400D02*
X150672800Y-90068400D01*
X150672800Y-90068400D02*
X153212800Y-90068400D01*
X158902400Y-98755200D02*
X161442400Y-98755200D01*
X156082400Y-98475200D02*
X157632400Y-98475200D01*
X158902400Y-98755200D02*
X158902400Y-101295200D01*
X157632400Y-101575200D02*
X156082400Y-101575200D01*
X156082400Y-101575200D02*
X156082400Y-98475200D01*
X158902400Y-101295200D02*
X161442400Y-101295200D01*
X161442400Y-101295200D02*
X161442400Y-98755200D01*
X156729400Y-86928400D02*
X156729400Y-88128400D01*
X154979400Y-88128400D02*
X154979400Y-86928400D01*
X169306800Y-92924600D02*
X168106800Y-92924600D01*
X168106800Y-91174600D02*
X169306800Y-91174600D01*
X154828800Y-94448600D02*
X153628800Y-94448600D01*
X153628800Y-92698600D02*
X154828800Y-92698600D01*
X153679600Y-94730600D02*
X154879600Y-94730600D01*
X154879600Y-96480600D02*
X153679600Y-96480600D01*
X168106800Y-95848200D02*
X169306800Y-95848200D01*
X169306800Y-97598200D02*
X168106800Y-97598200D01*
X158605400Y-92370200D02*
X158605400Y-92515200D01*
X162755400Y-92370200D02*
X162755400Y-92515200D01*
X162755400Y-97520200D02*
X162755400Y-97375200D01*
X158605400Y-97520200D02*
X158605400Y-97375200D01*
X158605400Y-92370200D02*
X162755400Y-92370200D01*
X158605400Y-97520200D02*
X162755400Y-97520200D01*
X158605400Y-92515200D02*
X157205400Y-92515200D01*
X157474500Y-84630000D02*
X171074500Y-84630000D01*
X171074500Y-84630000D02*
X171074500Y-90630000D01*
X171074500Y-90630000D02*
X157474500Y-90630000D01*
X157374500Y-84630000D02*
X157374500Y-90630000D01*
X143629000Y-89167600D02*
X142629000Y-89167600D01*
X142629000Y-90867600D02*
X143629000Y-90867600D01*
X137747500Y-90496500D02*
X139747500Y-90496500D01*
X139747500Y-88446500D02*
X137747500Y-88446500D01*
X135025500Y-95496000D02*
X135025500Y-94496000D01*
X133325500Y-94496000D02*
X133325500Y-95496000D01*
X145589500Y-93018500D02*
X143589500Y-93018500D01*
X143589500Y-95068500D02*
X145589500Y-95068500D01*
X138811000Y-85191600D02*
X141351000Y-85191600D01*
X135991000Y-84911600D02*
X137541000Y-84911600D01*
X138811000Y-85191600D02*
X138811000Y-87731600D01*
X137541000Y-88011600D02*
X135991000Y-88011600D01*
X135991000Y-88011600D02*
X135991000Y-84911600D01*
X138811000Y-87731600D02*
X141351000Y-87731600D01*
X141351000Y-87731600D02*
X141351000Y-85191600D01*
X129921000Y-87820500D02*
X129921000Y-95440500D01*
X132461000Y-87820500D02*
X132461000Y-95440500D01*
X132741000Y-85000500D02*
X132741000Y-86550500D01*
X129921000Y-95440500D02*
X132461000Y-95440500D01*
X132461000Y-87820500D02*
X129921000Y-87820500D01*
X129641000Y-86550500D02*
X129641000Y-85000500D01*
X129641000Y-85000500D02*
X132741000Y-85000500D01*
X139065000Y-99060000D02*
X141605000Y-99060000D01*
X136245000Y-98780000D02*
X137795000Y-98780000D01*
X139065000Y-99060000D02*
X139065000Y-101600000D01*
X137795000Y-101880000D02*
X136245000Y-101880000D01*
X136245000Y-101880000D02*
X136245000Y-98780000D01*
X139065000Y-101600000D02*
X141605000Y-101600000D01*
X141605000Y-101600000D02*
X141605000Y-99060000D01*
X140462000Y-98425000D02*
X140462000Y-90805000D01*
X136906000Y-90805000D02*
X136906000Y-98425000D01*
X140462000Y-98425000D02*
X136906000Y-98425000D01*
X136906000Y-90805000D02*
X140462000Y-90805000D01*
X137773210Y-91313000D02*
G75*
G03X137773210Y-91313000I-359210J0D01*
G01*
X139319000Y-90805000D02*
X139319000Y-91567000D01*
X139319000Y-91567000D02*
X138049000Y-91567000D01*
X138049000Y-91567000D02*
X138049000Y-90805000D01*
D10*
X171722267Y-94463371D02*
X171698457Y-94487181D01*
X171627029Y-94510990D01*
X171579410Y-94510990D01*
X171507981Y-94487181D01*
X171460362Y-94439562D01*
X171436553Y-94391943D01*
X171412743Y-94296705D01*
X171412743Y-94225276D01*
X171436553Y-94130038D01*
X171460362Y-94082419D01*
X171507981Y-94034800D01*
X171579410Y-94010990D01*
X171627029Y-94010990D01*
X171698457Y-94034800D01*
X171722267Y-94058610D01*
X172198457Y-94510990D02*
X171912743Y-94510990D01*
X172055600Y-94510990D02*
X172055600Y-94010990D01*
X172007981Y-94082419D01*
X171960362Y-94130038D01*
X171912743Y-94153848D01*
X150557753Y-91310590D02*
X150557753Y-90810590D01*
X150748229Y-90810590D01*
X150795848Y-90834400D01*
X150819657Y-90858210D01*
X150843467Y-90905829D01*
X150843467Y-90977257D01*
X150819657Y-91024876D01*
X150795848Y-91048686D01*
X150748229Y-91072495D01*
X150557753Y-91072495D01*
X151319657Y-91310590D02*
X151033943Y-91310590D01*
X151176800Y-91310590D02*
X151176800Y-90810590D01*
X151129181Y-90882019D01*
X151081562Y-90929638D01*
X151033943Y-90953448D01*
X154723353Y-101267390D02*
X154723353Y-100767390D01*
X154913829Y-100767390D01*
X154961448Y-100791200D01*
X154985257Y-100815010D01*
X155009067Y-100862629D01*
X155009067Y-100934057D01*
X154985257Y-100981676D01*
X154961448Y-101005486D01*
X154913829Y-101029295D01*
X154723353Y-101029295D01*
X155199543Y-100815010D02*
X155223353Y-100791200D01*
X155270972Y-100767390D01*
X155390019Y-100767390D01*
X155437638Y-100791200D01*
X155461448Y-100815010D01*
X155485257Y-100862629D01*
X155485257Y-100910248D01*
X155461448Y-100981676D01*
X155175734Y-101267390D01*
X155485257Y-101267390D01*
X156126667Y-90802590D02*
X155960000Y-90564495D01*
X155840953Y-90802590D02*
X155840953Y-90302590D01*
X156031429Y-90302590D01*
X156079048Y-90326400D01*
X156102857Y-90350210D01*
X156126667Y-90397829D01*
X156126667Y-90469257D01*
X156102857Y-90516876D01*
X156079048Y-90540686D01*
X156031429Y-90564495D01*
X155840953Y-90564495D01*
X156602857Y-90802590D02*
X156317143Y-90802590D01*
X156460000Y-90802590D02*
X156460000Y-90302590D01*
X156412381Y-90374019D01*
X156364762Y-90421638D01*
X156317143Y-90445448D01*
X171925467Y-92174190D02*
X171758800Y-91936095D01*
X171639753Y-92174190D02*
X171639753Y-91674190D01*
X171830229Y-91674190D01*
X171877848Y-91698000D01*
X171901657Y-91721810D01*
X171925467Y-91769429D01*
X171925467Y-91840857D01*
X171901657Y-91888476D01*
X171877848Y-91912286D01*
X171830229Y-91936095D01*
X171639753Y-91936095D01*
X172115943Y-91721810D02*
X172139753Y-91698000D01*
X172187372Y-91674190D01*
X172306419Y-91674190D01*
X172354038Y-91698000D01*
X172377848Y-91721810D01*
X172401657Y-91769429D01*
X172401657Y-91817048D01*
X172377848Y-91888476D01*
X172092134Y-92174190D01*
X172401657Y-92174190D01*
X151148267Y-93850590D02*
X150981600Y-93612495D01*
X150862553Y-93850590D02*
X150862553Y-93350590D01*
X151053029Y-93350590D01*
X151100648Y-93374400D01*
X151124457Y-93398210D01*
X151148267Y-93445829D01*
X151148267Y-93517257D01*
X151124457Y-93564876D01*
X151100648Y-93588686D01*
X151053029Y-93612495D01*
X150862553Y-93612495D01*
X151314934Y-93350590D02*
X151624457Y-93350590D01*
X151457791Y-93541067D01*
X151529219Y-93541067D01*
X151576838Y-93564876D01*
X151600648Y-93588686D01*
X151624457Y-93636305D01*
X151624457Y-93755352D01*
X151600648Y-93802971D01*
X151576838Y-93826781D01*
X151529219Y-93850590D01*
X151386362Y-93850590D01*
X151338743Y-93826781D01*
X151314934Y-93802971D01*
X151148267Y-95730190D02*
X150981600Y-95492095D01*
X150862553Y-95730190D02*
X150862553Y-95230190D01*
X151053029Y-95230190D01*
X151100648Y-95254000D01*
X151124457Y-95277810D01*
X151148267Y-95325429D01*
X151148267Y-95396857D01*
X151124457Y-95444476D01*
X151100648Y-95468286D01*
X151053029Y-95492095D01*
X150862553Y-95492095D01*
X151576838Y-95396857D02*
X151576838Y-95730190D01*
X151457791Y-95206381D02*
X151338743Y-95563524D01*
X151648267Y-95563524D01*
X171823867Y-97914590D02*
X171657200Y-97676495D01*
X171538153Y-97914590D02*
X171538153Y-97414590D01*
X171728629Y-97414590D01*
X171776248Y-97438400D01*
X171800057Y-97462210D01*
X171823867Y-97509829D01*
X171823867Y-97581257D01*
X171800057Y-97628876D01*
X171776248Y-97652686D01*
X171728629Y-97676495D01*
X171538153Y-97676495D01*
X172276248Y-97414590D02*
X172038153Y-97414590D01*
X172014343Y-97652686D01*
X172038153Y-97628876D01*
X172085772Y-97605067D01*
X172204819Y-97605067D01*
X172252438Y-97628876D01*
X172276248Y-97652686D01*
X172300057Y-97700305D01*
X172300057Y-97819352D01*
X172276248Y-97866971D01*
X172252438Y-97890781D01*
X172204819Y-97914590D01*
X172085772Y-97914590D01*
X172038153Y-97890781D01*
X172014343Y-97866971D01*
X158724648Y-91166190D02*
X158724648Y-91570952D01*
X158748457Y-91618571D01*
X158772267Y-91642381D01*
X158819886Y-91666190D01*
X158915124Y-91666190D01*
X158962743Y-91642381D01*
X158986552Y-91618571D01*
X159010362Y-91570952D01*
X159010362Y-91166190D01*
X159224648Y-91213810D02*
X159248458Y-91190000D01*
X159296077Y-91166190D01*
X159415124Y-91166190D01*
X159462743Y-91190000D01*
X159486553Y-91213810D01*
X159510362Y-91261429D01*
X159510362Y-91309048D01*
X159486553Y-91380476D01*
X159200839Y-91666190D01*
X159510362Y-91666190D01*
X171373848Y-84714590D02*
X171373848Y-85119352D01*
X171397657Y-85166971D01*
X171421467Y-85190781D01*
X171469086Y-85214590D01*
X171564324Y-85214590D01*
X171611943Y-85190781D01*
X171635752Y-85166971D01*
X171659562Y-85119352D01*
X171659562Y-84714590D01*
X172159562Y-85214590D02*
X171873848Y-85214590D01*
X172016705Y-85214590D02*
X172016705Y-84714590D01*
X171969086Y-84786019D01*
X171921467Y-84833638D01*
X171873848Y-84857448D01*
X171581048Y-87102190D02*
X171866762Y-87102190D01*
X171723905Y-87602190D02*
X171723905Y-87102190D01*
X172033429Y-87602190D02*
X172033429Y-87102190D01*
X172223905Y-87102190D01*
X172271524Y-87126000D01*
X172295333Y-87149810D01*
X172319143Y-87197429D01*
X172319143Y-87268857D01*
X172295333Y-87316476D01*
X172271524Y-87340286D01*
X172223905Y-87364095D01*
X172033429Y-87364095D01*
X172795333Y-87602190D02*
X172509619Y-87602190D01*
X172652476Y-87602190D02*
X172652476Y-87102190D01*
X172604857Y-87173619D01*
X172557238Y-87221238D01*
X172509619Y-87245048D01*
X145458667Y-90031071D02*
X145434857Y-90054881D01*
X145363429Y-90078690D01*
X145315810Y-90078690D01*
X145244381Y-90054881D01*
X145196762Y-90007262D01*
X145172953Y-89959643D01*
X145149143Y-89864405D01*
X145149143Y-89792976D01*
X145172953Y-89697738D01*
X145196762Y-89650119D01*
X145244381Y-89602500D01*
X145315810Y-89578690D01*
X145363429Y-89578690D01*
X145434857Y-89602500D01*
X145458667Y-89626310D01*
X145934857Y-90078690D02*
X145649143Y-90078690D01*
X145792000Y-90078690D02*
X145792000Y-89578690D01*
X145744381Y-89650119D01*
X145696762Y-89697738D01*
X145649143Y-89721548D01*
X135489167Y-89396071D02*
X135465357Y-89419881D01*
X135393929Y-89443690D01*
X135346310Y-89443690D01*
X135274881Y-89419881D01*
X135227262Y-89372262D01*
X135203453Y-89324643D01*
X135179643Y-89229405D01*
X135179643Y-89157976D01*
X135203453Y-89062738D01*
X135227262Y-89015119D01*
X135274881Y-88967500D01*
X135346310Y-88943690D01*
X135393929Y-88943690D01*
X135465357Y-88967500D01*
X135489167Y-88991310D01*
X135679643Y-88991310D02*
X135703453Y-88967500D01*
X135751072Y-88943690D01*
X135870119Y-88943690D01*
X135917738Y-88967500D01*
X135941548Y-88991310D01*
X135965357Y-89038929D01*
X135965357Y-89086548D01*
X135941548Y-89157976D01*
X135655834Y-89443690D01*
X135965357Y-89443690D01*
X133774667Y-92761571D02*
X133750857Y-92785381D01*
X133679429Y-92809190D01*
X133631810Y-92809190D01*
X133560381Y-92785381D01*
X133512762Y-92737762D01*
X133488953Y-92690143D01*
X133465143Y-92594905D01*
X133465143Y-92523476D01*
X133488953Y-92428238D01*
X133512762Y-92380619D01*
X133560381Y-92333000D01*
X133631810Y-92309190D01*
X133679429Y-92309190D01*
X133750857Y-92333000D01*
X133774667Y-92356810D01*
X133941334Y-92309190D02*
X134250857Y-92309190D01*
X134084191Y-92499667D01*
X134155619Y-92499667D01*
X134203238Y-92523476D01*
X134227048Y-92547286D01*
X134250857Y-92594905D01*
X134250857Y-92713952D01*
X134227048Y-92761571D01*
X134203238Y-92785381D01*
X134155619Y-92809190D01*
X134012762Y-92809190D01*
X133965143Y-92785381D01*
X133941334Y-92761571D01*
X145585667Y-92507571D02*
X145561857Y-92531381D01*
X145490429Y-92555190D01*
X145442810Y-92555190D01*
X145371381Y-92531381D01*
X145323762Y-92483762D01*
X145299953Y-92436143D01*
X145276143Y-92340905D01*
X145276143Y-92269476D01*
X145299953Y-92174238D01*
X145323762Y-92126619D01*
X145371381Y-92079000D01*
X145442810Y-92055190D01*
X145490429Y-92055190D01*
X145561857Y-92079000D01*
X145585667Y-92102810D01*
X146014238Y-92221857D02*
X146014238Y-92555190D01*
X145895191Y-92031381D02*
X145776143Y-92388524D01*
X146085667Y-92388524D01*
X141743953Y-85951190D02*
X141743953Y-85451190D01*
X141934429Y-85451190D01*
X141982048Y-85475000D01*
X142005857Y-85498810D01*
X142029667Y-85546429D01*
X142029667Y-85617857D01*
X142005857Y-85665476D01*
X141982048Y-85689286D01*
X141934429Y-85713095D01*
X141743953Y-85713095D01*
X142505857Y-85951190D02*
X142220143Y-85951190D01*
X142363000Y-85951190D02*
X142363000Y-85451190D01*
X142315381Y-85522619D01*
X142267762Y-85570238D01*
X142220143Y-85594048D01*
X133488953Y-85506690D02*
X133488953Y-85006690D01*
X133679429Y-85006690D01*
X133727048Y-85030500D01*
X133750857Y-85054310D01*
X133774667Y-85101929D01*
X133774667Y-85173357D01*
X133750857Y-85220976D01*
X133727048Y-85244786D01*
X133679429Y-85268595D01*
X133488953Y-85268595D01*
X133965143Y-85054310D02*
X133988953Y-85030500D01*
X134036572Y-85006690D01*
X134155619Y-85006690D01*
X134203238Y-85030500D01*
X134227048Y-85054310D01*
X134250857Y-85101929D01*
X134250857Y-85149548D01*
X134227048Y-85220976D01*
X133941334Y-85506690D01*
X134250857Y-85506690D01*
X135139953Y-101889690D02*
X135139953Y-101389690D01*
X135330429Y-101389690D01*
X135378048Y-101413500D01*
X135401857Y-101437310D01*
X135425667Y-101484929D01*
X135425667Y-101556357D01*
X135401857Y-101603976D01*
X135378048Y-101627786D01*
X135330429Y-101651595D01*
X135139953Y-101651595D01*
X135592334Y-101389690D02*
X135901857Y-101389690D01*
X135735191Y-101580167D01*
X135806619Y-101580167D01*
X135854238Y-101603976D01*
X135878048Y-101627786D01*
X135901857Y-101675405D01*
X135901857Y-101794452D01*
X135878048Y-101842071D01*
X135854238Y-101865881D01*
X135806619Y-101889690D01*
X135663762Y-101889690D01*
X135616143Y-101865881D01*
X135592334Y-101842071D01*
X135064548Y-90467690D02*
X135064548Y-90872452D01*
X135088357Y-90920071D01*
X135112167Y-90943881D01*
X135159786Y-90967690D01*
X135255024Y-90967690D01*
X135302643Y-90943881D01*
X135326452Y-90920071D01*
X135350262Y-90872452D01*
X135350262Y-90467690D01*
X135850262Y-90967690D02*
X135564548Y-90967690D01*
X135707405Y-90967690D02*
X135707405Y-90467690D01*
X135659786Y-90539119D01*
X135612167Y-90586738D01*
X135564548Y-90610548D01*
%LPC*%
D12*
X148082000Y-86868000D03*
X148082000Y-88900000D03*
X149606000Y-86868000D03*
X149860000Y-87884000D03*
X147828000Y-87884000D03*
X149606000Y-88900000D03*
D13*
X167456800Y-94284800D03*
X169956800Y-94284800D03*
D14*
X151942800Y-86258400D03*
D15*
X151942800Y-88798400D03*
D14*
X157632400Y-100025200D03*
D15*
X160172400Y-100025200D03*
D16*
X155854400Y-88878400D03*
X155854400Y-86178400D03*
D17*
X167356800Y-92049600D03*
X170056800Y-92049600D03*
X152878800Y-93573600D03*
X155578800Y-93573600D03*
X155629600Y-95605600D03*
X152929600Y-95605600D03*
X170056800Y-96723200D03*
X167356800Y-96723200D03*
D18*
X157980400Y-93040200D03*
X157980400Y-94310200D03*
X157980400Y-95580200D03*
X157980400Y-96850200D03*
X163380400Y-96850200D03*
X163380400Y-95580200D03*
X163380400Y-94310200D03*
X163380400Y-93040200D03*
D19*
X166624500Y-85030000D03*
X157674500Y-90230000D03*
D20*
X159274500Y-88900000D03*
X159274500Y-86360000D03*
X169274500Y-88900000D03*
X169274500Y-86360000D03*
D21*
X172466000Y-88900000D03*
D22*
X142129000Y-90017600D03*
X144129000Y-90017600D03*
D23*
X140247500Y-89471500D03*
X137247500Y-89471500D03*
D24*
X134175500Y-93996000D03*
X134175500Y-95996000D03*
D23*
X143089500Y-94043500D03*
X146089500Y-94043500D03*
D14*
X137541000Y-86461600D03*
D15*
X140081000Y-86461600D03*
D25*
X131191000Y-86550500D03*
D26*
X131191000Y-89090500D03*
X131191000Y-91630500D03*
X131191000Y-94170500D03*
D14*
X137795000Y-100330000D03*
D15*
X140335000Y-100330000D03*
D27*
X136017000Y-91694000D03*
X136017000Y-92329000D03*
X136017000Y-92989400D03*
X136017000Y-93649800D03*
X136017000Y-94284800D03*
X136017000Y-94945200D03*
X136017000Y-95605600D03*
X136017000Y-96240600D03*
X136017000Y-96901000D03*
X136017000Y-97536000D03*
X141351000Y-97536000D03*
X141351000Y-96901000D03*
X141351000Y-96240600D03*
X141351000Y-95605600D03*
X141351000Y-94945200D03*
X141351000Y-94284800D03*
X141351000Y-93649800D03*
X141351000Y-92989400D03*
X141351000Y-92329000D03*
X141351000Y-91694000D03*
D12*
X148082000Y-96520000D03*
X148082000Y-98552000D03*
X149606000Y-96520000D03*
X149860000Y-97536000D03*
X147828000Y-97536000D03*
X149606000Y-98552000D03*
M02*
