M48
;DRILL file {KiCad 0.201505220134+5676~23~ubuntu14.04.1-product} date Thu 25 Jun 2015 11:36:48 PM PDT
;FORMAT={2:4/ absolute / inch / suppress leading zeros}
FMAT,2
INCH,TZ
T1C0.013
T2C0.024
T3C0.031
T4C0.040
%
G90
G05
M72
T1
X51350Y-39525
X51400Y-38275
X51450Y-38750
X51600Y-37875
X51750Y-39925
X51900Y-38450
X51925Y-39075
X52150Y-37925
X52150Y-39550
X52250Y-40075
X52325Y-38700
X52575Y-34450
X52575Y-35100
X52575Y-35625
X52575Y-36500
X52650Y-39350
X52675Y-38300
X52825Y-33850
X52825Y-40000
X52900Y-34875
X52900Y-36325
X52925Y-38700
X53075Y-34375
X53225Y-39100
X53325Y-40050
X53350Y-33875
X53400Y-34925
X53400Y-35425
X53450Y-39525
X54750Y-36600
X54950Y-36325
X56125Y-34100
X56150Y-34750
X56175Y-38450
X56225Y-39725
X56250Y-39075
X56375Y-36300
X56500Y-37950
X56650Y-33725
X56700Y-39475
X56800Y-34750
X56800Y-40075
X56850Y-38850
X56900Y-35950
X56900Y-37050
X56950Y-34275
X56950Y-36525
X56975Y-37600
X57075Y-38275
X57150Y-39575
X57425Y-40050
X57450Y-33750
X57550Y-34925
X57550Y-35575
X57550Y-36125
X57600Y-39150
X57625Y-37825
X57625Y-38425
X57725Y-39625
X57775Y-34350
X60160Y-36240
X64540Y-36040
X67560Y-38060
T2
X58200Y-34600
X58200Y-38400
X58300Y-34200
X58300Y-35000
X58300Y-38000
X58300Y-38800
X58900Y-34200
X58900Y-35000
X58900Y-38000
X58900Y-38800
X59000Y-34600
X59000Y-38400
T3
X62077Y-35524
X62706Y-34000
X62706Y-35000
X65600Y-33476
X66644Y-34000
X66644Y-35000
T4
X51650Y-34075
X51650Y-35075
X51650Y-36075
X51650Y-37075
X54150Y-34040
X54250Y-39500
X55150Y-34040
X55250Y-39500
X59820Y-33960
X59820Y-34960
X62060Y-39380
X63060Y-39380
T0
M30
