G04 #@! TF.FileFunction,Copper,L1,Top,Signal*
%FSLAX46Y46*%
G04 Gerber Fmt 4.6, Leading zero omitted, Abs format (unit mm)*
G04 Created by KiCad (PCBNEW 0.201505220134+5676~23~ubuntu14.04.1-product) date Thu 25 Jun 2015 11:34:38 PM PDT*
%MOMM*%
G01*
G04 APERTURE LIST*
%ADD10C,0.100000*%
%ADD11R,1.500000X1.250000*%
%ADD12R,2.032000X2.032000*%
%ADD13O,2.032000X2.032000*%
%ADD14R,1.300000X1.500000*%
%ADD15R,1.500000X1.300000*%
%ADD16R,1.550000X0.600000*%
%ADD17C,1.400000*%
%ADD18C,1.524000*%
%ADD19R,1.000000X1.250000*%
%ADD20R,1.000000X1.600000*%
%ADD21R,1.250000X1.000000*%
%ADD22R,2.032000X1.727200*%
%ADD23O,2.032000X1.727200*%
%ADD24R,1.270000X0.406400*%
%ADD25C,0.685800*%
%ADD26C,0.609600*%
%ADD27C,0.304800*%
%ADD28C,0.152400*%
G04 APERTURE END LIST*
D10*
D11*
X167456800Y-94284800D03*
X169956800Y-94284800D03*
D12*
X151942800Y-86258400D03*
D13*
X151942800Y-88798400D03*
D12*
X157632400Y-100025200D03*
D13*
X160172400Y-100025200D03*
D14*
X155854400Y-88878400D03*
X155854400Y-86178400D03*
D15*
X167356800Y-92049600D03*
X170056800Y-92049600D03*
X152878800Y-93573600D03*
X155578800Y-93573600D03*
X155629600Y-95605600D03*
X152929600Y-95605600D03*
X170056800Y-96723200D03*
X167356800Y-96723200D03*
D16*
X157980400Y-93040200D03*
X157980400Y-94310200D03*
X157980400Y-95580200D03*
X157980400Y-96850200D03*
X163380400Y-96850200D03*
X163380400Y-95580200D03*
X163380400Y-94310200D03*
X163380400Y-93040200D03*
D17*
X159274500Y-88900000D03*
X159274500Y-86360000D03*
X169274500Y-88900000D03*
X169274500Y-86360000D03*
D18*
X172466000Y-88900000D03*
D19*
X142129000Y-90017600D03*
X144129000Y-90017600D03*
D20*
X140247500Y-89471500D03*
X137247500Y-89471500D03*
D21*
X134175500Y-93996000D03*
X134175500Y-95996000D03*
D20*
X143089500Y-94043500D03*
X146089500Y-94043500D03*
D12*
X137541000Y-86461600D03*
D13*
X140081000Y-86461600D03*
D22*
X131191000Y-86550500D03*
D23*
X131191000Y-89090500D03*
X131191000Y-91630500D03*
X131191000Y-94170500D03*
D12*
X137795000Y-100330000D03*
D13*
X140335000Y-100330000D03*
D24*
X136017000Y-91694000D03*
X136017000Y-92329000D03*
X136017000Y-92989400D03*
X136017000Y-93649800D03*
X136017000Y-94284800D03*
X136017000Y-94945200D03*
X136017000Y-95605600D03*
X136017000Y-96240600D03*
X136017000Y-96901000D03*
X136017000Y-97536000D03*
X141351000Y-97536000D03*
X141351000Y-96901000D03*
X141351000Y-96240600D03*
X141351000Y-95605600D03*
X141351000Y-94945200D03*
X141351000Y-94284800D03*
X141351000Y-93649800D03*
X141351000Y-92989400D03*
X141351000Y-92329000D03*
X141351000Y-91694000D03*
D25*
X163931600Y-91541600D03*
X171602400Y-96672400D03*
X152806400Y-92049600D03*
X135191500Y-99314000D03*
X134429500Y-98298000D03*
X133794500Y-97282000D03*
X132905500Y-98298000D03*
X133731000Y-99949000D03*
X134175500Y-101600000D03*
X132715000Y-101790500D03*
X132461000Y-100457000D03*
X131889500Y-99250500D03*
X131445000Y-101409500D03*
X130429000Y-100393500D03*
X130683000Y-98425000D03*
X131826000Y-97663000D03*
X132461000Y-96329500D03*
X131064000Y-96202500D03*
X130556000Y-97218500D03*
X142621000Y-88265000D03*
X142557500Y-86614000D03*
X143891000Y-85661500D03*
X145923000Y-85725000D03*
X146748500Y-87249000D03*
X144653000Y-87058500D03*
X144272000Y-88265000D03*
X146177000Y-88709500D03*
X146177000Y-90360500D03*
X146177000Y-91757500D03*
X144526000Y-91313000D03*
X143192500Y-92202000D03*
X144653000Y-92773500D03*
X144526000Y-94107000D03*
X144716500Y-95504000D03*
X146367500Y-96075500D03*
X146367500Y-97599500D03*
X144970500Y-97218500D03*
X143510000Y-96393000D03*
X142684500Y-97663000D03*
X142875000Y-99250500D03*
X144399000Y-98679000D03*
X146304000Y-99441000D03*
X146621500Y-100647500D03*
X145859500Y-101727000D03*
X145161000Y-100520500D03*
X144018000Y-100266500D03*
X142811500Y-100901500D03*
X144272000Y-101790500D03*
X135445500Y-101727000D03*
X135763000Y-100393500D03*
X135509000Y-86042500D03*
X134175500Y-85979000D03*
X133540500Y-87503000D03*
X134810500Y-87312500D03*
X135636000Y-88709500D03*
X134366000Y-88582500D03*
X135636000Y-89979500D03*
X134366000Y-92265500D03*
X133540500Y-89154000D03*
X139573000Y-92265500D03*
X133540500Y-90487500D03*
X139065000Y-92964000D03*
X133540500Y-92710000D03*
D26*
X163456600Y-92964000D02*
X163380400Y-93040200D01*
X164592000Y-92964000D02*
X163456600Y-92964000D01*
X164592000Y-92202000D02*
X163931600Y-91541600D01*
X164592000Y-92913200D02*
X164592000Y-92202000D01*
X164592000Y-92964000D02*
X164592000Y-92913200D01*
X164998400Y-92913200D02*
X166370000Y-94284800D01*
X166370000Y-94284800D02*
X167456800Y-94284800D01*
X164592000Y-92913200D02*
X164998400Y-92913200D01*
X165862000Y-92049600D02*
X164998400Y-92913200D01*
X167356800Y-92049600D02*
X165862000Y-92049600D01*
X171551600Y-96723200D02*
X171602400Y-96672400D01*
X170056800Y-96723200D02*
X171551600Y-96723200D01*
X152878800Y-92122000D02*
X152806400Y-92049600D01*
X152878800Y-93573600D02*
X152878800Y-92122000D01*
D27*
X144129000Y-90017600D02*
X144129000Y-89455500D01*
X135191500Y-99314000D02*
X134429500Y-98552000D01*
X134429500Y-98552000D02*
X134429500Y-98298000D01*
X133794500Y-97282000D02*
X132905500Y-98171000D01*
X132905500Y-98171000D02*
X132905500Y-98298000D01*
X133731000Y-99949000D02*
X134175500Y-100393500D01*
X134175500Y-100393500D02*
X134175500Y-101600000D01*
X132715000Y-101790500D02*
X132461000Y-101536500D01*
X132461000Y-101536500D02*
X132461000Y-100457000D01*
X131889500Y-99250500D02*
X131445000Y-99695000D01*
X131445000Y-99695000D02*
X131445000Y-101409500D01*
X130429000Y-100393500D02*
X130683000Y-100139500D01*
X130683000Y-100139500D02*
X130683000Y-98425000D01*
X131826000Y-97663000D02*
X132461000Y-97028000D01*
X132461000Y-97028000D02*
X132461000Y-96329500D01*
X131064000Y-96202500D02*
X130556000Y-96710500D01*
X130556000Y-96710500D02*
X130556000Y-97218500D01*
X144129000Y-89455500D02*
X142938500Y-88265000D01*
X142938500Y-88265000D02*
X142621000Y-88265000D01*
X142557500Y-86614000D02*
X143510000Y-85661500D01*
X143510000Y-85661500D02*
X143891000Y-85661500D01*
X145923000Y-85725000D02*
X146748500Y-86550500D01*
X146748500Y-86550500D02*
X146748500Y-87249000D01*
X144653000Y-87058500D02*
X144272000Y-87439500D01*
X144272000Y-87439500D02*
X144272000Y-88265000D01*
X146177000Y-88709500D02*
X146177000Y-90360500D01*
X146177000Y-91757500D02*
X145732500Y-91313000D01*
X145732500Y-91313000D02*
X144526000Y-91313000D01*
X143192500Y-92202000D02*
X143764000Y-92773500D01*
X143764000Y-92773500D02*
X144653000Y-92773500D01*
X144526000Y-94107000D02*
X144716500Y-94297500D01*
X144716500Y-94297500D02*
X144716500Y-95504000D01*
X146367500Y-96075500D02*
X146367500Y-97599500D01*
X144970500Y-97218500D02*
X144145000Y-96393000D01*
X144145000Y-96393000D02*
X143510000Y-96393000D01*
X142684500Y-97663000D02*
X142875000Y-97853500D01*
X142875000Y-97853500D02*
X142875000Y-99250500D01*
X144399000Y-98679000D02*
X145161000Y-99441000D01*
X145161000Y-99441000D02*
X146304000Y-99441000D01*
X146621500Y-100647500D02*
X145859500Y-101409500D01*
X145859500Y-101409500D02*
X145859500Y-101727000D01*
X145161000Y-100520500D02*
X144907000Y-100266500D01*
X144907000Y-100266500D02*
X144018000Y-100266500D01*
X142811500Y-100901500D02*
X143700500Y-101790500D01*
X143700500Y-101790500D02*
X144272000Y-101790500D01*
X135445500Y-101727000D02*
X135763000Y-101409500D01*
X135763000Y-101409500D02*
X135763000Y-100393500D01*
X135509000Y-86042500D02*
X135445500Y-85979000D01*
X135445500Y-85979000D02*
X134175500Y-85979000D01*
X133540500Y-87503000D02*
X133731000Y-87312500D01*
X133731000Y-87312500D02*
X134810500Y-87312500D01*
X135636000Y-88709500D02*
X135509000Y-88582500D01*
X135509000Y-88582500D02*
X134366000Y-88582500D01*
D26*
X157632400Y-98806000D02*
X158343600Y-98094800D01*
X158343600Y-98094800D02*
X159359600Y-98094800D01*
X159359600Y-98094800D02*
X161442400Y-96012000D01*
X161442400Y-96012000D02*
X161442400Y-94894400D01*
X161442400Y-94894400D02*
X162026600Y-94310200D01*
X162026600Y-94310200D02*
X163380400Y-94310200D01*
X157632400Y-100025200D02*
X157632400Y-98806000D01*
X164769800Y-94310200D02*
X163380400Y-94310200D01*
X165354000Y-94894400D02*
X164769800Y-94310200D01*
X165354000Y-95351600D02*
X165354000Y-94894400D01*
X166725600Y-96723200D02*
X165354000Y-95351600D01*
X167356800Y-96723200D02*
X166725600Y-96723200D01*
X155883600Y-88900000D02*
X159274500Y-88900000D01*
X163576000Y-88900000D02*
X160782000Y-91694000D01*
X160782000Y-91694000D02*
X160782000Y-93675200D01*
X160782000Y-93675200D02*
X160147000Y-94310200D01*
X160147000Y-94310200D02*
X157980400Y-94310200D01*
X169274500Y-88900000D02*
X163576000Y-88900000D01*
X170056800Y-89682300D02*
X169274500Y-88900000D01*
X170056800Y-92049600D02*
X170056800Y-89682300D01*
X169325300Y-88950800D02*
X169274500Y-88900000D01*
X172466000Y-88900000D02*
X169274500Y-88900000D01*
X157955000Y-95605600D02*
X157980400Y-95580200D01*
X155629600Y-95605600D02*
X157955000Y-95605600D01*
X155578800Y-95554800D02*
X155629600Y-95605600D01*
X155578800Y-93573600D02*
X155578800Y-95554800D01*
X163380400Y-95580200D02*
X163380400Y-96850200D01*
D27*
X141351000Y-91694000D02*
X142430500Y-91694000D01*
X142875000Y-90763600D02*
X142129000Y-90017600D01*
X142875000Y-91249500D02*
X142875000Y-90763600D01*
X142430500Y-91694000D02*
X142875000Y-91249500D01*
X141351000Y-91694000D02*
X141351000Y-90424000D01*
X141351000Y-90424000D02*
X141757400Y-90017600D01*
X141757400Y-90017600D02*
X142129000Y-90017600D01*
X141351000Y-91694000D02*
X140398500Y-91694000D01*
X140247500Y-91543000D02*
X140247500Y-89471500D01*
X140398500Y-91694000D02*
X140247500Y-91543000D01*
D26*
X142129000Y-90017600D02*
X140793600Y-90017600D01*
X140793600Y-90017600D02*
X140247500Y-89471500D01*
X140247500Y-89471500D02*
X140247500Y-86628100D01*
X140247500Y-86628100D02*
X140081000Y-86461600D01*
D27*
X141351000Y-94284800D02*
X136017000Y-94284800D01*
X136017000Y-93649800D02*
X141351000Y-93649800D01*
X136017000Y-94284800D02*
X134464300Y-94284800D01*
X134464300Y-94284800D02*
X134223000Y-94043500D01*
X136017000Y-93649800D02*
X134616700Y-93649800D01*
X134616700Y-93649800D02*
X134223000Y-94043500D01*
X141351000Y-93649800D02*
X142695800Y-93649800D01*
X142695800Y-93649800D02*
X143089500Y-94043500D01*
X141351000Y-94284800D02*
X142848200Y-94284800D01*
X142848200Y-94284800D02*
X143089500Y-94043500D01*
X134366000Y-92265500D02*
X134429500Y-92329000D01*
X134429500Y-92329000D02*
X136017000Y-92329000D01*
X133477000Y-89090500D02*
X133540500Y-89154000D01*
X139573000Y-92265500D02*
X139636500Y-92329000D01*
X139636500Y-92329000D02*
X141351000Y-92329000D01*
X131191000Y-89090500D02*
X133477000Y-89090500D01*
X132397500Y-91630500D02*
X133540500Y-90487500D01*
X139065000Y-92964000D02*
X139090400Y-92989400D01*
X139090400Y-92989400D02*
X141351000Y-92989400D01*
X131191000Y-91630500D02*
X132397500Y-91630500D01*
X133819900Y-92989400D02*
X133540500Y-92710000D01*
X136017000Y-92989400D02*
X133819900Y-92989400D01*
X136017000Y-94945200D02*
X137553700Y-94945200D01*
X137795000Y-95186500D02*
X137795000Y-96964500D01*
X137553700Y-94945200D02*
X137795000Y-95186500D01*
X136017000Y-95605600D02*
X137134600Y-95605600D01*
X137795000Y-96266000D02*
X137795000Y-96964500D01*
D26*
X137795000Y-96964500D02*
X137795000Y-100330000D01*
D27*
X137134600Y-95605600D02*
X137795000Y-96266000D01*
X141351000Y-95605600D02*
X140487400Y-95605600D01*
X140487400Y-95605600D02*
X139890500Y-96202500D01*
X141351000Y-94945200D02*
X140449300Y-94945200D01*
X139890500Y-95504000D02*
X139890500Y-96202500D01*
D26*
X139890500Y-96202500D02*
X139890500Y-99885500D01*
D27*
X140449300Y-94945200D02*
X139890500Y-95504000D01*
X139890500Y-99885500D02*
X140335000Y-100330000D01*
D28*
G36*
X175743400Y-102133400D02*
X173456772Y-102133400D01*
X173456772Y-88703822D01*
X173306279Y-88339603D01*
X173027862Y-88060700D01*
X172663907Y-87909572D01*
X172269822Y-87909228D01*
X171905603Y-88059721D01*
X171626700Y-88338138D01*
X171614881Y-88366600D01*
X170306524Y-88366600D01*
X170306524Y-86555524D01*
X170302790Y-86145702D01*
X170153142Y-85784421D01*
X169993839Y-85712503D01*
X169921997Y-85784345D01*
X169921997Y-85640661D01*
X169850079Y-85481358D01*
X169470024Y-85327976D01*
X169060202Y-85331710D01*
X168698921Y-85481358D01*
X168627003Y-85640661D01*
X169274500Y-86288158D01*
X169921997Y-85640661D01*
X169921997Y-85784345D01*
X169346342Y-86360000D01*
X169993839Y-87007497D01*
X170153142Y-86935579D01*
X170306524Y-86555524D01*
X170306524Y-88366600D01*
X170054124Y-88366600D01*
X169921997Y-88234242D01*
X169921997Y-87079339D01*
X169274500Y-86431842D01*
X169202658Y-86503684D01*
X169202658Y-86360000D01*
X168555161Y-85712503D01*
X168395858Y-85784421D01*
X168242476Y-86164476D01*
X168246210Y-86574298D01*
X168395858Y-86935579D01*
X168555161Y-87007497D01*
X169202658Y-86360000D01*
X169202658Y-86503684D01*
X168627003Y-87079339D01*
X168698921Y-87238642D01*
X169078976Y-87392024D01*
X169488798Y-87388290D01*
X169850079Y-87238642D01*
X169921997Y-87079339D01*
X169921997Y-88234242D01*
X169801196Y-88113231D01*
X169460020Y-87971562D01*
X169090600Y-87971240D01*
X168749178Y-88112312D01*
X168494446Y-88366600D01*
X167253209Y-88366600D01*
X167253209Y-84905512D01*
X167157712Y-84674392D01*
X166981038Y-84497410D01*
X166750085Y-84401509D01*
X166500012Y-84401291D01*
X166268892Y-84496788D01*
X166091910Y-84673462D01*
X165996009Y-84904415D01*
X165995791Y-85154488D01*
X166091288Y-85385608D01*
X166267962Y-85562590D01*
X166498915Y-85658491D01*
X166748988Y-85658709D01*
X166980108Y-85563212D01*
X167157090Y-85386538D01*
X167252991Y-85155585D01*
X167253209Y-84905512D01*
X167253209Y-88366600D01*
X163576005Y-88366600D01*
X163576000Y-88366599D01*
X163371877Y-88407203D01*
X163198829Y-88522829D01*
X160404829Y-91316829D01*
X160289203Y-91489877D01*
X160248600Y-91694000D01*
X160248600Y-93454258D01*
X160203260Y-93499598D01*
X160203260Y-88716100D01*
X160203260Y-86176100D01*
X160062188Y-85834678D01*
X159801196Y-85573231D01*
X159460020Y-85431562D01*
X159090600Y-85431240D01*
X158749178Y-85572312D01*
X158487731Y-85833304D01*
X158346062Y-86174480D01*
X158345740Y-86543900D01*
X158486812Y-86885322D01*
X158747804Y-87146769D01*
X159088980Y-87288438D01*
X159458400Y-87288760D01*
X159799822Y-87147688D01*
X160061269Y-86886696D01*
X160202938Y-86545520D01*
X160203260Y-86176100D01*
X160203260Y-88716100D01*
X160062188Y-88374678D01*
X159801196Y-88113231D01*
X159460020Y-87971562D01*
X159090600Y-87971240D01*
X158749178Y-88112312D01*
X158494446Y-88366600D01*
X156834600Y-88366600D01*
X156834600Y-86994081D01*
X156834600Y-86311750D01*
X156834600Y-86045050D01*
X156834600Y-85362719D01*
X156784330Y-85241357D01*
X156691443Y-85148470D01*
X156570081Y-85098200D01*
X156438719Y-85098200D01*
X155987750Y-85098200D01*
X155905200Y-85180750D01*
X155905200Y-86127600D01*
X156752050Y-86127600D01*
X156834600Y-86045050D01*
X156834600Y-86311750D01*
X156752050Y-86229200D01*
X155905200Y-86229200D01*
X155905200Y-87176050D01*
X155987750Y-87258600D01*
X156438719Y-87258600D01*
X156570081Y-87258600D01*
X156691443Y-87208330D01*
X156784330Y-87115443D01*
X156834600Y-86994081D01*
X156834600Y-88366600D01*
X156737479Y-88366600D01*
X156737479Y-88128400D01*
X156720567Y-88041236D01*
X156670242Y-87964626D01*
X156594271Y-87913344D01*
X156504400Y-87895321D01*
X155803600Y-87895321D01*
X155803600Y-87176050D01*
X155803600Y-86229200D01*
X155803600Y-86127600D01*
X155803600Y-85180750D01*
X155721050Y-85098200D01*
X155270081Y-85098200D01*
X155138719Y-85098200D01*
X155017357Y-85148470D01*
X154924470Y-85241357D01*
X154874200Y-85362719D01*
X154874200Y-86045050D01*
X154956750Y-86127600D01*
X155803600Y-86127600D01*
X155803600Y-86229200D01*
X154956750Y-86229200D01*
X154874200Y-86311750D01*
X154874200Y-86994081D01*
X154924470Y-87115443D01*
X155017357Y-87208330D01*
X155138719Y-87258600D01*
X155270081Y-87258600D01*
X155721050Y-87258600D01*
X155803600Y-87176050D01*
X155803600Y-87895321D01*
X155204400Y-87895321D01*
X155117236Y-87912233D01*
X155040626Y-87962558D01*
X154989344Y-88038529D01*
X154971321Y-88128400D01*
X154971321Y-89628400D01*
X154988233Y-89715564D01*
X155038558Y-89792174D01*
X155114529Y-89843456D01*
X155204400Y-89861479D01*
X156504400Y-89861479D01*
X156591564Y-89844567D01*
X156668174Y-89794242D01*
X156719456Y-89718271D01*
X156737479Y-89628400D01*
X156737479Y-89433400D01*
X158494875Y-89433400D01*
X158747804Y-89686769D01*
X159088980Y-89828438D01*
X159458400Y-89828760D01*
X159799822Y-89687688D01*
X160061269Y-89426696D01*
X160202938Y-89085520D01*
X160203260Y-88716100D01*
X160203260Y-93499598D01*
X159926058Y-93776800D01*
X159085600Y-93776800D01*
X159085600Y-93405881D01*
X159085600Y-93274519D01*
X159085600Y-93173550D01*
X159085600Y-92906850D01*
X159085600Y-92805881D01*
X159085600Y-92674519D01*
X159035330Y-92553157D01*
X158942443Y-92460270D01*
X158821081Y-92410000D01*
X158303209Y-92410000D01*
X158303209Y-90105512D01*
X158207712Y-89874392D01*
X158031038Y-89697410D01*
X157800085Y-89601509D01*
X157550012Y-89601291D01*
X157318892Y-89696788D01*
X157141910Y-89873462D01*
X157046009Y-90104415D01*
X157045791Y-90354488D01*
X157141288Y-90585608D01*
X157317962Y-90762590D01*
X157548915Y-90858491D01*
X157798988Y-90858709D01*
X158030108Y-90763212D01*
X158207090Y-90586538D01*
X158302991Y-90355585D01*
X158303209Y-90105512D01*
X158303209Y-92410000D01*
X158113750Y-92410000D01*
X158031200Y-92492550D01*
X158031200Y-92989400D01*
X159003050Y-92989400D01*
X159085600Y-92906850D01*
X159085600Y-93173550D01*
X159003050Y-93091000D01*
X158031200Y-93091000D01*
X158031200Y-93587850D01*
X158113750Y-93670400D01*
X158821081Y-93670400D01*
X158942443Y-93620130D01*
X159035330Y-93527243D01*
X159085600Y-93405881D01*
X159085600Y-93776800D01*
X157980400Y-93776800D01*
X157978786Y-93777121D01*
X157929600Y-93777121D01*
X157929600Y-93587850D01*
X157929600Y-93091000D01*
X157929600Y-92989400D01*
X157929600Y-92492550D01*
X157847050Y-92410000D01*
X157139719Y-92410000D01*
X157018357Y-92460270D01*
X156925470Y-92553157D01*
X156875200Y-92674519D01*
X156875200Y-92805881D01*
X156875200Y-92906850D01*
X156957750Y-92989400D01*
X157929600Y-92989400D01*
X157929600Y-93091000D01*
X156957750Y-93091000D01*
X156875200Y-93173550D01*
X156875200Y-93274519D01*
X156875200Y-93405881D01*
X156925470Y-93527243D01*
X157018357Y-93620130D01*
X157139719Y-93670400D01*
X157847050Y-93670400D01*
X157929600Y-93587850D01*
X157929600Y-93777121D01*
X157205400Y-93777121D01*
X157118236Y-93794033D01*
X157041626Y-93844358D01*
X156990344Y-93920329D01*
X156972321Y-94010200D01*
X156972321Y-94610200D01*
X156989233Y-94697364D01*
X157039558Y-94773974D01*
X157115529Y-94825256D01*
X157205400Y-94843279D01*
X157978786Y-94843279D01*
X157980400Y-94843600D01*
X160147000Y-94843600D01*
X160351123Y-94802997D01*
X160524171Y-94687371D01*
X161159167Y-94052373D01*
X161159171Y-94052371D01*
X161159171Y-94052370D01*
X161274797Y-93879323D01*
X161315400Y-93675200D01*
X161315401Y-93675200D01*
X161315400Y-93675194D01*
X161315400Y-91914942D01*
X163796942Y-89433400D01*
X168494875Y-89433400D01*
X168747804Y-89686769D01*
X169088980Y-89828438D01*
X169448909Y-89828751D01*
X169523400Y-89903242D01*
X169523400Y-91166521D01*
X169306800Y-91166521D01*
X169219636Y-91183433D01*
X169143026Y-91233758D01*
X169091744Y-91309729D01*
X169073721Y-91399600D01*
X169073721Y-92699600D01*
X169090633Y-92786764D01*
X169140958Y-92863374D01*
X169216929Y-92914656D01*
X169306800Y-92932679D01*
X170806800Y-92932679D01*
X170893964Y-92915767D01*
X170970574Y-92865442D01*
X171021856Y-92789471D01*
X171039879Y-92699600D01*
X171039879Y-91399600D01*
X171022967Y-91312436D01*
X170972642Y-91235826D01*
X170896671Y-91184544D01*
X170806800Y-91166521D01*
X170590200Y-91166521D01*
X170590200Y-89682300D01*
X170549597Y-89478177D01*
X170549597Y-89478176D01*
X170519678Y-89433400D01*
X171614566Y-89433400D01*
X171625721Y-89460397D01*
X171904138Y-89739300D01*
X172268093Y-89890428D01*
X172662178Y-89890772D01*
X173026397Y-89740279D01*
X173305300Y-89461862D01*
X173456428Y-89097907D01*
X173456772Y-88703822D01*
X173456772Y-102133400D01*
X172173999Y-102133400D01*
X172173999Y-96559220D01*
X172087176Y-96349094D01*
X171926551Y-96188189D01*
X171716577Y-96101000D01*
X171489220Y-96100801D01*
X171279094Y-96187624D01*
X171276914Y-96189800D01*
X171039879Y-96189800D01*
X171039879Y-96073200D01*
X171037000Y-96058361D01*
X171037000Y-94975481D01*
X171037000Y-94844119D01*
X171037000Y-94418150D01*
X171037000Y-94151450D01*
X171037000Y-93725481D01*
X171037000Y-93594119D01*
X170986730Y-93472757D01*
X170893843Y-93379870D01*
X170772481Y-93329600D01*
X170090150Y-93329600D01*
X170007600Y-93412150D01*
X170007600Y-94234000D01*
X170954450Y-94234000D01*
X171037000Y-94151450D01*
X171037000Y-94418150D01*
X170954450Y-94335600D01*
X170007600Y-94335600D01*
X170007600Y-95157450D01*
X170090150Y-95240000D01*
X170772481Y-95240000D01*
X170893843Y-95189730D01*
X170986730Y-95096843D01*
X171037000Y-94975481D01*
X171037000Y-96058361D01*
X171022967Y-95986036D01*
X170972642Y-95909426D01*
X170896671Y-95858144D01*
X170806800Y-95840121D01*
X169906000Y-95840121D01*
X169906000Y-95157450D01*
X169906000Y-94335600D01*
X169906000Y-94234000D01*
X169906000Y-93412150D01*
X169823450Y-93329600D01*
X169141119Y-93329600D01*
X169019757Y-93379870D01*
X168926870Y-93472757D01*
X168876600Y-93594119D01*
X168876600Y-93725481D01*
X168876600Y-94151450D01*
X168959150Y-94234000D01*
X169906000Y-94234000D01*
X169906000Y-94335600D01*
X168959150Y-94335600D01*
X168876600Y-94418150D01*
X168876600Y-94844119D01*
X168876600Y-94975481D01*
X168926870Y-95096843D01*
X169019757Y-95189730D01*
X169141119Y-95240000D01*
X169823450Y-95240000D01*
X169906000Y-95157450D01*
X169906000Y-95840121D01*
X169306800Y-95840121D01*
X169219636Y-95857033D01*
X169143026Y-95907358D01*
X169091744Y-95983329D01*
X169073721Y-96073200D01*
X169073721Y-97373200D01*
X169090633Y-97460364D01*
X169140958Y-97536974D01*
X169216929Y-97588256D01*
X169306800Y-97606279D01*
X170806800Y-97606279D01*
X170893964Y-97589367D01*
X170970574Y-97539042D01*
X171021856Y-97463071D01*
X171039879Y-97373200D01*
X171039879Y-97256600D01*
X171551600Y-97256600D01*
X171615389Y-97243911D01*
X171715580Y-97243999D01*
X171925706Y-97157176D01*
X172086611Y-96996551D01*
X172173800Y-96786577D01*
X172173999Y-96559220D01*
X172173999Y-102133400D01*
X168439879Y-102133400D01*
X168439879Y-94909800D01*
X168439879Y-93659800D01*
X168422967Y-93572636D01*
X168372642Y-93496026D01*
X168296671Y-93444744D01*
X168206800Y-93426721D01*
X166706800Y-93426721D01*
X166619636Y-93443633D01*
X166543026Y-93493958D01*
X166491744Y-93569929D01*
X166478000Y-93638458D01*
X165752742Y-92913200D01*
X166082942Y-92583000D01*
X166373721Y-92583000D01*
X166373721Y-92699600D01*
X166390633Y-92786764D01*
X166440958Y-92863374D01*
X166516929Y-92914656D01*
X166606800Y-92932679D01*
X168106800Y-92932679D01*
X168193964Y-92915767D01*
X168270574Y-92865442D01*
X168321856Y-92789471D01*
X168339879Y-92699600D01*
X168339879Y-91399600D01*
X168322967Y-91312436D01*
X168272642Y-91235826D01*
X168196671Y-91184544D01*
X168106800Y-91166521D01*
X166606800Y-91166521D01*
X166519636Y-91183433D01*
X166443026Y-91233758D01*
X166391744Y-91309729D01*
X166373721Y-91399600D01*
X166373721Y-91516200D01*
X165862000Y-91516200D01*
X165657877Y-91556803D01*
X165484829Y-91672429D01*
X165097171Y-92060086D01*
X165084797Y-91997877D01*
X164969171Y-91824829D01*
X164454216Y-91309874D01*
X164416376Y-91218294D01*
X164255751Y-91057389D01*
X164045777Y-90970200D01*
X163818420Y-90970001D01*
X163608294Y-91056824D01*
X163447389Y-91217449D01*
X163360200Y-91427423D01*
X163360001Y-91654780D01*
X163446824Y-91864906D01*
X163607449Y-92025811D01*
X163699828Y-92064170D01*
X164058600Y-92422942D01*
X164058600Y-92430600D01*
X163456600Y-92430600D01*
X163252477Y-92471203D01*
X163198721Y-92507121D01*
X162605400Y-92507121D01*
X162518236Y-92524033D01*
X162441626Y-92574358D01*
X162390344Y-92650329D01*
X162372321Y-92740200D01*
X162372321Y-93340200D01*
X162389233Y-93427364D01*
X162439558Y-93503974D01*
X162515529Y-93555256D01*
X162605400Y-93573279D01*
X163378786Y-93573279D01*
X163380400Y-93573600D01*
X163382013Y-93573279D01*
X164155400Y-93573279D01*
X164242564Y-93556367D01*
X164319174Y-93506042D01*
X164325007Y-93497400D01*
X164592000Y-93497400D01*
X164789059Y-93458201D01*
X165992829Y-94661971D01*
X166165876Y-94777597D01*
X166165877Y-94777597D01*
X166370000Y-94818200D01*
X166473721Y-94818200D01*
X166473721Y-94909800D01*
X166490633Y-94996964D01*
X166540958Y-95073574D01*
X166616929Y-95124856D01*
X166706800Y-95142879D01*
X168206800Y-95142879D01*
X168293964Y-95125967D01*
X168370574Y-95075642D01*
X168421856Y-94999671D01*
X168439879Y-94909800D01*
X168439879Y-102133400D01*
X168339879Y-102133400D01*
X168339879Y-97373200D01*
X168339879Y-96073200D01*
X168322967Y-95986036D01*
X168272642Y-95909426D01*
X168196671Y-95858144D01*
X168106800Y-95840121D01*
X166606800Y-95840121D01*
X166598477Y-95841735D01*
X165887400Y-95130658D01*
X165887400Y-94894405D01*
X165887400Y-94894400D01*
X165887401Y-94894400D01*
X165846797Y-94690277D01*
X165731171Y-94517230D01*
X165731171Y-94517229D01*
X165731167Y-94517226D01*
X165146971Y-93933029D01*
X164973923Y-93817403D01*
X164769800Y-93776800D01*
X163380400Y-93776800D01*
X162026605Y-93776800D01*
X162026600Y-93776799D01*
X161822477Y-93817403D01*
X161649429Y-93933029D01*
X161649426Y-93933032D01*
X161065229Y-94517229D01*
X160949603Y-94690277D01*
X160909000Y-94894400D01*
X160909000Y-95791058D01*
X159138658Y-97561400D01*
X159085600Y-97561400D01*
X159085600Y-97215881D01*
X159085600Y-97084519D01*
X159085600Y-96983550D01*
X159085600Y-96716850D01*
X159085600Y-96615881D01*
X159085600Y-96484519D01*
X159035330Y-96363157D01*
X158988479Y-96316306D01*
X158988479Y-95880200D01*
X158988479Y-95280200D01*
X158971567Y-95193036D01*
X158921242Y-95116426D01*
X158845271Y-95065144D01*
X158755400Y-95047121D01*
X157982013Y-95047121D01*
X157980400Y-95046800D01*
X157978786Y-95047121D01*
X157205400Y-95047121D01*
X157118236Y-95064033D01*
X157105803Y-95072200D01*
X156612679Y-95072200D01*
X156612679Y-94955600D01*
X156595767Y-94868436D01*
X156545442Y-94791826D01*
X156469471Y-94740544D01*
X156379600Y-94722521D01*
X156112200Y-94722521D01*
X156112200Y-94456679D01*
X156328800Y-94456679D01*
X156415964Y-94439767D01*
X156492574Y-94389442D01*
X156543856Y-94313471D01*
X156561879Y-94223600D01*
X156561879Y-92923600D01*
X156544967Y-92836436D01*
X156494642Y-92759826D01*
X156418671Y-92708544D01*
X156328800Y-92690521D01*
X154828800Y-92690521D01*
X154741636Y-92707433D01*
X154665026Y-92757758D01*
X154613744Y-92833729D01*
X154595721Y-92923600D01*
X154595721Y-94223600D01*
X154612633Y-94310764D01*
X154662958Y-94387374D01*
X154738929Y-94438656D01*
X154828800Y-94456679D01*
X155045400Y-94456679D01*
X155045400Y-94722521D01*
X154879600Y-94722521D01*
X154792436Y-94739433D01*
X154715826Y-94789758D01*
X154664544Y-94865729D01*
X154646521Y-94955600D01*
X154646521Y-96255600D01*
X154663433Y-96342764D01*
X154713758Y-96419374D01*
X154789729Y-96470656D01*
X154879600Y-96488679D01*
X156379600Y-96488679D01*
X156466764Y-96471767D01*
X156543374Y-96421442D01*
X156594656Y-96345471D01*
X156612679Y-96255600D01*
X156612679Y-96139000D01*
X157955000Y-96139000D01*
X158084306Y-96113279D01*
X158755400Y-96113279D01*
X158842564Y-96096367D01*
X158919174Y-96046042D01*
X158970456Y-95970071D01*
X158988479Y-95880200D01*
X158988479Y-96316306D01*
X158942443Y-96270270D01*
X158821081Y-96220000D01*
X158113750Y-96220000D01*
X158031200Y-96302550D01*
X158031200Y-96799400D01*
X159003050Y-96799400D01*
X159085600Y-96716850D01*
X159085600Y-96983550D01*
X159003050Y-96901000D01*
X158031200Y-96901000D01*
X158031200Y-97397850D01*
X158113750Y-97480400D01*
X158821081Y-97480400D01*
X158942443Y-97430130D01*
X159035330Y-97337243D01*
X159085600Y-97215881D01*
X159085600Y-97561400D01*
X158343605Y-97561400D01*
X158343600Y-97561399D01*
X158139477Y-97602003D01*
X157966429Y-97717629D01*
X157929600Y-97754458D01*
X157929600Y-97397850D01*
X157929600Y-96901000D01*
X157929600Y-96799400D01*
X157929600Y-96302550D01*
X157847050Y-96220000D01*
X157139719Y-96220000D01*
X157018357Y-96270270D01*
X156925470Y-96363157D01*
X156875200Y-96484519D01*
X156875200Y-96615881D01*
X156875200Y-96716850D01*
X156957750Y-96799400D01*
X157929600Y-96799400D01*
X157929600Y-96901000D01*
X156957750Y-96901000D01*
X156875200Y-96983550D01*
X156875200Y-97084519D01*
X156875200Y-97215881D01*
X156925470Y-97337243D01*
X157018357Y-97430130D01*
X157139719Y-97480400D01*
X157847050Y-97480400D01*
X157929600Y-97397850D01*
X157929600Y-97754458D01*
X157255229Y-98428829D01*
X157139603Y-98601877D01*
X157104943Y-98776121D01*
X156616400Y-98776121D01*
X156529236Y-98793033D01*
X156452626Y-98843358D01*
X156401344Y-98919329D01*
X156383321Y-99009200D01*
X156383321Y-101041200D01*
X156400233Y-101128364D01*
X156450558Y-101204974D01*
X156526529Y-101256256D01*
X156616400Y-101274279D01*
X158648400Y-101274279D01*
X158735564Y-101257367D01*
X158812174Y-101207042D01*
X158863456Y-101131071D01*
X158881479Y-101041200D01*
X158881479Y-100358108D01*
X159051933Y-100771402D01*
X159422783Y-101143385D01*
X159907755Y-101345134D01*
X159911783Y-101345932D01*
X160121600Y-101287828D01*
X160121600Y-100076000D01*
X160101600Y-100076000D01*
X160101600Y-99974400D01*
X160121600Y-99974400D01*
X160121600Y-98762572D01*
X159911783Y-98704468D01*
X159907755Y-98705266D01*
X159422783Y-98907015D01*
X159051933Y-99278998D01*
X158881479Y-99692291D01*
X158881479Y-99009200D01*
X158864567Y-98922036D01*
X158814242Y-98845426D01*
X158738271Y-98794144D01*
X158648400Y-98776121D01*
X158416621Y-98776121D01*
X158564542Y-98628200D01*
X159359600Y-98628200D01*
X159563723Y-98587597D01*
X159736771Y-98471971D01*
X161819571Y-96389171D01*
X161935197Y-96216123D01*
X161975800Y-96012000D01*
X161975800Y-95115341D01*
X162247541Y-94843600D01*
X163380400Y-94843600D01*
X164548858Y-94843600D01*
X164820600Y-95115341D01*
X164820600Y-95351600D01*
X164861203Y-95555723D01*
X164976829Y-95728771D01*
X166348429Y-97100371D01*
X166373721Y-97117270D01*
X166373721Y-97373200D01*
X166390633Y-97460364D01*
X166440958Y-97536974D01*
X166516929Y-97588256D01*
X166606800Y-97606279D01*
X168106800Y-97606279D01*
X168193964Y-97589367D01*
X168270574Y-97539042D01*
X168321856Y-97463071D01*
X168339879Y-97373200D01*
X168339879Y-102133400D01*
X164388479Y-102133400D01*
X164388479Y-97150200D01*
X164388479Y-96550200D01*
X164371567Y-96463036D01*
X164321242Y-96386426D01*
X164245271Y-96335144D01*
X164155400Y-96317121D01*
X163913800Y-96317121D01*
X163913800Y-96113279D01*
X164155400Y-96113279D01*
X164242564Y-96096367D01*
X164319174Y-96046042D01*
X164370456Y-95970071D01*
X164388479Y-95880200D01*
X164388479Y-95280200D01*
X164371567Y-95193036D01*
X164321242Y-95116426D01*
X164245271Y-95065144D01*
X164155400Y-95047121D01*
X163382013Y-95047121D01*
X163380400Y-95046800D01*
X163378786Y-95047121D01*
X162605400Y-95047121D01*
X162518236Y-95064033D01*
X162441626Y-95114358D01*
X162390344Y-95190329D01*
X162372321Y-95280200D01*
X162372321Y-95880200D01*
X162389233Y-95967364D01*
X162439558Y-96043974D01*
X162515529Y-96095256D01*
X162605400Y-96113279D01*
X162847000Y-96113279D01*
X162847000Y-96317121D01*
X162605400Y-96317121D01*
X162518236Y-96334033D01*
X162441626Y-96384358D01*
X162390344Y-96460329D01*
X162372321Y-96550200D01*
X162372321Y-97150200D01*
X162389233Y-97237364D01*
X162439558Y-97313974D01*
X162515529Y-97365256D01*
X162605400Y-97383279D01*
X163378786Y-97383279D01*
X163380400Y-97383600D01*
X163382013Y-97383279D01*
X164155400Y-97383279D01*
X164242564Y-97366367D01*
X164319174Y-97316042D01*
X164370456Y-97240071D01*
X164388479Y-97150200D01*
X164388479Y-102133400D01*
X161493136Y-102133400D01*
X161493136Y-100285817D01*
X161493136Y-99764583D01*
X161292867Y-99278998D01*
X160922017Y-98907015D01*
X160437045Y-98705266D01*
X160433017Y-98704468D01*
X160223200Y-98762572D01*
X160223200Y-99974400D01*
X161435095Y-99974400D01*
X161493136Y-99764583D01*
X161493136Y-100285817D01*
X161435095Y-100076000D01*
X160223200Y-100076000D01*
X160223200Y-101287828D01*
X160433017Y-101345932D01*
X160437045Y-101345134D01*
X160922017Y-101143385D01*
X161292867Y-100771402D01*
X161493136Y-100285817D01*
X161493136Y-102133400D01*
X154009800Y-102133400D01*
X154009800Y-96321281D01*
X154009800Y-96189919D01*
X154009800Y-95738950D01*
X154009800Y-95472250D01*
X154009800Y-95021281D01*
X154009800Y-94889919D01*
X153959530Y-94768557D01*
X153866643Y-94675670D01*
X153861879Y-94673696D01*
X153861879Y-94223600D01*
X153861879Y-92923600D01*
X153844967Y-92836436D01*
X153794642Y-92759826D01*
X153718671Y-92708544D01*
X153628800Y-92690521D01*
X153412200Y-92690521D01*
X153412200Y-92122000D01*
X153377987Y-91950001D01*
X153377999Y-91936420D01*
X153372766Y-91923756D01*
X153371597Y-91917877D01*
X153368295Y-91912935D01*
X153291176Y-91726294D01*
X153289000Y-91724114D01*
X153289000Y-87340081D01*
X153289000Y-87208719D01*
X153289000Y-86391750D01*
X153289000Y-86125050D01*
X153289000Y-85308081D01*
X153289000Y-85176719D01*
X153238730Y-85055357D01*
X153145843Y-84962470D01*
X153024481Y-84912200D01*
X152076150Y-84912200D01*
X151993600Y-84994750D01*
X151993600Y-86207600D01*
X153206450Y-86207600D01*
X153289000Y-86125050D01*
X153289000Y-86391750D01*
X153206450Y-86309200D01*
X151993600Y-86309200D01*
X151993600Y-86329200D01*
X151892000Y-86329200D01*
X151892000Y-86309200D01*
X151892000Y-86207600D01*
X151892000Y-84994750D01*
X151809450Y-84912200D01*
X150861119Y-84912200D01*
X150739757Y-84962470D01*
X150646870Y-85055357D01*
X150596600Y-85176719D01*
X150596600Y-85308081D01*
X150596600Y-86125050D01*
X150679150Y-86207600D01*
X151892000Y-86207600D01*
X151892000Y-86309200D01*
X150679150Y-86309200D01*
X150596600Y-86391750D01*
X150596600Y-87208719D01*
X150596600Y-87340081D01*
X150646870Y-87461443D01*
X150739757Y-87554330D01*
X150861119Y-87604600D01*
X151663029Y-87604600D01*
X151442129Y-87648540D01*
X151038352Y-87918335D01*
X150768557Y-88322112D01*
X150673817Y-88798400D01*
X150768557Y-89274688D01*
X151038352Y-89678465D01*
X151442129Y-89948260D01*
X151918417Y-90043000D01*
X151967183Y-90043000D01*
X152443471Y-89948260D01*
X152847248Y-89678465D01*
X153117043Y-89274688D01*
X153211783Y-88798400D01*
X153117043Y-88322112D01*
X152847248Y-87918335D01*
X152443471Y-87648540D01*
X152222570Y-87604600D01*
X153024481Y-87604600D01*
X153145843Y-87554330D01*
X153238730Y-87461443D01*
X153289000Y-87340081D01*
X153289000Y-91724114D01*
X153130551Y-91565389D01*
X152920577Y-91478200D01*
X152693220Y-91478001D01*
X152483094Y-91564824D01*
X152322189Y-91725449D01*
X152235000Y-91935423D01*
X152234801Y-92162780D01*
X152321624Y-92372906D01*
X152345400Y-92396723D01*
X152345400Y-92690521D01*
X152128800Y-92690521D01*
X152041636Y-92707433D01*
X151965026Y-92757758D01*
X151913744Y-92833729D01*
X151895721Y-92923600D01*
X151895721Y-94223600D01*
X151912633Y-94310764D01*
X151962958Y-94387374D01*
X152038929Y-94438656D01*
X152128800Y-94456679D01*
X153628800Y-94456679D01*
X153715964Y-94439767D01*
X153792574Y-94389442D01*
X153843856Y-94313471D01*
X153861879Y-94223600D01*
X153861879Y-94673696D01*
X153745281Y-94625400D01*
X153062950Y-94625400D01*
X152980400Y-94707950D01*
X152980400Y-95554800D01*
X153927250Y-95554800D01*
X154009800Y-95472250D01*
X154009800Y-95738950D01*
X153927250Y-95656400D01*
X152980400Y-95656400D01*
X152980400Y-96503250D01*
X153062950Y-96585800D01*
X153745281Y-96585800D01*
X153866643Y-96535530D01*
X153959530Y-96442643D01*
X154009800Y-96321281D01*
X154009800Y-102133400D01*
X152878800Y-102133400D01*
X152878800Y-96503250D01*
X152878800Y-95656400D01*
X152878800Y-95554800D01*
X152878800Y-94707950D01*
X152796250Y-94625400D01*
X152113919Y-94625400D01*
X151992557Y-94675670D01*
X151899670Y-94768557D01*
X151849400Y-94889919D01*
X151849400Y-95021281D01*
X151849400Y-95472250D01*
X151931950Y-95554800D01*
X152878800Y-95554800D01*
X152878800Y-95656400D01*
X151931950Y-95656400D01*
X151849400Y-95738950D01*
X151849400Y-96189919D01*
X151849400Y-96321281D01*
X151899670Y-96442643D01*
X151992557Y-96535530D01*
X152113919Y-96585800D01*
X152796250Y-96585800D01*
X152878800Y-96503250D01*
X152878800Y-102133400D01*
X150342600Y-102133400D01*
X150342600Y-83844600D01*
X175743400Y-83844600D01*
X175743400Y-102133400D01*
X175743400Y-102133400D01*
G37*
X175743400Y-102133400D02*
X173456772Y-102133400D01*
X173456772Y-88703822D01*
X173306279Y-88339603D01*
X173027862Y-88060700D01*
X172663907Y-87909572D01*
X172269822Y-87909228D01*
X171905603Y-88059721D01*
X171626700Y-88338138D01*
X171614881Y-88366600D01*
X170306524Y-88366600D01*
X170306524Y-86555524D01*
X170302790Y-86145702D01*
X170153142Y-85784421D01*
X169993839Y-85712503D01*
X169921997Y-85784345D01*
X169921997Y-85640661D01*
X169850079Y-85481358D01*
X169470024Y-85327976D01*
X169060202Y-85331710D01*
X168698921Y-85481358D01*
X168627003Y-85640661D01*
X169274500Y-86288158D01*
X169921997Y-85640661D01*
X169921997Y-85784345D01*
X169346342Y-86360000D01*
X169993839Y-87007497D01*
X170153142Y-86935579D01*
X170306524Y-86555524D01*
X170306524Y-88366600D01*
X170054124Y-88366600D01*
X169921997Y-88234242D01*
X169921997Y-87079339D01*
X169274500Y-86431842D01*
X169202658Y-86503684D01*
X169202658Y-86360000D01*
X168555161Y-85712503D01*
X168395858Y-85784421D01*
X168242476Y-86164476D01*
X168246210Y-86574298D01*
X168395858Y-86935579D01*
X168555161Y-87007497D01*
X169202658Y-86360000D01*
X169202658Y-86503684D01*
X168627003Y-87079339D01*
X168698921Y-87238642D01*
X169078976Y-87392024D01*
X169488798Y-87388290D01*
X169850079Y-87238642D01*
X169921997Y-87079339D01*
X169921997Y-88234242D01*
X169801196Y-88113231D01*
X169460020Y-87971562D01*
X169090600Y-87971240D01*
X168749178Y-88112312D01*
X168494446Y-88366600D01*
X167253209Y-88366600D01*
X167253209Y-84905512D01*
X167157712Y-84674392D01*
X166981038Y-84497410D01*
X166750085Y-84401509D01*
X166500012Y-84401291D01*
X166268892Y-84496788D01*
X166091910Y-84673462D01*
X165996009Y-84904415D01*
X165995791Y-85154488D01*
X166091288Y-85385608D01*
X166267962Y-85562590D01*
X166498915Y-85658491D01*
X166748988Y-85658709D01*
X166980108Y-85563212D01*
X167157090Y-85386538D01*
X167252991Y-85155585D01*
X167253209Y-84905512D01*
X167253209Y-88366600D01*
X163576005Y-88366600D01*
X163576000Y-88366599D01*
X163371877Y-88407203D01*
X163198829Y-88522829D01*
X160404829Y-91316829D01*
X160289203Y-91489877D01*
X160248600Y-91694000D01*
X160248600Y-93454258D01*
X160203260Y-93499598D01*
X160203260Y-88716100D01*
X160203260Y-86176100D01*
X160062188Y-85834678D01*
X159801196Y-85573231D01*
X159460020Y-85431562D01*
X159090600Y-85431240D01*
X158749178Y-85572312D01*
X158487731Y-85833304D01*
X158346062Y-86174480D01*
X158345740Y-86543900D01*
X158486812Y-86885322D01*
X158747804Y-87146769D01*
X159088980Y-87288438D01*
X159458400Y-87288760D01*
X159799822Y-87147688D01*
X160061269Y-86886696D01*
X160202938Y-86545520D01*
X160203260Y-86176100D01*
X160203260Y-88716100D01*
X160062188Y-88374678D01*
X159801196Y-88113231D01*
X159460020Y-87971562D01*
X159090600Y-87971240D01*
X158749178Y-88112312D01*
X158494446Y-88366600D01*
X156834600Y-88366600D01*
X156834600Y-86994081D01*
X156834600Y-86311750D01*
X156834600Y-86045050D01*
X156834600Y-85362719D01*
X156784330Y-85241357D01*
X156691443Y-85148470D01*
X156570081Y-85098200D01*
X156438719Y-85098200D01*
X155987750Y-85098200D01*
X155905200Y-85180750D01*
X155905200Y-86127600D01*
X156752050Y-86127600D01*
X156834600Y-86045050D01*
X156834600Y-86311750D01*
X156752050Y-86229200D01*
X155905200Y-86229200D01*
X155905200Y-87176050D01*
X155987750Y-87258600D01*
X156438719Y-87258600D01*
X156570081Y-87258600D01*
X156691443Y-87208330D01*
X156784330Y-87115443D01*
X156834600Y-86994081D01*
X156834600Y-88366600D01*
X156737479Y-88366600D01*
X156737479Y-88128400D01*
X156720567Y-88041236D01*
X156670242Y-87964626D01*
X156594271Y-87913344D01*
X156504400Y-87895321D01*
X155803600Y-87895321D01*
X155803600Y-87176050D01*
X155803600Y-86229200D01*
X155803600Y-86127600D01*
X155803600Y-85180750D01*
X155721050Y-85098200D01*
X155270081Y-85098200D01*
X155138719Y-85098200D01*
X155017357Y-85148470D01*
X154924470Y-85241357D01*
X154874200Y-85362719D01*
X154874200Y-86045050D01*
X154956750Y-86127600D01*
X155803600Y-86127600D01*
X155803600Y-86229200D01*
X154956750Y-86229200D01*
X154874200Y-86311750D01*
X154874200Y-86994081D01*
X154924470Y-87115443D01*
X155017357Y-87208330D01*
X155138719Y-87258600D01*
X155270081Y-87258600D01*
X155721050Y-87258600D01*
X155803600Y-87176050D01*
X155803600Y-87895321D01*
X155204400Y-87895321D01*
X155117236Y-87912233D01*
X155040626Y-87962558D01*
X154989344Y-88038529D01*
X154971321Y-88128400D01*
X154971321Y-89628400D01*
X154988233Y-89715564D01*
X155038558Y-89792174D01*
X155114529Y-89843456D01*
X155204400Y-89861479D01*
X156504400Y-89861479D01*
X156591564Y-89844567D01*
X156668174Y-89794242D01*
X156719456Y-89718271D01*
X156737479Y-89628400D01*
X156737479Y-89433400D01*
X158494875Y-89433400D01*
X158747804Y-89686769D01*
X159088980Y-89828438D01*
X159458400Y-89828760D01*
X159799822Y-89687688D01*
X160061269Y-89426696D01*
X160202938Y-89085520D01*
X160203260Y-88716100D01*
X160203260Y-93499598D01*
X159926058Y-93776800D01*
X159085600Y-93776800D01*
X159085600Y-93405881D01*
X159085600Y-93274519D01*
X159085600Y-93173550D01*
X159085600Y-92906850D01*
X159085600Y-92805881D01*
X159085600Y-92674519D01*
X159035330Y-92553157D01*
X158942443Y-92460270D01*
X158821081Y-92410000D01*
X158303209Y-92410000D01*
X158303209Y-90105512D01*
X158207712Y-89874392D01*
X158031038Y-89697410D01*
X157800085Y-89601509D01*
X157550012Y-89601291D01*
X157318892Y-89696788D01*
X157141910Y-89873462D01*
X157046009Y-90104415D01*
X157045791Y-90354488D01*
X157141288Y-90585608D01*
X157317962Y-90762590D01*
X157548915Y-90858491D01*
X157798988Y-90858709D01*
X158030108Y-90763212D01*
X158207090Y-90586538D01*
X158302991Y-90355585D01*
X158303209Y-90105512D01*
X158303209Y-92410000D01*
X158113750Y-92410000D01*
X158031200Y-92492550D01*
X158031200Y-92989400D01*
X159003050Y-92989400D01*
X159085600Y-92906850D01*
X159085600Y-93173550D01*
X159003050Y-93091000D01*
X158031200Y-93091000D01*
X158031200Y-93587850D01*
X158113750Y-93670400D01*
X158821081Y-93670400D01*
X158942443Y-93620130D01*
X159035330Y-93527243D01*
X159085600Y-93405881D01*
X159085600Y-93776800D01*
X157980400Y-93776800D01*
X157978786Y-93777121D01*
X157929600Y-93777121D01*
X157929600Y-93587850D01*
X157929600Y-93091000D01*
X157929600Y-92989400D01*
X157929600Y-92492550D01*
X157847050Y-92410000D01*
X157139719Y-92410000D01*
X157018357Y-92460270D01*
X156925470Y-92553157D01*
X156875200Y-92674519D01*
X156875200Y-92805881D01*
X156875200Y-92906850D01*
X156957750Y-92989400D01*
X157929600Y-92989400D01*
X157929600Y-93091000D01*
X156957750Y-93091000D01*
X156875200Y-93173550D01*
X156875200Y-93274519D01*
X156875200Y-93405881D01*
X156925470Y-93527243D01*
X157018357Y-93620130D01*
X157139719Y-93670400D01*
X157847050Y-93670400D01*
X157929600Y-93587850D01*
X157929600Y-93777121D01*
X157205400Y-93777121D01*
X157118236Y-93794033D01*
X157041626Y-93844358D01*
X156990344Y-93920329D01*
X156972321Y-94010200D01*
X156972321Y-94610200D01*
X156989233Y-94697364D01*
X157039558Y-94773974D01*
X157115529Y-94825256D01*
X157205400Y-94843279D01*
X157978786Y-94843279D01*
X157980400Y-94843600D01*
X160147000Y-94843600D01*
X160351123Y-94802997D01*
X160524171Y-94687371D01*
X161159167Y-94052373D01*
X161159171Y-94052371D01*
X161159171Y-94052370D01*
X161274797Y-93879323D01*
X161315400Y-93675200D01*
X161315401Y-93675200D01*
X161315400Y-93675194D01*
X161315400Y-91914942D01*
X163796942Y-89433400D01*
X168494875Y-89433400D01*
X168747804Y-89686769D01*
X169088980Y-89828438D01*
X169448909Y-89828751D01*
X169523400Y-89903242D01*
X169523400Y-91166521D01*
X169306800Y-91166521D01*
X169219636Y-91183433D01*
X169143026Y-91233758D01*
X169091744Y-91309729D01*
X169073721Y-91399600D01*
X169073721Y-92699600D01*
X169090633Y-92786764D01*
X169140958Y-92863374D01*
X169216929Y-92914656D01*
X169306800Y-92932679D01*
X170806800Y-92932679D01*
X170893964Y-92915767D01*
X170970574Y-92865442D01*
X171021856Y-92789471D01*
X171039879Y-92699600D01*
X171039879Y-91399600D01*
X171022967Y-91312436D01*
X170972642Y-91235826D01*
X170896671Y-91184544D01*
X170806800Y-91166521D01*
X170590200Y-91166521D01*
X170590200Y-89682300D01*
X170549597Y-89478177D01*
X170549597Y-89478176D01*
X170519678Y-89433400D01*
X171614566Y-89433400D01*
X171625721Y-89460397D01*
X171904138Y-89739300D01*
X172268093Y-89890428D01*
X172662178Y-89890772D01*
X173026397Y-89740279D01*
X173305300Y-89461862D01*
X173456428Y-89097907D01*
X173456772Y-88703822D01*
X173456772Y-102133400D01*
X172173999Y-102133400D01*
X172173999Y-96559220D01*
X172087176Y-96349094D01*
X171926551Y-96188189D01*
X171716577Y-96101000D01*
X171489220Y-96100801D01*
X171279094Y-96187624D01*
X171276914Y-96189800D01*
X171039879Y-96189800D01*
X171039879Y-96073200D01*
X171037000Y-96058361D01*
X171037000Y-94975481D01*
X171037000Y-94844119D01*
X171037000Y-94418150D01*
X171037000Y-94151450D01*
X171037000Y-93725481D01*
X171037000Y-93594119D01*
X170986730Y-93472757D01*
X170893843Y-93379870D01*
X170772481Y-93329600D01*
X170090150Y-93329600D01*
X170007600Y-93412150D01*
X170007600Y-94234000D01*
X170954450Y-94234000D01*
X171037000Y-94151450D01*
X171037000Y-94418150D01*
X170954450Y-94335600D01*
X170007600Y-94335600D01*
X170007600Y-95157450D01*
X170090150Y-95240000D01*
X170772481Y-95240000D01*
X170893843Y-95189730D01*
X170986730Y-95096843D01*
X171037000Y-94975481D01*
X171037000Y-96058361D01*
X171022967Y-95986036D01*
X170972642Y-95909426D01*
X170896671Y-95858144D01*
X170806800Y-95840121D01*
X169906000Y-95840121D01*
X169906000Y-95157450D01*
X169906000Y-94335600D01*
X169906000Y-94234000D01*
X169906000Y-93412150D01*
X169823450Y-93329600D01*
X169141119Y-93329600D01*
X169019757Y-93379870D01*
X168926870Y-93472757D01*
X168876600Y-93594119D01*
X168876600Y-93725481D01*
X168876600Y-94151450D01*
X168959150Y-94234000D01*
X169906000Y-94234000D01*
X169906000Y-94335600D01*
X168959150Y-94335600D01*
X168876600Y-94418150D01*
X168876600Y-94844119D01*
X168876600Y-94975481D01*
X168926870Y-95096843D01*
X169019757Y-95189730D01*
X169141119Y-95240000D01*
X169823450Y-95240000D01*
X169906000Y-95157450D01*
X169906000Y-95840121D01*
X169306800Y-95840121D01*
X169219636Y-95857033D01*
X169143026Y-95907358D01*
X169091744Y-95983329D01*
X169073721Y-96073200D01*
X169073721Y-97373200D01*
X169090633Y-97460364D01*
X169140958Y-97536974D01*
X169216929Y-97588256D01*
X169306800Y-97606279D01*
X170806800Y-97606279D01*
X170893964Y-97589367D01*
X170970574Y-97539042D01*
X171021856Y-97463071D01*
X171039879Y-97373200D01*
X171039879Y-97256600D01*
X171551600Y-97256600D01*
X171615389Y-97243911D01*
X171715580Y-97243999D01*
X171925706Y-97157176D01*
X172086611Y-96996551D01*
X172173800Y-96786577D01*
X172173999Y-96559220D01*
X172173999Y-102133400D01*
X168439879Y-102133400D01*
X168439879Y-94909800D01*
X168439879Y-93659800D01*
X168422967Y-93572636D01*
X168372642Y-93496026D01*
X168296671Y-93444744D01*
X168206800Y-93426721D01*
X166706800Y-93426721D01*
X166619636Y-93443633D01*
X166543026Y-93493958D01*
X166491744Y-93569929D01*
X166478000Y-93638458D01*
X165752742Y-92913200D01*
X166082942Y-92583000D01*
X166373721Y-92583000D01*
X166373721Y-92699600D01*
X166390633Y-92786764D01*
X166440958Y-92863374D01*
X166516929Y-92914656D01*
X166606800Y-92932679D01*
X168106800Y-92932679D01*
X168193964Y-92915767D01*
X168270574Y-92865442D01*
X168321856Y-92789471D01*
X168339879Y-92699600D01*
X168339879Y-91399600D01*
X168322967Y-91312436D01*
X168272642Y-91235826D01*
X168196671Y-91184544D01*
X168106800Y-91166521D01*
X166606800Y-91166521D01*
X166519636Y-91183433D01*
X166443026Y-91233758D01*
X166391744Y-91309729D01*
X166373721Y-91399600D01*
X166373721Y-91516200D01*
X165862000Y-91516200D01*
X165657877Y-91556803D01*
X165484829Y-91672429D01*
X165097171Y-92060086D01*
X165084797Y-91997877D01*
X164969171Y-91824829D01*
X164454216Y-91309874D01*
X164416376Y-91218294D01*
X164255751Y-91057389D01*
X164045777Y-90970200D01*
X163818420Y-90970001D01*
X163608294Y-91056824D01*
X163447389Y-91217449D01*
X163360200Y-91427423D01*
X163360001Y-91654780D01*
X163446824Y-91864906D01*
X163607449Y-92025811D01*
X163699828Y-92064170D01*
X164058600Y-92422942D01*
X164058600Y-92430600D01*
X163456600Y-92430600D01*
X163252477Y-92471203D01*
X163198721Y-92507121D01*
X162605400Y-92507121D01*
X162518236Y-92524033D01*
X162441626Y-92574358D01*
X162390344Y-92650329D01*
X162372321Y-92740200D01*
X162372321Y-93340200D01*
X162389233Y-93427364D01*
X162439558Y-93503974D01*
X162515529Y-93555256D01*
X162605400Y-93573279D01*
X163378786Y-93573279D01*
X163380400Y-93573600D01*
X163382013Y-93573279D01*
X164155400Y-93573279D01*
X164242564Y-93556367D01*
X164319174Y-93506042D01*
X164325007Y-93497400D01*
X164592000Y-93497400D01*
X164789059Y-93458201D01*
X165992829Y-94661971D01*
X166165876Y-94777597D01*
X166165877Y-94777597D01*
X166370000Y-94818200D01*
X166473721Y-94818200D01*
X166473721Y-94909800D01*
X166490633Y-94996964D01*
X166540958Y-95073574D01*
X166616929Y-95124856D01*
X166706800Y-95142879D01*
X168206800Y-95142879D01*
X168293964Y-95125967D01*
X168370574Y-95075642D01*
X168421856Y-94999671D01*
X168439879Y-94909800D01*
X168439879Y-102133400D01*
X168339879Y-102133400D01*
X168339879Y-97373200D01*
X168339879Y-96073200D01*
X168322967Y-95986036D01*
X168272642Y-95909426D01*
X168196671Y-95858144D01*
X168106800Y-95840121D01*
X166606800Y-95840121D01*
X166598477Y-95841735D01*
X165887400Y-95130658D01*
X165887400Y-94894405D01*
X165887400Y-94894400D01*
X165887401Y-94894400D01*
X165846797Y-94690277D01*
X165731171Y-94517230D01*
X165731171Y-94517229D01*
X165731167Y-94517226D01*
X165146971Y-93933029D01*
X164973923Y-93817403D01*
X164769800Y-93776800D01*
X163380400Y-93776800D01*
X162026605Y-93776800D01*
X162026600Y-93776799D01*
X161822477Y-93817403D01*
X161649429Y-93933029D01*
X161649426Y-93933032D01*
X161065229Y-94517229D01*
X160949603Y-94690277D01*
X160909000Y-94894400D01*
X160909000Y-95791058D01*
X159138658Y-97561400D01*
X159085600Y-97561400D01*
X159085600Y-97215881D01*
X159085600Y-97084519D01*
X159085600Y-96983550D01*
X159085600Y-96716850D01*
X159085600Y-96615881D01*
X159085600Y-96484519D01*
X159035330Y-96363157D01*
X158988479Y-96316306D01*
X158988479Y-95880200D01*
X158988479Y-95280200D01*
X158971567Y-95193036D01*
X158921242Y-95116426D01*
X158845271Y-95065144D01*
X158755400Y-95047121D01*
X157982013Y-95047121D01*
X157980400Y-95046800D01*
X157978786Y-95047121D01*
X157205400Y-95047121D01*
X157118236Y-95064033D01*
X157105803Y-95072200D01*
X156612679Y-95072200D01*
X156612679Y-94955600D01*
X156595767Y-94868436D01*
X156545442Y-94791826D01*
X156469471Y-94740544D01*
X156379600Y-94722521D01*
X156112200Y-94722521D01*
X156112200Y-94456679D01*
X156328800Y-94456679D01*
X156415964Y-94439767D01*
X156492574Y-94389442D01*
X156543856Y-94313471D01*
X156561879Y-94223600D01*
X156561879Y-92923600D01*
X156544967Y-92836436D01*
X156494642Y-92759826D01*
X156418671Y-92708544D01*
X156328800Y-92690521D01*
X154828800Y-92690521D01*
X154741636Y-92707433D01*
X154665026Y-92757758D01*
X154613744Y-92833729D01*
X154595721Y-92923600D01*
X154595721Y-94223600D01*
X154612633Y-94310764D01*
X154662958Y-94387374D01*
X154738929Y-94438656D01*
X154828800Y-94456679D01*
X155045400Y-94456679D01*
X155045400Y-94722521D01*
X154879600Y-94722521D01*
X154792436Y-94739433D01*
X154715826Y-94789758D01*
X154664544Y-94865729D01*
X154646521Y-94955600D01*
X154646521Y-96255600D01*
X154663433Y-96342764D01*
X154713758Y-96419374D01*
X154789729Y-96470656D01*
X154879600Y-96488679D01*
X156379600Y-96488679D01*
X156466764Y-96471767D01*
X156543374Y-96421442D01*
X156594656Y-96345471D01*
X156612679Y-96255600D01*
X156612679Y-96139000D01*
X157955000Y-96139000D01*
X158084306Y-96113279D01*
X158755400Y-96113279D01*
X158842564Y-96096367D01*
X158919174Y-96046042D01*
X158970456Y-95970071D01*
X158988479Y-95880200D01*
X158988479Y-96316306D01*
X158942443Y-96270270D01*
X158821081Y-96220000D01*
X158113750Y-96220000D01*
X158031200Y-96302550D01*
X158031200Y-96799400D01*
X159003050Y-96799400D01*
X159085600Y-96716850D01*
X159085600Y-96983550D01*
X159003050Y-96901000D01*
X158031200Y-96901000D01*
X158031200Y-97397850D01*
X158113750Y-97480400D01*
X158821081Y-97480400D01*
X158942443Y-97430130D01*
X159035330Y-97337243D01*
X159085600Y-97215881D01*
X159085600Y-97561400D01*
X158343605Y-97561400D01*
X158343600Y-97561399D01*
X158139477Y-97602003D01*
X157966429Y-97717629D01*
X157929600Y-97754458D01*
X157929600Y-97397850D01*
X157929600Y-96901000D01*
X157929600Y-96799400D01*
X157929600Y-96302550D01*
X157847050Y-96220000D01*
X157139719Y-96220000D01*
X157018357Y-96270270D01*
X156925470Y-96363157D01*
X156875200Y-96484519D01*
X156875200Y-96615881D01*
X156875200Y-96716850D01*
X156957750Y-96799400D01*
X157929600Y-96799400D01*
X157929600Y-96901000D01*
X156957750Y-96901000D01*
X156875200Y-96983550D01*
X156875200Y-97084519D01*
X156875200Y-97215881D01*
X156925470Y-97337243D01*
X157018357Y-97430130D01*
X157139719Y-97480400D01*
X157847050Y-97480400D01*
X157929600Y-97397850D01*
X157929600Y-97754458D01*
X157255229Y-98428829D01*
X157139603Y-98601877D01*
X157104943Y-98776121D01*
X156616400Y-98776121D01*
X156529236Y-98793033D01*
X156452626Y-98843358D01*
X156401344Y-98919329D01*
X156383321Y-99009200D01*
X156383321Y-101041200D01*
X156400233Y-101128364D01*
X156450558Y-101204974D01*
X156526529Y-101256256D01*
X156616400Y-101274279D01*
X158648400Y-101274279D01*
X158735564Y-101257367D01*
X158812174Y-101207042D01*
X158863456Y-101131071D01*
X158881479Y-101041200D01*
X158881479Y-100358108D01*
X159051933Y-100771402D01*
X159422783Y-101143385D01*
X159907755Y-101345134D01*
X159911783Y-101345932D01*
X160121600Y-101287828D01*
X160121600Y-100076000D01*
X160101600Y-100076000D01*
X160101600Y-99974400D01*
X160121600Y-99974400D01*
X160121600Y-98762572D01*
X159911783Y-98704468D01*
X159907755Y-98705266D01*
X159422783Y-98907015D01*
X159051933Y-99278998D01*
X158881479Y-99692291D01*
X158881479Y-99009200D01*
X158864567Y-98922036D01*
X158814242Y-98845426D01*
X158738271Y-98794144D01*
X158648400Y-98776121D01*
X158416621Y-98776121D01*
X158564542Y-98628200D01*
X159359600Y-98628200D01*
X159563723Y-98587597D01*
X159736771Y-98471971D01*
X161819571Y-96389171D01*
X161935197Y-96216123D01*
X161975800Y-96012000D01*
X161975800Y-95115341D01*
X162247541Y-94843600D01*
X163380400Y-94843600D01*
X164548858Y-94843600D01*
X164820600Y-95115341D01*
X164820600Y-95351600D01*
X164861203Y-95555723D01*
X164976829Y-95728771D01*
X166348429Y-97100371D01*
X166373721Y-97117270D01*
X166373721Y-97373200D01*
X166390633Y-97460364D01*
X166440958Y-97536974D01*
X166516929Y-97588256D01*
X166606800Y-97606279D01*
X168106800Y-97606279D01*
X168193964Y-97589367D01*
X168270574Y-97539042D01*
X168321856Y-97463071D01*
X168339879Y-97373200D01*
X168339879Y-102133400D01*
X164388479Y-102133400D01*
X164388479Y-97150200D01*
X164388479Y-96550200D01*
X164371567Y-96463036D01*
X164321242Y-96386426D01*
X164245271Y-96335144D01*
X164155400Y-96317121D01*
X163913800Y-96317121D01*
X163913800Y-96113279D01*
X164155400Y-96113279D01*
X164242564Y-96096367D01*
X164319174Y-96046042D01*
X164370456Y-95970071D01*
X164388479Y-95880200D01*
X164388479Y-95280200D01*
X164371567Y-95193036D01*
X164321242Y-95116426D01*
X164245271Y-95065144D01*
X164155400Y-95047121D01*
X163382013Y-95047121D01*
X163380400Y-95046800D01*
X163378786Y-95047121D01*
X162605400Y-95047121D01*
X162518236Y-95064033D01*
X162441626Y-95114358D01*
X162390344Y-95190329D01*
X162372321Y-95280200D01*
X162372321Y-95880200D01*
X162389233Y-95967364D01*
X162439558Y-96043974D01*
X162515529Y-96095256D01*
X162605400Y-96113279D01*
X162847000Y-96113279D01*
X162847000Y-96317121D01*
X162605400Y-96317121D01*
X162518236Y-96334033D01*
X162441626Y-96384358D01*
X162390344Y-96460329D01*
X162372321Y-96550200D01*
X162372321Y-97150200D01*
X162389233Y-97237364D01*
X162439558Y-97313974D01*
X162515529Y-97365256D01*
X162605400Y-97383279D01*
X163378786Y-97383279D01*
X163380400Y-97383600D01*
X163382013Y-97383279D01*
X164155400Y-97383279D01*
X164242564Y-97366367D01*
X164319174Y-97316042D01*
X164370456Y-97240071D01*
X164388479Y-97150200D01*
X164388479Y-102133400D01*
X161493136Y-102133400D01*
X161493136Y-100285817D01*
X161493136Y-99764583D01*
X161292867Y-99278998D01*
X160922017Y-98907015D01*
X160437045Y-98705266D01*
X160433017Y-98704468D01*
X160223200Y-98762572D01*
X160223200Y-99974400D01*
X161435095Y-99974400D01*
X161493136Y-99764583D01*
X161493136Y-100285817D01*
X161435095Y-100076000D01*
X160223200Y-100076000D01*
X160223200Y-101287828D01*
X160433017Y-101345932D01*
X160437045Y-101345134D01*
X160922017Y-101143385D01*
X161292867Y-100771402D01*
X161493136Y-100285817D01*
X161493136Y-102133400D01*
X154009800Y-102133400D01*
X154009800Y-96321281D01*
X154009800Y-96189919D01*
X154009800Y-95738950D01*
X154009800Y-95472250D01*
X154009800Y-95021281D01*
X154009800Y-94889919D01*
X153959530Y-94768557D01*
X153866643Y-94675670D01*
X153861879Y-94673696D01*
X153861879Y-94223600D01*
X153861879Y-92923600D01*
X153844967Y-92836436D01*
X153794642Y-92759826D01*
X153718671Y-92708544D01*
X153628800Y-92690521D01*
X153412200Y-92690521D01*
X153412200Y-92122000D01*
X153377987Y-91950001D01*
X153377999Y-91936420D01*
X153372766Y-91923756D01*
X153371597Y-91917877D01*
X153368295Y-91912935D01*
X153291176Y-91726294D01*
X153289000Y-91724114D01*
X153289000Y-87340081D01*
X153289000Y-87208719D01*
X153289000Y-86391750D01*
X153289000Y-86125050D01*
X153289000Y-85308081D01*
X153289000Y-85176719D01*
X153238730Y-85055357D01*
X153145843Y-84962470D01*
X153024481Y-84912200D01*
X152076150Y-84912200D01*
X151993600Y-84994750D01*
X151993600Y-86207600D01*
X153206450Y-86207600D01*
X153289000Y-86125050D01*
X153289000Y-86391750D01*
X153206450Y-86309200D01*
X151993600Y-86309200D01*
X151993600Y-86329200D01*
X151892000Y-86329200D01*
X151892000Y-86309200D01*
X151892000Y-86207600D01*
X151892000Y-84994750D01*
X151809450Y-84912200D01*
X150861119Y-84912200D01*
X150739757Y-84962470D01*
X150646870Y-85055357D01*
X150596600Y-85176719D01*
X150596600Y-85308081D01*
X150596600Y-86125050D01*
X150679150Y-86207600D01*
X151892000Y-86207600D01*
X151892000Y-86309200D01*
X150679150Y-86309200D01*
X150596600Y-86391750D01*
X150596600Y-87208719D01*
X150596600Y-87340081D01*
X150646870Y-87461443D01*
X150739757Y-87554330D01*
X150861119Y-87604600D01*
X151663029Y-87604600D01*
X151442129Y-87648540D01*
X151038352Y-87918335D01*
X150768557Y-88322112D01*
X150673817Y-88798400D01*
X150768557Y-89274688D01*
X151038352Y-89678465D01*
X151442129Y-89948260D01*
X151918417Y-90043000D01*
X151967183Y-90043000D01*
X152443471Y-89948260D01*
X152847248Y-89678465D01*
X153117043Y-89274688D01*
X153211783Y-88798400D01*
X153117043Y-88322112D01*
X152847248Y-87918335D01*
X152443471Y-87648540D01*
X152222570Y-87604600D01*
X153024481Y-87604600D01*
X153145843Y-87554330D01*
X153238730Y-87461443D01*
X153289000Y-87340081D01*
X153289000Y-91724114D01*
X153130551Y-91565389D01*
X152920577Y-91478200D01*
X152693220Y-91478001D01*
X152483094Y-91564824D01*
X152322189Y-91725449D01*
X152235000Y-91935423D01*
X152234801Y-92162780D01*
X152321624Y-92372906D01*
X152345400Y-92396723D01*
X152345400Y-92690521D01*
X152128800Y-92690521D01*
X152041636Y-92707433D01*
X151965026Y-92757758D01*
X151913744Y-92833729D01*
X151895721Y-92923600D01*
X151895721Y-94223600D01*
X151912633Y-94310764D01*
X151962958Y-94387374D01*
X152038929Y-94438656D01*
X152128800Y-94456679D01*
X153628800Y-94456679D01*
X153715964Y-94439767D01*
X153792574Y-94389442D01*
X153843856Y-94313471D01*
X153861879Y-94223600D01*
X153861879Y-94673696D01*
X153745281Y-94625400D01*
X153062950Y-94625400D01*
X152980400Y-94707950D01*
X152980400Y-95554800D01*
X153927250Y-95554800D01*
X154009800Y-95472250D01*
X154009800Y-95738950D01*
X153927250Y-95656400D01*
X152980400Y-95656400D01*
X152980400Y-96503250D01*
X153062950Y-96585800D01*
X153745281Y-96585800D01*
X153866643Y-96535530D01*
X153959530Y-96442643D01*
X154009800Y-96321281D01*
X154009800Y-102133400D01*
X152878800Y-102133400D01*
X152878800Y-96503250D01*
X152878800Y-95656400D01*
X152878800Y-95554800D01*
X152878800Y-94707950D01*
X152796250Y-94625400D01*
X152113919Y-94625400D01*
X151992557Y-94675670D01*
X151899670Y-94768557D01*
X151849400Y-94889919D01*
X151849400Y-95021281D01*
X151849400Y-95472250D01*
X151931950Y-95554800D01*
X152878800Y-95554800D01*
X152878800Y-95656400D01*
X151931950Y-95656400D01*
X151849400Y-95738950D01*
X151849400Y-96189919D01*
X151849400Y-96321281D01*
X151899670Y-96442643D01*
X151992557Y-96535530D01*
X152113919Y-96585800D01*
X152796250Y-96585800D01*
X152878800Y-96503250D01*
X152878800Y-102133400D01*
X150342600Y-102133400D01*
X150342600Y-83844600D01*
X175743400Y-83844600D01*
X175743400Y-102133400D01*
G36*
X147345400Y-102133400D02*
X143822579Y-102133400D01*
X143822579Y-94843500D01*
X143822579Y-93243500D01*
X143805667Y-93156336D01*
X143755342Y-93079726D01*
X143679371Y-93028444D01*
X143589500Y-93010421D01*
X142589500Y-93010421D01*
X142502336Y-93027333D01*
X142425726Y-93077658D01*
X142374444Y-93153629D01*
X142356421Y-93243500D01*
X142356421Y-93268800D01*
X142203797Y-93268800D01*
X142219079Y-93192600D01*
X142219079Y-92786200D01*
X142202167Y-92699036D01*
X142175996Y-92659195D01*
X142201056Y-92622071D01*
X142219079Y-92532200D01*
X142219079Y-92125800D01*
X142209222Y-92075000D01*
X142430500Y-92075000D01*
X142576302Y-92045998D01*
X142576303Y-92045998D01*
X142699908Y-91963408D01*
X143144408Y-91518908D01*
X143226998Y-91395303D01*
X143226998Y-91395302D01*
X143256000Y-91249500D01*
X143256000Y-90763600D01*
X143226998Y-90617798D01*
X143226998Y-90617797D01*
X143193916Y-90568288D01*
X143144408Y-90494192D01*
X143144404Y-90494189D01*
X142862079Y-90211863D01*
X142862079Y-89392600D01*
X142845167Y-89305436D01*
X142794842Y-89228826D01*
X142718871Y-89177544D01*
X142629000Y-89159521D01*
X141629000Y-89159521D01*
X141541836Y-89176433D01*
X141465226Y-89226758D01*
X141413944Y-89302729D01*
X141395921Y-89392600D01*
X141395921Y-89484200D01*
X141014542Y-89484200D01*
X140980579Y-89450237D01*
X140980579Y-88671500D01*
X140963667Y-88584336D01*
X140913342Y-88507726D01*
X140837371Y-88456444D01*
X140780900Y-88445119D01*
X140780900Y-87486430D01*
X140961065Y-87366048D01*
X141230860Y-86962271D01*
X141325600Y-86485983D01*
X141325600Y-86437217D01*
X141230860Y-85960929D01*
X140961065Y-85557152D01*
X140557288Y-85287357D01*
X140081000Y-85192617D01*
X139604712Y-85287357D01*
X139200935Y-85557152D01*
X138931140Y-85960929D01*
X138836400Y-86437217D01*
X138836400Y-86485983D01*
X138931140Y-86962271D01*
X139200935Y-87366048D01*
X139604712Y-87635843D01*
X139714100Y-87657601D01*
X139714100Y-88444901D01*
X139660336Y-88455333D01*
X139583726Y-88505658D01*
X139532444Y-88581629D01*
X139514421Y-88671500D01*
X139514421Y-90271500D01*
X139531333Y-90358664D01*
X139581658Y-90435274D01*
X139657629Y-90486556D01*
X139747500Y-90504579D01*
X139866500Y-90504579D01*
X139866500Y-91543000D01*
X139895502Y-91688803D01*
X139978092Y-91812408D01*
X140113684Y-91948000D01*
X140060175Y-91948000D01*
X140057776Y-91942194D01*
X139897151Y-91781289D01*
X139687177Y-91694100D01*
X139459820Y-91693901D01*
X139249694Y-91780724D01*
X139088789Y-91941349D01*
X139001600Y-92151323D01*
X139001401Y-92378680D01*
X139007090Y-92392449D01*
X138951820Y-92392401D01*
X138741694Y-92479224D01*
X138580789Y-92639849D01*
X138493600Y-92849823D01*
X138493401Y-93077180D01*
X138572577Y-93268800D01*
X136869797Y-93268800D01*
X136885079Y-93192600D01*
X136885079Y-92786200D01*
X136868167Y-92699036D01*
X136841996Y-92659195D01*
X136867056Y-92622071D01*
X136885079Y-92532200D01*
X136885079Y-92125800D01*
X136868167Y-92038636D01*
X136817842Y-91962026D01*
X136741871Y-91910744D01*
X136652000Y-91892721D01*
X135382000Y-91892721D01*
X135294836Y-91909633D01*
X135236429Y-91948000D01*
X134853175Y-91948000D01*
X134850776Y-91942194D01*
X134690151Y-91781289D01*
X134480177Y-91694100D01*
X134252820Y-91693901D01*
X134112099Y-91752046D01*
X134112099Y-90374320D01*
X134112099Y-89040820D01*
X134025276Y-88830694D01*
X133864651Y-88669789D01*
X133654677Y-88582600D01*
X133427320Y-88582401D01*
X133217194Y-88669224D01*
X133176847Y-88709500D01*
X132440079Y-88709500D01*
X132440079Y-87414100D01*
X132440079Y-85686900D01*
X132423167Y-85599736D01*
X132372842Y-85523126D01*
X132296871Y-85471844D01*
X132207000Y-85453821D01*
X130175000Y-85453821D01*
X130087836Y-85470733D01*
X130011226Y-85521058D01*
X129959944Y-85597029D01*
X129941921Y-85686900D01*
X129941921Y-87414100D01*
X129958833Y-87501264D01*
X130009158Y-87577874D01*
X130085129Y-87629156D01*
X130175000Y-87647179D01*
X132207000Y-87647179D01*
X132294164Y-87630267D01*
X132370774Y-87579942D01*
X132422056Y-87503971D01*
X132440079Y-87414100D01*
X132440079Y-88709500D01*
X132384197Y-88709500D01*
X132376844Y-88672533D01*
X132140085Y-88318198D01*
X131785750Y-88081439D01*
X131367783Y-87998300D01*
X131014217Y-87998300D01*
X130596250Y-88081439D01*
X130241915Y-88318198D01*
X130005156Y-88672533D01*
X129922017Y-89090500D01*
X130005156Y-89508467D01*
X130241915Y-89862802D01*
X130596250Y-90099561D01*
X131014217Y-90182700D01*
X131367783Y-90182700D01*
X131785750Y-90099561D01*
X132140085Y-89862802D01*
X132376844Y-89508467D01*
X132384197Y-89471500D01*
X133053324Y-89471500D01*
X133055724Y-89477306D01*
X133216349Y-89638211D01*
X133426323Y-89725400D01*
X133653680Y-89725599D01*
X133863806Y-89638776D01*
X134024711Y-89478151D01*
X134111900Y-89268177D01*
X134112099Y-89040820D01*
X134112099Y-90374320D01*
X134025276Y-90164194D01*
X133864651Y-90003289D01*
X133654677Y-89916100D01*
X133427320Y-89915901D01*
X133217194Y-90002724D01*
X133056289Y-90163349D01*
X132969100Y-90373323D01*
X132968971Y-90520212D01*
X132336712Y-91152471D01*
X132140085Y-90858198D01*
X131785750Y-90621439D01*
X131367783Y-90538300D01*
X131014217Y-90538300D01*
X130596250Y-90621439D01*
X130241915Y-90858198D01*
X130005156Y-91212533D01*
X129922017Y-91630500D01*
X130005156Y-92048467D01*
X130241915Y-92402802D01*
X130596250Y-92639561D01*
X131014217Y-92722700D01*
X131367783Y-92722700D01*
X131785750Y-92639561D01*
X132140085Y-92402802D01*
X132376844Y-92048467D01*
X132384197Y-92011500D01*
X132397500Y-92011500D01*
X132543302Y-91982498D01*
X132543303Y-91982498D01*
X132666908Y-91899908D01*
X133507844Y-91058971D01*
X133653680Y-91059099D01*
X133863806Y-90972276D01*
X134024711Y-90811651D01*
X134111900Y-90601677D01*
X134112099Y-90374320D01*
X134112099Y-91752046D01*
X134042694Y-91780724D01*
X133881789Y-91941349D01*
X133794600Y-92151323D01*
X133794560Y-92196684D01*
X133654677Y-92138600D01*
X133427320Y-92138401D01*
X133217194Y-92225224D01*
X133056289Y-92385849D01*
X132969100Y-92595823D01*
X132968901Y-92823180D01*
X133055724Y-93033306D01*
X133216349Y-93194211D01*
X133426323Y-93281400D01*
X133460904Y-93281430D01*
X133386726Y-93330158D01*
X133335444Y-93406129D01*
X133317421Y-93496000D01*
X133317421Y-94496000D01*
X133334333Y-94583164D01*
X133384658Y-94659774D01*
X133460629Y-94711056D01*
X133550500Y-94729079D01*
X134800500Y-94729079D01*
X134887664Y-94712167D01*
X134958248Y-94665800D01*
X135164202Y-94665800D01*
X135148921Y-94742000D01*
X135148921Y-95148400D01*
X135165833Y-95235564D01*
X135192003Y-95275404D01*
X135166944Y-95312529D01*
X135148921Y-95402400D01*
X135148921Y-95808800D01*
X135165833Y-95895964D01*
X135216158Y-95972574D01*
X135292129Y-96023856D01*
X135382000Y-96041879D01*
X136652000Y-96041879D01*
X136739164Y-96024967D01*
X136797570Y-95986600D01*
X136976784Y-95986600D01*
X137414000Y-96423815D01*
X137414000Y-96593059D01*
X137302203Y-96760377D01*
X137261600Y-96964500D01*
X137261600Y-99080921D01*
X136779000Y-99080921D01*
X136691836Y-99097833D01*
X136615226Y-99148158D01*
X136563944Y-99224129D01*
X136545921Y-99314000D01*
X136545921Y-101346000D01*
X136562833Y-101433164D01*
X136613158Y-101509774D01*
X136689129Y-101561056D01*
X136779000Y-101579079D01*
X138811000Y-101579079D01*
X138898164Y-101562167D01*
X138974774Y-101511842D01*
X139026056Y-101435871D01*
X139044079Y-101346000D01*
X139044079Y-99314000D01*
X139027167Y-99226836D01*
X138976842Y-99150226D01*
X138900871Y-99098944D01*
X138811000Y-99080921D01*
X138328400Y-99080921D01*
X138328400Y-96964500D01*
X138287797Y-96760377D01*
X138176000Y-96593059D01*
X138176000Y-96266005D01*
X138176000Y-96266000D01*
X138176001Y-96266000D01*
X138176000Y-96265994D01*
X138176000Y-95186505D01*
X138176000Y-95186500D01*
X138176001Y-95186500D01*
X138146998Y-95040698D01*
X138064408Y-94917093D01*
X138064408Y-94917092D01*
X138064404Y-94917089D01*
X137823108Y-94675792D01*
X137808153Y-94665800D01*
X140194846Y-94665800D01*
X140179892Y-94675792D01*
X140179889Y-94675795D01*
X139621092Y-95234592D01*
X139538502Y-95358197D01*
X139509500Y-95504000D01*
X139509500Y-95831059D01*
X139397703Y-95998377D01*
X139357100Y-96202500D01*
X139357100Y-99571972D01*
X139185140Y-99829329D01*
X139090400Y-100305617D01*
X139090400Y-100354383D01*
X139185140Y-100830671D01*
X139454935Y-101234448D01*
X139858712Y-101504243D01*
X140335000Y-101598983D01*
X140811288Y-101504243D01*
X141215065Y-101234448D01*
X141484860Y-100830671D01*
X141579600Y-100354383D01*
X141579600Y-100305617D01*
X141484860Y-99829329D01*
X141215065Y-99425552D01*
X140811288Y-99155757D01*
X140423900Y-99078700D01*
X140423900Y-96207916D01*
X140615281Y-96016534D01*
X140626129Y-96023856D01*
X140716000Y-96041879D01*
X141986000Y-96041879D01*
X142073164Y-96024967D01*
X142149774Y-95974642D01*
X142201056Y-95898671D01*
X142219079Y-95808800D01*
X142219079Y-95402400D01*
X142202167Y-95315236D01*
X142175996Y-95275395D01*
X142201056Y-95238271D01*
X142219079Y-95148400D01*
X142219079Y-94742000D01*
X142204294Y-94665800D01*
X142356421Y-94665800D01*
X142356421Y-94843500D01*
X142373333Y-94930664D01*
X142423658Y-95007274D01*
X142499629Y-95058556D01*
X142589500Y-95076579D01*
X143589500Y-95076579D01*
X143676664Y-95059667D01*
X143753274Y-95009342D01*
X143804556Y-94933371D01*
X143822579Y-94843500D01*
X143822579Y-102133400D01*
X132459983Y-102133400D01*
X132459983Y-94170500D01*
X132376844Y-93752533D01*
X132140085Y-93398198D01*
X131785750Y-93161439D01*
X131367783Y-93078300D01*
X131014217Y-93078300D01*
X130596250Y-93161439D01*
X130241915Y-93398198D01*
X130005156Y-93752533D01*
X129922017Y-94170500D01*
X130005156Y-94588467D01*
X130241915Y-94942802D01*
X130596250Y-95179561D01*
X131014217Y-95262700D01*
X131367783Y-95262700D01*
X131785750Y-95179561D01*
X132140085Y-94942802D01*
X132376844Y-94588467D01*
X132459983Y-94170500D01*
X132459983Y-102133400D01*
X129514600Y-102133400D01*
X129514600Y-83794600D01*
X147345400Y-83794600D01*
X147345400Y-102133400D01*
X147345400Y-102133400D01*
G37*
X147345400Y-102133400D02*
X143822579Y-102133400D01*
X143822579Y-94843500D01*
X143822579Y-93243500D01*
X143805667Y-93156336D01*
X143755342Y-93079726D01*
X143679371Y-93028444D01*
X143589500Y-93010421D01*
X142589500Y-93010421D01*
X142502336Y-93027333D01*
X142425726Y-93077658D01*
X142374444Y-93153629D01*
X142356421Y-93243500D01*
X142356421Y-93268800D01*
X142203797Y-93268800D01*
X142219079Y-93192600D01*
X142219079Y-92786200D01*
X142202167Y-92699036D01*
X142175996Y-92659195D01*
X142201056Y-92622071D01*
X142219079Y-92532200D01*
X142219079Y-92125800D01*
X142209222Y-92075000D01*
X142430500Y-92075000D01*
X142576302Y-92045998D01*
X142576303Y-92045998D01*
X142699908Y-91963408D01*
X143144408Y-91518908D01*
X143226998Y-91395303D01*
X143226998Y-91395302D01*
X143256000Y-91249500D01*
X143256000Y-90763600D01*
X143226998Y-90617798D01*
X143226998Y-90617797D01*
X143193916Y-90568288D01*
X143144408Y-90494192D01*
X143144404Y-90494189D01*
X142862079Y-90211863D01*
X142862079Y-89392600D01*
X142845167Y-89305436D01*
X142794842Y-89228826D01*
X142718871Y-89177544D01*
X142629000Y-89159521D01*
X141629000Y-89159521D01*
X141541836Y-89176433D01*
X141465226Y-89226758D01*
X141413944Y-89302729D01*
X141395921Y-89392600D01*
X141395921Y-89484200D01*
X141014542Y-89484200D01*
X140980579Y-89450237D01*
X140980579Y-88671500D01*
X140963667Y-88584336D01*
X140913342Y-88507726D01*
X140837371Y-88456444D01*
X140780900Y-88445119D01*
X140780900Y-87486430D01*
X140961065Y-87366048D01*
X141230860Y-86962271D01*
X141325600Y-86485983D01*
X141325600Y-86437217D01*
X141230860Y-85960929D01*
X140961065Y-85557152D01*
X140557288Y-85287357D01*
X140081000Y-85192617D01*
X139604712Y-85287357D01*
X139200935Y-85557152D01*
X138931140Y-85960929D01*
X138836400Y-86437217D01*
X138836400Y-86485983D01*
X138931140Y-86962271D01*
X139200935Y-87366048D01*
X139604712Y-87635843D01*
X139714100Y-87657601D01*
X139714100Y-88444901D01*
X139660336Y-88455333D01*
X139583726Y-88505658D01*
X139532444Y-88581629D01*
X139514421Y-88671500D01*
X139514421Y-90271500D01*
X139531333Y-90358664D01*
X139581658Y-90435274D01*
X139657629Y-90486556D01*
X139747500Y-90504579D01*
X139866500Y-90504579D01*
X139866500Y-91543000D01*
X139895502Y-91688803D01*
X139978092Y-91812408D01*
X140113684Y-91948000D01*
X140060175Y-91948000D01*
X140057776Y-91942194D01*
X139897151Y-91781289D01*
X139687177Y-91694100D01*
X139459820Y-91693901D01*
X139249694Y-91780724D01*
X139088789Y-91941349D01*
X139001600Y-92151323D01*
X139001401Y-92378680D01*
X139007090Y-92392449D01*
X138951820Y-92392401D01*
X138741694Y-92479224D01*
X138580789Y-92639849D01*
X138493600Y-92849823D01*
X138493401Y-93077180D01*
X138572577Y-93268800D01*
X136869797Y-93268800D01*
X136885079Y-93192600D01*
X136885079Y-92786200D01*
X136868167Y-92699036D01*
X136841996Y-92659195D01*
X136867056Y-92622071D01*
X136885079Y-92532200D01*
X136885079Y-92125800D01*
X136868167Y-92038636D01*
X136817842Y-91962026D01*
X136741871Y-91910744D01*
X136652000Y-91892721D01*
X135382000Y-91892721D01*
X135294836Y-91909633D01*
X135236429Y-91948000D01*
X134853175Y-91948000D01*
X134850776Y-91942194D01*
X134690151Y-91781289D01*
X134480177Y-91694100D01*
X134252820Y-91693901D01*
X134112099Y-91752046D01*
X134112099Y-90374320D01*
X134112099Y-89040820D01*
X134025276Y-88830694D01*
X133864651Y-88669789D01*
X133654677Y-88582600D01*
X133427320Y-88582401D01*
X133217194Y-88669224D01*
X133176847Y-88709500D01*
X132440079Y-88709500D01*
X132440079Y-87414100D01*
X132440079Y-85686900D01*
X132423167Y-85599736D01*
X132372842Y-85523126D01*
X132296871Y-85471844D01*
X132207000Y-85453821D01*
X130175000Y-85453821D01*
X130087836Y-85470733D01*
X130011226Y-85521058D01*
X129959944Y-85597029D01*
X129941921Y-85686900D01*
X129941921Y-87414100D01*
X129958833Y-87501264D01*
X130009158Y-87577874D01*
X130085129Y-87629156D01*
X130175000Y-87647179D01*
X132207000Y-87647179D01*
X132294164Y-87630267D01*
X132370774Y-87579942D01*
X132422056Y-87503971D01*
X132440079Y-87414100D01*
X132440079Y-88709500D01*
X132384197Y-88709500D01*
X132376844Y-88672533D01*
X132140085Y-88318198D01*
X131785750Y-88081439D01*
X131367783Y-87998300D01*
X131014217Y-87998300D01*
X130596250Y-88081439D01*
X130241915Y-88318198D01*
X130005156Y-88672533D01*
X129922017Y-89090500D01*
X130005156Y-89508467D01*
X130241915Y-89862802D01*
X130596250Y-90099561D01*
X131014217Y-90182700D01*
X131367783Y-90182700D01*
X131785750Y-90099561D01*
X132140085Y-89862802D01*
X132376844Y-89508467D01*
X132384197Y-89471500D01*
X133053324Y-89471500D01*
X133055724Y-89477306D01*
X133216349Y-89638211D01*
X133426323Y-89725400D01*
X133653680Y-89725599D01*
X133863806Y-89638776D01*
X134024711Y-89478151D01*
X134111900Y-89268177D01*
X134112099Y-89040820D01*
X134112099Y-90374320D01*
X134025276Y-90164194D01*
X133864651Y-90003289D01*
X133654677Y-89916100D01*
X133427320Y-89915901D01*
X133217194Y-90002724D01*
X133056289Y-90163349D01*
X132969100Y-90373323D01*
X132968971Y-90520212D01*
X132336712Y-91152471D01*
X132140085Y-90858198D01*
X131785750Y-90621439D01*
X131367783Y-90538300D01*
X131014217Y-90538300D01*
X130596250Y-90621439D01*
X130241915Y-90858198D01*
X130005156Y-91212533D01*
X129922017Y-91630500D01*
X130005156Y-92048467D01*
X130241915Y-92402802D01*
X130596250Y-92639561D01*
X131014217Y-92722700D01*
X131367783Y-92722700D01*
X131785750Y-92639561D01*
X132140085Y-92402802D01*
X132376844Y-92048467D01*
X132384197Y-92011500D01*
X132397500Y-92011500D01*
X132543302Y-91982498D01*
X132543303Y-91982498D01*
X132666908Y-91899908D01*
X133507844Y-91058971D01*
X133653680Y-91059099D01*
X133863806Y-90972276D01*
X134024711Y-90811651D01*
X134111900Y-90601677D01*
X134112099Y-90374320D01*
X134112099Y-91752046D01*
X134042694Y-91780724D01*
X133881789Y-91941349D01*
X133794600Y-92151323D01*
X133794560Y-92196684D01*
X133654677Y-92138600D01*
X133427320Y-92138401D01*
X133217194Y-92225224D01*
X133056289Y-92385849D01*
X132969100Y-92595823D01*
X132968901Y-92823180D01*
X133055724Y-93033306D01*
X133216349Y-93194211D01*
X133426323Y-93281400D01*
X133460904Y-93281430D01*
X133386726Y-93330158D01*
X133335444Y-93406129D01*
X133317421Y-93496000D01*
X133317421Y-94496000D01*
X133334333Y-94583164D01*
X133384658Y-94659774D01*
X133460629Y-94711056D01*
X133550500Y-94729079D01*
X134800500Y-94729079D01*
X134887664Y-94712167D01*
X134958248Y-94665800D01*
X135164202Y-94665800D01*
X135148921Y-94742000D01*
X135148921Y-95148400D01*
X135165833Y-95235564D01*
X135192003Y-95275404D01*
X135166944Y-95312529D01*
X135148921Y-95402400D01*
X135148921Y-95808800D01*
X135165833Y-95895964D01*
X135216158Y-95972574D01*
X135292129Y-96023856D01*
X135382000Y-96041879D01*
X136652000Y-96041879D01*
X136739164Y-96024967D01*
X136797570Y-95986600D01*
X136976784Y-95986600D01*
X137414000Y-96423815D01*
X137414000Y-96593059D01*
X137302203Y-96760377D01*
X137261600Y-96964500D01*
X137261600Y-99080921D01*
X136779000Y-99080921D01*
X136691836Y-99097833D01*
X136615226Y-99148158D01*
X136563944Y-99224129D01*
X136545921Y-99314000D01*
X136545921Y-101346000D01*
X136562833Y-101433164D01*
X136613158Y-101509774D01*
X136689129Y-101561056D01*
X136779000Y-101579079D01*
X138811000Y-101579079D01*
X138898164Y-101562167D01*
X138974774Y-101511842D01*
X139026056Y-101435871D01*
X139044079Y-101346000D01*
X139044079Y-99314000D01*
X139027167Y-99226836D01*
X138976842Y-99150226D01*
X138900871Y-99098944D01*
X138811000Y-99080921D01*
X138328400Y-99080921D01*
X138328400Y-96964500D01*
X138287797Y-96760377D01*
X138176000Y-96593059D01*
X138176000Y-96266005D01*
X138176000Y-96266000D01*
X138176001Y-96266000D01*
X138176000Y-96265994D01*
X138176000Y-95186505D01*
X138176000Y-95186500D01*
X138176001Y-95186500D01*
X138146998Y-95040698D01*
X138064408Y-94917093D01*
X138064408Y-94917092D01*
X138064404Y-94917089D01*
X137823108Y-94675792D01*
X137808153Y-94665800D01*
X140194846Y-94665800D01*
X140179892Y-94675792D01*
X140179889Y-94675795D01*
X139621092Y-95234592D01*
X139538502Y-95358197D01*
X139509500Y-95504000D01*
X139509500Y-95831059D01*
X139397703Y-95998377D01*
X139357100Y-96202500D01*
X139357100Y-99571972D01*
X139185140Y-99829329D01*
X139090400Y-100305617D01*
X139090400Y-100354383D01*
X139185140Y-100830671D01*
X139454935Y-101234448D01*
X139858712Y-101504243D01*
X140335000Y-101598983D01*
X140811288Y-101504243D01*
X141215065Y-101234448D01*
X141484860Y-100830671D01*
X141579600Y-100354383D01*
X141579600Y-100305617D01*
X141484860Y-99829329D01*
X141215065Y-99425552D01*
X140811288Y-99155757D01*
X140423900Y-99078700D01*
X140423900Y-96207916D01*
X140615281Y-96016534D01*
X140626129Y-96023856D01*
X140716000Y-96041879D01*
X141986000Y-96041879D01*
X142073164Y-96024967D01*
X142149774Y-95974642D01*
X142201056Y-95898671D01*
X142219079Y-95808800D01*
X142219079Y-95402400D01*
X142202167Y-95315236D01*
X142175996Y-95275395D01*
X142201056Y-95238271D01*
X142219079Y-95148400D01*
X142219079Y-94742000D01*
X142204294Y-94665800D01*
X142356421Y-94665800D01*
X142356421Y-94843500D01*
X142373333Y-94930664D01*
X142423658Y-95007274D01*
X142499629Y-95058556D01*
X142589500Y-95076579D01*
X143589500Y-95076579D01*
X143676664Y-95059667D01*
X143753274Y-95009342D01*
X143804556Y-94933371D01*
X143822579Y-94843500D01*
X143822579Y-102133400D01*
X132459983Y-102133400D01*
X132459983Y-94170500D01*
X132376844Y-93752533D01*
X132140085Y-93398198D01*
X131785750Y-93161439D01*
X131367783Y-93078300D01*
X131014217Y-93078300D01*
X130596250Y-93161439D01*
X130241915Y-93398198D01*
X130005156Y-93752533D01*
X129922017Y-94170500D01*
X130005156Y-94588467D01*
X130241915Y-94942802D01*
X130596250Y-95179561D01*
X131014217Y-95262700D01*
X131367783Y-95262700D01*
X131785750Y-95179561D01*
X132140085Y-94942802D01*
X132376844Y-94588467D01*
X132459983Y-94170500D01*
X132459983Y-102133400D01*
X129514600Y-102133400D01*
X129514600Y-83794600D01*
X147345400Y-83794600D01*
X147345400Y-102133400D01*
M02*
