G04 #@! TF.FileFunction,Legend,Bot*
%FSLAX46Y46*%
G04 Gerber Fmt 4.6, Leading zero omitted, Abs format (unit mm)*
G04 Created by KiCad (PCBNEW 0.201509151501+6198~30~ubuntu14.04.1-product) date Sun 04 Oct 2015 11:46:26 PM EDT*
%MOMM*%
G01*
G04 APERTURE LIST*
%ADD10C,0.100000*%
%ADD11C,0.203200*%
%ADD12C,0.150000*%
%ADD13C,0.685800*%
%ADD14R,2.032000X1.727200*%
%ADD15O,2.032000X1.727200*%
%ADD16R,2.032000X2.032000*%
%ADD17O,2.032000X2.032000*%
%ADD18R,1.300000X1.500000*%
%ADD19R,1.727200X2.032000*%
%ADD20O,1.727200X2.032000*%
G04 APERTURE END LIST*
D10*
D11*
X169024905Y-117246400D02*
X169121667Y-117198019D01*
X169266810Y-117198019D01*
X169411952Y-117246400D01*
X169508714Y-117343162D01*
X169557095Y-117439924D01*
X169605476Y-117633448D01*
X169605476Y-117778590D01*
X169557095Y-117972114D01*
X169508714Y-118068876D01*
X169411952Y-118165638D01*
X169266810Y-118214019D01*
X169170048Y-118214019D01*
X169024905Y-118165638D01*
X168976524Y-118117257D01*
X168976524Y-117778590D01*
X169170048Y-117778590D01*
X168395952Y-118214019D02*
X168492714Y-118165638D01*
X168541095Y-118117257D01*
X168589476Y-118020495D01*
X168589476Y-117730210D01*
X168541095Y-117633448D01*
X168492714Y-117585067D01*
X168395952Y-117536686D01*
X168250810Y-117536686D01*
X168154048Y-117585067D01*
X168105667Y-117633448D01*
X168057286Y-117730210D01*
X168057286Y-118020495D01*
X168105667Y-118117257D01*
X168154048Y-118165638D01*
X168250810Y-118214019D01*
X168395952Y-118214019D01*
X167089667Y-117246400D02*
X167186429Y-117198019D01*
X167331572Y-117198019D01*
X167476714Y-117246400D01*
X167573476Y-117343162D01*
X167621857Y-117439924D01*
X167670238Y-117633448D01*
X167670238Y-117778590D01*
X167621857Y-117972114D01*
X167573476Y-118068876D01*
X167476714Y-118165638D01*
X167331572Y-118214019D01*
X167234810Y-118214019D01*
X167089667Y-118165638D01*
X167041286Y-118117257D01*
X167041286Y-117778590D01*
X167234810Y-117778590D01*
X166460714Y-118214019D02*
X166557476Y-118165638D01*
X166605857Y-118117257D01*
X166654238Y-118020495D01*
X166654238Y-117730210D01*
X166605857Y-117633448D01*
X166557476Y-117585067D01*
X166460714Y-117536686D01*
X166315572Y-117536686D01*
X166218810Y-117585067D01*
X166170429Y-117633448D01*
X166122048Y-117730210D01*
X166122048Y-118020495D01*
X166170429Y-118117257D01*
X166218810Y-118165638D01*
X166315572Y-118214019D01*
X166460714Y-118214019D01*
X165154429Y-117246400D02*
X165251191Y-117198019D01*
X165396334Y-117198019D01*
X165541476Y-117246400D01*
X165638238Y-117343162D01*
X165686619Y-117439924D01*
X165735000Y-117633448D01*
X165735000Y-117778590D01*
X165686619Y-117972114D01*
X165638238Y-118068876D01*
X165541476Y-118165638D01*
X165396334Y-118214019D01*
X165299572Y-118214019D01*
X165154429Y-118165638D01*
X165106048Y-118117257D01*
X165106048Y-117778590D01*
X165299572Y-117778590D01*
X164525476Y-118214019D02*
X164622238Y-118165638D01*
X164670619Y-118117257D01*
X164719000Y-118020495D01*
X164719000Y-117730210D01*
X164670619Y-117633448D01*
X164622238Y-117585067D01*
X164525476Y-117536686D01*
X164380334Y-117536686D01*
X164283572Y-117585067D01*
X164235191Y-117633448D01*
X164186810Y-117730210D01*
X164186810Y-118020495D01*
X164235191Y-118117257D01*
X164283572Y-118165638D01*
X164380334Y-118214019D01*
X164525476Y-118214019D01*
X169557095Y-119839619D02*
X169557095Y-118823619D01*
X169218429Y-119549333D01*
X168879762Y-118823619D01*
X168879762Y-119839619D01*
X168250809Y-119839619D02*
X168347571Y-119791238D01*
X168395952Y-119742857D01*
X168444333Y-119646095D01*
X168444333Y-119355810D01*
X168395952Y-119259048D01*
X168347571Y-119210667D01*
X168250809Y-119162286D01*
X168105667Y-119162286D01*
X168008905Y-119210667D01*
X167960524Y-119259048D01*
X167912143Y-119355810D01*
X167912143Y-119646095D01*
X167960524Y-119742857D01*
X168008905Y-119791238D01*
X168105667Y-119839619D01*
X168250809Y-119839619D01*
X167621857Y-119162286D02*
X167234809Y-119162286D01*
X167476714Y-118823619D02*
X167476714Y-119694476D01*
X167428333Y-119791238D01*
X167331571Y-119839619D01*
X167234809Y-119839619D01*
X166751000Y-119839619D02*
X166847762Y-119791238D01*
X166896143Y-119742857D01*
X166944524Y-119646095D01*
X166944524Y-119355810D01*
X166896143Y-119259048D01*
X166847762Y-119210667D01*
X166751000Y-119162286D01*
X166605858Y-119162286D01*
X166509096Y-119210667D01*
X166460715Y-119259048D01*
X166412334Y-119355810D01*
X166412334Y-119646095D01*
X166460715Y-119742857D01*
X166509096Y-119791238D01*
X166605858Y-119839619D01*
X166751000Y-119839619D01*
X165976905Y-119839619D02*
X165976905Y-119162286D01*
X165976905Y-119355810D02*
X165928524Y-119259048D01*
X165880143Y-119210667D01*
X165783381Y-119162286D01*
X165686620Y-119162286D01*
X164573858Y-119839619D02*
X164573858Y-118823619D01*
X164331953Y-118823619D01*
X164186811Y-118872000D01*
X164090049Y-118968762D01*
X164041668Y-119065524D01*
X163993287Y-119259048D01*
X163993287Y-119404190D01*
X164041668Y-119597714D01*
X164090049Y-119694476D01*
X164186811Y-119791238D01*
X164331953Y-119839619D01*
X164573858Y-119839619D01*
X163557858Y-119839619D02*
X163557858Y-119162286D01*
X163557858Y-119355810D02*
X163509477Y-119259048D01*
X163461096Y-119210667D01*
X163364334Y-119162286D01*
X163267573Y-119162286D01*
X162928906Y-119839619D02*
X162928906Y-119162286D01*
X162928906Y-118823619D02*
X162977287Y-118872000D01*
X162928906Y-118920381D01*
X162880525Y-118872000D01*
X162928906Y-118823619D01*
X162928906Y-118920381D01*
X162541858Y-119162286D02*
X162299953Y-119839619D01*
X162058049Y-119162286D01*
X161283954Y-119791238D02*
X161380716Y-119839619D01*
X161574239Y-119839619D01*
X161671001Y-119791238D01*
X161719382Y-119694476D01*
X161719382Y-119307429D01*
X161671001Y-119210667D01*
X161574239Y-119162286D01*
X161380716Y-119162286D01*
X161283954Y-119210667D01*
X161235573Y-119307429D01*
X161235573Y-119404190D01*
X161719382Y-119500952D01*
X160800144Y-119839619D02*
X160800144Y-119162286D01*
X160800144Y-119355810D02*
X160751763Y-119259048D01*
X160703382Y-119210667D01*
X160606620Y-119162286D01*
X160509859Y-119162286D01*
X159058431Y-119307429D02*
X158913288Y-119355810D01*
X158864907Y-119404190D01*
X158816526Y-119500952D01*
X158816526Y-119646095D01*
X158864907Y-119742857D01*
X158913288Y-119791238D01*
X159010050Y-119839619D01*
X159397097Y-119839619D01*
X159397097Y-118823619D01*
X159058431Y-118823619D01*
X158961669Y-118872000D01*
X158913288Y-118920381D01*
X158864907Y-119017143D01*
X158864907Y-119113905D01*
X158913288Y-119210667D01*
X158961669Y-119259048D01*
X159058431Y-119307429D01*
X159397097Y-119307429D01*
X158235954Y-119839619D02*
X158332716Y-119791238D01*
X158381097Y-119742857D01*
X158429478Y-119646095D01*
X158429478Y-119355810D01*
X158381097Y-119259048D01*
X158332716Y-119210667D01*
X158235954Y-119162286D01*
X158090812Y-119162286D01*
X157994050Y-119210667D01*
X157945669Y-119259048D01*
X157897288Y-119355810D01*
X157897288Y-119646095D01*
X157945669Y-119742857D01*
X157994050Y-119791238D01*
X158090812Y-119839619D01*
X158235954Y-119839619D01*
X157026431Y-119839619D02*
X157026431Y-119307429D01*
X157074812Y-119210667D01*
X157171574Y-119162286D01*
X157365097Y-119162286D01*
X157461859Y-119210667D01*
X157026431Y-119791238D02*
X157123193Y-119839619D01*
X157365097Y-119839619D01*
X157461859Y-119791238D01*
X157510240Y-119694476D01*
X157510240Y-119597714D01*
X157461859Y-119500952D01*
X157365097Y-119452571D01*
X157123193Y-119452571D01*
X157026431Y-119404190D01*
X156542621Y-119839619D02*
X156542621Y-119162286D01*
X156542621Y-119355810D02*
X156494240Y-119259048D01*
X156445859Y-119210667D01*
X156349097Y-119162286D01*
X156252336Y-119162286D01*
X155478241Y-119839619D02*
X155478241Y-118823619D01*
X155478241Y-119791238D02*
X155575003Y-119839619D01*
X155768526Y-119839619D01*
X155865288Y-119791238D01*
X155913669Y-119742857D01*
X155962050Y-119646095D01*
X155962050Y-119355810D01*
X155913669Y-119259048D01*
X155865288Y-119210667D01*
X155768526Y-119162286D01*
X155575003Y-119162286D01*
X155478241Y-119210667D01*
X168976524Y-121368457D02*
X169024905Y-121416838D01*
X169170048Y-121465219D01*
X169266810Y-121465219D01*
X169411952Y-121416838D01*
X169508714Y-121320076D01*
X169557095Y-121223314D01*
X169605476Y-121029790D01*
X169605476Y-120884648D01*
X169557095Y-120691124D01*
X169508714Y-120594362D01*
X169411952Y-120497600D01*
X169266810Y-120449219D01*
X169170048Y-120449219D01*
X169024905Y-120497600D01*
X168976524Y-120545981D01*
X168395952Y-121465219D02*
X168492714Y-121416838D01*
X168541095Y-121368457D01*
X168589476Y-121271695D01*
X168589476Y-120981410D01*
X168541095Y-120884648D01*
X168492714Y-120836267D01*
X168395952Y-120787886D01*
X168250810Y-120787886D01*
X168154048Y-120836267D01*
X168105667Y-120884648D01*
X168057286Y-120981410D01*
X168057286Y-121271695D01*
X168105667Y-121368457D01*
X168154048Y-121416838D01*
X168250810Y-121465219D01*
X168395952Y-121465219D01*
X167621857Y-121465219D02*
X167621857Y-120787886D01*
X167621857Y-120884648D02*
X167573476Y-120836267D01*
X167476714Y-120787886D01*
X167331572Y-120787886D01*
X167234810Y-120836267D01*
X167186429Y-120933029D01*
X167186429Y-121465219D01*
X167186429Y-120933029D02*
X167138048Y-120836267D01*
X167041286Y-120787886D01*
X166896143Y-120787886D01*
X166799381Y-120836267D01*
X166751000Y-120933029D01*
X166751000Y-121465219D01*
X166267190Y-121465219D02*
X166267190Y-120787886D01*
X166267190Y-120884648D02*
X166218809Y-120836267D01*
X166122047Y-120787886D01*
X165976905Y-120787886D01*
X165880143Y-120836267D01*
X165831762Y-120933029D01*
X165831762Y-121465219D01*
X165831762Y-120933029D02*
X165783381Y-120836267D01*
X165686619Y-120787886D01*
X165541476Y-120787886D01*
X165444714Y-120836267D01*
X165396333Y-120933029D01*
X165396333Y-121465219D01*
X164912523Y-121465219D02*
X164912523Y-120787886D01*
X164912523Y-120449219D02*
X164960904Y-120497600D01*
X164912523Y-120545981D01*
X164864142Y-120497600D01*
X164912523Y-120449219D01*
X164912523Y-120545981D01*
X164573856Y-120787886D02*
X164186808Y-120787886D01*
X164428713Y-120449219D02*
X164428713Y-121320076D01*
X164380332Y-121416838D01*
X164283570Y-121465219D01*
X164186808Y-121465219D01*
X163122428Y-120787886D02*
X162396714Y-120787886D01*
X162832142Y-120352457D02*
X163122428Y-121658743D01*
X162493476Y-121223314D02*
X163219190Y-121223314D01*
X162783762Y-121658743D02*
X162493476Y-120352457D01*
X162058047Y-121368457D02*
X162009666Y-121416838D01*
X162058047Y-121465219D01*
X162106428Y-121416838D01*
X162058047Y-121368457D01*
X162058047Y-121465219D01*
X162058047Y-120836267D02*
X162009666Y-120884648D01*
X162058047Y-120933029D01*
X162106428Y-120884648D01*
X162058047Y-120836267D01*
X162058047Y-120933029D01*
X160800142Y-121465219D02*
X160800142Y-120449219D01*
X160800142Y-120836267D02*
X160703380Y-120787886D01*
X160509857Y-120787886D01*
X160413095Y-120836267D01*
X160364714Y-120884648D01*
X160316333Y-120981410D01*
X160316333Y-121271695D01*
X160364714Y-121368457D01*
X160413095Y-121416838D01*
X160509857Y-121465219D01*
X160703380Y-121465219D01*
X160800142Y-121416838D01*
X159929285Y-120545981D02*
X159880904Y-120497600D01*
X159784142Y-120449219D01*
X159542238Y-120449219D01*
X159445476Y-120497600D01*
X159397095Y-120545981D01*
X159348714Y-120642743D01*
X159348714Y-120739505D01*
X159397095Y-120884648D01*
X159977666Y-121465219D01*
X159348714Y-121465219D01*
X158864904Y-121465219D02*
X158671380Y-121465219D01*
X158574619Y-121416838D01*
X158526238Y-121368457D01*
X158429476Y-121223314D01*
X158381095Y-121029790D01*
X158381095Y-120642743D01*
X158429476Y-120545981D01*
X158477857Y-120497600D01*
X158574619Y-120449219D01*
X158768142Y-120449219D01*
X158864904Y-120497600D01*
X158913285Y-120545981D01*
X158961666Y-120642743D01*
X158961666Y-120884648D01*
X158913285Y-120981410D01*
X158864904Y-121029790D01*
X158768142Y-121078171D01*
X158574619Y-121078171D01*
X158477857Y-121029790D01*
X158429476Y-120981410D01*
X158381095Y-120884648D01*
X157413476Y-121465219D02*
X157994047Y-121465219D01*
X157703761Y-121465219D02*
X157703761Y-120449219D01*
X157800523Y-120594362D01*
X157897285Y-120691124D01*
X157994047Y-120739505D01*
X156832904Y-120884648D02*
X156929666Y-120836267D01*
X156978047Y-120787886D01*
X157026428Y-120691124D01*
X157026428Y-120642743D01*
X156978047Y-120545981D01*
X156929666Y-120497600D01*
X156832904Y-120449219D01*
X156639381Y-120449219D01*
X156542619Y-120497600D01*
X156494238Y-120545981D01*
X156445857Y-120642743D01*
X156445857Y-120691124D01*
X156494238Y-120787886D01*
X156542619Y-120836267D01*
X156639381Y-120884648D01*
X156832904Y-120884648D01*
X156929666Y-120933029D01*
X156978047Y-120981410D01*
X157026428Y-121078171D01*
X157026428Y-121271695D01*
X156978047Y-121368457D01*
X156929666Y-121416838D01*
X156832904Y-121465219D01*
X156639381Y-121465219D01*
X156542619Y-121416838D01*
X156494238Y-121368457D01*
X156445857Y-121271695D01*
X156445857Y-121078171D01*
X156494238Y-120981410D01*
X156542619Y-120933029D01*
X156639381Y-120884648D01*
X155623381Y-121416838D02*
X155720143Y-121465219D01*
X155913666Y-121465219D01*
X156010428Y-121416838D01*
X156058809Y-121320076D01*
X156058809Y-120933029D01*
X156010428Y-120836267D01*
X155913666Y-120787886D01*
X155720143Y-120787886D01*
X155623381Y-120836267D01*
X155575000Y-120933029D01*
X155575000Y-121029790D01*
X156058809Y-121126552D01*
X155139571Y-121465219D02*
X155139571Y-120449219D01*
X155139571Y-120836267D02*
X155042809Y-120787886D01*
X154849286Y-120787886D01*
X154752524Y-120836267D01*
X154704143Y-120884648D01*
X154655762Y-120981410D01*
X154655762Y-121271695D01*
X154704143Y-121368457D01*
X154752524Y-121416838D01*
X154849286Y-121465219D01*
X155042809Y-121465219D01*
X155139571Y-121416838D01*
D12*
X176389000Y-115281000D02*
X176389000Y-114081000D01*
X174639000Y-114081000D02*
X174639000Y-115281000D01*
X172579000Y-115281000D02*
X172579000Y-114081000D01*
X170829000Y-114081000D02*
X170829000Y-115281000D01*
X159625000Y-125060000D02*
X159625000Y-123860000D01*
X157875000Y-123860000D02*
X157875000Y-125060000D01*
X156831000Y-125822000D02*
X156831000Y-124622000D01*
X155081000Y-124622000D02*
X155081000Y-125822000D01*
D10*
X174343190Y-116375667D02*
X174105095Y-116209000D01*
X174343190Y-116089953D02*
X173843190Y-116089953D01*
X173843190Y-116280429D01*
X173867000Y-116328048D01*
X173890810Y-116351857D01*
X173938429Y-116375667D01*
X174009857Y-116375667D01*
X174057476Y-116351857D01*
X174081286Y-116328048D01*
X174105095Y-116280429D01*
X174105095Y-116089953D01*
X174343190Y-116851857D02*
X174343190Y-116566143D01*
X174343190Y-116709000D02*
X173843190Y-116709000D01*
X173914619Y-116661381D01*
X173962238Y-116613762D01*
X173986048Y-116566143D01*
X170279190Y-116502667D02*
X170041095Y-116336000D01*
X170279190Y-116216953D02*
X169779190Y-116216953D01*
X169779190Y-116407429D01*
X169803000Y-116455048D01*
X169826810Y-116478857D01*
X169874429Y-116502667D01*
X169945857Y-116502667D01*
X169993476Y-116478857D01*
X170017286Y-116455048D01*
X170041095Y-116407429D01*
X170041095Y-116216953D01*
X169826810Y-116693143D02*
X169803000Y-116716953D01*
X169779190Y-116764572D01*
X169779190Y-116883619D01*
X169803000Y-116931238D01*
X169826810Y-116955048D01*
X169874429Y-116978857D01*
X169922048Y-116978857D01*
X169993476Y-116955048D01*
X170279190Y-116669334D01*
X170279190Y-116978857D01*
X160627190Y-123741667D02*
X160389095Y-123575000D01*
X160627190Y-123455953D02*
X160127190Y-123455953D01*
X160127190Y-123646429D01*
X160151000Y-123694048D01*
X160174810Y-123717857D01*
X160222429Y-123741667D01*
X160293857Y-123741667D01*
X160341476Y-123717857D01*
X160365286Y-123694048D01*
X160389095Y-123646429D01*
X160389095Y-123455953D01*
X160127190Y-123908334D02*
X160127190Y-124217857D01*
X160317667Y-124051191D01*
X160317667Y-124122619D01*
X160341476Y-124170238D01*
X160365286Y-124194048D01*
X160412905Y-124217857D01*
X160531952Y-124217857D01*
X160579571Y-124194048D01*
X160603381Y-124170238D01*
X160627190Y-124122619D01*
X160627190Y-123979762D01*
X160603381Y-123932143D01*
X160579571Y-123908334D01*
X154531190Y-125519667D02*
X154293095Y-125353000D01*
X154531190Y-125233953D02*
X154031190Y-125233953D01*
X154031190Y-125424429D01*
X154055000Y-125472048D01*
X154078810Y-125495857D01*
X154126429Y-125519667D01*
X154197857Y-125519667D01*
X154245476Y-125495857D01*
X154269286Y-125472048D01*
X154293095Y-125424429D01*
X154293095Y-125233953D01*
X154197857Y-125948238D02*
X154531190Y-125948238D01*
X154007381Y-125829191D02*
X154364524Y-125710143D01*
X154364524Y-126019667D01*
%LPC*%
D13*
X160147000Y-132461000D03*
X158877000Y-132461000D03*
X157607000Y-132461000D03*
X160147000Y-131191000D03*
X158877000Y-131191000D03*
X157607000Y-131191000D03*
X160147000Y-129921000D03*
X158877000Y-129921000D03*
X157607000Y-129921000D03*
X160147000Y-128651000D03*
X158877000Y-128651000D03*
X157607000Y-128651000D03*
X176149000Y-118745000D03*
X173609000Y-118745000D03*
X167132000Y-127381000D03*
X167132000Y-131064000D03*
X161290000Y-126111000D03*
X171069000Y-131064000D03*
X169799000Y-131064000D03*
X168529000Y-131064000D03*
X174879000Y-118745000D03*
X167132000Y-125984000D03*
X167132000Y-128524000D03*
X167132000Y-129794000D03*
X161290000Y-127254000D03*
X171069000Y-129794000D03*
X169799000Y-129794000D03*
X168529000Y-129794000D03*
X173609000Y-120015000D03*
X162433000Y-127254000D03*
X161290000Y-124968000D03*
X162433000Y-126111000D03*
X162433000Y-124968000D03*
X171069000Y-128524000D03*
X169799000Y-128524000D03*
X168529000Y-128524000D03*
X174879000Y-120015000D03*
X176149000Y-127254000D03*
X174879000Y-127254000D03*
X173609000Y-127254000D03*
X172339000Y-127254000D03*
X171069000Y-127254000D03*
X169799000Y-127254000D03*
X168529000Y-127254000D03*
X176149000Y-120015000D03*
X176149000Y-125984000D03*
X174879000Y-125984000D03*
X173609000Y-125984000D03*
X172339000Y-125984000D03*
X171069000Y-125984000D03*
X169799000Y-125984000D03*
X168529000Y-125984000D03*
X176149000Y-121158000D03*
X176149000Y-124714000D03*
X174879000Y-124714000D03*
X173609000Y-124714000D03*
X172339000Y-124714000D03*
X171069000Y-124714000D03*
X169799000Y-124714000D03*
X168529000Y-124714000D03*
X174879000Y-121031000D03*
X176149000Y-123444000D03*
X174879000Y-123444000D03*
X173609000Y-123444000D03*
X172339000Y-123444000D03*
X171069000Y-123444000D03*
X169799000Y-123444000D03*
X168529000Y-123444000D03*
X173609000Y-121031000D03*
X176149000Y-122174000D03*
X174879000Y-122174000D03*
X173609000Y-122174000D03*
X172339000Y-122174000D03*
X171069000Y-122174000D03*
X169799000Y-122174000D03*
X168529000Y-122174000D03*
X163957000Y-113030000D03*
X161290000Y-115570000D03*
X160020000Y-115570000D03*
X158750000Y-115570000D03*
X157480000Y-115570000D03*
X163957000Y-114046000D03*
X161290000Y-114300000D03*
X160020000Y-114300000D03*
X158750000Y-114300000D03*
X157480000Y-114300000D03*
X162560000Y-113030000D03*
X161290000Y-113030000D03*
X160020000Y-113030000D03*
X158750000Y-113030000D03*
X157480000Y-113030000D03*
X162560000Y-111760000D03*
X161290000Y-111760000D03*
X160020000Y-111760000D03*
X158750000Y-111760000D03*
X157480000Y-111760000D03*
X162560000Y-110490000D03*
X161290000Y-110490000D03*
X160020000Y-110490000D03*
X158750000Y-110490000D03*
D14*
X153289000Y-112776000D03*
D15*
X153289000Y-115316000D03*
X153289000Y-117856000D03*
X153289000Y-120396000D03*
D16*
X162814000Y-129921000D03*
D17*
X165354000Y-129921000D03*
D18*
X175514000Y-113331000D03*
X175514000Y-116031000D03*
X171704000Y-113331000D03*
X171704000Y-116031000D03*
X158750000Y-123110000D03*
X158750000Y-125810000D03*
X155956000Y-123872000D03*
X155956000Y-126572000D03*
D19*
X162179000Y-107696000D03*
D20*
X164719000Y-107696000D03*
X167259000Y-107696000D03*
D13*
X157480000Y-110490000D03*
M02*
