G04 #@! TF.FileFunction,Legend,Top*
%FSLAX46Y46*%
G04 Gerber Fmt 4.6, Leading zero omitted, Abs format (unit mm)*
G04 Created by KiCad (PCBNEW 0.201509151501+6198~30~ubuntu14.04.1-product) date Sun 04 Oct 2015 11:46:26 PM EDT*
%MOMM*%
G01*
G04 APERTURE LIST*
%ADD10C,0.100000*%
%ADD11C,0.152400*%
%ADD12C,0.203200*%
%ADD13C,0.150000*%
%ADD14C,0.685800*%
%ADD15R,1.000000X1.600000*%
%ADD16R,1.000000X1.250000*%
%ADD17R,1.250000X1.000000*%
%ADD18R,2.032000X1.727200*%
%ADD19O,2.032000X1.727200*%
%ADD20R,2.032000X2.032000*%
%ADD21O,2.032000X2.032000*%
%ADD22R,1.270000X0.406400*%
%ADD23R,1.198880X1.198880*%
%ADD24R,1.500000X1.300000*%
%ADD25R,1.727200X2.032000*%
%ADD26O,1.727200X2.032000*%
G04 APERTURE END LIST*
D10*
D11*
X155520572Y-113501714D02*
X155520572Y-112739714D01*
X155810857Y-112739714D01*
X155883429Y-112776000D01*
X155919714Y-112812286D01*
X155956000Y-112884857D01*
X155956000Y-112993714D01*
X155919714Y-113066286D01*
X155883429Y-113102571D01*
X155810857Y-113138857D01*
X155520572Y-113138857D01*
X156210000Y-112739714D02*
X156391429Y-113501714D01*
X156536572Y-112957429D01*
X156681714Y-113501714D01*
X156863143Y-112739714D01*
X157153429Y-113501714D02*
X157153429Y-112739714D01*
X157407429Y-113284000D01*
X157661429Y-112739714D01*
X157661429Y-113501714D01*
X155067001Y-115787714D02*
X155067001Y-115025714D01*
X155429858Y-115787714D02*
X155429858Y-115025714D01*
X155865286Y-115787714D01*
X155865286Y-115025714D01*
X156191858Y-115098286D02*
X156228144Y-115062000D01*
X156300715Y-115025714D01*
X156482144Y-115025714D01*
X156554715Y-115062000D01*
X156591001Y-115098286D01*
X156627286Y-115170857D01*
X156627286Y-115243429D01*
X156591001Y-115352286D01*
X156155572Y-115787714D01*
X156627286Y-115787714D01*
X155321001Y-118073714D02*
X155321001Y-117311714D01*
X155683858Y-118073714D02*
X155683858Y-117311714D01*
X156119286Y-118073714D01*
X156119286Y-117311714D01*
X156881286Y-118073714D02*
X156445858Y-118073714D01*
X156663572Y-118073714D02*
X156663572Y-117311714D01*
X156591001Y-117420571D01*
X156518429Y-117493143D01*
X156445858Y-117529429D01*
X154994429Y-120704429D02*
X155103286Y-120740714D01*
X155284715Y-120740714D01*
X155357286Y-120704429D01*
X155393572Y-120668143D01*
X155429857Y-120595571D01*
X155429857Y-120523000D01*
X155393572Y-120450429D01*
X155357286Y-120414143D01*
X155284715Y-120377857D01*
X155139572Y-120341571D01*
X155067000Y-120305286D01*
X155030715Y-120269000D01*
X154994429Y-120196429D01*
X154994429Y-120123857D01*
X155030715Y-120051286D01*
X155067000Y-120015000D01*
X155139572Y-119978714D01*
X155321000Y-119978714D01*
X155429857Y-120015000D01*
X155647571Y-119978714D02*
X156083000Y-119978714D01*
X155865286Y-120740714D02*
X155865286Y-119978714D01*
X156591000Y-120341571D02*
X156699857Y-120377857D01*
X156736142Y-120414143D01*
X156772428Y-120486714D01*
X156772428Y-120595571D01*
X156736142Y-120668143D01*
X156699857Y-120704429D01*
X156627285Y-120740714D01*
X156337000Y-120740714D01*
X156337000Y-119978714D01*
X156591000Y-119978714D01*
X156663571Y-120015000D01*
X156699857Y-120051286D01*
X156736142Y-120123857D01*
X156736142Y-120196429D01*
X156699857Y-120269000D01*
X156663571Y-120305286D01*
X156591000Y-120341571D01*
X156337000Y-120341571D01*
X157244142Y-120377857D02*
X157244142Y-120740714D01*
X156990142Y-119978714D02*
X157244142Y-120377857D01*
X157498142Y-119978714D01*
D12*
X159905095Y-107569000D02*
X159808333Y-107520619D01*
X159663190Y-107520619D01*
X159518048Y-107569000D01*
X159421286Y-107665762D01*
X159372905Y-107762524D01*
X159324524Y-107956048D01*
X159324524Y-108101190D01*
X159372905Y-108294714D01*
X159421286Y-108391476D01*
X159518048Y-108488238D01*
X159663190Y-108536619D01*
X159759952Y-108536619D01*
X159905095Y-108488238D01*
X159953476Y-108439857D01*
X159953476Y-108101190D01*
X159759952Y-108101190D01*
X159209619Y-125476000D02*
X158193619Y-125476000D01*
X159209619Y-124992190D02*
X158193619Y-124992190D01*
X159209619Y-124411619D01*
X158193619Y-124411619D01*
X159209619Y-123395619D02*
X159209619Y-123976190D01*
X159209619Y-123685904D02*
X158193619Y-123685904D01*
X158338762Y-123782666D01*
X158435524Y-123879428D01*
X158483905Y-123976190D01*
X152859619Y-125730000D02*
X151843619Y-125730000D01*
X152859619Y-125246190D02*
X151843619Y-125246190D01*
X152859619Y-124665619D01*
X151843619Y-124665619D01*
X151940381Y-124230190D02*
X151892000Y-124181809D01*
X151843619Y-124085047D01*
X151843619Y-123843143D01*
X151892000Y-123746381D01*
X151940381Y-123698000D01*
X152037143Y-123649619D01*
X152133905Y-123649619D01*
X152279048Y-123698000D01*
X152859619Y-124278571D01*
X152859619Y-123649619D01*
X174594762Y-111076619D02*
X174933429Y-112092619D01*
X175272095Y-111076619D01*
X175610762Y-112092619D02*
X175610762Y-111076619D01*
X175949428Y-111802333D01*
X176288095Y-111076619D01*
X176288095Y-112092619D01*
X170095334Y-110949619D02*
X170434001Y-111965619D01*
X170772667Y-110949619D01*
X171691905Y-111868857D02*
X171643524Y-111917238D01*
X171498381Y-111965619D01*
X171401619Y-111965619D01*
X171256477Y-111917238D01*
X171159715Y-111820476D01*
X171111334Y-111723714D01*
X171062953Y-111530190D01*
X171062953Y-111385048D01*
X171111334Y-111191524D01*
X171159715Y-111094762D01*
X171256477Y-110998000D01*
X171401619Y-110949619D01*
X171498381Y-110949619D01*
X171643524Y-110998000D01*
X171691905Y-111046381D01*
X172707905Y-111868857D02*
X172659524Y-111917238D01*
X172514381Y-111965619D01*
X172417619Y-111965619D01*
X172272477Y-111917238D01*
X172175715Y-111820476D01*
X172127334Y-111723714D01*
X172078953Y-111530190D01*
X172078953Y-111385048D01*
X172127334Y-111191524D01*
X172175715Y-111094762D01*
X172272477Y-110998000D01*
X172417619Y-110949619D01*
X172514381Y-110949619D01*
X172659524Y-110998000D01*
X172707905Y-111046381D01*
D13*
X171116500Y-119180500D02*
X169116500Y-119180500D01*
X169116500Y-121230500D02*
X171116500Y-121230500D01*
X169156000Y-115329600D02*
X168156000Y-115329600D01*
X168156000Y-117029600D02*
X169156000Y-117029600D01*
X163274500Y-116658500D02*
X165274500Y-116658500D01*
X165274500Y-114608500D02*
X163274500Y-114608500D01*
X160552500Y-121658000D02*
X160552500Y-120658000D01*
X158852500Y-120658000D02*
X158852500Y-121658000D01*
X152019000Y-114046000D02*
X152019000Y-121666000D01*
X154559000Y-114046000D02*
X154559000Y-121666000D01*
X154839000Y-111226000D02*
X154839000Y-112776000D01*
X152019000Y-121666000D02*
X154559000Y-121666000D01*
X154559000Y-114046000D02*
X152019000Y-114046000D01*
X151739000Y-112776000D02*
X151739000Y-111226000D01*
X151739000Y-111226000D02*
X154839000Y-111226000D01*
X164084000Y-128651000D02*
X166624000Y-128651000D01*
X161264000Y-128371000D02*
X162814000Y-128371000D01*
X164084000Y-128651000D02*
X164084000Y-131191000D01*
X162814000Y-131471000D02*
X161264000Y-131471000D01*
X161264000Y-131471000D02*
X161264000Y-128371000D01*
X164084000Y-131191000D02*
X166624000Y-131191000D01*
X166624000Y-131191000D02*
X166624000Y-128651000D01*
X165989000Y-124587000D02*
X165989000Y-116967000D01*
X162433000Y-116967000D02*
X162433000Y-124587000D01*
X165989000Y-124587000D02*
X162433000Y-124587000D01*
X162433000Y-116967000D02*
X165989000Y-116967000D01*
X163300210Y-117475000D02*
G75*
G03X163300210Y-117475000I-359210J0D01*
G01*
X164846000Y-116967000D02*
X164846000Y-117729000D01*
X164846000Y-117729000D02*
X163576000Y-117729000D01*
X163576000Y-117729000D02*
X163576000Y-116967000D01*
X176264000Y-116281000D02*
X176264000Y-113581000D01*
X174764000Y-116281000D02*
X174764000Y-113581000D01*
X175664000Y-114781000D02*
X175414000Y-114781000D01*
X175414000Y-114781000D02*
X175564000Y-114931000D01*
X175164000Y-115031000D02*
X175864000Y-115031000D01*
X175514000Y-114681000D02*
X175514000Y-114331000D01*
X175514000Y-115031000D02*
X175164000Y-114681000D01*
X175164000Y-114681000D02*
X175864000Y-114681000D01*
X175864000Y-114681000D02*
X175514000Y-115031000D01*
X172454000Y-116281000D02*
X172454000Y-113581000D01*
X170954000Y-116281000D02*
X170954000Y-113581000D01*
X171854000Y-114781000D02*
X171604000Y-114781000D01*
X171604000Y-114781000D02*
X171754000Y-114931000D01*
X171354000Y-115031000D02*
X172054000Y-115031000D01*
X171704000Y-114681000D02*
X171704000Y-114331000D01*
X171704000Y-115031000D02*
X171354000Y-114681000D01*
X171354000Y-114681000D02*
X172054000Y-114681000D01*
X172054000Y-114681000D02*
X171704000Y-115031000D01*
X157722000Y-126060000D02*
X157722000Y-123360000D01*
X156222000Y-126060000D02*
X156222000Y-123360000D01*
X157122000Y-124560000D02*
X156872000Y-124560000D01*
X156872000Y-124560000D02*
X157022000Y-124710000D01*
X156622000Y-124810000D02*
X157322000Y-124810000D01*
X156972000Y-124460000D02*
X156972000Y-124110000D01*
X156972000Y-124810000D02*
X156622000Y-124460000D01*
X156622000Y-124460000D02*
X157322000Y-124460000D01*
X157322000Y-124460000D02*
X156972000Y-124810000D01*
X155182000Y-126060000D02*
X155182000Y-123360000D01*
X153682000Y-126060000D02*
X153682000Y-123360000D01*
X154582000Y-124560000D02*
X154332000Y-124560000D01*
X154332000Y-124560000D02*
X154482000Y-124710000D01*
X154082000Y-124810000D02*
X154782000Y-124810000D01*
X154432000Y-124460000D02*
X154432000Y-124110000D01*
X154432000Y-124810000D02*
X154082000Y-124460000D01*
X154082000Y-124460000D02*
X154782000Y-124460000D01*
X154782000Y-124460000D02*
X154432000Y-124810000D01*
X165389000Y-109996000D02*
X166589000Y-109996000D01*
X166589000Y-111746000D02*
X165389000Y-111746000D01*
X163449000Y-108966000D02*
X168529000Y-108966000D01*
X168529000Y-108966000D02*
X168529000Y-106426000D01*
X168529000Y-106426000D02*
X163449000Y-106426000D01*
X160629000Y-106146000D02*
X162179000Y-106146000D01*
X163449000Y-106426000D02*
X163449000Y-108966000D01*
X162179000Y-109246000D02*
X160629000Y-109246000D01*
X160629000Y-109246000D02*
X160629000Y-106146000D01*
D10*
X172255667Y-118542571D02*
X172231857Y-118566381D01*
X172160429Y-118590190D01*
X172112810Y-118590190D01*
X172041381Y-118566381D01*
X171993762Y-118518762D01*
X171969953Y-118471143D01*
X171946143Y-118375905D01*
X171946143Y-118304476D01*
X171969953Y-118209238D01*
X171993762Y-118161619D01*
X172041381Y-118114000D01*
X172112810Y-118090190D01*
X172160429Y-118090190D01*
X172231857Y-118114000D01*
X172255667Y-118137810D01*
X172684238Y-118256857D02*
X172684238Y-118590190D01*
X172565191Y-118066381D02*
X172446143Y-118423524D01*
X172755667Y-118423524D01*
X169207667Y-114859571D02*
X169183857Y-114883381D01*
X169112429Y-114907190D01*
X169064810Y-114907190D01*
X168993381Y-114883381D01*
X168945762Y-114835762D01*
X168921953Y-114788143D01*
X168898143Y-114692905D01*
X168898143Y-114621476D01*
X168921953Y-114526238D01*
X168945762Y-114478619D01*
X168993381Y-114431000D01*
X169064810Y-114407190D01*
X169112429Y-114407190D01*
X169183857Y-114431000D01*
X169207667Y-114454810D01*
X169683857Y-114907190D02*
X169398143Y-114907190D01*
X169541000Y-114907190D02*
X169541000Y-114407190D01*
X169493381Y-114478619D01*
X169445762Y-114526238D01*
X169398143Y-114550048D01*
X162603667Y-114097571D02*
X162579857Y-114121381D01*
X162508429Y-114145190D01*
X162460810Y-114145190D01*
X162389381Y-114121381D01*
X162341762Y-114073762D01*
X162317953Y-114026143D01*
X162294143Y-113930905D01*
X162294143Y-113859476D01*
X162317953Y-113764238D01*
X162341762Y-113716619D01*
X162389381Y-113669000D01*
X162460810Y-113645190D01*
X162508429Y-113645190D01*
X162579857Y-113669000D01*
X162603667Y-113692810D01*
X162794143Y-113692810D02*
X162817953Y-113669000D01*
X162865572Y-113645190D01*
X162984619Y-113645190D01*
X163032238Y-113669000D01*
X163056048Y-113692810D01*
X163079857Y-113740429D01*
X163079857Y-113788048D01*
X163056048Y-113859476D01*
X162770334Y-114145190D01*
X163079857Y-114145190D01*
X159301667Y-118923571D02*
X159277857Y-118947381D01*
X159206429Y-118971190D01*
X159158810Y-118971190D01*
X159087381Y-118947381D01*
X159039762Y-118899762D01*
X159015953Y-118852143D01*
X158992143Y-118756905D01*
X158992143Y-118685476D01*
X159015953Y-118590238D01*
X159039762Y-118542619D01*
X159087381Y-118495000D01*
X159158810Y-118471190D01*
X159206429Y-118471190D01*
X159277857Y-118495000D01*
X159301667Y-118518810D01*
X159468334Y-118471190D02*
X159777857Y-118471190D01*
X159611191Y-118661667D01*
X159682619Y-118661667D01*
X159730238Y-118685476D01*
X159754048Y-118709286D01*
X159777857Y-118756905D01*
X159777857Y-118875952D01*
X159754048Y-118923571D01*
X159730238Y-118947381D01*
X159682619Y-118971190D01*
X159539762Y-118971190D01*
X159492143Y-118947381D01*
X159468334Y-118923571D01*
X151649953Y-110716190D02*
X151649953Y-110216190D01*
X151840429Y-110216190D01*
X151888048Y-110240000D01*
X151911857Y-110263810D01*
X151935667Y-110311429D01*
X151935667Y-110382857D01*
X151911857Y-110430476D01*
X151888048Y-110454286D01*
X151840429Y-110478095D01*
X151649953Y-110478095D01*
X152126143Y-110263810D02*
X152149953Y-110240000D01*
X152197572Y-110216190D01*
X152316619Y-110216190D01*
X152364238Y-110240000D01*
X152388048Y-110263810D01*
X152411857Y-110311429D01*
X152411857Y-110359048D01*
X152388048Y-110430476D01*
X152102334Y-110716190D01*
X152411857Y-110716190D01*
X160158953Y-131480690D02*
X160158953Y-130980690D01*
X160349429Y-130980690D01*
X160397048Y-131004500D01*
X160420857Y-131028310D01*
X160444667Y-131075929D01*
X160444667Y-131147357D01*
X160420857Y-131194976D01*
X160397048Y-131218786D01*
X160349429Y-131242595D01*
X160158953Y-131242595D01*
X160611334Y-130980690D02*
X160920857Y-130980690D01*
X160754191Y-131171167D01*
X160825619Y-131171167D01*
X160873238Y-131194976D01*
X160897048Y-131218786D01*
X160920857Y-131266405D01*
X160920857Y-131385452D01*
X160897048Y-131433071D01*
X160873238Y-131456881D01*
X160825619Y-131480690D01*
X160682762Y-131480690D01*
X160635143Y-131456881D01*
X160611334Y-131433071D01*
X161290048Y-117201190D02*
X161290048Y-117605952D01*
X161313857Y-117653571D01*
X161337667Y-117677381D01*
X161385286Y-117701190D01*
X161480524Y-117701190D01*
X161528143Y-117677381D01*
X161551952Y-117653571D01*
X161575762Y-117605952D01*
X161575762Y-117201190D01*
X162075762Y-117701190D02*
X161790048Y-117701190D01*
X161932905Y-117701190D02*
X161932905Y-117201190D01*
X161885286Y-117272619D01*
X161837667Y-117320238D01*
X161790048Y-117344048D01*
X162095667Y-111097190D02*
X161929000Y-110859095D01*
X161809953Y-111097190D02*
X161809953Y-110597190D01*
X162000429Y-110597190D01*
X162048048Y-110621000D01*
X162071857Y-110644810D01*
X162095667Y-110692429D01*
X162095667Y-110763857D01*
X162071857Y-110811476D01*
X162048048Y-110835286D01*
X162000429Y-110859095D01*
X161809953Y-110859095D01*
X162548048Y-110597190D02*
X162309953Y-110597190D01*
X162286143Y-110835286D01*
X162309953Y-110811476D01*
X162357572Y-110787667D01*
X162476619Y-110787667D01*
X162524238Y-110811476D01*
X162548048Y-110835286D01*
X162571857Y-110882905D01*
X162571857Y-111001952D01*
X162548048Y-111049571D01*
X162524238Y-111073381D01*
X162476619Y-111097190D01*
X162357572Y-111097190D01*
X162309953Y-111073381D01*
X162286143Y-111049571D01*
X157305190Y-108065047D02*
X156805190Y-108065047D01*
X156805190Y-107874571D01*
X156829000Y-107826952D01*
X156852810Y-107803143D01*
X156900429Y-107779333D01*
X156971857Y-107779333D01*
X157019476Y-107803143D01*
X157043286Y-107826952D01*
X157067095Y-107874571D01*
X157067095Y-108065047D01*
X157305190Y-107303143D02*
X157305190Y-107588857D01*
X157305190Y-107446000D02*
X156805190Y-107446000D01*
X156876619Y-107493619D01*
X156924238Y-107541238D01*
X156948048Y-107588857D01*
%LPC*%
D14*
X160147000Y-132461000D03*
X158877000Y-132461000D03*
X157607000Y-132461000D03*
X160147000Y-131191000D03*
X158877000Y-131191000D03*
X157607000Y-131191000D03*
X160147000Y-129921000D03*
X158877000Y-129921000D03*
X157607000Y-129921000D03*
X160147000Y-128651000D03*
X158877000Y-128651000D03*
X157607000Y-128651000D03*
X176149000Y-118745000D03*
X173609000Y-118745000D03*
X167132000Y-127381000D03*
X167132000Y-131064000D03*
X161290000Y-126111000D03*
X171069000Y-131064000D03*
X169799000Y-131064000D03*
X168529000Y-131064000D03*
X174879000Y-118745000D03*
X167132000Y-125984000D03*
X167132000Y-128524000D03*
X167132000Y-129794000D03*
X161290000Y-127254000D03*
X171069000Y-129794000D03*
X169799000Y-129794000D03*
X168529000Y-129794000D03*
X173609000Y-120015000D03*
X162433000Y-127254000D03*
X161290000Y-124968000D03*
X162433000Y-126111000D03*
X162433000Y-124968000D03*
X171069000Y-128524000D03*
X169799000Y-128524000D03*
X168529000Y-128524000D03*
X174879000Y-120015000D03*
X176149000Y-127254000D03*
X174879000Y-127254000D03*
X173609000Y-127254000D03*
X172339000Y-127254000D03*
X171069000Y-127254000D03*
X169799000Y-127254000D03*
X168529000Y-127254000D03*
X176149000Y-120015000D03*
X176149000Y-125984000D03*
X174879000Y-125984000D03*
X173609000Y-125984000D03*
X172339000Y-125984000D03*
X171069000Y-125984000D03*
X169799000Y-125984000D03*
X168529000Y-125984000D03*
X176149000Y-121158000D03*
X176149000Y-124714000D03*
X174879000Y-124714000D03*
X173609000Y-124714000D03*
X172339000Y-124714000D03*
X171069000Y-124714000D03*
X169799000Y-124714000D03*
X168529000Y-124714000D03*
X174879000Y-121031000D03*
X176149000Y-123444000D03*
X174879000Y-123444000D03*
X173609000Y-123444000D03*
X172339000Y-123444000D03*
X171069000Y-123444000D03*
X169799000Y-123444000D03*
X168529000Y-123444000D03*
X173609000Y-121031000D03*
X176149000Y-122174000D03*
X174879000Y-122174000D03*
X173609000Y-122174000D03*
X172339000Y-122174000D03*
X171069000Y-122174000D03*
X169799000Y-122174000D03*
X168529000Y-122174000D03*
X163957000Y-113030000D03*
X161290000Y-115570000D03*
X160020000Y-115570000D03*
X158750000Y-115570000D03*
X157480000Y-115570000D03*
X163957000Y-114046000D03*
X161290000Y-114300000D03*
X160020000Y-114300000D03*
X158750000Y-114300000D03*
X157480000Y-114300000D03*
X162560000Y-113030000D03*
X161290000Y-113030000D03*
X160020000Y-113030000D03*
X158750000Y-113030000D03*
X157480000Y-113030000D03*
X162560000Y-111760000D03*
X161290000Y-111760000D03*
X160020000Y-111760000D03*
X158750000Y-111760000D03*
X157480000Y-111760000D03*
X162560000Y-110490000D03*
X161290000Y-110490000D03*
X160020000Y-110490000D03*
X158750000Y-110490000D03*
D15*
X168616500Y-120205500D03*
X171616500Y-120205500D03*
D16*
X167656000Y-116179600D03*
X169656000Y-116179600D03*
D15*
X165774500Y-115633500D03*
X162774500Y-115633500D03*
D17*
X159702500Y-120158000D03*
X159702500Y-122158000D03*
D18*
X153289000Y-112776000D03*
D19*
X153289000Y-115316000D03*
X153289000Y-117856000D03*
X153289000Y-120396000D03*
D20*
X162814000Y-129921000D03*
D21*
X165354000Y-129921000D03*
D22*
X161544000Y-117856000D03*
X161544000Y-118491000D03*
X161544000Y-119151400D03*
X161544000Y-119811800D03*
X161544000Y-120446800D03*
X161544000Y-121107200D03*
X161544000Y-121767600D03*
X161544000Y-122402600D03*
X161544000Y-123063000D03*
X161544000Y-123698000D03*
X166878000Y-123698000D03*
X166878000Y-123063000D03*
X166878000Y-122402600D03*
X166878000Y-121767600D03*
X166878000Y-121107200D03*
X166878000Y-120446800D03*
X166878000Y-119811800D03*
X166878000Y-119151400D03*
X166878000Y-118491000D03*
X166878000Y-117856000D03*
D23*
X175514000Y-113631980D03*
X175514000Y-115730020D03*
X171704000Y-113631980D03*
X171704000Y-115730020D03*
X156972000Y-123410980D03*
X156972000Y-125509020D03*
X154432000Y-123410980D03*
X154432000Y-125509020D03*
D24*
X167339000Y-110871000D03*
X164639000Y-110871000D03*
D25*
X162179000Y-107696000D03*
D26*
X164719000Y-107696000D03*
X167259000Y-107696000D03*
D14*
X157480000Y-110490000D03*
M02*
