M48
;DRILL file {KiCad 0.201509151501+6198~30~ubuntu14.04.1-product} date Sun 04 Oct 2015 11:46:34 PM EDT
;FORMAT={2:4/ absolute / inch / suppress leading zeros}
FMAT,2
INCH,TZ
T1C0.013
T2C0.040
T3C0.118
%
G90
G05
M72
T1
X60800Y-48100
X60800Y-49900
X61000Y-46900
X61800Y-48000
X62000Y-43500
X62000Y-44000
X62000Y-44500
X62000Y-45000
X62000Y-45500
X62050Y-50650
X62050Y-51150
X62050Y-51650
X62050Y-52150
X62200Y-50200
X62500Y-43500
X62500Y-44000
X62500Y-44500
X62500Y-45000
X62500Y-45500
X62550Y-50650
X62550Y-51150
X62550Y-51650
X62550Y-52150
X63000Y-43500
X63000Y-44000
X63000Y-44500
X63000Y-45000
X63000Y-45500
X63050Y-50650
X63050Y-51150
X63050Y-51650
X63050Y-52150
X63500Y-43500
X63500Y-44000
X63500Y-44500
X63500Y-45000
X63500Y-45500
X63500Y-49200
X63500Y-49650
X63500Y-50100
X63950Y-49200
X63950Y-49650
X63950Y-50100
X64000Y-43500
X64000Y-44000
X64000Y-44500
X64550Y-44500
X64550Y-44900
X64850Y-46900
X65100Y-46650
X65800Y-49600
X65800Y-50150
X65800Y-50600
X65800Y-51100
X65800Y-51600
X66350Y-48100
X66350Y-48600
X66350Y-49100
X66350Y-49600
X66350Y-50100
X66350Y-50600
X66350Y-51100
X66350Y-51600
X66850Y-48100
X66850Y-48600
X66850Y-49100
X66850Y-49600
X66850Y-50100
X66850Y-50600
X66850Y-51100
X66850Y-51600
X67350Y-48100
X67350Y-48600
X67350Y-49100
X67350Y-49600
X67350Y-50100
X67350Y-50600
X67350Y-51100
X67350Y-51600
X67400Y-46300
X67850Y-48100
X67850Y-48600
X67850Y-49100
X67850Y-49600
X67850Y-50100
X68350Y-46750
X68350Y-47250
X68350Y-47650
X68350Y-48100
X68350Y-48600
X68350Y-49100
X68350Y-49600
X68350Y-50100
X68850Y-46750
X68850Y-47250
X68850Y-47650
X68850Y-48100
X68850Y-48600
X68850Y-49100
X68850Y-49600
X68850Y-50100
X69000Y-46300
X69350Y-46750
X69350Y-47250
X69350Y-47700
X69350Y-48100
X69350Y-48600
X69350Y-49100
X69350Y-49600
X69350Y-50100
T2
X60350Y-44400
X60350Y-45400
X60350Y-46400
X60350Y-47400
X63850Y-42400
X64100Y-51150
X64850Y-42400
X65100Y-51150
X65850Y-42400
T3
X60850Y-42400
X60850Y-51400
X68600Y-42400
X68600Y-51400
T0
M30
