G04 #@! TF.FileFunction,Soldermask,Top*
%FSLAX46Y46*%
G04 Gerber Fmt 4.6, Leading zero omitted, Abs format (unit mm)*
G04 Created by KiCad (PCBNEW 0.201509151501+6198~30~ubuntu14.04.1-product) date Sun 04 Oct 2015 11:46:26 PM EDT*
%MOMM*%
G01*
G04 APERTURE LIST*
%ADD10C,0.100000*%
%ADD11C,0.685800*%
%ADD12R,1.000000X1.600000*%
%ADD13R,1.000000X1.250000*%
%ADD14R,1.250000X1.000000*%
%ADD15R,2.032000X1.727200*%
%ADD16O,2.032000X1.727200*%
%ADD17R,2.032000X2.032000*%
%ADD18O,2.032000X2.032000*%
%ADD19R,1.270000X0.406400*%
%ADD20R,1.198880X1.198880*%
%ADD21R,1.500000X1.300000*%
%ADD22R,1.727200X2.032000*%
%ADD23O,1.727200X2.032000*%
G04 APERTURE END LIST*
D10*
D11*
X160147000Y-132461000D03*
X158877000Y-132461000D03*
X157607000Y-132461000D03*
X160147000Y-131191000D03*
X158877000Y-131191000D03*
X157607000Y-131191000D03*
X160147000Y-129921000D03*
X158877000Y-129921000D03*
X157607000Y-129921000D03*
X160147000Y-128651000D03*
X158877000Y-128651000D03*
X157607000Y-128651000D03*
X176149000Y-118745000D03*
X173609000Y-118745000D03*
X167132000Y-127381000D03*
X167132000Y-131064000D03*
X161290000Y-126111000D03*
X171069000Y-131064000D03*
X169799000Y-131064000D03*
X168529000Y-131064000D03*
X174879000Y-118745000D03*
X167132000Y-125984000D03*
X167132000Y-128524000D03*
X167132000Y-129794000D03*
X161290000Y-127254000D03*
X171069000Y-129794000D03*
X169799000Y-129794000D03*
X168529000Y-129794000D03*
X173609000Y-120015000D03*
X162433000Y-127254000D03*
X161290000Y-124968000D03*
X162433000Y-126111000D03*
X162433000Y-124968000D03*
X171069000Y-128524000D03*
X169799000Y-128524000D03*
X168529000Y-128524000D03*
X174879000Y-120015000D03*
X176149000Y-127254000D03*
X174879000Y-127254000D03*
X173609000Y-127254000D03*
X172339000Y-127254000D03*
X171069000Y-127254000D03*
X169799000Y-127254000D03*
X168529000Y-127254000D03*
X176149000Y-120015000D03*
X176149000Y-125984000D03*
X174879000Y-125984000D03*
X173609000Y-125984000D03*
X172339000Y-125984000D03*
X171069000Y-125984000D03*
X169799000Y-125984000D03*
X168529000Y-125984000D03*
X176149000Y-121158000D03*
X176149000Y-124714000D03*
X174879000Y-124714000D03*
X173609000Y-124714000D03*
X172339000Y-124714000D03*
X171069000Y-124714000D03*
X169799000Y-124714000D03*
X168529000Y-124714000D03*
X174879000Y-121031000D03*
X176149000Y-123444000D03*
X174879000Y-123444000D03*
X173609000Y-123444000D03*
X172339000Y-123444000D03*
X171069000Y-123444000D03*
X169799000Y-123444000D03*
X168529000Y-123444000D03*
X173609000Y-121031000D03*
X176149000Y-122174000D03*
X174879000Y-122174000D03*
X173609000Y-122174000D03*
X172339000Y-122174000D03*
X171069000Y-122174000D03*
X169799000Y-122174000D03*
X168529000Y-122174000D03*
X163957000Y-113030000D03*
X161290000Y-115570000D03*
X160020000Y-115570000D03*
X158750000Y-115570000D03*
X157480000Y-115570000D03*
X163957000Y-114046000D03*
X161290000Y-114300000D03*
X160020000Y-114300000D03*
X158750000Y-114300000D03*
X157480000Y-114300000D03*
X162560000Y-113030000D03*
X161290000Y-113030000D03*
X160020000Y-113030000D03*
X158750000Y-113030000D03*
X157480000Y-113030000D03*
X162560000Y-111760000D03*
X161290000Y-111760000D03*
X160020000Y-111760000D03*
X158750000Y-111760000D03*
X157480000Y-111760000D03*
X162560000Y-110490000D03*
X161290000Y-110490000D03*
X160020000Y-110490000D03*
X158750000Y-110490000D03*
D12*
X168616500Y-120205500D03*
X171616500Y-120205500D03*
D13*
X167656000Y-116179600D03*
X169656000Y-116179600D03*
D12*
X165774500Y-115633500D03*
X162774500Y-115633500D03*
D14*
X159702500Y-120158000D03*
X159702500Y-122158000D03*
D15*
X153289000Y-112776000D03*
D16*
X153289000Y-115316000D03*
X153289000Y-117856000D03*
X153289000Y-120396000D03*
D17*
X162814000Y-129921000D03*
D18*
X165354000Y-129921000D03*
D19*
X161544000Y-117856000D03*
X161544000Y-118491000D03*
X161544000Y-119151400D03*
X161544000Y-119811800D03*
X161544000Y-120446800D03*
X161544000Y-121107200D03*
X161544000Y-121767600D03*
X161544000Y-122402600D03*
X161544000Y-123063000D03*
X161544000Y-123698000D03*
X166878000Y-123698000D03*
X166878000Y-123063000D03*
X166878000Y-122402600D03*
X166878000Y-121767600D03*
X166878000Y-121107200D03*
X166878000Y-120446800D03*
X166878000Y-119811800D03*
X166878000Y-119151400D03*
X166878000Y-118491000D03*
X166878000Y-117856000D03*
D20*
X175514000Y-113631980D03*
X175514000Y-115730020D03*
X171704000Y-113631980D03*
X171704000Y-115730020D03*
X156972000Y-123410980D03*
X156972000Y-125509020D03*
X154432000Y-123410980D03*
X154432000Y-125509020D03*
D21*
X167339000Y-110871000D03*
X164639000Y-110871000D03*
D22*
X162179000Y-107696000D03*
D23*
X164719000Y-107696000D03*
X167259000Y-107696000D03*
D11*
X157480000Y-110490000D03*
M02*
