G04 #@! TF.FileFunction,Copper,L1,Top,Signal*
%FSLAX46Y46*%
G04 Gerber Fmt 4.6, Leading zero omitted, Abs format (unit mm)*
G04 Created by KiCad (PCBNEW 0.201509151501+6198~30~ubuntu14.04.1-product) date Sun 04 Oct 2015 11:46:26 PM EDT*
%MOMM*%
G01*
G04 APERTURE LIST*
%ADD10C,0.100000*%
%ADD11C,0.685800*%
%ADD12R,1.000000X1.600000*%
%ADD13R,1.000000X1.250000*%
%ADD14R,1.250000X1.000000*%
%ADD15R,2.032000X1.727200*%
%ADD16O,2.032000X1.727200*%
%ADD17R,2.032000X2.032000*%
%ADD18O,2.032000X2.032000*%
%ADD19R,1.270000X0.406400*%
%ADD20R,1.198880X1.198880*%
%ADD21R,1.500000X1.300000*%
%ADD22R,1.727200X2.032000*%
%ADD23O,1.727200X2.032000*%
%ADD24C,0.609600*%
%ADD25C,0.304800*%
%ADD26C,0.152400*%
G04 APERTURE END LIST*
D10*
D11*
X160147000Y-132461000D03*
X158877000Y-132461000D03*
X157607000Y-132461000D03*
X160147000Y-131191000D03*
X158877000Y-131191000D03*
X157607000Y-131191000D03*
X160147000Y-129921000D03*
X158877000Y-129921000D03*
X157607000Y-129921000D03*
X160147000Y-128651000D03*
X158877000Y-128651000D03*
X157607000Y-128651000D03*
X176149000Y-118745000D03*
X173609000Y-118745000D03*
X167132000Y-127381000D03*
X167132000Y-131064000D03*
X161290000Y-126111000D03*
X171069000Y-131064000D03*
X169799000Y-131064000D03*
X168529000Y-131064000D03*
X174879000Y-118745000D03*
X167132000Y-125984000D03*
X167132000Y-128524000D03*
X167132000Y-129794000D03*
X161290000Y-127254000D03*
X171069000Y-129794000D03*
X169799000Y-129794000D03*
X168529000Y-129794000D03*
X173609000Y-120015000D03*
X162433000Y-127254000D03*
X161290000Y-124968000D03*
X162433000Y-126111000D03*
X162433000Y-124968000D03*
X171069000Y-128524000D03*
X169799000Y-128524000D03*
X168529000Y-128524000D03*
X174879000Y-120015000D03*
X176149000Y-127254000D03*
X174879000Y-127254000D03*
X173609000Y-127254000D03*
X172339000Y-127254000D03*
X171069000Y-127254000D03*
X169799000Y-127254000D03*
X168529000Y-127254000D03*
X176149000Y-120015000D03*
X176149000Y-125984000D03*
X174879000Y-125984000D03*
X173609000Y-125984000D03*
X172339000Y-125984000D03*
X171069000Y-125984000D03*
X169799000Y-125984000D03*
X168529000Y-125984000D03*
X176149000Y-121158000D03*
X176149000Y-124714000D03*
X174879000Y-124714000D03*
X173609000Y-124714000D03*
X172339000Y-124714000D03*
X171069000Y-124714000D03*
X169799000Y-124714000D03*
X168529000Y-124714000D03*
X174879000Y-121031000D03*
X176149000Y-123444000D03*
X174879000Y-123444000D03*
X173609000Y-123444000D03*
X172339000Y-123444000D03*
X171069000Y-123444000D03*
X169799000Y-123444000D03*
X168529000Y-123444000D03*
X173609000Y-121031000D03*
X176149000Y-122174000D03*
X174879000Y-122174000D03*
X173609000Y-122174000D03*
X172339000Y-122174000D03*
X171069000Y-122174000D03*
X169799000Y-122174000D03*
X168529000Y-122174000D03*
X163957000Y-113030000D03*
X161290000Y-115570000D03*
X160020000Y-115570000D03*
X158750000Y-115570000D03*
X157480000Y-115570000D03*
X163957000Y-114046000D03*
X161290000Y-114300000D03*
X160020000Y-114300000D03*
X158750000Y-114300000D03*
X157480000Y-114300000D03*
X162560000Y-113030000D03*
X161290000Y-113030000D03*
X160020000Y-113030000D03*
X158750000Y-113030000D03*
X157480000Y-113030000D03*
X162560000Y-111760000D03*
X161290000Y-111760000D03*
X160020000Y-111760000D03*
X158750000Y-111760000D03*
X157480000Y-111760000D03*
X162560000Y-110490000D03*
X161290000Y-110490000D03*
X160020000Y-110490000D03*
X158750000Y-110490000D03*
D12*
X168616500Y-120205500D03*
X171616500Y-120205500D03*
D13*
X167656000Y-116179600D03*
X169656000Y-116179600D03*
D12*
X165774500Y-115633500D03*
X162774500Y-115633500D03*
D14*
X159702500Y-120158000D03*
X159702500Y-122158000D03*
D15*
X153289000Y-112776000D03*
D16*
X153289000Y-115316000D03*
X153289000Y-117856000D03*
X153289000Y-120396000D03*
D17*
X162814000Y-129921000D03*
D18*
X165354000Y-129921000D03*
D19*
X161544000Y-117856000D03*
X161544000Y-118491000D03*
X161544000Y-119151400D03*
X161544000Y-119811800D03*
X161544000Y-120446800D03*
X161544000Y-121107200D03*
X161544000Y-121767600D03*
X161544000Y-122402600D03*
X161544000Y-123063000D03*
X161544000Y-123698000D03*
X166878000Y-123698000D03*
X166878000Y-123063000D03*
X166878000Y-122402600D03*
X166878000Y-121767600D03*
X166878000Y-121107200D03*
X166878000Y-120446800D03*
X166878000Y-119811800D03*
X166878000Y-119151400D03*
X166878000Y-118491000D03*
X166878000Y-117856000D03*
D20*
X175514000Y-113631980D03*
X175514000Y-115730020D03*
X171704000Y-113631980D03*
X171704000Y-115730020D03*
X156972000Y-123410980D03*
X156972000Y-125509020D03*
X154432000Y-123410980D03*
X154432000Y-125509020D03*
D21*
X167339000Y-110871000D03*
X164639000Y-110871000D03*
D22*
X162179000Y-107696000D03*
D23*
X164719000Y-107696000D03*
X167259000Y-107696000D03*
D11*
X157480000Y-110490000D03*
X154432000Y-122174000D03*
X154940000Y-119126000D03*
X165354000Y-118491000D03*
X156972000Y-121920000D03*
X164719000Y-119126000D03*
X175260000Y-117602000D03*
X171196000Y-117602000D03*
X157988000Y-127508000D03*
X154432000Y-126746000D03*
D24*
X171704000Y-113631980D02*
X168308020Y-113631980D01*
X167656000Y-114284000D02*
X167656000Y-116179600D01*
X168308020Y-113631980D02*
X167656000Y-114284000D01*
X164639000Y-110871000D02*
X164639000Y-112061000D01*
X165774500Y-113196500D02*
X165774500Y-115633500D01*
X164639000Y-112061000D02*
X165774500Y-113196500D01*
X164719000Y-107696000D02*
X164719000Y-110791000D01*
X164719000Y-110791000D02*
X164639000Y-110871000D01*
D25*
X166878000Y-117856000D02*
X167894000Y-117856000D01*
X168300400Y-116179600D02*
X167656000Y-116179600D01*
X168529000Y-115951000D02*
X168300400Y-116179600D01*
X168529000Y-117221000D02*
X168529000Y-115951000D01*
X167894000Y-117856000D02*
X168529000Y-117221000D01*
X166878000Y-117856000D02*
X166878000Y-116179600D01*
X166624000Y-115951000D02*
X166624000Y-116179600D01*
X166649400Y-115951000D02*
X166624000Y-115951000D01*
X166878000Y-116179600D02*
X166649400Y-115951000D01*
X166878000Y-117856000D02*
X165989000Y-117856000D01*
X165989000Y-117856000D02*
X165774500Y-117641500D01*
X165774500Y-117641500D02*
X165774500Y-115633500D01*
D24*
X167656000Y-116179600D02*
X166624000Y-116179600D01*
X166624000Y-116179600D02*
X166320600Y-116179600D01*
X166320600Y-116179600D02*
X165774500Y-115633500D01*
X175514000Y-113631980D02*
X174023020Y-113631980D01*
X168616500Y-119038500D02*
X168616500Y-120205500D01*
X169164000Y-118491000D02*
X168616500Y-119038500D01*
X171704000Y-118491000D02*
X169164000Y-118491000D01*
X173609000Y-116586000D02*
X171704000Y-118491000D01*
X173609000Y-114046000D02*
X173609000Y-116586000D01*
X174023020Y-113631980D02*
X173609000Y-114046000D01*
X167339000Y-110871000D02*
X170434000Y-110871000D01*
X175514000Y-112776000D02*
X175514000Y-113631980D01*
X174244000Y-111506000D02*
X175514000Y-112776000D01*
X171069000Y-111506000D02*
X174244000Y-111506000D01*
X170434000Y-110871000D02*
X171069000Y-111506000D01*
X167339000Y-110871000D02*
X167339000Y-107776000D01*
X167339000Y-107776000D02*
X167259000Y-107696000D01*
D25*
X161544000Y-120446800D02*
X159991300Y-120446800D01*
X159991300Y-120446800D02*
X159702500Y-120158000D01*
X161544000Y-119811800D02*
X160048700Y-119811800D01*
X160048700Y-119811800D02*
X159702500Y-120158000D01*
X166878000Y-119811800D02*
X161544000Y-119811800D01*
X166878000Y-120446800D02*
X161544000Y-120446800D01*
X166878000Y-119811800D02*
X168222800Y-119811800D01*
X168222800Y-119811800D02*
X168616500Y-120205500D01*
X168616500Y-120205500D02*
X168084500Y-120205500D01*
X167843200Y-120446800D02*
X166878000Y-120446800D01*
X168084500Y-120205500D02*
X167843200Y-120446800D01*
X153289000Y-112776000D02*
X155194000Y-112776000D01*
X157099000Y-118491000D02*
X161544000Y-118491000D01*
X155829000Y-117221000D02*
X157099000Y-118491000D01*
X155829000Y-113411000D02*
X155829000Y-117221000D01*
X155194000Y-112776000D02*
X155829000Y-113411000D01*
X153289000Y-115316000D02*
X153416000Y-115316000D01*
X153416000Y-115316000D02*
X154940000Y-116840000D01*
X154432000Y-122174000D02*
X154432000Y-123410980D01*
X154940000Y-116840000D02*
X154940000Y-119126000D01*
X165354000Y-118491000D02*
X166878000Y-118491000D01*
X156972000Y-121920000D02*
X156972000Y-123410980D01*
X164744400Y-119151400D02*
X166878000Y-119151400D01*
X164719000Y-119126000D02*
X164744400Y-119151400D01*
X153289000Y-120396000D02*
X156464000Y-120396000D01*
X157708600Y-119151400D02*
X161544000Y-119151400D01*
X156464000Y-120396000D02*
X157708600Y-119151400D01*
X161544000Y-121107200D02*
X162255200Y-121107200D01*
X162255200Y-121107200D02*
X162915600Y-121767600D01*
X161544000Y-121767600D02*
X162915600Y-121767600D01*
D24*
X163449000Y-122301000D02*
X163449000Y-129286000D01*
X162915600Y-121767600D02*
X163449000Y-122301000D01*
X163449000Y-129286000D02*
X162814000Y-129921000D01*
D25*
X166878000Y-121107200D02*
X165912800Y-121107200D01*
X165354000Y-121666000D02*
X165354000Y-122301000D01*
X165912800Y-121107200D02*
X165354000Y-121666000D01*
X166878000Y-121767600D02*
X165887400Y-121767600D01*
D24*
X165354000Y-122301000D02*
X165354000Y-129921000D01*
X165887400Y-121767600D02*
X165354000Y-122301000D01*
D25*
X175514000Y-115730020D02*
X175514000Y-117348000D01*
X175514000Y-117348000D02*
X175260000Y-117602000D01*
X171704000Y-115730020D02*
X171704000Y-117094000D01*
X171704000Y-117094000D02*
X171196000Y-117602000D01*
X156972000Y-125509020D02*
X156972000Y-126492000D01*
X156972000Y-126492000D02*
X157988000Y-127508000D01*
X154432000Y-125509020D02*
X154432000Y-126746000D01*
D26*
G36*
X176505400Y-132817400D02*
X151662600Y-132817400D01*
X151662600Y-130898331D01*
X152830101Y-130898331D01*
X153092710Y-131533894D01*
X153578548Y-132020581D01*
X154213652Y-132284299D01*
X154901331Y-132284899D01*
X155536894Y-132022290D01*
X156023581Y-131536452D01*
X156287299Y-130901348D01*
X156287899Y-130213669D01*
X156025290Y-129578106D01*
X155539452Y-129091419D01*
X154904348Y-128827701D01*
X154216669Y-128827101D01*
X153581106Y-129089710D01*
X153094419Y-129575548D01*
X152830701Y-130210652D01*
X152830101Y-130898331D01*
X151662600Y-130898331D01*
X151662600Y-124909580D01*
X153599482Y-124909580D01*
X153599482Y-126108460D01*
X153615422Y-126193174D01*
X153665488Y-126270978D01*
X153741880Y-126323175D01*
X153832560Y-126341538D01*
X154028240Y-126341538D01*
X153947789Y-126421849D01*
X153860600Y-126631823D01*
X153860401Y-126859180D01*
X153947224Y-127069306D01*
X154107849Y-127230211D01*
X154317823Y-127317400D01*
X154545180Y-127317599D01*
X154755306Y-127230776D01*
X154916211Y-127070151D01*
X155003400Y-126860177D01*
X155003599Y-126632820D01*
X154916776Y-126422694D01*
X154835761Y-126341538D01*
X155031440Y-126341538D01*
X155116154Y-126325598D01*
X155193958Y-126275532D01*
X155246155Y-126199140D01*
X155264518Y-126108460D01*
X155264518Y-124909580D01*
X156139482Y-124909580D01*
X156139482Y-126108460D01*
X156155422Y-126193174D01*
X156205488Y-126270978D01*
X156281880Y-126323175D01*
X156372560Y-126341538D01*
X156591000Y-126341538D01*
X156591000Y-126492000D01*
X156620002Y-126637803D01*
X156702592Y-126761408D01*
X157416529Y-127475345D01*
X157416401Y-127621180D01*
X157503224Y-127831306D01*
X157663849Y-127992211D01*
X157873823Y-128079400D01*
X158101180Y-128079599D01*
X158311306Y-127992776D01*
X158472211Y-127832151D01*
X158559400Y-127622177D01*
X158559599Y-127394820D01*
X158472776Y-127184694D01*
X158312151Y-127023789D01*
X158102177Y-126936600D01*
X157955287Y-126936471D01*
X157360354Y-126341538D01*
X157571440Y-126341538D01*
X157656154Y-126325598D01*
X157733958Y-126275532D01*
X157786155Y-126199140D01*
X157804518Y-126108460D01*
X157804518Y-124909580D01*
X157788578Y-124824866D01*
X157738512Y-124747062D01*
X157662120Y-124694865D01*
X157571440Y-124676502D01*
X156372560Y-124676502D01*
X156287846Y-124692442D01*
X156210042Y-124742508D01*
X156157845Y-124818900D01*
X156139482Y-124909580D01*
X155264518Y-124909580D01*
X155248578Y-124824866D01*
X155198512Y-124747062D01*
X155122120Y-124694865D01*
X155031440Y-124676502D01*
X153832560Y-124676502D01*
X153747846Y-124692442D01*
X153670042Y-124742508D01*
X153617845Y-124818900D01*
X153599482Y-124909580D01*
X151662600Y-124909580D01*
X151662600Y-122811540D01*
X153599482Y-122811540D01*
X153599482Y-124010420D01*
X153615422Y-124095134D01*
X153665488Y-124172938D01*
X153741880Y-124225135D01*
X153832560Y-124243498D01*
X155031440Y-124243498D01*
X155116154Y-124227558D01*
X155193958Y-124177492D01*
X155246155Y-124101100D01*
X155264518Y-124010420D01*
X155264518Y-122811540D01*
X156139482Y-122811540D01*
X156139482Y-124010420D01*
X156155422Y-124095134D01*
X156205488Y-124172938D01*
X156281880Y-124225135D01*
X156372560Y-124243498D01*
X157571440Y-124243498D01*
X157656154Y-124227558D01*
X157733958Y-124177492D01*
X157786155Y-124101100D01*
X157804518Y-124010420D01*
X157804518Y-122811540D01*
X157788578Y-122726826D01*
X157738512Y-122649022D01*
X157662120Y-122596825D01*
X157571440Y-122578462D01*
X157353000Y-122578462D01*
X157353000Y-122347182D01*
X157456211Y-122244151D01*
X157543400Y-122034177D01*
X157543599Y-121806820D01*
X157456776Y-121596694D01*
X157296151Y-121435789D01*
X157086177Y-121348600D01*
X156858820Y-121348401D01*
X156648694Y-121435224D01*
X156487789Y-121595849D01*
X156400600Y-121805823D01*
X156400401Y-122033180D01*
X156487224Y-122243306D01*
X156591000Y-122347263D01*
X156591000Y-122578462D01*
X156372560Y-122578462D01*
X156287846Y-122594402D01*
X156210042Y-122644468D01*
X156157845Y-122720860D01*
X156139482Y-122811540D01*
X155264518Y-122811540D01*
X155248578Y-122726826D01*
X155198512Y-122649022D01*
X155122120Y-122596825D01*
X155031440Y-122578462D01*
X154835760Y-122578462D01*
X154916211Y-122498151D01*
X155003400Y-122288177D01*
X155003599Y-122060820D01*
X154916776Y-121850694D01*
X154756151Y-121689789D01*
X154546177Y-121602600D01*
X154318820Y-121602401D01*
X154108694Y-121689224D01*
X153947789Y-121849849D01*
X153860600Y-122059823D01*
X153860401Y-122287180D01*
X153947224Y-122497306D01*
X154028239Y-122578462D01*
X153832560Y-122578462D01*
X153747846Y-122594402D01*
X153670042Y-122644468D01*
X153617845Y-122720860D01*
X153599482Y-122811540D01*
X151662600Y-122811540D01*
X151662600Y-120396000D01*
X152020017Y-120396000D01*
X152103156Y-120813967D01*
X152339915Y-121168302D01*
X152694250Y-121405061D01*
X153112217Y-121488200D01*
X153465783Y-121488200D01*
X153883750Y-121405061D01*
X154238085Y-121168302D01*
X154474844Y-120813967D01*
X154482197Y-120777000D01*
X156464000Y-120777000D01*
X156609803Y-120747998D01*
X156733408Y-120665408D01*
X157866416Y-119532400D01*
X158886645Y-119532400D01*
X158862785Y-119567320D01*
X158844422Y-119658000D01*
X158844422Y-120658000D01*
X158860362Y-120742714D01*
X158910428Y-120820518D01*
X158986820Y-120872715D01*
X159077500Y-120891078D01*
X160327500Y-120891078D01*
X160412214Y-120875138D01*
X160485779Y-120827800D01*
X160691353Y-120827800D01*
X160675922Y-120904000D01*
X160675922Y-121310400D01*
X160691862Y-121395114D01*
X160719087Y-121437422D01*
X160694285Y-121473720D01*
X160675922Y-121564400D01*
X160675922Y-121970800D01*
X160691862Y-122055514D01*
X160741928Y-122133318D01*
X160818320Y-122185515D01*
X160909000Y-122203878D01*
X162179000Y-122203878D01*
X162263714Y-122187938D01*
X162324846Y-122148600D01*
X162542258Y-122148600D01*
X162915600Y-122521941D01*
X162915600Y-128671922D01*
X161798000Y-128671922D01*
X161713286Y-128687862D01*
X161635482Y-128737928D01*
X161583285Y-128814320D01*
X161564922Y-128905000D01*
X161564922Y-130937000D01*
X161580862Y-131021714D01*
X161630928Y-131099518D01*
X161707320Y-131151715D01*
X161798000Y-131170078D01*
X163830000Y-131170078D01*
X163914714Y-131154138D01*
X163992518Y-131104072D01*
X164044715Y-131027680D01*
X164063078Y-130937000D01*
X164063078Y-128905000D01*
X164047138Y-128820286D01*
X163997072Y-128742482D01*
X163982400Y-128732457D01*
X163982400Y-122301005D01*
X163982401Y-122301000D01*
X163941797Y-122096877D01*
X163917705Y-122060820D01*
X163826171Y-121923829D01*
X163826168Y-121923827D01*
X163292771Y-121390429D01*
X163119723Y-121274803D01*
X162922360Y-121235545D01*
X162524608Y-120837792D01*
X162509654Y-120827800D01*
X165658346Y-120827800D01*
X165643392Y-120837792D01*
X165643390Y-120837795D01*
X165084592Y-121396592D01*
X165002002Y-121520197D01*
X164992493Y-121568002D01*
X164973000Y-121666000D01*
X164973000Y-121929560D01*
X164861203Y-122096877D01*
X164820600Y-122301000D01*
X164820600Y-128784918D01*
X164473935Y-129016552D01*
X164204140Y-129420329D01*
X164109400Y-129896617D01*
X164109400Y-129945383D01*
X164204140Y-130421671D01*
X164473935Y-130825448D01*
X164877712Y-131095243D01*
X165354000Y-131189983D01*
X165830288Y-131095243D01*
X166124987Y-130898331D01*
X172515101Y-130898331D01*
X172777710Y-131533894D01*
X173263548Y-132020581D01*
X173898652Y-132284299D01*
X174586331Y-132284899D01*
X175221894Y-132022290D01*
X175708581Y-131536452D01*
X175972299Y-130901348D01*
X175972899Y-130213669D01*
X175710290Y-129578106D01*
X175224452Y-129091419D01*
X174589348Y-128827701D01*
X173901669Y-128827101D01*
X173266106Y-129089710D01*
X172779419Y-129575548D01*
X172515701Y-130210652D01*
X172515101Y-130898331D01*
X166124987Y-130898331D01*
X166234065Y-130825448D01*
X166503860Y-130421671D01*
X166598600Y-129945383D01*
X166598600Y-129896617D01*
X166503860Y-129420329D01*
X166234065Y-129016552D01*
X165887400Y-128784918D01*
X165887400Y-122521942D01*
X166211784Y-122197557D01*
X166243000Y-122203878D01*
X167513000Y-122203878D01*
X167597714Y-122187938D01*
X167675518Y-122137872D01*
X167727715Y-122061480D01*
X167746078Y-121970800D01*
X167746078Y-121564400D01*
X167730138Y-121479686D01*
X167702913Y-121437378D01*
X167727715Y-121401080D01*
X167746078Y-121310400D01*
X167746078Y-120904000D01*
X167731740Y-120827800D01*
X167843200Y-120827800D01*
X167883422Y-120819799D01*
X167883422Y-121005500D01*
X167899362Y-121090214D01*
X167949428Y-121168018D01*
X168025820Y-121220215D01*
X168116500Y-121238578D01*
X169116500Y-121238578D01*
X169201214Y-121222638D01*
X169279018Y-121172572D01*
X169331215Y-121096180D01*
X169349578Y-121005500D01*
X169349578Y-119405500D01*
X169333638Y-119320786D01*
X169283572Y-119242982D01*
X169213939Y-119195403D01*
X169384942Y-119024400D01*
X171704000Y-119024400D01*
X171908123Y-118983797D01*
X172081171Y-118868171D01*
X173986171Y-116963171D01*
X174101797Y-116790123D01*
X174142400Y-116586000D01*
X174142400Y-115130580D01*
X174681482Y-115130580D01*
X174681482Y-116329460D01*
X174697422Y-116414174D01*
X174747488Y-116491978D01*
X174823880Y-116544175D01*
X174914560Y-116562538D01*
X175133000Y-116562538D01*
X175133000Y-117036111D01*
X174936694Y-117117224D01*
X174775789Y-117277849D01*
X174688600Y-117487823D01*
X174688401Y-117715180D01*
X174775224Y-117925306D01*
X174935849Y-118086211D01*
X175145823Y-118173400D01*
X175373180Y-118173599D01*
X175583306Y-118086776D01*
X175744211Y-117926151D01*
X175831400Y-117716177D01*
X175831550Y-117545359D01*
X175865998Y-117493803D01*
X175895000Y-117348000D01*
X175895000Y-116562538D01*
X176113440Y-116562538D01*
X176198154Y-116546598D01*
X176275958Y-116496532D01*
X176328155Y-116420140D01*
X176346518Y-116329460D01*
X176346518Y-115130580D01*
X176330578Y-115045866D01*
X176280512Y-114968062D01*
X176204120Y-114915865D01*
X176113440Y-114897502D01*
X174914560Y-114897502D01*
X174829846Y-114913442D01*
X174752042Y-114963508D01*
X174699845Y-115039900D01*
X174681482Y-115130580D01*
X174142400Y-115130580D01*
X174142400Y-114266942D01*
X174243962Y-114165380D01*
X174681482Y-114165380D01*
X174681482Y-114231420D01*
X174697422Y-114316134D01*
X174747488Y-114393938D01*
X174823880Y-114446135D01*
X174914560Y-114464498D01*
X176113440Y-114464498D01*
X176198154Y-114448558D01*
X176275958Y-114398492D01*
X176328155Y-114322100D01*
X176346518Y-114231420D01*
X176346518Y-113032540D01*
X176330578Y-112947826D01*
X176280512Y-112870022D01*
X176204120Y-112817825D01*
X176113440Y-112799462D01*
X176047400Y-112799462D01*
X176047400Y-112776000D01*
X176006797Y-112571877D01*
X176006797Y-112571876D01*
X175891171Y-112398829D01*
X174621171Y-111128829D01*
X174448123Y-111013203D01*
X174244000Y-110972600D01*
X171289941Y-110972600D01*
X170811171Y-110493829D01*
X170638123Y-110378203D01*
X170434000Y-110337600D01*
X168322078Y-110337600D01*
X168322078Y-110221000D01*
X168306138Y-110136286D01*
X168256072Y-110058482D01*
X168179680Y-110006285D01*
X168089000Y-109987922D01*
X167872400Y-109987922D01*
X167872400Y-108751260D01*
X168031302Y-108645085D01*
X168268061Y-108290750D01*
X168318270Y-108038331D01*
X172515101Y-108038331D01*
X172777710Y-108673894D01*
X173263548Y-109160581D01*
X173898652Y-109424299D01*
X174586331Y-109424899D01*
X175221894Y-109162290D01*
X175708581Y-108676452D01*
X175972299Y-108041348D01*
X175972899Y-107353669D01*
X175710290Y-106718106D01*
X175224452Y-106231419D01*
X174589348Y-105967701D01*
X173901669Y-105967101D01*
X173266106Y-106229710D01*
X172779419Y-106715548D01*
X172515701Y-107350652D01*
X172515101Y-108038331D01*
X168318270Y-108038331D01*
X168351200Y-107872783D01*
X168351200Y-107519217D01*
X168268061Y-107101250D01*
X168031302Y-106746915D01*
X167676967Y-106510156D01*
X167259000Y-106427017D01*
X166841033Y-106510156D01*
X166486698Y-106746915D01*
X166249939Y-107101250D01*
X166166800Y-107519217D01*
X166166800Y-107872783D01*
X166249939Y-108290750D01*
X166486698Y-108645085D01*
X166805600Y-108858168D01*
X166805600Y-109987922D01*
X166589000Y-109987922D01*
X166504286Y-110003862D01*
X166426482Y-110053928D01*
X166374285Y-110130320D01*
X166355922Y-110221000D01*
X166355922Y-111521000D01*
X166371862Y-111605714D01*
X166421928Y-111683518D01*
X166498320Y-111735715D01*
X166589000Y-111754078D01*
X168089000Y-111754078D01*
X168173714Y-111738138D01*
X168251518Y-111688072D01*
X168303715Y-111611680D01*
X168322078Y-111521000D01*
X168322078Y-111404400D01*
X170213058Y-111404400D01*
X170691827Y-111883168D01*
X170691829Y-111883171D01*
X170735574Y-111912400D01*
X170864877Y-111998797D01*
X171069000Y-112039401D01*
X171069005Y-112039400D01*
X174023058Y-112039400D01*
X174811114Y-112827456D01*
X174752042Y-112865468D01*
X174699845Y-112941860D01*
X174681482Y-113032540D01*
X174681482Y-113098580D01*
X174023025Y-113098580D01*
X174023020Y-113098579D01*
X173818897Y-113139183D01*
X173645849Y-113254809D01*
X173231829Y-113668829D01*
X173116203Y-113841877D01*
X173075600Y-114046000D01*
X173075600Y-116365058D01*
X171767438Y-117673220D01*
X171767529Y-117569287D01*
X171973405Y-117363410D01*
X171973408Y-117363408D01*
X172055998Y-117239802D01*
X172085000Y-117094000D01*
X172085000Y-116562538D01*
X172303440Y-116562538D01*
X172388154Y-116546598D01*
X172465958Y-116496532D01*
X172518155Y-116420140D01*
X172536518Y-116329460D01*
X172536518Y-115130580D01*
X172520578Y-115045866D01*
X172470512Y-114968062D01*
X172394120Y-114915865D01*
X172303440Y-114897502D01*
X171104560Y-114897502D01*
X171019846Y-114913442D01*
X170942042Y-114963508D01*
X170889845Y-115039900D01*
X170871482Y-115130580D01*
X170871482Y-116329460D01*
X170887422Y-116414174D01*
X170937488Y-116491978D01*
X171013880Y-116544175D01*
X171104560Y-116562538D01*
X171323000Y-116562538D01*
X171323000Y-116936185D01*
X171228656Y-117030529D01*
X171082820Y-117030401D01*
X170872694Y-117117224D01*
X170711789Y-117277849D01*
X170624600Y-117487823D01*
X170624401Y-117715180D01*
X170711224Y-117925306D01*
X170743462Y-117957600D01*
X169164000Y-117957600D01*
X168959877Y-117998203D01*
X168786829Y-118113829D01*
X168239329Y-118661329D01*
X168123703Y-118834377D01*
X168083100Y-119038500D01*
X168083100Y-119178707D01*
X168031786Y-119188362D01*
X167953982Y-119238428D01*
X167901785Y-119314820D01*
X167883422Y-119405500D01*
X167883422Y-119430800D01*
X167730647Y-119430800D01*
X167746078Y-119354600D01*
X167746078Y-118948200D01*
X167730138Y-118863486D01*
X167702913Y-118821178D01*
X167727715Y-118784880D01*
X167746078Y-118694200D01*
X167746078Y-118287800D01*
X167736519Y-118237000D01*
X167894000Y-118237000D01*
X168039803Y-118207998D01*
X168163408Y-118125408D01*
X168798405Y-117490410D01*
X168798408Y-117490408D01*
X168880998Y-117366802D01*
X168887803Y-117332592D01*
X168910001Y-117221000D01*
X168910000Y-117220995D01*
X168910000Y-115951000D01*
X168880998Y-115805198D01*
X168798408Y-115681592D01*
X168674802Y-115599002D01*
X168529000Y-115570000D01*
X168389078Y-115597832D01*
X168389078Y-115554600D01*
X168373138Y-115469886D01*
X168323072Y-115392082D01*
X168246680Y-115339885D01*
X168189400Y-115328286D01*
X168189400Y-114504942D01*
X168528961Y-114165380D01*
X170871482Y-114165380D01*
X170871482Y-114231420D01*
X170887422Y-114316134D01*
X170937488Y-114393938D01*
X171013880Y-114446135D01*
X171104560Y-114464498D01*
X172303440Y-114464498D01*
X172388154Y-114448558D01*
X172465958Y-114398492D01*
X172518155Y-114322100D01*
X172536518Y-114231420D01*
X172536518Y-113032540D01*
X172520578Y-112947826D01*
X172470512Y-112870022D01*
X172394120Y-112817825D01*
X172303440Y-112799462D01*
X171104560Y-112799462D01*
X171019846Y-112815402D01*
X170942042Y-112865468D01*
X170889845Y-112941860D01*
X170871482Y-113032540D01*
X170871482Y-113098580D01*
X168308025Y-113098580D01*
X168308020Y-113098579D01*
X168103897Y-113139183D01*
X167930849Y-113254809D01*
X167930847Y-113254812D01*
X167278829Y-113906829D01*
X167163203Y-114079877D01*
X167122600Y-114284000D01*
X167122600Y-115327807D01*
X167071286Y-115337462D01*
X166993482Y-115387528D01*
X166941285Y-115463920D01*
X166922922Y-115554600D01*
X166922922Y-115646200D01*
X166865840Y-115646200D01*
X166795203Y-115599002D01*
X166649400Y-115570000D01*
X166624000Y-115570000D01*
X166507578Y-115593158D01*
X166507578Y-114833500D01*
X166491638Y-114748786D01*
X166441572Y-114670982D01*
X166365180Y-114618785D01*
X166307900Y-114607186D01*
X166307900Y-113196505D01*
X166307901Y-113196500D01*
X166267297Y-112992377D01*
X166220141Y-112921803D01*
X166151671Y-112819329D01*
X166151668Y-112819327D01*
X165172400Y-111840058D01*
X165172400Y-111754078D01*
X165389000Y-111754078D01*
X165473714Y-111738138D01*
X165551518Y-111688072D01*
X165603715Y-111611680D01*
X165622078Y-111521000D01*
X165622078Y-110221000D01*
X165606138Y-110136286D01*
X165556072Y-110058482D01*
X165479680Y-110006285D01*
X165389000Y-109987922D01*
X165252400Y-109987922D01*
X165252400Y-108804714D01*
X165491302Y-108645085D01*
X165728061Y-108290750D01*
X165811200Y-107872783D01*
X165811200Y-107519217D01*
X165728061Y-107101250D01*
X165491302Y-106746915D01*
X165136967Y-106510156D01*
X164719000Y-106427017D01*
X164301033Y-106510156D01*
X163946698Y-106746915D01*
X163709939Y-107101250D01*
X163626800Y-107519217D01*
X163626800Y-107872783D01*
X163709939Y-108290750D01*
X163946698Y-108645085D01*
X164185600Y-108804714D01*
X164185600Y-109987922D01*
X163889000Y-109987922D01*
X163804286Y-110003862D01*
X163726482Y-110053928D01*
X163674285Y-110130320D01*
X163655922Y-110221000D01*
X163655922Y-111521000D01*
X163671862Y-111605714D01*
X163721928Y-111683518D01*
X163798320Y-111735715D01*
X163889000Y-111754078D01*
X164105600Y-111754078D01*
X164105600Y-112061000D01*
X164146203Y-112265123D01*
X164261829Y-112438171D01*
X165241100Y-113417441D01*
X165241100Y-114606707D01*
X165189786Y-114616362D01*
X165111982Y-114666428D01*
X165059785Y-114742820D01*
X165041422Y-114833500D01*
X165041422Y-116433500D01*
X165057362Y-116518214D01*
X165107428Y-116596018D01*
X165183820Y-116648215D01*
X165274500Y-116666578D01*
X165393500Y-116666578D01*
X165393500Y-117641500D01*
X165422502Y-117787303D01*
X165505092Y-117910908D01*
X165546169Y-117951985D01*
X165468177Y-117919600D01*
X165240820Y-117919401D01*
X165030694Y-118006224D01*
X164869789Y-118166849D01*
X164782600Y-118376823D01*
X164782444Y-118554556D01*
X164605820Y-118554401D01*
X164395694Y-118641224D01*
X164234789Y-118801849D01*
X164147600Y-119011823D01*
X164147401Y-119239180D01*
X164226577Y-119430800D01*
X162396647Y-119430800D01*
X162412078Y-119354600D01*
X162412078Y-118948200D01*
X162396138Y-118863486D01*
X162368913Y-118821178D01*
X162393715Y-118784880D01*
X162412078Y-118694200D01*
X162412078Y-118287800D01*
X162396138Y-118203086D01*
X162346072Y-118125282D01*
X162269680Y-118073085D01*
X162179000Y-118054722D01*
X160909000Y-118054722D01*
X160824286Y-118070662D01*
X160763154Y-118110000D01*
X157256816Y-118110000D01*
X156210000Y-117063184D01*
X156210000Y-113411005D01*
X156210001Y-113411000D01*
X156180998Y-113265198D01*
X156108703Y-113157000D01*
X156098408Y-113141592D01*
X156098405Y-113141590D01*
X155463408Y-112506592D01*
X155339803Y-112424002D01*
X155194000Y-112395000D01*
X154538078Y-112395000D01*
X154538078Y-111912400D01*
X154522138Y-111827686D01*
X154472072Y-111749882D01*
X154395680Y-111697685D01*
X154305000Y-111679322D01*
X152273000Y-111679322D01*
X152188286Y-111695262D01*
X152110482Y-111745328D01*
X152058285Y-111821720D01*
X152039922Y-111912400D01*
X152039922Y-113639600D01*
X152055862Y-113724314D01*
X152105928Y-113802118D01*
X152182320Y-113854315D01*
X152273000Y-113872678D01*
X154305000Y-113872678D01*
X154389714Y-113856738D01*
X154467518Y-113806672D01*
X154519715Y-113730280D01*
X154538078Y-113639600D01*
X154538078Y-113157000D01*
X155036184Y-113157000D01*
X155448000Y-113568815D01*
X155448000Y-117221000D01*
X155477002Y-117366803D01*
X155559592Y-117490408D01*
X156829592Y-118760408D01*
X156953197Y-118842998D01*
X157099000Y-118872000D01*
X157454146Y-118872000D01*
X157439192Y-118881992D01*
X156306184Y-120015000D01*
X154482197Y-120015000D01*
X154474844Y-119978033D01*
X154238085Y-119623698D01*
X153883750Y-119386939D01*
X153465783Y-119303800D01*
X153112217Y-119303800D01*
X152694250Y-119386939D01*
X152339915Y-119623698D01*
X152103156Y-119978033D01*
X152020017Y-120396000D01*
X151662600Y-120396000D01*
X151662600Y-117856000D01*
X152020017Y-117856000D01*
X152103156Y-118273967D01*
X152339915Y-118628302D01*
X152694250Y-118865061D01*
X153112217Y-118948200D01*
X153465783Y-118948200D01*
X153883750Y-118865061D01*
X154238085Y-118628302D01*
X154474844Y-118273967D01*
X154557983Y-117856000D01*
X154474844Y-117438033D01*
X154238085Y-117083698D01*
X153883750Y-116846939D01*
X153465783Y-116763800D01*
X153112217Y-116763800D01*
X152694250Y-116846939D01*
X152339915Y-117083698D01*
X152103156Y-117438033D01*
X152020017Y-117856000D01*
X151662600Y-117856000D01*
X151662600Y-115316000D01*
X152020017Y-115316000D01*
X152103156Y-115733967D01*
X152339915Y-116088302D01*
X152694250Y-116325061D01*
X153112217Y-116408200D01*
X153465783Y-116408200D01*
X153883750Y-116325061D01*
X153885246Y-116324061D01*
X154559000Y-116997815D01*
X154559000Y-118698818D01*
X154455789Y-118801849D01*
X154368600Y-119011823D01*
X154368401Y-119239180D01*
X154455224Y-119449306D01*
X154615849Y-119610211D01*
X154825823Y-119697400D01*
X155053180Y-119697599D01*
X155263306Y-119610776D01*
X155424211Y-119450151D01*
X155511400Y-119240177D01*
X155511599Y-119012820D01*
X155424776Y-118802694D01*
X155321000Y-118698737D01*
X155321000Y-116840000D01*
X155291998Y-116694198D01*
X155209408Y-116570592D01*
X155209405Y-116570590D01*
X154433964Y-115795148D01*
X154474844Y-115733967D01*
X154557983Y-115316000D01*
X154474844Y-114898033D01*
X154238085Y-114543698D01*
X153883750Y-114306939D01*
X153465783Y-114223800D01*
X153112217Y-114223800D01*
X152694250Y-114306939D01*
X152339915Y-114543698D01*
X152103156Y-114898033D01*
X152020017Y-115316000D01*
X151662600Y-115316000D01*
X151662600Y-108038331D01*
X152830101Y-108038331D01*
X153092710Y-108673894D01*
X153578548Y-109160581D01*
X154213652Y-109424299D01*
X154901331Y-109424899D01*
X155536894Y-109162290D01*
X156023581Y-108676452D01*
X156287299Y-108041348D01*
X156287899Y-107353669D01*
X156025290Y-106718106D01*
X155539452Y-106231419D01*
X154904348Y-105967701D01*
X154216669Y-105967101D01*
X153581106Y-106229710D01*
X153094419Y-106715548D01*
X152830701Y-107350652D01*
X152830101Y-108038331D01*
X151662600Y-108038331D01*
X151662600Y-105434600D01*
X176505400Y-105434600D01*
X176505400Y-132817400D01*
X176505400Y-132817400D01*
G37*
X176505400Y-132817400D02*
X151662600Y-132817400D01*
X151662600Y-130898331D01*
X152830101Y-130898331D01*
X153092710Y-131533894D01*
X153578548Y-132020581D01*
X154213652Y-132284299D01*
X154901331Y-132284899D01*
X155536894Y-132022290D01*
X156023581Y-131536452D01*
X156287299Y-130901348D01*
X156287899Y-130213669D01*
X156025290Y-129578106D01*
X155539452Y-129091419D01*
X154904348Y-128827701D01*
X154216669Y-128827101D01*
X153581106Y-129089710D01*
X153094419Y-129575548D01*
X152830701Y-130210652D01*
X152830101Y-130898331D01*
X151662600Y-130898331D01*
X151662600Y-124909580D01*
X153599482Y-124909580D01*
X153599482Y-126108460D01*
X153615422Y-126193174D01*
X153665488Y-126270978D01*
X153741880Y-126323175D01*
X153832560Y-126341538D01*
X154028240Y-126341538D01*
X153947789Y-126421849D01*
X153860600Y-126631823D01*
X153860401Y-126859180D01*
X153947224Y-127069306D01*
X154107849Y-127230211D01*
X154317823Y-127317400D01*
X154545180Y-127317599D01*
X154755306Y-127230776D01*
X154916211Y-127070151D01*
X155003400Y-126860177D01*
X155003599Y-126632820D01*
X154916776Y-126422694D01*
X154835761Y-126341538D01*
X155031440Y-126341538D01*
X155116154Y-126325598D01*
X155193958Y-126275532D01*
X155246155Y-126199140D01*
X155264518Y-126108460D01*
X155264518Y-124909580D01*
X156139482Y-124909580D01*
X156139482Y-126108460D01*
X156155422Y-126193174D01*
X156205488Y-126270978D01*
X156281880Y-126323175D01*
X156372560Y-126341538D01*
X156591000Y-126341538D01*
X156591000Y-126492000D01*
X156620002Y-126637803D01*
X156702592Y-126761408D01*
X157416529Y-127475345D01*
X157416401Y-127621180D01*
X157503224Y-127831306D01*
X157663849Y-127992211D01*
X157873823Y-128079400D01*
X158101180Y-128079599D01*
X158311306Y-127992776D01*
X158472211Y-127832151D01*
X158559400Y-127622177D01*
X158559599Y-127394820D01*
X158472776Y-127184694D01*
X158312151Y-127023789D01*
X158102177Y-126936600D01*
X157955287Y-126936471D01*
X157360354Y-126341538D01*
X157571440Y-126341538D01*
X157656154Y-126325598D01*
X157733958Y-126275532D01*
X157786155Y-126199140D01*
X157804518Y-126108460D01*
X157804518Y-124909580D01*
X157788578Y-124824866D01*
X157738512Y-124747062D01*
X157662120Y-124694865D01*
X157571440Y-124676502D01*
X156372560Y-124676502D01*
X156287846Y-124692442D01*
X156210042Y-124742508D01*
X156157845Y-124818900D01*
X156139482Y-124909580D01*
X155264518Y-124909580D01*
X155248578Y-124824866D01*
X155198512Y-124747062D01*
X155122120Y-124694865D01*
X155031440Y-124676502D01*
X153832560Y-124676502D01*
X153747846Y-124692442D01*
X153670042Y-124742508D01*
X153617845Y-124818900D01*
X153599482Y-124909580D01*
X151662600Y-124909580D01*
X151662600Y-122811540D01*
X153599482Y-122811540D01*
X153599482Y-124010420D01*
X153615422Y-124095134D01*
X153665488Y-124172938D01*
X153741880Y-124225135D01*
X153832560Y-124243498D01*
X155031440Y-124243498D01*
X155116154Y-124227558D01*
X155193958Y-124177492D01*
X155246155Y-124101100D01*
X155264518Y-124010420D01*
X155264518Y-122811540D01*
X156139482Y-122811540D01*
X156139482Y-124010420D01*
X156155422Y-124095134D01*
X156205488Y-124172938D01*
X156281880Y-124225135D01*
X156372560Y-124243498D01*
X157571440Y-124243498D01*
X157656154Y-124227558D01*
X157733958Y-124177492D01*
X157786155Y-124101100D01*
X157804518Y-124010420D01*
X157804518Y-122811540D01*
X157788578Y-122726826D01*
X157738512Y-122649022D01*
X157662120Y-122596825D01*
X157571440Y-122578462D01*
X157353000Y-122578462D01*
X157353000Y-122347182D01*
X157456211Y-122244151D01*
X157543400Y-122034177D01*
X157543599Y-121806820D01*
X157456776Y-121596694D01*
X157296151Y-121435789D01*
X157086177Y-121348600D01*
X156858820Y-121348401D01*
X156648694Y-121435224D01*
X156487789Y-121595849D01*
X156400600Y-121805823D01*
X156400401Y-122033180D01*
X156487224Y-122243306D01*
X156591000Y-122347263D01*
X156591000Y-122578462D01*
X156372560Y-122578462D01*
X156287846Y-122594402D01*
X156210042Y-122644468D01*
X156157845Y-122720860D01*
X156139482Y-122811540D01*
X155264518Y-122811540D01*
X155248578Y-122726826D01*
X155198512Y-122649022D01*
X155122120Y-122596825D01*
X155031440Y-122578462D01*
X154835760Y-122578462D01*
X154916211Y-122498151D01*
X155003400Y-122288177D01*
X155003599Y-122060820D01*
X154916776Y-121850694D01*
X154756151Y-121689789D01*
X154546177Y-121602600D01*
X154318820Y-121602401D01*
X154108694Y-121689224D01*
X153947789Y-121849849D01*
X153860600Y-122059823D01*
X153860401Y-122287180D01*
X153947224Y-122497306D01*
X154028239Y-122578462D01*
X153832560Y-122578462D01*
X153747846Y-122594402D01*
X153670042Y-122644468D01*
X153617845Y-122720860D01*
X153599482Y-122811540D01*
X151662600Y-122811540D01*
X151662600Y-120396000D01*
X152020017Y-120396000D01*
X152103156Y-120813967D01*
X152339915Y-121168302D01*
X152694250Y-121405061D01*
X153112217Y-121488200D01*
X153465783Y-121488200D01*
X153883750Y-121405061D01*
X154238085Y-121168302D01*
X154474844Y-120813967D01*
X154482197Y-120777000D01*
X156464000Y-120777000D01*
X156609803Y-120747998D01*
X156733408Y-120665408D01*
X157866416Y-119532400D01*
X158886645Y-119532400D01*
X158862785Y-119567320D01*
X158844422Y-119658000D01*
X158844422Y-120658000D01*
X158860362Y-120742714D01*
X158910428Y-120820518D01*
X158986820Y-120872715D01*
X159077500Y-120891078D01*
X160327500Y-120891078D01*
X160412214Y-120875138D01*
X160485779Y-120827800D01*
X160691353Y-120827800D01*
X160675922Y-120904000D01*
X160675922Y-121310400D01*
X160691862Y-121395114D01*
X160719087Y-121437422D01*
X160694285Y-121473720D01*
X160675922Y-121564400D01*
X160675922Y-121970800D01*
X160691862Y-122055514D01*
X160741928Y-122133318D01*
X160818320Y-122185515D01*
X160909000Y-122203878D01*
X162179000Y-122203878D01*
X162263714Y-122187938D01*
X162324846Y-122148600D01*
X162542258Y-122148600D01*
X162915600Y-122521941D01*
X162915600Y-128671922D01*
X161798000Y-128671922D01*
X161713286Y-128687862D01*
X161635482Y-128737928D01*
X161583285Y-128814320D01*
X161564922Y-128905000D01*
X161564922Y-130937000D01*
X161580862Y-131021714D01*
X161630928Y-131099518D01*
X161707320Y-131151715D01*
X161798000Y-131170078D01*
X163830000Y-131170078D01*
X163914714Y-131154138D01*
X163992518Y-131104072D01*
X164044715Y-131027680D01*
X164063078Y-130937000D01*
X164063078Y-128905000D01*
X164047138Y-128820286D01*
X163997072Y-128742482D01*
X163982400Y-128732457D01*
X163982400Y-122301005D01*
X163982401Y-122301000D01*
X163941797Y-122096877D01*
X163917705Y-122060820D01*
X163826171Y-121923829D01*
X163826168Y-121923827D01*
X163292771Y-121390429D01*
X163119723Y-121274803D01*
X162922360Y-121235545D01*
X162524608Y-120837792D01*
X162509654Y-120827800D01*
X165658346Y-120827800D01*
X165643392Y-120837792D01*
X165643390Y-120837795D01*
X165084592Y-121396592D01*
X165002002Y-121520197D01*
X164992493Y-121568002D01*
X164973000Y-121666000D01*
X164973000Y-121929560D01*
X164861203Y-122096877D01*
X164820600Y-122301000D01*
X164820600Y-128784918D01*
X164473935Y-129016552D01*
X164204140Y-129420329D01*
X164109400Y-129896617D01*
X164109400Y-129945383D01*
X164204140Y-130421671D01*
X164473935Y-130825448D01*
X164877712Y-131095243D01*
X165354000Y-131189983D01*
X165830288Y-131095243D01*
X166124987Y-130898331D01*
X172515101Y-130898331D01*
X172777710Y-131533894D01*
X173263548Y-132020581D01*
X173898652Y-132284299D01*
X174586331Y-132284899D01*
X175221894Y-132022290D01*
X175708581Y-131536452D01*
X175972299Y-130901348D01*
X175972899Y-130213669D01*
X175710290Y-129578106D01*
X175224452Y-129091419D01*
X174589348Y-128827701D01*
X173901669Y-128827101D01*
X173266106Y-129089710D01*
X172779419Y-129575548D01*
X172515701Y-130210652D01*
X172515101Y-130898331D01*
X166124987Y-130898331D01*
X166234065Y-130825448D01*
X166503860Y-130421671D01*
X166598600Y-129945383D01*
X166598600Y-129896617D01*
X166503860Y-129420329D01*
X166234065Y-129016552D01*
X165887400Y-128784918D01*
X165887400Y-122521942D01*
X166211784Y-122197557D01*
X166243000Y-122203878D01*
X167513000Y-122203878D01*
X167597714Y-122187938D01*
X167675518Y-122137872D01*
X167727715Y-122061480D01*
X167746078Y-121970800D01*
X167746078Y-121564400D01*
X167730138Y-121479686D01*
X167702913Y-121437378D01*
X167727715Y-121401080D01*
X167746078Y-121310400D01*
X167746078Y-120904000D01*
X167731740Y-120827800D01*
X167843200Y-120827800D01*
X167883422Y-120819799D01*
X167883422Y-121005500D01*
X167899362Y-121090214D01*
X167949428Y-121168018D01*
X168025820Y-121220215D01*
X168116500Y-121238578D01*
X169116500Y-121238578D01*
X169201214Y-121222638D01*
X169279018Y-121172572D01*
X169331215Y-121096180D01*
X169349578Y-121005500D01*
X169349578Y-119405500D01*
X169333638Y-119320786D01*
X169283572Y-119242982D01*
X169213939Y-119195403D01*
X169384942Y-119024400D01*
X171704000Y-119024400D01*
X171908123Y-118983797D01*
X172081171Y-118868171D01*
X173986171Y-116963171D01*
X174101797Y-116790123D01*
X174142400Y-116586000D01*
X174142400Y-115130580D01*
X174681482Y-115130580D01*
X174681482Y-116329460D01*
X174697422Y-116414174D01*
X174747488Y-116491978D01*
X174823880Y-116544175D01*
X174914560Y-116562538D01*
X175133000Y-116562538D01*
X175133000Y-117036111D01*
X174936694Y-117117224D01*
X174775789Y-117277849D01*
X174688600Y-117487823D01*
X174688401Y-117715180D01*
X174775224Y-117925306D01*
X174935849Y-118086211D01*
X175145823Y-118173400D01*
X175373180Y-118173599D01*
X175583306Y-118086776D01*
X175744211Y-117926151D01*
X175831400Y-117716177D01*
X175831550Y-117545359D01*
X175865998Y-117493803D01*
X175895000Y-117348000D01*
X175895000Y-116562538D01*
X176113440Y-116562538D01*
X176198154Y-116546598D01*
X176275958Y-116496532D01*
X176328155Y-116420140D01*
X176346518Y-116329460D01*
X176346518Y-115130580D01*
X176330578Y-115045866D01*
X176280512Y-114968062D01*
X176204120Y-114915865D01*
X176113440Y-114897502D01*
X174914560Y-114897502D01*
X174829846Y-114913442D01*
X174752042Y-114963508D01*
X174699845Y-115039900D01*
X174681482Y-115130580D01*
X174142400Y-115130580D01*
X174142400Y-114266942D01*
X174243962Y-114165380D01*
X174681482Y-114165380D01*
X174681482Y-114231420D01*
X174697422Y-114316134D01*
X174747488Y-114393938D01*
X174823880Y-114446135D01*
X174914560Y-114464498D01*
X176113440Y-114464498D01*
X176198154Y-114448558D01*
X176275958Y-114398492D01*
X176328155Y-114322100D01*
X176346518Y-114231420D01*
X176346518Y-113032540D01*
X176330578Y-112947826D01*
X176280512Y-112870022D01*
X176204120Y-112817825D01*
X176113440Y-112799462D01*
X176047400Y-112799462D01*
X176047400Y-112776000D01*
X176006797Y-112571877D01*
X176006797Y-112571876D01*
X175891171Y-112398829D01*
X174621171Y-111128829D01*
X174448123Y-111013203D01*
X174244000Y-110972600D01*
X171289941Y-110972600D01*
X170811171Y-110493829D01*
X170638123Y-110378203D01*
X170434000Y-110337600D01*
X168322078Y-110337600D01*
X168322078Y-110221000D01*
X168306138Y-110136286D01*
X168256072Y-110058482D01*
X168179680Y-110006285D01*
X168089000Y-109987922D01*
X167872400Y-109987922D01*
X167872400Y-108751260D01*
X168031302Y-108645085D01*
X168268061Y-108290750D01*
X168318270Y-108038331D01*
X172515101Y-108038331D01*
X172777710Y-108673894D01*
X173263548Y-109160581D01*
X173898652Y-109424299D01*
X174586331Y-109424899D01*
X175221894Y-109162290D01*
X175708581Y-108676452D01*
X175972299Y-108041348D01*
X175972899Y-107353669D01*
X175710290Y-106718106D01*
X175224452Y-106231419D01*
X174589348Y-105967701D01*
X173901669Y-105967101D01*
X173266106Y-106229710D01*
X172779419Y-106715548D01*
X172515701Y-107350652D01*
X172515101Y-108038331D01*
X168318270Y-108038331D01*
X168351200Y-107872783D01*
X168351200Y-107519217D01*
X168268061Y-107101250D01*
X168031302Y-106746915D01*
X167676967Y-106510156D01*
X167259000Y-106427017D01*
X166841033Y-106510156D01*
X166486698Y-106746915D01*
X166249939Y-107101250D01*
X166166800Y-107519217D01*
X166166800Y-107872783D01*
X166249939Y-108290750D01*
X166486698Y-108645085D01*
X166805600Y-108858168D01*
X166805600Y-109987922D01*
X166589000Y-109987922D01*
X166504286Y-110003862D01*
X166426482Y-110053928D01*
X166374285Y-110130320D01*
X166355922Y-110221000D01*
X166355922Y-111521000D01*
X166371862Y-111605714D01*
X166421928Y-111683518D01*
X166498320Y-111735715D01*
X166589000Y-111754078D01*
X168089000Y-111754078D01*
X168173714Y-111738138D01*
X168251518Y-111688072D01*
X168303715Y-111611680D01*
X168322078Y-111521000D01*
X168322078Y-111404400D01*
X170213058Y-111404400D01*
X170691827Y-111883168D01*
X170691829Y-111883171D01*
X170735574Y-111912400D01*
X170864877Y-111998797D01*
X171069000Y-112039401D01*
X171069005Y-112039400D01*
X174023058Y-112039400D01*
X174811114Y-112827456D01*
X174752042Y-112865468D01*
X174699845Y-112941860D01*
X174681482Y-113032540D01*
X174681482Y-113098580D01*
X174023025Y-113098580D01*
X174023020Y-113098579D01*
X173818897Y-113139183D01*
X173645849Y-113254809D01*
X173231829Y-113668829D01*
X173116203Y-113841877D01*
X173075600Y-114046000D01*
X173075600Y-116365058D01*
X171767438Y-117673220D01*
X171767529Y-117569287D01*
X171973405Y-117363410D01*
X171973408Y-117363408D01*
X172055998Y-117239802D01*
X172085000Y-117094000D01*
X172085000Y-116562538D01*
X172303440Y-116562538D01*
X172388154Y-116546598D01*
X172465958Y-116496532D01*
X172518155Y-116420140D01*
X172536518Y-116329460D01*
X172536518Y-115130580D01*
X172520578Y-115045866D01*
X172470512Y-114968062D01*
X172394120Y-114915865D01*
X172303440Y-114897502D01*
X171104560Y-114897502D01*
X171019846Y-114913442D01*
X170942042Y-114963508D01*
X170889845Y-115039900D01*
X170871482Y-115130580D01*
X170871482Y-116329460D01*
X170887422Y-116414174D01*
X170937488Y-116491978D01*
X171013880Y-116544175D01*
X171104560Y-116562538D01*
X171323000Y-116562538D01*
X171323000Y-116936185D01*
X171228656Y-117030529D01*
X171082820Y-117030401D01*
X170872694Y-117117224D01*
X170711789Y-117277849D01*
X170624600Y-117487823D01*
X170624401Y-117715180D01*
X170711224Y-117925306D01*
X170743462Y-117957600D01*
X169164000Y-117957600D01*
X168959877Y-117998203D01*
X168786829Y-118113829D01*
X168239329Y-118661329D01*
X168123703Y-118834377D01*
X168083100Y-119038500D01*
X168083100Y-119178707D01*
X168031786Y-119188362D01*
X167953982Y-119238428D01*
X167901785Y-119314820D01*
X167883422Y-119405500D01*
X167883422Y-119430800D01*
X167730647Y-119430800D01*
X167746078Y-119354600D01*
X167746078Y-118948200D01*
X167730138Y-118863486D01*
X167702913Y-118821178D01*
X167727715Y-118784880D01*
X167746078Y-118694200D01*
X167746078Y-118287800D01*
X167736519Y-118237000D01*
X167894000Y-118237000D01*
X168039803Y-118207998D01*
X168163408Y-118125408D01*
X168798405Y-117490410D01*
X168798408Y-117490408D01*
X168880998Y-117366802D01*
X168887803Y-117332592D01*
X168910001Y-117221000D01*
X168910000Y-117220995D01*
X168910000Y-115951000D01*
X168880998Y-115805198D01*
X168798408Y-115681592D01*
X168674802Y-115599002D01*
X168529000Y-115570000D01*
X168389078Y-115597832D01*
X168389078Y-115554600D01*
X168373138Y-115469886D01*
X168323072Y-115392082D01*
X168246680Y-115339885D01*
X168189400Y-115328286D01*
X168189400Y-114504942D01*
X168528961Y-114165380D01*
X170871482Y-114165380D01*
X170871482Y-114231420D01*
X170887422Y-114316134D01*
X170937488Y-114393938D01*
X171013880Y-114446135D01*
X171104560Y-114464498D01*
X172303440Y-114464498D01*
X172388154Y-114448558D01*
X172465958Y-114398492D01*
X172518155Y-114322100D01*
X172536518Y-114231420D01*
X172536518Y-113032540D01*
X172520578Y-112947826D01*
X172470512Y-112870022D01*
X172394120Y-112817825D01*
X172303440Y-112799462D01*
X171104560Y-112799462D01*
X171019846Y-112815402D01*
X170942042Y-112865468D01*
X170889845Y-112941860D01*
X170871482Y-113032540D01*
X170871482Y-113098580D01*
X168308025Y-113098580D01*
X168308020Y-113098579D01*
X168103897Y-113139183D01*
X167930849Y-113254809D01*
X167930847Y-113254812D01*
X167278829Y-113906829D01*
X167163203Y-114079877D01*
X167122600Y-114284000D01*
X167122600Y-115327807D01*
X167071286Y-115337462D01*
X166993482Y-115387528D01*
X166941285Y-115463920D01*
X166922922Y-115554600D01*
X166922922Y-115646200D01*
X166865840Y-115646200D01*
X166795203Y-115599002D01*
X166649400Y-115570000D01*
X166624000Y-115570000D01*
X166507578Y-115593158D01*
X166507578Y-114833500D01*
X166491638Y-114748786D01*
X166441572Y-114670982D01*
X166365180Y-114618785D01*
X166307900Y-114607186D01*
X166307900Y-113196505D01*
X166307901Y-113196500D01*
X166267297Y-112992377D01*
X166220141Y-112921803D01*
X166151671Y-112819329D01*
X166151668Y-112819327D01*
X165172400Y-111840058D01*
X165172400Y-111754078D01*
X165389000Y-111754078D01*
X165473714Y-111738138D01*
X165551518Y-111688072D01*
X165603715Y-111611680D01*
X165622078Y-111521000D01*
X165622078Y-110221000D01*
X165606138Y-110136286D01*
X165556072Y-110058482D01*
X165479680Y-110006285D01*
X165389000Y-109987922D01*
X165252400Y-109987922D01*
X165252400Y-108804714D01*
X165491302Y-108645085D01*
X165728061Y-108290750D01*
X165811200Y-107872783D01*
X165811200Y-107519217D01*
X165728061Y-107101250D01*
X165491302Y-106746915D01*
X165136967Y-106510156D01*
X164719000Y-106427017D01*
X164301033Y-106510156D01*
X163946698Y-106746915D01*
X163709939Y-107101250D01*
X163626800Y-107519217D01*
X163626800Y-107872783D01*
X163709939Y-108290750D01*
X163946698Y-108645085D01*
X164185600Y-108804714D01*
X164185600Y-109987922D01*
X163889000Y-109987922D01*
X163804286Y-110003862D01*
X163726482Y-110053928D01*
X163674285Y-110130320D01*
X163655922Y-110221000D01*
X163655922Y-111521000D01*
X163671862Y-111605714D01*
X163721928Y-111683518D01*
X163798320Y-111735715D01*
X163889000Y-111754078D01*
X164105600Y-111754078D01*
X164105600Y-112061000D01*
X164146203Y-112265123D01*
X164261829Y-112438171D01*
X165241100Y-113417441D01*
X165241100Y-114606707D01*
X165189786Y-114616362D01*
X165111982Y-114666428D01*
X165059785Y-114742820D01*
X165041422Y-114833500D01*
X165041422Y-116433500D01*
X165057362Y-116518214D01*
X165107428Y-116596018D01*
X165183820Y-116648215D01*
X165274500Y-116666578D01*
X165393500Y-116666578D01*
X165393500Y-117641500D01*
X165422502Y-117787303D01*
X165505092Y-117910908D01*
X165546169Y-117951985D01*
X165468177Y-117919600D01*
X165240820Y-117919401D01*
X165030694Y-118006224D01*
X164869789Y-118166849D01*
X164782600Y-118376823D01*
X164782444Y-118554556D01*
X164605820Y-118554401D01*
X164395694Y-118641224D01*
X164234789Y-118801849D01*
X164147600Y-119011823D01*
X164147401Y-119239180D01*
X164226577Y-119430800D01*
X162396647Y-119430800D01*
X162412078Y-119354600D01*
X162412078Y-118948200D01*
X162396138Y-118863486D01*
X162368913Y-118821178D01*
X162393715Y-118784880D01*
X162412078Y-118694200D01*
X162412078Y-118287800D01*
X162396138Y-118203086D01*
X162346072Y-118125282D01*
X162269680Y-118073085D01*
X162179000Y-118054722D01*
X160909000Y-118054722D01*
X160824286Y-118070662D01*
X160763154Y-118110000D01*
X157256816Y-118110000D01*
X156210000Y-117063184D01*
X156210000Y-113411005D01*
X156210001Y-113411000D01*
X156180998Y-113265198D01*
X156108703Y-113157000D01*
X156098408Y-113141592D01*
X156098405Y-113141590D01*
X155463408Y-112506592D01*
X155339803Y-112424002D01*
X155194000Y-112395000D01*
X154538078Y-112395000D01*
X154538078Y-111912400D01*
X154522138Y-111827686D01*
X154472072Y-111749882D01*
X154395680Y-111697685D01*
X154305000Y-111679322D01*
X152273000Y-111679322D01*
X152188286Y-111695262D01*
X152110482Y-111745328D01*
X152058285Y-111821720D01*
X152039922Y-111912400D01*
X152039922Y-113639600D01*
X152055862Y-113724314D01*
X152105928Y-113802118D01*
X152182320Y-113854315D01*
X152273000Y-113872678D01*
X154305000Y-113872678D01*
X154389714Y-113856738D01*
X154467518Y-113806672D01*
X154519715Y-113730280D01*
X154538078Y-113639600D01*
X154538078Y-113157000D01*
X155036184Y-113157000D01*
X155448000Y-113568815D01*
X155448000Y-117221000D01*
X155477002Y-117366803D01*
X155559592Y-117490408D01*
X156829592Y-118760408D01*
X156953197Y-118842998D01*
X157099000Y-118872000D01*
X157454146Y-118872000D01*
X157439192Y-118881992D01*
X156306184Y-120015000D01*
X154482197Y-120015000D01*
X154474844Y-119978033D01*
X154238085Y-119623698D01*
X153883750Y-119386939D01*
X153465783Y-119303800D01*
X153112217Y-119303800D01*
X152694250Y-119386939D01*
X152339915Y-119623698D01*
X152103156Y-119978033D01*
X152020017Y-120396000D01*
X151662600Y-120396000D01*
X151662600Y-117856000D01*
X152020017Y-117856000D01*
X152103156Y-118273967D01*
X152339915Y-118628302D01*
X152694250Y-118865061D01*
X153112217Y-118948200D01*
X153465783Y-118948200D01*
X153883750Y-118865061D01*
X154238085Y-118628302D01*
X154474844Y-118273967D01*
X154557983Y-117856000D01*
X154474844Y-117438033D01*
X154238085Y-117083698D01*
X153883750Y-116846939D01*
X153465783Y-116763800D01*
X153112217Y-116763800D01*
X152694250Y-116846939D01*
X152339915Y-117083698D01*
X152103156Y-117438033D01*
X152020017Y-117856000D01*
X151662600Y-117856000D01*
X151662600Y-115316000D01*
X152020017Y-115316000D01*
X152103156Y-115733967D01*
X152339915Y-116088302D01*
X152694250Y-116325061D01*
X153112217Y-116408200D01*
X153465783Y-116408200D01*
X153883750Y-116325061D01*
X153885246Y-116324061D01*
X154559000Y-116997815D01*
X154559000Y-118698818D01*
X154455789Y-118801849D01*
X154368600Y-119011823D01*
X154368401Y-119239180D01*
X154455224Y-119449306D01*
X154615849Y-119610211D01*
X154825823Y-119697400D01*
X155053180Y-119697599D01*
X155263306Y-119610776D01*
X155424211Y-119450151D01*
X155511400Y-119240177D01*
X155511599Y-119012820D01*
X155424776Y-118802694D01*
X155321000Y-118698737D01*
X155321000Y-116840000D01*
X155291998Y-116694198D01*
X155209408Y-116570592D01*
X155209405Y-116570590D01*
X154433964Y-115795148D01*
X154474844Y-115733967D01*
X154557983Y-115316000D01*
X154474844Y-114898033D01*
X154238085Y-114543698D01*
X153883750Y-114306939D01*
X153465783Y-114223800D01*
X153112217Y-114223800D01*
X152694250Y-114306939D01*
X152339915Y-114543698D01*
X152103156Y-114898033D01*
X152020017Y-115316000D01*
X151662600Y-115316000D01*
X151662600Y-108038331D01*
X152830101Y-108038331D01*
X153092710Y-108673894D01*
X153578548Y-109160581D01*
X154213652Y-109424299D01*
X154901331Y-109424899D01*
X155536894Y-109162290D01*
X156023581Y-108676452D01*
X156287299Y-108041348D01*
X156287899Y-107353669D01*
X156025290Y-106718106D01*
X155539452Y-106231419D01*
X154904348Y-105967701D01*
X154216669Y-105967101D01*
X153581106Y-106229710D01*
X153094419Y-106715548D01*
X152830701Y-107350652D01*
X152830101Y-108038331D01*
X151662600Y-108038331D01*
X151662600Y-105434600D01*
X176505400Y-105434600D01*
X176505400Y-132817400D01*
M02*
