G04 #@! TF.FileFunction,Soldermask,Bot*
%FSLAX46Y46*%
G04 Gerber Fmt 4.6, Leading zero omitted, Abs format (unit mm)*
G04 Created by KiCad (PCBNEW 0.201509151501+6198~30~ubuntu14.04.1-product) date Sun 04 Oct 2015 11:46:26 PM EDT*
%MOMM*%
G01*
G04 APERTURE LIST*
%ADD10C,0.100000*%
%ADD11C,0.685800*%
%ADD12R,2.032000X1.727200*%
%ADD13O,2.032000X1.727200*%
%ADD14R,2.032000X2.032000*%
%ADD15O,2.032000X2.032000*%
%ADD16R,1.300000X1.500000*%
%ADD17R,1.727200X2.032000*%
%ADD18O,1.727200X2.032000*%
G04 APERTURE END LIST*
D10*
D11*
X160147000Y-132461000D03*
X158877000Y-132461000D03*
X157607000Y-132461000D03*
X160147000Y-131191000D03*
X158877000Y-131191000D03*
X157607000Y-131191000D03*
X160147000Y-129921000D03*
X158877000Y-129921000D03*
X157607000Y-129921000D03*
X160147000Y-128651000D03*
X158877000Y-128651000D03*
X157607000Y-128651000D03*
X176149000Y-118745000D03*
X173609000Y-118745000D03*
X167132000Y-127381000D03*
X167132000Y-131064000D03*
X161290000Y-126111000D03*
X171069000Y-131064000D03*
X169799000Y-131064000D03*
X168529000Y-131064000D03*
X174879000Y-118745000D03*
X167132000Y-125984000D03*
X167132000Y-128524000D03*
X167132000Y-129794000D03*
X161290000Y-127254000D03*
X171069000Y-129794000D03*
X169799000Y-129794000D03*
X168529000Y-129794000D03*
X173609000Y-120015000D03*
X162433000Y-127254000D03*
X161290000Y-124968000D03*
X162433000Y-126111000D03*
X162433000Y-124968000D03*
X171069000Y-128524000D03*
X169799000Y-128524000D03*
X168529000Y-128524000D03*
X174879000Y-120015000D03*
X176149000Y-127254000D03*
X174879000Y-127254000D03*
X173609000Y-127254000D03*
X172339000Y-127254000D03*
X171069000Y-127254000D03*
X169799000Y-127254000D03*
X168529000Y-127254000D03*
X176149000Y-120015000D03*
X176149000Y-125984000D03*
X174879000Y-125984000D03*
X173609000Y-125984000D03*
X172339000Y-125984000D03*
X171069000Y-125984000D03*
X169799000Y-125984000D03*
X168529000Y-125984000D03*
X176149000Y-121158000D03*
X176149000Y-124714000D03*
X174879000Y-124714000D03*
X173609000Y-124714000D03*
X172339000Y-124714000D03*
X171069000Y-124714000D03*
X169799000Y-124714000D03*
X168529000Y-124714000D03*
X174879000Y-121031000D03*
X176149000Y-123444000D03*
X174879000Y-123444000D03*
X173609000Y-123444000D03*
X172339000Y-123444000D03*
X171069000Y-123444000D03*
X169799000Y-123444000D03*
X168529000Y-123444000D03*
X173609000Y-121031000D03*
X176149000Y-122174000D03*
X174879000Y-122174000D03*
X173609000Y-122174000D03*
X172339000Y-122174000D03*
X171069000Y-122174000D03*
X169799000Y-122174000D03*
X168529000Y-122174000D03*
X163957000Y-113030000D03*
X161290000Y-115570000D03*
X160020000Y-115570000D03*
X158750000Y-115570000D03*
X157480000Y-115570000D03*
X163957000Y-114046000D03*
X161290000Y-114300000D03*
X160020000Y-114300000D03*
X158750000Y-114300000D03*
X157480000Y-114300000D03*
X162560000Y-113030000D03*
X161290000Y-113030000D03*
X160020000Y-113030000D03*
X158750000Y-113030000D03*
X157480000Y-113030000D03*
X162560000Y-111760000D03*
X161290000Y-111760000D03*
X160020000Y-111760000D03*
X158750000Y-111760000D03*
X157480000Y-111760000D03*
X162560000Y-110490000D03*
X161290000Y-110490000D03*
X160020000Y-110490000D03*
X158750000Y-110490000D03*
D12*
X153289000Y-112776000D03*
D13*
X153289000Y-115316000D03*
X153289000Y-117856000D03*
X153289000Y-120396000D03*
D14*
X162814000Y-129921000D03*
D15*
X165354000Y-129921000D03*
D16*
X175514000Y-113331000D03*
X175514000Y-116031000D03*
X171704000Y-113331000D03*
X171704000Y-116031000D03*
X158750000Y-123110000D03*
X158750000Y-125810000D03*
X155956000Y-123872000D03*
X155956000Y-126572000D03*
D17*
X162179000Y-107696000D03*
D18*
X164719000Y-107696000D03*
X167259000Y-107696000D03*
D11*
X157480000Y-110490000D03*
M02*
