G04 #@! TF.FileFunction,Copper,L1,Top,Signal*
%FSLAX46Y46*%
G04 Gerber Fmt 4.6, Leading zero omitted, Abs format (unit mm)*
G04 Created by KiCad (PCBNEW 0.201506122246+5743~23~ubuntu14.10.1-product) date Sat 13 Jun 2015 04:11:00 PM EDT*
%MOMM*%
G01*
G04 APERTURE LIST*
%ADD10C,0.100000*%
%ADD11R,2.032000X2.032000*%
%ADD12O,2.032000X2.032000*%
%ADD13R,0.800000X0.750000*%
%ADD14R,0.500000X0.280000*%
%ADD15R,0.900000X1.600000*%
%ADD16R,2.032000X1.727200*%
%ADD17O,2.032000X1.727200*%
%ADD18R,1.727200X2.032000*%
%ADD19O,1.727200X2.032000*%
%ADD20C,0.685800*%
%ADD21C,0.152400*%
%ADD22C,0.609600*%
%ADD23C,0.304800*%
%ADD24C,0.250000*%
%ADD25C,0.127000*%
G04 APERTURE END LIST*
D10*
D11*
X141986000Y-105156000D03*
D12*
X141986000Y-107696000D03*
D13*
X135648000Y-104394000D03*
X137148000Y-104394000D03*
X138926000Y-102870000D03*
X137426000Y-102870000D03*
D14*
X138364000Y-105803000D03*
D15*
X137414000Y-106553000D03*
D14*
X138364000Y-106303000D03*
X138364000Y-106803000D03*
X138364000Y-107303000D03*
X136464000Y-107303000D03*
X136464000Y-106803000D03*
X136464000Y-106303000D03*
X136464000Y-105803000D03*
D16*
X131826000Y-107442000D03*
D17*
X131826000Y-104902000D03*
X131826000Y-102362000D03*
D18*
X136652000Y-111252000D03*
D19*
X134112000Y-111252000D03*
X131572000Y-111252000D03*
D20*
X136207500Y-108394500D03*
X137223500Y-108902500D03*
X138366500Y-109093000D03*
X139446000Y-108839000D03*
X138620500Y-108077000D03*
X137477500Y-107886500D03*
X137414000Y-105283000D03*
D21*
X137148000Y-104394000D02*
X137148000Y-105017000D01*
X136715500Y-108394500D02*
X136207500Y-108394500D01*
X137223500Y-108902500D02*
X136715500Y-108394500D01*
X139192000Y-109093000D02*
X138366500Y-109093000D01*
X139446000Y-108839000D02*
X139192000Y-109093000D01*
X137668000Y-108077000D02*
X138620500Y-108077000D01*
X137477500Y-107886500D02*
X137668000Y-108077000D01*
X137148000Y-105017000D02*
X137414000Y-105283000D01*
D22*
X131826000Y-102362000D02*
X133604000Y-102362000D01*
X134620000Y-101346000D02*
X139192000Y-101346000D01*
X133604000Y-102362000D02*
X134620000Y-101346000D01*
D23*
X131572000Y-109791500D02*
X132270500Y-109093000D01*
X132270500Y-109093000D02*
X132651500Y-109093000D01*
X132651500Y-109093000D02*
X133921500Y-107823000D01*
X133921500Y-107823000D02*
X133921500Y-106997500D01*
X133921500Y-106997500D02*
X134616000Y-106303000D01*
X134616000Y-106303000D02*
X136464000Y-106303000D01*
X131572000Y-111252000D02*
X131572000Y-109791500D01*
X136388500Y-107378500D02*
X136464000Y-107303000D01*
X136652000Y-110109000D02*
X135445500Y-108902500D01*
X135445500Y-108902500D02*
X135445500Y-107632500D01*
X135445500Y-107632500D02*
X135699500Y-107378500D01*
X135699500Y-107378500D02*
X136388500Y-107378500D01*
X136652000Y-111252000D02*
X136652000Y-110109000D01*
X135132000Y-106803000D02*
X134556500Y-107378500D01*
X134556500Y-107378500D02*
X134556500Y-108585000D01*
X134556500Y-108585000D02*
X134112000Y-109029500D01*
X134112000Y-109029500D02*
X134112000Y-111252000D01*
X136464000Y-106803000D02*
X135132000Y-106803000D01*
D22*
X131826000Y-104902000D02*
X134620000Y-104902000D01*
D24*
X138364000Y-106303000D02*
X140331000Y-106303000D01*
X140331000Y-106303000D02*
X141478000Y-105156000D01*
X141478000Y-105156000D02*
X141986000Y-105156000D01*
X138364000Y-106803000D02*
X141093000Y-106803000D01*
X141093000Y-106803000D02*
X141986000Y-107696000D01*
D21*
G36*
X140131800Y-105841800D02*
X138691136Y-105841800D01*
X138614000Y-105826331D01*
X138252200Y-105826331D01*
X138252200Y-101168200D01*
X140131800Y-101168200D01*
X140131800Y-105841800D01*
X140131800Y-105841800D01*
G37*
X140131800Y-105841800D02*
X138691136Y-105841800D01*
X138614000Y-105826331D01*
X138252200Y-105826331D01*
X138252200Y-101168200D01*
X140131800Y-101168200D01*
X140131800Y-105841800D01*
G36*
X136575800Y-103737171D02*
X136511438Y-103779450D01*
X136437364Y-103889187D01*
X136411331Y-104019000D01*
X136411331Y-104769000D01*
X136435759Y-104894904D01*
X136508450Y-105005562D01*
X136575800Y-105051024D01*
X136575800Y-105826331D01*
X136493817Y-105826331D01*
X136464000Y-105820400D01*
X134616000Y-105820400D01*
X134508416Y-105841800D01*
X134188200Y-105841800D01*
X134188200Y-102675826D01*
X134883026Y-101981000D01*
X136575800Y-101981000D01*
X136575800Y-103737171D01*
X136575800Y-103737171D01*
G37*
X136575800Y-103737171D02*
X136511438Y-103779450D01*
X136437364Y-103889187D01*
X136411331Y-104019000D01*
X136411331Y-104769000D01*
X136435759Y-104894904D01*
X136508450Y-105005562D01*
X136575800Y-105051024D01*
X136575800Y-105826331D01*
X136493817Y-105826331D01*
X136464000Y-105820400D01*
X134616000Y-105820400D01*
X134508416Y-105841800D01*
X134188200Y-105841800D01*
X134188200Y-102675826D01*
X134883026Y-101981000D01*
X136575800Y-101981000D01*
X136575800Y-103737171D01*
D25*
G36*
X137858500Y-105474198D02*
X137815312Y-105538180D01*
X137790280Y-105663000D01*
X137790280Y-105943000D01*
X137811975Y-106054818D01*
X137790280Y-106163000D01*
X137790280Y-106443000D01*
X137811975Y-106554818D01*
X137790280Y-106663000D01*
X137790280Y-106943000D01*
X137813769Y-107064062D01*
X137858500Y-107132158D01*
X137858500Y-107188000D01*
X137863334Y-107212300D01*
X137877099Y-107232901D01*
X137897700Y-107246666D01*
X137922000Y-107251500D01*
X138038107Y-107251500D01*
X138114000Y-107266720D01*
X138614000Y-107266720D01*
X138692444Y-107251500D01*
X140144500Y-107251500D01*
X140144500Y-109410500D01*
X136618039Y-109410500D01*
X135915400Y-108707862D01*
X135915400Y-108013500D01*
X136906000Y-108013500D01*
X136930300Y-108008666D01*
X136950901Y-107994901D01*
X136964666Y-107974300D01*
X136969500Y-107950000D01*
X136969500Y-107631802D01*
X137012688Y-107567820D01*
X137037720Y-107443000D01*
X137037720Y-107163000D01*
X137016025Y-107051182D01*
X137037720Y-106943000D01*
X137037720Y-106663000D01*
X137016025Y-106551182D01*
X137037720Y-106443000D01*
X137037720Y-106163000D01*
X137016025Y-106051182D01*
X137037720Y-105943000D01*
X137037720Y-105663000D01*
X137014231Y-105541938D01*
X136969500Y-105473842D01*
X136969500Y-101968300D01*
X137858500Y-101968300D01*
X137858500Y-105474198D01*
X137858500Y-105474198D01*
G37*
X137858500Y-105474198D02*
X137815312Y-105538180D01*
X137790280Y-105663000D01*
X137790280Y-105943000D01*
X137811975Y-106054818D01*
X137790280Y-106163000D01*
X137790280Y-106443000D01*
X137811975Y-106554818D01*
X137790280Y-106663000D01*
X137790280Y-106943000D01*
X137813769Y-107064062D01*
X137858500Y-107132158D01*
X137858500Y-107188000D01*
X137863334Y-107212300D01*
X137877099Y-107232901D01*
X137897700Y-107246666D01*
X137922000Y-107251500D01*
X138038107Y-107251500D01*
X138114000Y-107266720D01*
X138614000Y-107266720D01*
X138692444Y-107251500D01*
X140144500Y-107251500D01*
X140144500Y-109410500D01*
X136618039Y-109410500D01*
X135915400Y-108707862D01*
X135915400Y-108013500D01*
X136906000Y-108013500D01*
X136930300Y-108008666D01*
X136950901Y-107994901D01*
X136964666Y-107974300D01*
X136969500Y-107950000D01*
X136969500Y-107631802D01*
X137012688Y-107567820D01*
X137037720Y-107443000D01*
X137037720Y-107163000D01*
X137016025Y-107051182D01*
X137037720Y-106943000D01*
X137037720Y-106663000D01*
X137016025Y-106551182D01*
X137037720Y-106443000D01*
X137037720Y-106163000D01*
X137016025Y-106051182D01*
X137037720Y-105943000D01*
X137037720Y-105663000D01*
X137014231Y-105541938D01*
X136969500Y-105473842D01*
X136969500Y-101968300D01*
X137858500Y-101968300D01*
X137858500Y-105474198D01*
M02*
