M48
;DRILL file {KiCad 0.201506122246+5743~23~ubuntu14.10.1-product} date Sat 13 Jun 2015 11:54:32 PM EDT
;FORMAT={2:4/ absolute / inch / suppress leading zeros}
FMAT,2
INCH,TZ
T1C0.013
T2C0.040
%
G90
G05
M72
T1
X61400Y-49825
X61450Y-48575
X61500Y-49050
X61650Y-48175
X61800Y-50225
X61950Y-48750
X61975Y-49375
X62200Y-48225
X62200Y-49850
X62300Y-50375
X62375Y-49000
X62625Y-44750
X62625Y-45400
X62625Y-45925
X62625Y-46800
X62700Y-49650
X62725Y-48600
X62875Y-44150
X62875Y-50300
X62950Y-45175
X62950Y-46625
X62975Y-49000
X63125Y-44675
X63275Y-49400
X63375Y-50350
X63400Y-44175
X63450Y-45225
X63450Y-45725
X63500Y-49825
X64800Y-46900
X65000Y-46625
X66175Y-44400
X66200Y-45050
X66225Y-48750
X66275Y-50025
X66300Y-49375
X66425Y-46600
X66550Y-48250
X66700Y-44025
X66750Y-49775
X66850Y-45050
X66850Y-50375
X66900Y-49150
X66950Y-46250
X66950Y-47350
X67000Y-44575
X67000Y-46825
X67025Y-47900
X67125Y-48575
X67200Y-49875
X67475Y-50350
X67500Y-44050
X67600Y-45225
X67600Y-45875
X67600Y-46425
X67650Y-49450
X67675Y-48125
X67675Y-48725
X67775Y-49925
X67825Y-44650
T2
X61700Y-44375
X61700Y-45375
X61700Y-46375
X61700Y-47375
X64200Y-44340
X64300Y-49800
X65200Y-44340
X65300Y-49800
T0
M30
