G04 #@! TF.FileFunction,Copper,L2,Bot,Signal*
%FSLAX46Y46*%
G04 Gerber Fmt 4.6, Leading zero omitted, Abs format (unit mm)*
G04 Created by KiCad (PCBNEW 0.201506122246+5743~23~ubuntu14.10.1-product) date Sat 13 Jun 2015 11:54:28 PM EDT*
%MOMM*%
G01*
G04 APERTURE LIST*
%ADD10C,0.100000*%
%ADD11R,2.032000X2.032000*%
%ADD12O,2.032000X2.032000*%
%ADD13R,2.032000X1.727200*%
%ADD14O,2.032000X1.727200*%
%ADD15C,0.685800*%
%ADD16C,0.304800*%
%ADD17C,0.152400*%
G04 APERTURE END LIST*
D10*
D11*
X163068000Y-112623600D03*
D12*
X165608000Y-112623600D03*
D13*
X156718000Y-112712500D03*
D14*
X156718000Y-115252500D03*
X156718000Y-117792500D03*
X156718000Y-120332500D03*
D11*
X163322000Y-126492000D03*
D12*
X165862000Y-126492000D03*
D15*
X161163000Y-116141500D03*
X159893000Y-114744500D03*
X161163000Y-114871500D03*
X160337500Y-113474500D03*
X159067500Y-113665000D03*
X159702500Y-112141000D03*
X161036000Y-112204500D03*
X161290000Y-126555500D03*
X160972500Y-127889000D03*
X169799000Y-127952500D03*
X168338500Y-127063500D03*
X169545000Y-126428500D03*
X170688000Y-126682500D03*
X171386500Y-127889000D03*
X172148500Y-126809500D03*
X171831000Y-125603000D03*
X169926000Y-124841000D03*
X168402000Y-125412500D03*
X168211500Y-123825000D03*
X169037000Y-122555000D03*
X170497500Y-123380500D03*
X171894500Y-123761500D03*
X171894500Y-122237500D03*
X170243500Y-121666000D03*
X170053000Y-120269000D03*
X170180000Y-118935500D03*
X168719500Y-118364000D03*
X170053000Y-117475000D03*
X171704000Y-117919500D03*
X171704000Y-116522500D03*
X171704000Y-114871500D03*
X169799000Y-114427000D03*
X170180000Y-113220500D03*
X172275500Y-113411000D03*
X171450000Y-111887000D03*
X169418000Y-111823500D03*
X168084500Y-112776000D03*
X168148000Y-114427000D03*
X156083000Y-123380500D03*
X156591000Y-122364500D03*
X157988000Y-122491500D03*
X157353000Y-123825000D03*
X156210000Y-124587000D03*
X155956000Y-126555500D03*
X156972000Y-127571500D03*
X157416500Y-125412500D03*
X157988000Y-126619000D03*
X158242000Y-127952500D03*
X159702500Y-127762000D03*
X159258000Y-126111000D03*
X158432500Y-124460000D03*
X159321500Y-123444000D03*
X159956500Y-124460000D03*
X160718500Y-125476000D03*
X159893000Y-118427500D03*
X165100000Y-118427500D03*
X159067500Y-115316000D03*
X164592000Y-119126000D03*
X159067500Y-116649500D03*
X159067500Y-118872000D03*
D16*
X163068000Y-112623600D02*
X161455100Y-112623600D01*
X161163000Y-116014500D02*
X161163000Y-116141500D01*
X159893000Y-114744500D02*
X161163000Y-116014500D01*
X161163000Y-114300000D02*
X161163000Y-114871500D01*
X160337500Y-113474500D02*
X161163000Y-114300000D01*
X159067500Y-112776000D02*
X159067500Y-113665000D01*
X159702500Y-112141000D02*
X159067500Y-112776000D01*
X161455100Y-112623600D02*
X161036000Y-112204500D01*
X161290000Y-126555500D02*
X161290000Y-126047500D01*
X169735500Y-127889000D02*
X160972500Y-127889000D01*
X169799000Y-127952500D02*
X169735500Y-127889000D01*
X168910000Y-127063500D02*
X168338500Y-127063500D01*
X169545000Y-126428500D02*
X168910000Y-127063500D01*
X170688000Y-127190500D02*
X170688000Y-126682500D01*
X171386500Y-127889000D02*
X170688000Y-127190500D01*
X172148500Y-125920500D02*
X172148500Y-126809500D01*
X171831000Y-125603000D02*
X172148500Y-125920500D01*
X168973500Y-124841000D02*
X169926000Y-124841000D01*
X168402000Y-125412500D02*
X168973500Y-124841000D01*
X168211500Y-123380500D02*
X168211500Y-123825000D01*
X169037000Y-122555000D02*
X168211500Y-123380500D01*
X171513500Y-123380500D02*
X170497500Y-123380500D01*
X171894500Y-123761500D02*
X171513500Y-123380500D01*
X170815000Y-122237500D02*
X171894500Y-122237500D01*
X170243500Y-121666000D02*
X170815000Y-122237500D01*
X170053000Y-119062500D02*
X170053000Y-120269000D01*
X170180000Y-118935500D02*
X170053000Y-119062500D01*
X169164000Y-118364000D02*
X168719500Y-118364000D01*
X170053000Y-117475000D02*
X169164000Y-118364000D01*
X171704000Y-116522500D02*
X171704000Y-117919500D01*
X170243500Y-114871500D02*
X171704000Y-114871500D01*
X169799000Y-114427000D02*
X170243500Y-114871500D01*
X172085000Y-113220500D02*
X170180000Y-113220500D01*
X172275500Y-113411000D02*
X172085000Y-113220500D01*
X169481500Y-111887000D02*
X171450000Y-111887000D01*
X169418000Y-111823500D02*
X169481500Y-111887000D01*
X168084500Y-114363500D02*
X168084500Y-112776000D01*
X168148000Y-114427000D02*
X168084500Y-114363500D01*
X157861000Y-122364500D02*
X156591000Y-122364500D01*
X157988000Y-122491500D02*
X157861000Y-122364500D01*
X156972000Y-123825000D02*
X157353000Y-123825000D01*
X156210000Y-124587000D02*
X156972000Y-123825000D01*
X156972000Y-127571500D02*
X155956000Y-126555500D01*
X157416500Y-126047500D02*
X157416500Y-125412500D01*
X157988000Y-126619000D02*
X157416500Y-126047500D01*
X159512000Y-127952500D02*
X158242000Y-127952500D01*
X159702500Y-127762000D02*
X159512000Y-127952500D01*
X159258000Y-125285500D02*
X159258000Y-126111000D01*
X158432500Y-124460000D02*
X159258000Y-125285500D01*
X159321500Y-123825000D02*
X159321500Y-123444000D01*
X159956500Y-124460000D02*
X159321500Y-123825000D01*
X161290000Y-126047500D02*
X160718500Y-125476000D01*
X156718000Y-112712500D02*
X158051500Y-112712500D01*
X158305500Y-116840000D02*
X159893000Y-118427500D01*
X158305500Y-112966500D02*
X158305500Y-116840000D01*
X158051500Y-112712500D02*
X158305500Y-112966500D01*
X162179000Y-118427500D02*
X165100000Y-118427500D01*
X159067500Y-115316000D02*
X162179000Y-118427500D01*
X161544000Y-119126000D02*
X164592000Y-119126000D01*
X159067500Y-116649500D02*
X161544000Y-119126000D01*
X159067500Y-118872000D02*
X157607000Y-120332500D01*
X157607000Y-120332500D02*
X156718000Y-120332500D01*
D17*
G36*
X157967079Y-111848900D02*
X157967079Y-111848900D01*
X157950167Y-111761736D01*
X157899842Y-111685126D01*
X157823871Y-111633844D01*
X157734000Y-111615821D01*
X155702000Y-111615821D01*
X155614836Y-111632733D01*
X155599600Y-111642742D01*
X155599600Y-111354617D01*
X165608000Y-111354617D01*
X165131712Y-111449357D01*
X164727935Y-111719152D01*
X164458140Y-112122929D01*
X164363400Y-112599217D01*
X164363400Y-112647983D01*
X164458140Y-113124271D01*
X164727935Y-113528048D01*
X165131712Y-113797843D01*
X165608000Y-113892583D01*
X166084288Y-113797843D01*
X166488065Y-113528048D01*
X166757860Y-113124271D01*
X166852600Y-112647983D01*
X166852600Y-112599217D01*
X166757860Y-112122929D01*
X166488065Y-111719152D01*
X166084288Y-111449357D01*
X165608000Y-111354617D01*
X155599600Y-111354617D01*
X155599600Y-111213100D01*
X173012900Y-111213100D01*
X173012900Y-128435900D01*
X162596947Y-128435900D01*
X155599600Y-128386274D01*
X155599600Y-125242921D01*
X162306000Y-125242921D01*
X162218836Y-125259833D01*
X162142226Y-125310158D01*
X162090944Y-125386129D01*
X162072921Y-125476000D01*
X162072921Y-127508000D01*
X162089833Y-127595164D01*
X162140158Y-127671774D01*
X162216129Y-127723056D01*
X162306000Y-127741079D01*
X164338000Y-127741079D01*
X164425164Y-127724167D01*
X164501774Y-127673842D01*
X164553056Y-127597871D01*
X164571079Y-127508000D01*
X164571079Y-125476000D01*
X164554167Y-125388836D01*
X164503842Y-125312226D01*
X164427871Y-125260944D01*
X164338000Y-125242921D01*
X162306000Y-125242921D01*
X155599600Y-125242921D01*
X155599600Y-125223017D01*
X165862000Y-125223017D01*
X165385712Y-125317757D01*
X164981935Y-125587552D01*
X164712140Y-125991329D01*
X164617400Y-126467617D01*
X164617400Y-126516383D01*
X164712140Y-126992671D01*
X164981935Y-127396448D01*
X165385712Y-127666243D01*
X165862000Y-127760983D01*
X166338288Y-127666243D01*
X166742065Y-127396448D01*
X167011860Y-126992671D01*
X167106600Y-126516383D01*
X167106600Y-126467617D01*
X167011860Y-125991329D01*
X166742065Y-125587552D01*
X166338288Y-125317757D01*
X165862000Y-125223017D01*
X155599600Y-125223017D01*
X155599600Y-120851404D01*
X155768915Y-121104802D01*
X156123250Y-121341561D01*
X156541217Y-121424700D01*
X156894783Y-121424700D01*
X157312750Y-121341561D01*
X157667085Y-121104802D01*
X157903844Y-120750467D01*
X157947544Y-120530772D01*
X159034845Y-119443471D01*
X159180680Y-119443599D01*
X159390806Y-119356776D01*
X159551711Y-119196151D01*
X159638900Y-118986177D01*
X159638940Y-118940815D01*
X159778823Y-118998900D01*
X160006180Y-118999099D01*
X160216306Y-118912276D01*
X160377211Y-118751651D01*
X160451625Y-118572441D01*
X161274592Y-119395408D01*
X161398197Y-119477998D01*
X161544000Y-119507001D01*
X161544005Y-119507000D01*
X164164818Y-119507000D01*
X164267849Y-119610211D01*
X164477823Y-119697400D01*
X164705180Y-119697599D01*
X164915306Y-119610776D01*
X165076211Y-119450151D01*
X165163400Y-119240177D01*
X165163599Y-119012820D01*
X165157910Y-118999051D01*
X165213180Y-118999099D01*
X165423306Y-118912276D01*
X165584211Y-118751651D01*
X165671400Y-118541677D01*
X165671599Y-118314320D01*
X165584776Y-118104194D01*
X165424151Y-117943289D01*
X165214177Y-117856100D01*
X164986820Y-117855901D01*
X164776694Y-117942724D01*
X164672737Y-118046500D01*
X162336815Y-118046500D01*
X159638971Y-115348655D01*
X159639099Y-115202820D01*
X159552276Y-114992694D01*
X159391651Y-114831789D01*
X159181677Y-114744600D01*
X158954320Y-114744401D01*
X158744194Y-114831224D01*
X158686500Y-114888818D01*
X158686500Y-112966500D01*
X158657498Y-112820698D01*
X158657498Y-112820697D01*
X158574908Y-112697092D01*
X158320908Y-112443092D01*
X158197303Y-112360502D01*
X158051500Y-112331500D01*
X157967079Y-112331500D01*
X157967079Y-111848900D01*
X157967079Y-111848900D01*
G37*
X157967079Y-111848900D02*
X157967079Y-111848900D01*
X157950167Y-111761736D01*
X157899842Y-111685126D01*
X157823871Y-111633844D01*
X157734000Y-111615821D01*
X155702000Y-111615821D01*
X155614836Y-111632733D01*
X155599600Y-111642742D01*
X155599600Y-111354617D01*
X165608000Y-111354617D01*
X165131712Y-111449357D01*
X164727935Y-111719152D01*
X164458140Y-112122929D01*
X164363400Y-112599217D01*
X164363400Y-112647983D01*
X164458140Y-113124271D01*
X164727935Y-113528048D01*
X165131712Y-113797843D01*
X165608000Y-113892583D01*
X166084288Y-113797843D01*
X166488065Y-113528048D01*
X166757860Y-113124271D01*
X166852600Y-112647983D01*
X166852600Y-112599217D01*
X166757860Y-112122929D01*
X166488065Y-111719152D01*
X166084288Y-111449357D01*
X165608000Y-111354617D01*
X155599600Y-111354617D01*
X155599600Y-111213100D01*
X173012900Y-111213100D01*
X173012900Y-128435900D01*
X162596947Y-128435900D01*
X155599600Y-128386274D01*
X155599600Y-125242921D01*
X162306000Y-125242921D01*
X162218836Y-125259833D01*
X162142226Y-125310158D01*
X162090944Y-125386129D01*
X162072921Y-125476000D01*
X162072921Y-127508000D01*
X162089833Y-127595164D01*
X162140158Y-127671774D01*
X162216129Y-127723056D01*
X162306000Y-127741079D01*
X164338000Y-127741079D01*
X164425164Y-127724167D01*
X164501774Y-127673842D01*
X164553056Y-127597871D01*
X164571079Y-127508000D01*
X164571079Y-125476000D01*
X164554167Y-125388836D01*
X164503842Y-125312226D01*
X164427871Y-125260944D01*
X164338000Y-125242921D01*
X162306000Y-125242921D01*
X155599600Y-125242921D01*
X155599600Y-125223017D01*
X165862000Y-125223017D01*
X165385712Y-125317757D01*
X164981935Y-125587552D01*
X164712140Y-125991329D01*
X164617400Y-126467617D01*
X164617400Y-126516383D01*
X164712140Y-126992671D01*
X164981935Y-127396448D01*
X165385712Y-127666243D01*
X165862000Y-127760983D01*
X166338288Y-127666243D01*
X166742065Y-127396448D01*
X167011860Y-126992671D01*
X167106600Y-126516383D01*
X167106600Y-126467617D01*
X167011860Y-125991329D01*
X166742065Y-125587552D01*
X166338288Y-125317757D01*
X165862000Y-125223017D01*
X155599600Y-125223017D01*
X155599600Y-120851404D01*
X155768915Y-121104802D01*
X156123250Y-121341561D01*
X156541217Y-121424700D01*
X156894783Y-121424700D01*
X157312750Y-121341561D01*
X157667085Y-121104802D01*
X157903844Y-120750467D01*
X157947544Y-120530772D01*
X159034845Y-119443471D01*
X159180680Y-119443599D01*
X159390806Y-119356776D01*
X159551711Y-119196151D01*
X159638900Y-118986177D01*
X159638940Y-118940815D01*
X159778823Y-118998900D01*
X160006180Y-118999099D01*
X160216306Y-118912276D01*
X160377211Y-118751651D01*
X160451625Y-118572441D01*
X161274592Y-119395408D01*
X161398197Y-119477998D01*
X161544000Y-119507001D01*
X161544005Y-119507000D01*
X164164818Y-119507000D01*
X164267849Y-119610211D01*
X164477823Y-119697400D01*
X164705180Y-119697599D01*
X164915306Y-119610776D01*
X165076211Y-119450151D01*
X165163400Y-119240177D01*
X165163599Y-119012820D01*
X165157910Y-118999051D01*
X165213180Y-118999099D01*
X165423306Y-118912276D01*
X165584211Y-118751651D01*
X165671400Y-118541677D01*
X165671599Y-118314320D01*
X165584776Y-118104194D01*
X165424151Y-117943289D01*
X165214177Y-117856100D01*
X164986820Y-117855901D01*
X164776694Y-117942724D01*
X164672737Y-118046500D01*
X162336815Y-118046500D01*
X159638971Y-115348655D01*
X159639099Y-115202820D01*
X159552276Y-114992694D01*
X159391651Y-114831789D01*
X159181677Y-114744600D01*
X158954320Y-114744401D01*
X158744194Y-114831224D01*
X158686500Y-114888818D01*
X158686500Y-112966500D01*
X158657498Y-112820698D01*
X158657498Y-112820697D01*
X158574908Y-112697092D01*
X158320908Y-112443092D01*
X158197303Y-112360502D01*
X158051500Y-112331500D01*
X157967079Y-112331500D01*
X157967079Y-111848900D01*
M02*
