G04 #@! TF.FileFunction,Legend,Top*
%FSLAX46Y46*%
G04 Gerber Fmt 4.6, Leading zero omitted, Abs format (unit mm)*
G04 Created by KiCad (PCBNEW 0.201506122246+5743~23~ubuntu14.10.1-product) date Sat 13 Jun 2015 11:54:28 PM EDT*
%MOMM*%
G01*
G04 APERTURE LIST*
%ADD10C,0.100000*%
%ADD11C,0.150000*%
%ADD12R,1.000000X1.250000*%
%ADD13R,1.000000X1.600000*%
%ADD14R,1.250000X1.000000*%
%ADD15R,2.032000X2.032000*%
%ADD16O,2.032000X2.032000*%
%ADD17R,2.032000X1.727200*%
%ADD18O,2.032000X1.727200*%
%ADD19R,1.270000X0.406400*%
G04 APERTURE END LIST*
D10*
D11*
X169156000Y-115329600D02*
X168156000Y-115329600D01*
X168156000Y-117029600D02*
X169156000Y-117029600D01*
X163274500Y-116658500D02*
X165274500Y-116658500D01*
X165274500Y-114608500D02*
X163274500Y-114608500D01*
X160552500Y-121658000D02*
X160552500Y-120658000D01*
X158852500Y-120658000D02*
X158852500Y-121658000D01*
X171116500Y-119180500D02*
X169116500Y-119180500D01*
X169116500Y-121230500D02*
X171116500Y-121230500D01*
X164338000Y-111353600D02*
X166878000Y-111353600D01*
X161518000Y-111073600D02*
X163068000Y-111073600D01*
X164338000Y-111353600D02*
X164338000Y-113893600D01*
X163068000Y-114173600D02*
X161518000Y-114173600D01*
X161518000Y-114173600D02*
X161518000Y-111073600D01*
X164338000Y-113893600D02*
X166878000Y-113893600D01*
X166878000Y-113893600D02*
X166878000Y-111353600D01*
X155448000Y-113982500D02*
X155448000Y-121602500D01*
X157988000Y-113982500D02*
X157988000Y-121602500D01*
X158268000Y-111162500D02*
X158268000Y-112712500D01*
X155448000Y-121602500D02*
X157988000Y-121602500D01*
X157988000Y-113982500D02*
X155448000Y-113982500D01*
X155168000Y-112712500D02*
X155168000Y-111162500D01*
X155168000Y-111162500D02*
X158268000Y-111162500D01*
X164592000Y-125222000D02*
X167132000Y-125222000D01*
X161772000Y-124942000D02*
X163322000Y-124942000D01*
X164592000Y-125222000D02*
X164592000Y-127762000D01*
X163322000Y-128042000D02*
X161772000Y-128042000D01*
X161772000Y-128042000D02*
X161772000Y-124942000D01*
X164592000Y-127762000D02*
X167132000Y-127762000D01*
X167132000Y-127762000D02*
X167132000Y-125222000D01*
X165989000Y-124587000D02*
X165989000Y-116967000D01*
X162433000Y-116967000D02*
X162433000Y-124587000D01*
X165989000Y-124587000D02*
X162433000Y-124587000D01*
X162433000Y-116967000D02*
X165989000Y-116967000D01*
X163300210Y-117475000D02*
G75*
G03X163300210Y-117475000I-359210J0D01*
G01*
X164846000Y-116967000D02*
X164846000Y-117729000D01*
X164846000Y-117729000D02*
X163576000Y-117729000D01*
X163576000Y-117729000D02*
X163576000Y-116967000D01*
D10*
X170985667Y-116193071D02*
X170961857Y-116216881D01*
X170890429Y-116240690D01*
X170842810Y-116240690D01*
X170771381Y-116216881D01*
X170723762Y-116169262D01*
X170699953Y-116121643D01*
X170676143Y-116026405D01*
X170676143Y-115954976D01*
X170699953Y-115859738D01*
X170723762Y-115812119D01*
X170771381Y-115764500D01*
X170842810Y-115740690D01*
X170890429Y-115740690D01*
X170961857Y-115764500D01*
X170985667Y-115788310D01*
X171461857Y-116240690D02*
X171176143Y-116240690D01*
X171319000Y-116240690D02*
X171319000Y-115740690D01*
X171271381Y-115812119D01*
X171223762Y-115859738D01*
X171176143Y-115883548D01*
X161016167Y-115558071D02*
X160992357Y-115581881D01*
X160920929Y-115605690D01*
X160873310Y-115605690D01*
X160801881Y-115581881D01*
X160754262Y-115534262D01*
X160730453Y-115486643D01*
X160706643Y-115391405D01*
X160706643Y-115319976D01*
X160730453Y-115224738D01*
X160754262Y-115177119D01*
X160801881Y-115129500D01*
X160873310Y-115105690D01*
X160920929Y-115105690D01*
X160992357Y-115129500D01*
X161016167Y-115153310D01*
X161206643Y-115153310D02*
X161230453Y-115129500D01*
X161278072Y-115105690D01*
X161397119Y-115105690D01*
X161444738Y-115129500D01*
X161468548Y-115153310D01*
X161492357Y-115200929D01*
X161492357Y-115248548D01*
X161468548Y-115319976D01*
X161182834Y-115605690D01*
X161492357Y-115605690D01*
X159301667Y-118923571D02*
X159277857Y-118947381D01*
X159206429Y-118971190D01*
X159158810Y-118971190D01*
X159087381Y-118947381D01*
X159039762Y-118899762D01*
X159015953Y-118852143D01*
X158992143Y-118756905D01*
X158992143Y-118685476D01*
X159015953Y-118590238D01*
X159039762Y-118542619D01*
X159087381Y-118495000D01*
X159158810Y-118471190D01*
X159206429Y-118471190D01*
X159277857Y-118495000D01*
X159301667Y-118518810D01*
X159468334Y-118471190D02*
X159777857Y-118471190D01*
X159611191Y-118661667D01*
X159682619Y-118661667D01*
X159730238Y-118685476D01*
X159754048Y-118709286D01*
X159777857Y-118756905D01*
X159777857Y-118875952D01*
X159754048Y-118923571D01*
X159730238Y-118947381D01*
X159682619Y-118971190D01*
X159539762Y-118971190D01*
X159492143Y-118947381D01*
X159468334Y-118923571D01*
X171112667Y-118669571D02*
X171088857Y-118693381D01*
X171017429Y-118717190D01*
X170969810Y-118717190D01*
X170898381Y-118693381D01*
X170850762Y-118645762D01*
X170826953Y-118598143D01*
X170803143Y-118502905D01*
X170803143Y-118431476D01*
X170826953Y-118336238D01*
X170850762Y-118288619D01*
X170898381Y-118241000D01*
X170969810Y-118217190D01*
X171017429Y-118217190D01*
X171088857Y-118241000D01*
X171112667Y-118264810D01*
X171541238Y-118383857D02*
X171541238Y-118717190D01*
X171422191Y-118193381D02*
X171303143Y-118550524D01*
X171612667Y-118550524D01*
X167270953Y-112113190D02*
X167270953Y-111613190D01*
X167461429Y-111613190D01*
X167509048Y-111637000D01*
X167532857Y-111660810D01*
X167556667Y-111708429D01*
X167556667Y-111779857D01*
X167532857Y-111827476D01*
X167509048Y-111851286D01*
X167461429Y-111875095D01*
X167270953Y-111875095D01*
X168032857Y-112113190D02*
X167747143Y-112113190D01*
X167890000Y-112113190D02*
X167890000Y-111613190D01*
X167842381Y-111684619D01*
X167794762Y-111732238D01*
X167747143Y-111756048D01*
X159015953Y-111668690D02*
X159015953Y-111168690D01*
X159206429Y-111168690D01*
X159254048Y-111192500D01*
X159277857Y-111216310D01*
X159301667Y-111263929D01*
X159301667Y-111335357D01*
X159277857Y-111382976D01*
X159254048Y-111406786D01*
X159206429Y-111430595D01*
X159015953Y-111430595D01*
X159492143Y-111216310D02*
X159515953Y-111192500D01*
X159563572Y-111168690D01*
X159682619Y-111168690D01*
X159730238Y-111192500D01*
X159754048Y-111216310D01*
X159777857Y-111263929D01*
X159777857Y-111311548D01*
X159754048Y-111382976D01*
X159468334Y-111668690D01*
X159777857Y-111668690D01*
X160666953Y-128051690D02*
X160666953Y-127551690D01*
X160857429Y-127551690D01*
X160905048Y-127575500D01*
X160928857Y-127599310D01*
X160952667Y-127646929D01*
X160952667Y-127718357D01*
X160928857Y-127765976D01*
X160905048Y-127789786D01*
X160857429Y-127813595D01*
X160666953Y-127813595D01*
X161119334Y-127551690D02*
X161428857Y-127551690D01*
X161262191Y-127742167D01*
X161333619Y-127742167D01*
X161381238Y-127765976D01*
X161405048Y-127789786D01*
X161428857Y-127837405D01*
X161428857Y-127956452D01*
X161405048Y-128004071D01*
X161381238Y-128027881D01*
X161333619Y-128051690D01*
X161190762Y-128051690D01*
X161143143Y-128027881D01*
X161119334Y-128004071D01*
X160591548Y-116629690D02*
X160591548Y-117034452D01*
X160615357Y-117082071D01*
X160639167Y-117105881D01*
X160686786Y-117129690D01*
X160782024Y-117129690D01*
X160829643Y-117105881D01*
X160853452Y-117082071D01*
X160877262Y-117034452D01*
X160877262Y-116629690D01*
X161377262Y-117129690D02*
X161091548Y-117129690D01*
X161234405Y-117129690D02*
X161234405Y-116629690D01*
X161186786Y-116701119D01*
X161139167Y-116748738D01*
X161091548Y-116772548D01*
%LPC*%
D12*
X167656000Y-116179600D03*
X169656000Y-116179600D03*
D13*
X165774500Y-115633500D03*
X162774500Y-115633500D03*
D14*
X159702500Y-120158000D03*
X159702500Y-122158000D03*
D13*
X168616500Y-120205500D03*
X171616500Y-120205500D03*
D15*
X163068000Y-112623600D03*
D16*
X165608000Y-112623600D03*
D17*
X156718000Y-112712500D03*
D18*
X156718000Y-115252500D03*
X156718000Y-117792500D03*
X156718000Y-120332500D03*
D15*
X163322000Y-126492000D03*
D16*
X165862000Y-126492000D03*
D19*
X161544000Y-117856000D03*
X161544000Y-118491000D03*
X161544000Y-119151400D03*
X161544000Y-119811800D03*
X161544000Y-120446800D03*
X161544000Y-121107200D03*
X161544000Y-121767600D03*
X161544000Y-122402600D03*
X161544000Y-123063000D03*
X161544000Y-123698000D03*
X166878000Y-123698000D03*
X166878000Y-123063000D03*
X166878000Y-122402600D03*
X166878000Y-121767600D03*
X166878000Y-121107200D03*
X166878000Y-120446800D03*
X166878000Y-119811800D03*
X166878000Y-119151400D03*
X166878000Y-118491000D03*
X166878000Y-117856000D03*
M02*
