G04 #@! TF.FileFunction,Copper,L2,Bot,Signal*
%FSLAX46Y46*%
G04 Gerber Fmt 4.6, Leading zero omitted, Abs format (unit mm)*
G04 Created by KiCad (PCBNEW 0.201505220134+5676~23~ubuntu14.04.1-product) date Tue 23 Jun 2015 11:55:00 AM EDT*
%MOMM*%
G01*
G04 APERTURE LIST*
%ADD10C,0.100000*%
%ADD11C,0.300000*%
%ADD12C,0.600000*%
%ADD13C,0.250000*%
G04 APERTURE END LIST*
D10*
D11*
X126960285Y-101119714D02*
X127031714Y-101191143D01*
X127246000Y-101262571D01*
X127388857Y-101262571D01*
X127603142Y-101191143D01*
X127746000Y-101048286D01*
X127817428Y-100905429D01*
X127888857Y-100619714D01*
X127888857Y-100405429D01*
X127817428Y-100119714D01*
X127746000Y-99976857D01*
X127603142Y-99834000D01*
X127388857Y-99762571D01*
X127246000Y-99762571D01*
X127031714Y-99834000D01*
X126960285Y-99905429D01*
X126317428Y-100476857D02*
X125817428Y-100476857D01*
X125603142Y-101262571D02*
X126317428Y-101262571D01*
X126317428Y-99762571D01*
X125603142Y-99762571D01*
D12*
X123190000Y-86868000D03*
X130048000Y-86868000D03*
D13*
X130048000Y-86868000D02*
X130048000Y-87630000D01*
X128778000Y-88900000D02*
X130048000Y-87630000D01*
X128778000Y-90170000D02*
X128778000Y-88900000D01*
X128016000Y-90932000D02*
X128778000Y-90170000D01*
X124714000Y-90932000D02*
X128016000Y-90932000D01*
X124206000Y-90424000D02*
X124714000Y-90932000D01*
X124206000Y-88900000D02*
X124206000Y-90424000D01*
X123190000Y-87884000D02*
X124206000Y-88900000D01*
X123190000Y-87884000D02*
X123190000Y-86868000D01*
M02*
