G04 #@! TF.FileFunction,Soldermask,Top*
%FSLAX46Y46*%
G04 Gerber Fmt 4.6, Leading zero omitted, Abs format (unit mm)*
G04 Created by KiCad (PCBNEW 0.201505220134+5676~23~ubuntu14.04.1-product) date Tue 23 Jun 2015 11:55:00 AM EDT*
%MOMM*%
G01*
G04 APERTURE LIST*
%ADD10C,0.100000*%
%ADD11C,0.300000*%
G04 APERTURE END LIST*
D10*
D11*
X123996000Y-92118571D02*
X123996000Y-90618571D01*
X124496000Y-91690000D01*
X124996000Y-90618571D01*
X124996000Y-92118571D01*
X125924572Y-92118571D02*
X125781714Y-92047143D01*
X125710286Y-91975714D01*
X125638857Y-91832857D01*
X125638857Y-91404286D01*
X125710286Y-91261429D01*
X125781714Y-91190000D01*
X125924572Y-91118571D01*
X126138857Y-91118571D01*
X126281714Y-91190000D01*
X126353143Y-91261429D01*
X126424572Y-91404286D01*
X126424572Y-91832857D01*
X126353143Y-91975714D01*
X126281714Y-92047143D01*
X126138857Y-92118571D01*
X125924572Y-92118571D01*
X126853143Y-91118571D02*
X127424572Y-91118571D01*
X127067429Y-90618571D02*
X127067429Y-91904286D01*
X127138857Y-92047143D01*
X127281715Y-92118571D01*
X127424572Y-92118571D01*
X128138858Y-92118571D02*
X127996000Y-92047143D01*
X127924572Y-91975714D01*
X127853143Y-91832857D01*
X127853143Y-91404286D01*
X127924572Y-91261429D01*
X127996000Y-91190000D01*
X128138858Y-91118571D01*
X128353143Y-91118571D01*
X128496000Y-91190000D01*
X128567429Y-91261429D01*
X128638858Y-91404286D01*
X128638858Y-91832857D01*
X128567429Y-91975714D01*
X128496000Y-92047143D01*
X128353143Y-92118571D01*
X128138858Y-92118571D01*
X129281715Y-92118571D02*
X129281715Y-91118571D01*
X129281715Y-91404286D02*
X129353143Y-91261429D01*
X129424572Y-91190000D01*
X129567429Y-91118571D01*
X129710286Y-91118571D01*
M02*
